<?xml version="1.0" encoding="utf-8" standalone="no"?>
<!DOCTYPE svg PUBLIC "-//W3C//DTD SVG 1.1//EN"
  "http://www.w3.org/Graphics/SVG/1.1/DTD/svg11.dtd">
<!-- Created with matplotlib (https://matplotlib.org/) -->
<svg height="348.396376pt" version="1.1" viewBox="0 0 1047.131969 348.396376" width="1047.131969pt" xmlns="http://www.w3.org/2000/svg" xmlns:xlink="http://www.w3.org/1999/xlink">
 <defs>
  <style type="text/css">
*{stroke-linecap:butt;stroke-linejoin:round;}
  </style>
 </defs>
 <g id="figure_1">
  <g id="patch_1">
   <path d="M 0 348.396376 
L 1047.131969 348.396376 
L 1047.131969 0 
L 0 0 
z
" style="fill:#ffffff;"/>
  </g>
  <g id="axes_1">
   <g id="patch_2">
    <path d="M 49.707969 280.520532 
L 817.187969 280.520532 
L 817.187969 10.600443 
L 49.707969 10.600443 
z
" style="fill:#eaeaf2;"/>
   </g>
   <g id="matplotlib.axis_1">
    <g id="xtick_1">
     <g id="line2d_1">
      <path clip-path="url(#p38bbe6dc5d)" d="M 49.707969 280.520532 
L 49.707969 10.600443 
" style="fill:none;stroke:#ffffff;stroke-linecap:round;"/>
     </g>
     <g id="text_1">
      <!-- 08 -->
      <defs>
       <path d="M 4.15625 35.296875 
Q 4.15625 48 6.765625 55.734375 
Q 9.375 63.484375 14.515625 67.671875 
Q 19.671875 71.875 27.484375 71.875 
Q 33.25 71.875 37.59375 69.546875 
Q 41.9375 67.234375 44.765625 62.859375 
Q 47.609375 58.5 49.21875 52.21875 
Q 50.828125 45.953125 50.828125 35.296875 
Q 50.828125 22.703125 48.234375 14.96875 
Q 45.65625 7.234375 40.5 3 
Q 35.359375 -1.21875 27.484375 -1.21875 
Q 17.140625 -1.21875 11.234375 6.203125 
Q 4.15625 15.140625 4.15625 35.296875 
z
M 13.1875 35.296875 
Q 13.1875 17.671875 17.3125 11.828125 
Q 21.4375 6 27.484375 6 
Q 33.546875 6 37.671875 11.859375 
Q 41.796875 17.71875 41.796875 35.296875 
Q 41.796875 52.984375 37.671875 58.78125 
Q 33.546875 64.59375 27.390625 64.59375 
Q 21.34375 64.59375 17.71875 59.46875 
Q 13.1875 52.9375 13.1875 35.296875 
z
" id="ArialMT-48"/>
       <path d="M 17.671875 38.8125 
Q 12.203125 40.828125 9.5625 44.53125 
Q 6.9375 48.25 6.9375 53.421875 
Q 6.9375 61.234375 12.546875 66.546875 
Q 18.171875 71.875 27.484375 71.875 
Q 36.859375 71.875 42.578125 66.421875 
Q 48.296875 60.984375 48.296875 53.171875 
Q 48.296875 48.1875 45.671875 44.5 
Q 43.0625 40.828125 37.75 38.8125 
Q 44.34375 36.671875 47.78125 31.875 
Q 51.21875 27.09375 51.21875 20.453125 
Q 51.21875 11.28125 44.71875 5.03125 
Q 38.234375 -1.21875 27.640625 -1.21875 
Q 17.046875 -1.21875 10.546875 5.046875 
Q 4.046875 11.328125 4.046875 20.703125 
Q 4.046875 27.6875 7.59375 32.390625 
Q 11.140625 37.109375 17.671875 38.8125 
z
M 15.921875 53.71875 
Q 15.921875 48.640625 19.1875 45.40625 
Q 22.46875 42.1875 27.6875 42.1875 
Q 32.765625 42.1875 36.015625 45.375 
Q 39.265625 48.578125 39.265625 53.21875 
Q 39.265625 58.0625 35.90625 61.359375 
Q 32.5625 64.65625 27.59375 64.65625 
Q 22.5625 64.65625 19.234375 61.421875 
Q 15.921875 58.203125 15.921875 53.71875 
z
M 13.09375 20.65625 
Q 13.09375 16.890625 14.875 13.375 
Q 16.65625 9.859375 20.171875 7.921875 
Q 23.6875 6 27.734375 6 
Q 34.03125 6 38.125 10.046875 
Q 42.234375 14.109375 42.234375 20.359375 
Q 42.234375 26.703125 38.015625 30.859375 
Q 33.796875 35.015625 27.4375 35.015625 
Q 21.234375 35.015625 17.15625 30.90625 
Q 13.09375 26.8125 13.09375 20.65625 
z
" id="ArialMT-56"/>
      </defs>
      <g style="fill:#262626;" transform="translate(43.590938 297.894126)scale(0.11 -0.11)">
       <use xlink:href="#ArialMT-48"/>
       <use x="55.615234" xlink:href="#ArialMT-56"/>
      </g>
     </g>
    </g>
    <g id="xtick_2">
     <g id="line2d_2">
      <path clip-path="url(#p38bbe6dc5d)" d="M 755.789569 280.520532 
L 755.789569 10.600443 
" style="fill:none;stroke:#ffffff;stroke-linecap:round;"/>
     </g>
     <g id="text_2">
      <!-- 01 -->
      <defs>
       <path d="M 37.25 0 
L 28.46875 0 
L 28.46875 56 
Q 25.296875 52.984375 20.140625 49.953125 
Q 14.984375 46.921875 10.890625 45.40625 
L 10.890625 53.90625 
Q 18.265625 57.375 23.78125 62.296875 
Q 29.296875 67.234375 31.59375 71.875 
L 37.25 71.875 
z
" id="ArialMT-49"/>
      </defs>
      <g style="fill:#262626;" transform="translate(749.672538 297.894126)scale(0.11 -0.11)">
       <use xlink:href="#ArialMT-48"/>
       <use x="55.615234" xlink:href="#ArialMT-49"/>
      </g>
      <!-- May -->
      <defs>
       <path d="M 7.421875 0 
L 7.421875 71.578125 
L 21.6875 71.578125 
L 38.625 20.90625 
Q 40.96875 13.8125 42.046875 10.296875 
Q 43.265625 14.203125 45.84375 21.78125 
L 62.984375 71.578125 
L 75.734375 71.578125 
L 75.734375 0 
L 66.609375 0 
L 66.609375 59.90625 
L 45.796875 0 
L 37.25 0 
L 16.546875 60.9375 
L 16.546875 0 
z
" id="ArialMT-77"/>
       <path d="M 40.4375 6.390625 
Q 35.546875 2.25 31.03125 0.53125 
Q 26.515625 -1.171875 21.34375 -1.171875 
Q 12.796875 -1.171875 8.203125 3 
Q 3.609375 7.171875 3.609375 13.671875 
Q 3.609375 17.484375 5.34375 20.625 
Q 7.078125 23.78125 9.890625 25.6875 
Q 12.703125 27.59375 16.21875 28.5625 
Q 18.796875 29.25 24.03125 29.890625 
Q 34.671875 31.15625 39.703125 32.90625 
Q 39.75 34.71875 39.75 35.203125 
Q 39.75 40.578125 37.25 42.78125 
Q 33.890625 45.75 27.25 45.75 
Q 21.046875 45.75 18.09375 43.578125 
Q 15.140625 41.40625 13.71875 35.890625 
L 5.125 37.0625 
Q 6.296875 42.578125 8.984375 45.96875 
Q 11.671875 49.359375 16.75 51.1875 
Q 21.828125 53.03125 28.515625 53.03125 
Q 35.15625 53.03125 39.296875 51.46875 
Q 43.453125 49.90625 45.40625 47.53125 
Q 47.359375 45.171875 48.140625 41.546875 
Q 48.578125 39.3125 48.578125 33.453125 
L 48.578125 21.734375 
Q 48.578125 9.46875 49.140625 6.21875 
Q 49.703125 2.984375 51.375 0 
L 42.1875 0 
Q 40.828125 2.734375 40.4375 6.390625 
z
M 39.703125 26.03125 
Q 34.90625 24.078125 25.34375 22.703125 
Q 19.921875 21.921875 17.671875 20.9375 
Q 15.4375 19.96875 14.203125 18.09375 
Q 12.984375 16.21875 12.984375 13.921875 
Q 12.984375 10.40625 15.640625 8.0625 
Q 18.3125 5.71875 23.4375 5.71875 
Q 28.515625 5.71875 32.46875 7.9375 
Q 36.421875 10.15625 38.28125 14.015625 
Q 39.703125 17 39.703125 22.796875 
z
" id="ArialMT-97"/>
       <path d="M 6.203125 -19.96875 
L 5.21875 -11.71875 
Q 8.109375 -12.5 10.25 -12.5 
Q 13.1875 -12.5 14.9375 -11.515625 
Q 16.703125 -10.546875 17.828125 -8.796875 
Q 18.65625 -7.46875 20.515625 -2.25 
Q 20.75 -1.515625 21.296875 -0.09375 
L 1.609375 51.859375 
L 11.078125 51.859375 
L 21.875 21.828125 
Q 23.96875 16.109375 25.640625 9.8125 
Q 27.15625 15.875 29.25 21.625 
L 40.328125 51.859375 
L 49.125 51.859375 
L 29.390625 -0.875 
Q 26.21875 -9.421875 24.46875 -12.640625 
Q 22.125 -17 19.09375 -19.015625 
Q 16.0625 -21.046875 11.859375 -21.046875 
Q 9.328125 -21.046875 6.203125 -19.96875 
z
" id="ArialMT-121"/>
      </defs>
      <g style="fill:#262626;" transform="translate(745.399725 309.528689)scale(0.11 -0.11)">
       <use xlink:href="#ArialMT-77"/>
       <use x="83.300781" xlink:href="#ArialMT-97"/>
       <use x="138.916016" xlink:href="#ArialMT-121"/>
      </g>
      <!-- 2020 -->
      <defs>
       <path d="M 50.34375 8.453125 
L 50.34375 0 
L 3.03125 0 
Q 2.9375 3.171875 4.046875 6.109375 
Q 5.859375 10.9375 9.828125 15.625 
Q 13.8125 20.3125 21.34375 26.46875 
Q 33.015625 36.03125 37.109375 41.625 
Q 41.21875 47.21875 41.21875 52.203125 
Q 41.21875 57.421875 37.46875 61 
Q 33.734375 64.59375 27.734375 64.59375 
Q 21.390625 64.59375 17.578125 60.78125 
Q 13.765625 56.984375 13.71875 50.25 
L 4.6875 51.171875 
Q 5.609375 61.28125 11.65625 66.578125 
Q 17.71875 71.875 27.9375 71.875 
Q 38.234375 71.875 44.234375 66.15625 
Q 50.25 60.453125 50.25 52 
Q 50.25 47.703125 48.484375 43.546875 
Q 46.734375 39.40625 42.65625 34.8125 
Q 38.578125 30.21875 29.109375 22.21875 
Q 21.1875 15.578125 18.9375 13.203125 
Q 16.703125 10.84375 15.234375 8.453125 
z
" id="ArialMT-50"/>
      </defs>
      <g style="fill:#262626;" transform="translate(743.555506 321.292157)scale(0.11 -0.11)">
       <use xlink:href="#ArialMT-50"/>
       <use x="55.615234" xlink:href="#ArialMT-48"/>
       <use x="111.230469" xlink:href="#ArialMT-50"/>
       <use x="166.845703" xlink:href="#ArialMT-48"/>
      </g>
     </g>
    </g>
    <g id="xtick_3">
     <g id="line2d_3">
      <path clip-path="url(#p38bbe6dc5d)" d="M 817.187969 280.520532 
L 817.187969 10.600443 
" style="fill:none;stroke:#ffffff;stroke-linecap:round;"/>
     </g>
     <g id="text_3">
      <!-- 03 -->
      <defs>
       <path d="M 4.203125 18.890625 
L 12.984375 20.0625 
Q 14.5 12.59375 18.140625 9.296875 
Q 21.78125 6 27 6 
Q 33.203125 6 37.46875 10.296875 
Q 41.75 14.59375 41.75 20.953125 
Q 41.75 27 37.796875 30.921875 
Q 33.84375 34.859375 27.734375 34.859375 
Q 25.25 34.859375 21.53125 33.890625 
L 22.515625 41.609375 
Q 23.390625 41.5 23.921875 41.5 
Q 29.546875 41.5 34.03125 44.421875 
Q 38.53125 47.359375 38.53125 53.46875 
Q 38.53125 58.296875 35.25 61.46875 
Q 31.984375 64.65625 26.8125 64.65625 
Q 21.6875 64.65625 18.265625 61.421875 
Q 14.84375 58.203125 13.875 51.765625 
L 5.078125 53.328125 
Q 6.6875 62.15625 12.390625 67.015625 
Q 18.109375 71.875 26.609375 71.875 
Q 32.46875 71.875 37.390625 69.359375 
Q 42.328125 66.84375 44.9375 62.5 
Q 47.5625 58.15625 47.5625 53.265625 
Q 47.5625 48.640625 45.0625 44.828125 
Q 42.578125 41.015625 37.703125 38.765625 
Q 44.046875 37.3125 47.5625 32.6875 
Q 51.078125 28.078125 51.078125 21.140625 
Q 51.078125 11.765625 44.234375 5.25 
Q 37.40625 -1.265625 26.953125 -1.265625 
Q 17.53125 -1.265625 11.296875 4.34375 
Q 5.078125 9.96875 4.203125 18.890625 
z
" id="ArialMT-51"/>
      </defs>
      <g style="fill:#262626;" transform="translate(811.070938 297.894126)scale(0.11 -0.11)">
       <use xlink:href="#ArialMT-48"/>
       <use x="55.615234" xlink:href="#ArialMT-51"/>
      </g>
     </g>
    </g>
    <g id="xtick_4">
     <g id="text_4">
      <!-- 09 -->
      <defs>
       <path d="M 5.46875 16.546875 
L 13.921875 17.328125 
Q 14.984375 11.375 18.015625 8.6875 
Q 21.046875 6 25.78125 6 
Q 29.828125 6 32.875 7.859375 
Q 35.9375 9.71875 37.890625 12.8125 
Q 39.84375 15.921875 41.15625 21.1875 
Q 42.484375 26.46875 42.484375 31.9375 
Q 42.484375 32.515625 42.4375 33.6875 
Q 39.796875 29.5 35.234375 26.875 
Q 30.671875 24.265625 25.34375 24.265625 
Q 16.453125 24.265625 10.296875 30.703125 
Q 4.15625 37.15625 4.15625 47.703125 
Q 4.15625 58.59375 10.578125 65.234375 
Q 17 71.875 26.65625 71.875 
Q 33.640625 71.875 39.421875 68.109375 
Q 45.21875 64.359375 48.21875 57.390625 
Q 51.21875 50.4375 51.21875 37.25 
Q 51.21875 23.53125 48.234375 15.40625 
Q 45.265625 7.28125 39.375 3.03125 
Q 33.5 -1.21875 25.59375 -1.21875 
Q 17.1875 -1.21875 11.859375 3.4375 
Q 6.546875 8.109375 5.46875 16.546875 
z
M 41.453125 48.140625 
Q 41.453125 55.71875 37.421875 60.15625 
Q 33.40625 64.59375 27.734375 64.59375 
Q 21.875 64.59375 17.53125 59.8125 
Q 13.1875 55.03125 13.1875 47.40625 
Q 13.1875 40.578125 17.3125 36.296875 
Q 21.4375 32.03125 27.484375 32.03125 
Q 33.59375 32.03125 37.515625 36.296875 
Q 41.453125 40.578125 41.453125 48.140625 
z
" id="ArialMT-57"/>
      </defs>
      <g style="fill:#262626;" transform="translate(74.290138 295.794126)scale(0.11 -0.11)">
       <use xlink:href="#ArialMT-48"/>
       <use x="55.615234" xlink:href="#ArialMT-57"/>
      </g>
     </g>
    </g>
    <g id="xtick_5">
     <g id="text_5">
      <!-- 10 -->
      <g style="fill:#262626;" transform="translate(104.989338 295.794126)scale(0.11 -0.11)">
       <use xlink:href="#ArialMT-49"/>
       <use x="55.615234" xlink:href="#ArialMT-48"/>
      </g>
     </g>
    </g>
    <g id="xtick_6">
     <g id="text_6">
      <!-- 11 -->
      <g style="fill:#262626;" transform="translate(135.694553 295.794126)scale(0.11 -0.11)">
       <use xlink:href="#ArialMT-49"/>
       <use x="55.505859" xlink:href="#ArialMT-49"/>
      </g>
     </g>
    </g>
    <g id="xtick_7">
     <g id="text_7">
      <!-- 12 -->
      <g style="fill:#262626;" transform="translate(166.387738 295.794126)scale(0.11 -0.11)">
       <use xlink:href="#ArialMT-49"/>
       <use x="55.615234" xlink:href="#ArialMT-50"/>
      </g>
     </g>
    </g>
    <g id="xtick_8">
     <g id="text_8">
      <!-- 13 -->
      <g style="fill:#262626;" transform="translate(197.086938 295.794126)scale(0.11 -0.11)">
       <use xlink:href="#ArialMT-49"/>
       <use x="55.615234" xlink:href="#ArialMT-51"/>
      </g>
     </g>
    </g>
    <g id="xtick_9">
     <g id="text_9">
      <!-- 14 -->
      <defs>
       <path d="M 32.328125 0 
L 32.328125 17.140625 
L 1.265625 17.140625 
L 1.265625 25.203125 
L 33.9375 71.578125 
L 41.109375 71.578125 
L 41.109375 25.203125 
L 50.78125 25.203125 
L 50.78125 17.140625 
L 41.109375 17.140625 
L 41.109375 0 
z
M 32.328125 25.203125 
L 32.328125 57.46875 
L 9.90625 25.203125 
z
" id="ArialMT-52"/>
      </defs>
      <g style="fill:#262626;" transform="translate(227.786138 295.794126)scale(0.11 -0.11)">
       <use xlink:href="#ArialMT-49"/>
       <use x="55.615234" xlink:href="#ArialMT-52"/>
      </g>
     </g>
    </g>
    <g id="xtick_10">
     <g id="text_10">
      <!-- 15 -->
      <defs>
       <path d="M 4.15625 18.75 
L 13.375 19.53125 
Q 14.40625 12.796875 18.140625 9.390625 
Q 21.875 6 27.15625 6 
Q 33.5 6 37.890625 10.78125 
Q 42.28125 15.578125 42.28125 23.484375 
Q 42.28125 31 38.0625 35.34375 
Q 33.84375 39.703125 27 39.703125 
Q 22.75 39.703125 19.328125 37.765625 
Q 15.921875 35.84375 13.96875 32.765625 
L 5.71875 33.84375 
L 12.640625 70.609375 
L 48.25 70.609375 
L 48.25 62.203125 
L 19.671875 62.203125 
L 15.828125 42.96875 
Q 22.265625 47.46875 29.34375 47.46875 
Q 38.71875 47.46875 45.15625 40.96875 
Q 51.609375 34.46875 51.609375 24.265625 
Q 51.609375 14.546875 45.953125 7.46875 
Q 39.0625 -1.21875 27.15625 -1.21875 
Q 17.390625 -1.21875 11.203125 4.25 
Q 5.03125 9.71875 4.15625 18.75 
z
" id="ArialMT-53"/>
      </defs>
      <g style="fill:#262626;" transform="translate(258.485338 295.794126)scale(0.11 -0.11)">
       <use xlink:href="#ArialMT-49"/>
       <use x="55.615234" xlink:href="#ArialMT-53"/>
      </g>
     </g>
    </g>
    <g id="xtick_11">
     <g id="text_11">
      <!-- 16 -->
      <defs>
       <path d="M 49.75 54.046875 
L 41.015625 53.375 
Q 39.84375 58.546875 37.703125 60.890625 
Q 34.125 64.65625 28.90625 64.65625 
Q 24.703125 64.65625 21.53125 62.3125 
Q 17.390625 59.28125 14.984375 53.46875 
Q 12.59375 47.65625 12.5 36.921875 
Q 15.671875 41.75 20.265625 44.09375 
Q 24.859375 46.4375 29.890625 46.4375 
Q 38.671875 46.4375 44.84375 39.96875 
Q 51.03125 33.5 51.03125 23.25 
Q 51.03125 16.5 48.125 10.71875 
Q 45.21875 4.9375 40.140625 1.859375 
Q 35.0625 -1.21875 28.609375 -1.21875 
Q 17.625 -1.21875 10.6875 6.859375 
Q 3.765625 14.9375 3.765625 33.5 
Q 3.765625 54.25 11.421875 63.671875 
Q 18.109375 71.875 29.4375 71.875 
Q 37.890625 71.875 43.28125 67.140625 
Q 48.6875 62.40625 49.75 54.046875 
z
M 13.875 23.1875 
Q 13.875 18.65625 15.796875 14.5 
Q 17.71875 10.359375 21.1875 8.171875 
Q 24.65625 6 28.46875 6 
Q 34.03125 6 38.03125 10.484375 
Q 42.046875 14.984375 42.046875 22.703125 
Q 42.046875 30.125 38.078125 34.390625 
Q 34.125 38.671875 28.125 38.671875 
Q 22.171875 38.671875 18.015625 34.390625 
Q 13.875 30.125 13.875 23.1875 
z
" id="ArialMT-54"/>
      </defs>
      <g style="fill:#262626;" transform="translate(289.184538 295.794126)scale(0.11 -0.11)">
       <use xlink:href="#ArialMT-49"/>
       <use x="55.615234" xlink:href="#ArialMT-54"/>
      </g>
     </g>
    </g>
    <g id="xtick_12">
     <g id="text_12">
      <!-- 17 -->
      <defs>
       <path d="M 4.734375 62.203125 
L 4.734375 70.65625 
L 51.078125 70.65625 
L 51.078125 63.8125 
Q 44.234375 56.546875 37.515625 44.484375 
Q 30.8125 32.421875 27.15625 19.671875 
Q 24.515625 10.6875 23.78125 0 
L 14.75 0 
Q 14.890625 8.453125 18.0625 20.40625 
Q 21.234375 32.375 27.171875 43.484375 
Q 33.109375 54.59375 39.796875 62.203125 
z
" id="ArialMT-55"/>
      </defs>
      <g style="fill:#262626;" transform="translate(319.883738 295.794126)scale(0.11 -0.11)">
       <use xlink:href="#ArialMT-49"/>
       <use x="55.615234" xlink:href="#ArialMT-55"/>
      </g>
     </g>
    </g>
    <g id="xtick_13">
     <g id="text_13">
      <!-- 18 -->
      <g style="fill:#262626;" transform="translate(350.582938 295.794126)scale(0.11 -0.11)">
       <use xlink:href="#ArialMT-49"/>
       <use x="55.615234" xlink:href="#ArialMT-56"/>
      </g>
     </g>
    </g>
    <g id="xtick_14">
     <g id="text_14">
      <!-- 19 -->
      <g style="fill:#262626;" transform="translate(381.282138 295.794126)scale(0.11 -0.11)">
       <use xlink:href="#ArialMT-49"/>
       <use x="55.615234" xlink:href="#ArialMT-57"/>
      </g>
     </g>
    </g>
    <g id="xtick_15">
     <g id="text_15">
      <!-- 20 -->
      <g style="fill:#262626;" transform="translate(411.981338 295.794126)scale(0.11 -0.11)">
       <use xlink:href="#ArialMT-50"/>
       <use x="55.615234" xlink:href="#ArialMT-48"/>
      </g>
     </g>
    </g>
    <g id="xtick_16">
     <g id="text_16">
      <!-- 21 -->
      <g style="fill:#262626;" transform="translate(442.680538 295.794126)scale(0.11 -0.11)">
       <use xlink:href="#ArialMT-50"/>
       <use x="55.615234" xlink:href="#ArialMT-49"/>
      </g>
     </g>
    </g>
    <g id="xtick_17">
     <g id="text_17">
      <!-- 22 -->
      <g style="fill:#262626;" transform="translate(473.379738 295.794126)scale(0.11 -0.11)">
       <use xlink:href="#ArialMT-50"/>
       <use x="55.615234" xlink:href="#ArialMT-50"/>
      </g>
     </g>
    </g>
    <g id="xtick_18">
     <g id="text_18">
      <!-- 23 -->
      <g style="fill:#262626;" transform="translate(504.078938 295.794126)scale(0.11 -0.11)">
       <use xlink:href="#ArialMT-50"/>
       <use x="55.615234" xlink:href="#ArialMT-51"/>
      </g>
     </g>
    </g>
    <g id="xtick_19">
     <g id="text_19">
      <!-- 24 -->
      <g style="fill:#262626;" transform="translate(534.778138 295.794126)scale(0.11 -0.11)">
       <use xlink:href="#ArialMT-50"/>
       <use x="55.615234" xlink:href="#ArialMT-52"/>
      </g>
     </g>
    </g>
    <g id="xtick_20">
     <g id="text_20">
      <!-- 25 -->
      <g style="fill:#262626;" transform="translate(565.477338 295.794126)scale(0.11 -0.11)">
       <use xlink:href="#ArialMT-50"/>
       <use x="55.615234" xlink:href="#ArialMT-53"/>
      </g>
     </g>
    </g>
    <g id="xtick_21">
     <g id="text_21">
      <!-- 26 -->
      <g style="fill:#262626;" transform="translate(596.176538 295.794126)scale(0.11 -0.11)">
       <use xlink:href="#ArialMT-50"/>
       <use x="55.615234" xlink:href="#ArialMT-54"/>
      </g>
     </g>
    </g>
    <g id="xtick_22">
     <g id="text_22">
      <!-- 27 -->
      <g style="fill:#262626;" transform="translate(626.875738 295.794126)scale(0.11 -0.11)">
       <use xlink:href="#ArialMT-50"/>
       <use x="55.615234" xlink:href="#ArialMT-55"/>
      </g>
     </g>
    </g>
    <g id="xtick_23">
     <g id="text_23">
      <!-- 28 -->
      <g style="fill:#262626;" transform="translate(657.574938 295.794126)scale(0.11 -0.11)">
       <use xlink:href="#ArialMT-50"/>
       <use x="55.615234" xlink:href="#ArialMT-56"/>
      </g>
     </g>
    </g>
    <g id="xtick_24">
     <g id="text_24">
      <!-- 29 -->
      <g style="fill:#262626;" transform="translate(688.274138 295.794126)scale(0.11 -0.11)">
       <use xlink:href="#ArialMT-50"/>
       <use x="55.615234" xlink:href="#ArialMT-57"/>
      </g>
     </g>
    </g>
    <g id="xtick_25">
     <g id="text_25">
      <!-- 30 -->
      <g style="fill:#262626;" transform="translate(718.973338 295.794126)scale(0.11 -0.11)">
       <use xlink:href="#ArialMT-51"/>
       <use x="55.615234" xlink:href="#ArialMT-48"/>
      </g>
     </g>
    </g>
    <g id="xtick_26">
     <g id="text_26">
      <!-- 02 -->
      <g style="fill:#262626;" transform="translate(780.371738 295.794126)scale(0.11 -0.11)">
       <use xlink:href="#ArialMT-48"/>
       <use x="55.615234" xlink:href="#ArialMT-50"/>
      </g>
     </g>
    </g>
    <g id="text_27">
     <!-- Dato -->
     <defs>
      <path d="M 7.71875 0 
L 7.71875 71.578125 
L 32.375 71.578125 
Q 40.71875 71.578125 45.125 70.5625 
Q 51.265625 69.140625 55.609375 65.4375 
Q 61.28125 60.640625 64.078125 53.1875 
Q 66.890625 45.75 66.890625 36.1875 
Q 66.890625 28.03125 64.984375 21.734375 
Q 63.09375 15.4375 60.109375 11.296875 
Q 57.125 7.171875 53.578125 4.796875 
Q 50.046875 2.4375 45.046875 1.21875 
Q 40.046875 0 33.546875 0 
z
M 17.1875 8.453125 
L 32.46875 8.453125 
Q 39.546875 8.453125 43.578125 9.765625 
Q 47.609375 11.078125 50 13.484375 
Q 53.375 16.84375 55.25 22.53125 
Q 57.125 28.21875 57.125 36.328125 
Q 57.125 47.5625 53.4375 53.59375 
Q 49.75 59.625 44.484375 61.671875 
Q 40.671875 63.140625 32.234375 63.140625 
L 17.1875 63.140625 
z
" id="ArialMT-68"/>
      <path d="M 25.78125 7.859375 
L 27.046875 0.09375 
Q 23.34375 -0.6875 20.40625 -0.6875 
Q 15.625 -0.6875 12.984375 0.828125 
Q 10.359375 2.34375 9.28125 4.8125 
Q 8.203125 7.28125 8.203125 15.1875 
L 8.203125 45.015625 
L 1.765625 45.015625 
L 1.765625 51.859375 
L 8.203125 51.859375 
L 8.203125 64.703125 
L 16.9375 69.96875 
L 16.9375 51.859375 
L 25.78125 51.859375 
L 25.78125 45.015625 
L 16.9375 45.015625 
L 16.9375 14.703125 
Q 16.9375 10.9375 17.40625 9.859375 
Q 17.875 8.796875 18.921875 8.15625 
Q 19.96875 7.515625 21.921875 7.515625 
Q 23.390625 7.515625 25.78125 7.859375 
z
" id="ArialMT-116"/>
      <path d="M 3.328125 25.921875 
Q 3.328125 40.328125 11.328125 47.265625 
Q 18.015625 53.03125 27.640625 53.03125 
Q 38.328125 53.03125 45.109375 46.015625 
Q 51.90625 39.015625 51.90625 26.65625 
Q 51.90625 16.65625 48.90625 10.90625 
Q 45.90625 5.171875 40.15625 2 
Q 34.421875 -1.171875 27.640625 -1.171875 
Q 16.75 -1.171875 10.03125 5.8125 
Q 3.328125 12.796875 3.328125 25.921875 
z
M 12.359375 25.921875 
Q 12.359375 15.96875 16.703125 11.015625 
Q 21.046875 6.0625 27.640625 6.0625 
Q 34.1875 6.0625 38.53125 11.03125 
Q 42.875 16.015625 42.875 26.21875 
Q 42.875 35.84375 38.5 40.796875 
Q 34.125 45.75 27.640625 45.75 
Q 21.046875 45.75 16.703125 40.8125 
Q 12.359375 35.890625 12.359375 25.921875 
z
" id="ArialMT-111"/>
     </defs>
     <g style="fill:#262626;" transform="translate(417.606562 338.215126)scale(0.15 -0.15)">
      <use xlink:href="#ArialMT-68"/>
      <use x="72.216797" xlink:href="#ArialMT-97"/>
      <use x="127.832031" xlink:href="#ArialMT-116"/>
      <use x="155.615234" xlink:href="#ArialMT-111"/>
     </g>
    </g>
   </g>
   <g id="matplotlib.axis_2">
    <g id="ytick_1">
     <g id="line2d_4">
      <path clip-path="url(#p38bbe6dc5d)" d="M 49.707969 255.177812 
L 817.187969 255.177812 
" style="fill:none;stroke:#ffffff;stroke-linecap:round;"/>
     </g>
     <g id="line2d_5">
      <defs>
       <path d="M 0 0 
L -6 0 
" id="m230a7227a8" style="stroke:#262626;stroke-width:1.25;"/>
      </defs>
      <g>
       <use style="fill:#262626;stroke:#262626;stroke-width:1.25;" x="49.707969" xlink:href="#m230a7227a8" y="255.177812"/>
      </g>
     </g>
     <g id="text_28">
      <!-- 2.5 -->
      <defs>
       <path d="M 9.078125 0 
L 9.078125 10.015625 
L 19.09375 10.015625 
L 19.09375 0 
z
" id="ArialMT-46"/>
      </defs>
      <g style="fill:#262626;" transform="translate(24.917969 259.114609)scale(0.11 -0.11)">
       <use xlink:href="#ArialMT-50"/>
       <use x="55.615234" xlink:href="#ArialMT-46"/>
       <use x="83.398438" xlink:href="#ArialMT-53"/>
      </g>
     </g>
    </g>
    <g id="ytick_2">
     <g id="line2d_6">
      <path clip-path="url(#p38bbe6dc5d)" d="M 49.707969 224.672685 
L 817.187969 224.672685 
" style="fill:none;stroke:#ffffff;stroke-linecap:round;"/>
     </g>
     <g id="line2d_7">
      <g>
       <use style="fill:#262626;stroke:#262626;stroke-width:1.25;" x="49.707969" xlink:href="#m230a7227a8" y="224.672685"/>
      </g>
     </g>
     <g id="text_29">
      <!-- 3.0 -->
      <g style="fill:#262626;" transform="translate(24.917969 228.609482)scale(0.11 -0.11)">
       <use xlink:href="#ArialMT-51"/>
       <use x="55.615234" xlink:href="#ArialMT-46"/>
       <use x="83.398438" xlink:href="#ArialMT-48"/>
      </g>
     </g>
    </g>
    <g id="ytick_3">
     <g id="line2d_8">
      <path clip-path="url(#p38bbe6dc5d)" d="M 49.707969 194.167558 
L 817.187969 194.167558 
" style="fill:none;stroke:#ffffff;stroke-linecap:round;"/>
     </g>
     <g id="line2d_9">
      <g>
       <use style="fill:#262626;stroke:#262626;stroke-width:1.25;" x="49.707969" xlink:href="#m230a7227a8" y="194.167558"/>
      </g>
     </g>
     <g id="text_30">
      <!-- 3.5 -->
      <g style="fill:#262626;" transform="translate(24.917969 198.104355)scale(0.11 -0.11)">
       <use xlink:href="#ArialMT-51"/>
       <use x="55.615234" xlink:href="#ArialMT-46"/>
       <use x="83.398438" xlink:href="#ArialMT-53"/>
      </g>
     </g>
    </g>
    <g id="ytick_4">
     <g id="line2d_10">
      <path clip-path="url(#p38bbe6dc5d)" d="M 49.707969 163.662431 
L 817.187969 163.662431 
" style="fill:none;stroke:#ffffff;stroke-linecap:round;"/>
     </g>
     <g id="line2d_11">
      <g>
       <use style="fill:#262626;stroke:#262626;stroke-width:1.25;" x="49.707969" xlink:href="#m230a7227a8" y="163.662431"/>
      </g>
     </g>
     <g id="text_31">
      <!-- 4.0 -->
      <g style="fill:#262626;" transform="translate(24.917969 167.599228)scale(0.11 -0.11)">
       <use xlink:href="#ArialMT-52"/>
       <use x="55.615234" xlink:href="#ArialMT-46"/>
       <use x="83.398438" xlink:href="#ArialMT-48"/>
      </g>
     </g>
    </g>
    <g id="ytick_5">
     <g id="line2d_12">
      <path clip-path="url(#p38bbe6dc5d)" d="M 49.707969 133.157304 
L 817.187969 133.157304 
" style="fill:none;stroke:#ffffff;stroke-linecap:round;"/>
     </g>
     <g id="line2d_13">
      <g>
       <use style="fill:#262626;stroke:#262626;stroke-width:1.25;" x="49.707969" xlink:href="#m230a7227a8" y="133.157304"/>
      </g>
     </g>
     <g id="text_32">
      <!-- 4.5 -->
      <g style="fill:#262626;" transform="translate(24.917969 137.094101)scale(0.11 -0.11)">
       <use xlink:href="#ArialMT-52"/>
       <use x="55.615234" xlink:href="#ArialMT-46"/>
       <use x="83.398438" xlink:href="#ArialMT-53"/>
      </g>
     </g>
    </g>
    <g id="ytick_6">
     <g id="line2d_14">
      <path clip-path="url(#p38bbe6dc5d)" d="M 49.707969 102.652177 
L 817.187969 102.652177 
" style="fill:none;stroke:#ffffff;stroke-linecap:round;"/>
     </g>
     <g id="line2d_15">
      <g>
       <use style="fill:#262626;stroke:#262626;stroke-width:1.25;" x="49.707969" xlink:href="#m230a7227a8" y="102.652177"/>
      </g>
     </g>
     <g id="text_33">
      <!-- 5.0 -->
      <g style="fill:#262626;" transform="translate(24.917969 106.588974)scale(0.11 -0.11)">
       <use xlink:href="#ArialMT-53"/>
       <use x="55.615234" xlink:href="#ArialMT-46"/>
       <use x="83.398438" xlink:href="#ArialMT-48"/>
      </g>
     </g>
    </g>
    <g id="ytick_7">
     <g id="line2d_16">
      <path clip-path="url(#p38bbe6dc5d)" d="M 49.707969 72.147051 
L 817.187969 72.147051 
" style="fill:none;stroke:#ffffff;stroke-linecap:round;"/>
     </g>
     <g id="line2d_17">
      <g>
       <use style="fill:#262626;stroke:#262626;stroke-width:1.25;" x="49.707969" xlink:href="#m230a7227a8" y="72.147051"/>
      </g>
     </g>
     <g id="text_34">
      <!-- 5.5 -->
      <g style="fill:#262626;" transform="translate(24.917969 76.083847)scale(0.11 -0.11)">
       <use xlink:href="#ArialMT-53"/>
       <use x="55.615234" xlink:href="#ArialMT-46"/>
       <use x="83.398438" xlink:href="#ArialMT-53"/>
      </g>
     </g>
    </g>
    <g id="ytick_8">
     <g id="line2d_18">
      <path clip-path="url(#p38bbe6dc5d)" d="M 49.707969 41.641924 
L 817.187969 41.641924 
" style="fill:none;stroke:#ffffff;stroke-linecap:round;"/>
     </g>
     <g id="line2d_19">
      <g>
       <use style="fill:#262626;stroke:#262626;stroke-width:1.25;" x="49.707969" xlink:href="#m230a7227a8" y="41.641924"/>
      </g>
     </g>
     <g id="text_35">
      <!-- 6.0 -->
      <g style="fill:#262626;" transform="translate(24.917969 45.578721)scale(0.11 -0.11)">
       <use xlink:href="#ArialMT-54"/>
       <use x="55.615234" xlink:href="#ArialMT-46"/>
       <use x="83.398438" xlink:href="#ArialMT-48"/>
      </g>
     </g>
    </g>
    <g id="ytick_9">
     <g id="line2d_20">
      <path clip-path="url(#p38bbe6dc5d)" d="M 49.707969 11.136797 
L 817.187969 11.136797 
" style="fill:none;stroke:#ffffff;stroke-linecap:round;"/>
     </g>
     <g id="line2d_21">
      <g>
       <use style="fill:#262626;stroke:#262626;stroke-width:1.25;" x="49.707969" xlink:href="#m230a7227a8" y="11.136797"/>
      </g>
     </g>
     <g id="text_36">
      <!-- 6.5 -->
      <g style="fill:#262626;" transform="translate(24.917969 15.073594)scale(0.11 -0.11)">
       <use xlink:href="#ArialMT-54"/>
       <use x="55.615234" xlink:href="#ArialMT-46"/>
       <use x="83.398438" xlink:href="#ArialMT-53"/>
      </g>
     </g>
    </g>
    <g id="text_37">
     <!-- Antal personer -->
     <defs>
      <path d="M -0.140625 0 
L 27.34375 71.578125 
L 37.546875 71.578125 
L 66.84375 0 
L 56.0625 0 
L 47.703125 21.6875 
L 17.78125 21.6875 
L 9.90625 0 
z
M 20.515625 29.390625 
L 44.78125 29.390625 
L 37.3125 49.21875 
Q 33.890625 58.25 32.234375 64.0625 
Q 30.859375 57.171875 28.375 50.390625 
z
" id="ArialMT-65"/>
      <path d="M 6.59375 0 
L 6.59375 51.859375 
L 14.5 51.859375 
L 14.5 44.484375 
Q 20.21875 53.03125 31 53.03125 
Q 35.6875 53.03125 39.625 51.34375 
Q 43.5625 49.65625 45.515625 46.921875 
Q 47.46875 44.1875 48.25 40.4375 
Q 48.734375 37.984375 48.734375 31.890625 
L 48.734375 0 
L 39.9375 0 
L 39.9375 31.546875 
Q 39.9375 36.921875 38.90625 39.578125 
Q 37.890625 42.234375 35.28125 43.8125 
Q 32.671875 45.40625 29.15625 45.40625 
Q 23.53125 45.40625 19.453125 41.84375 
Q 15.375 38.28125 15.375 28.328125 
L 15.375 0 
z
" id="ArialMT-110"/>
      <path d="M 6.390625 0 
L 6.390625 71.578125 
L 15.1875 71.578125 
L 15.1875 0 
z
" id="ArialMT-108"/>
      <path id="ArialMT-32"/>
      <path d="M 6.59375 -19.875 
L 6.59375 51.859375 
L 14.59375 51.859375 
L 14.59375 45.125 
Q 17.4375 49.078125 21 51.046875 
Q 24.5625 53.03125 29.640625 53.03125 
Q 36.28125 53.03125 41.359375 49.609375 
Q 46.4375 46.1875 49.015625 39.953125 
Q 51.609375 33.734375 51.609375 26.3125 
Q 51.609375 18.359375 48.75 11.984375 
Q 45.90625 5.609375 40.453125 2.21875 
Q 35.015625 -1.171875 29 -1.171875 
Q 24.609375 -1.171875 21.109375 0.6875 
Q 17.625 2.546875 15.375 5.375 
L 15.375 -19.875 
z
M 14.546875 25.640625 
Q 14.546875 15.625 18.59375 10.84375 
Q 22.65625 6.0625 28.421875 6.0625 
Q 34.28125 6.0625 38.453125 11.015625 
Q 42.625 15.96875 42.625 26.375 
Q 42.625 36.28125 38.546875 41.203125 
Q 34.46875 46.140625 28.8125 46.140625 
Q 23.1875 46.140625 18.859375 40.890625 
Q 14.546875 35.640625 14.546875 25.640625 
z
" id="ArialMT-112"/>
      <path d="M 42.09375 16.703125 
L 51.171875 15.578125 
Q 49.03125 7.625 43.21875 3.21875 
Q 37.40625 -1.171875 28.375 -1.171875 
Q 17 -1.171875 10.328125 5.828125 
Q 3.65625 12.84375 3.65625 25.484375 
Q 3.65625 38.578125 10.390625 45.796875 
Q 17.140625 53.03125 27.875 53.03125 
Q 38.28125 53.03125 44.875 45.953125 
Q 51.46875 38.875 51.46875 26.03125 
Q 51.46875 25.25 51.421875 23.6875 
L 12.75 23.6875 
Q 13.234375 15.140625 17.578125 10.59375 
Q 21.921875 6.0625 28.421875 6.0625 
Q 33.25 6.0625 36.671875 8.59375 
Q 40.09375 11.140625 42.09375 16.703125 
z
M 13.234375 30.90625 
L 42.1875 30.90625 
Q 41.609375 37.453125 38.875 40.71875 
Q 34.671875 45.796875 27.984375 45.796875 
Q 21.921875 45.796875 17.796875 41.75 
Q 13.671875 37.703125 13.234375 30.90625 
z
" id="ArialMT-101"/>
      <path d="M 6.5 0 
L 6.5 51.859375 
L 14.40625 51.859375 
L 14.40625 44 
Q 17.4375 49.515625 20 51.265625 
Q 22.5625 53.03125 25.640625 53.03125 
Q 30.078125 53.03125 34.671875 50.203125 
L 31.640625 42.046875 
Q 28.421875 43.953125 25.203125 43.953125 
Q 22.3125 43.953125 20.015625 42.21875 
Q 17.71875 40.484375 16.75 37.40625 
Q 15.28125 32.71875 15.28125 27.15625 
L 15.28125 0 
z
" id="ArialMT-114"/>
      <path d="M 3.078125 15.484375 
L 11.765625 16.84375 
Q 12.5 11.625 15.84375 8.84375 
Q 19.1875 6.0625 25.203125 6.0625 
Q 31.25 6.0625 34.171875 8.515625 
Q 37.109375 10.984375 37.109375 14.3125 
Q 37.109375 17.28125 34.515625 19 
Q 32.71875 20.171875 25.53125 21.96875 
Q 15.875 24.421875 12.140625 26.203125 
Q 8.40625 27.984375 6.46875 31.125 
Q 4.546875 34.28125 4.546875 38.09375 
Q 4.546875 41.546875 6.125 44.5 
Q 7.71875 47.46875 10.453125 49.421875 
Q 12.5 50.921875 16.03125 51.96875 
Q 19.578125 53.03125 23.640625 53.03125 
Q 29.734375 53.03125 34.34375 51.265625 
Q 38.96875 49.515625 41.15625 46.5 
Q 43.359375 43.5 44.1875 38.484375 
L 35.59375 37.3125 
Q 35.015625 41.3125 32.203125 43.546875 
Q 29.390625 45.796875 24.265625 45.796875 
Q 18.21875 45.796875 15.625 43.796875 
Q 13.03125 41.796875 13.03125 39.109375 
Q 13.03125 37.40625 14.109375 36.03125 
Q 15.1875 34.625 17.484375 33.6875 
Q 18.796875 33.203125 25.25 31.453125 
Q 34.578125 28.953125 38.25 27.359375 
Q 41.9375 25.78125 44.03125 22.75 
Q 46.140625 19.734375 46.140625 15.234375 
Q 46.140625 10.84375 43.578125 6.953125 
Q 41.015625 3.078125 36.171875 0.953125 
Q 31.34375 -1.171875 25.25 -1.171875 
Q 15.140625 -1.171875 9.84375 3.03125 
Q 4.546875 7.234375 3.078125 15.484375 
z
" id="ArialMT-115"/>
     </defs>
     <g style="fill:#262626;" transform="translate(17.936719 194.336269)rotate(-90)scale(0.15 -0.15)">
      <use xlink:href="#ArialMT-65"/>
      <use x="66.699219" xlink:href="#ArialMT-110"/>
      <use x="122.314453" xlink:href="#ArialMT-116"/>
      <use x="150.097656" xlink:href="#ArialMT-97"/>
      <use x="205.712891" xlink:href="#ArialMT-108"/>
      <use x="227.929688" xlink:href="#ArialMT-32"/>
      <use x="255.712891" xlink:href="#ArialMT-112"/>
      <use x="311.328125" xlink:href="#ArialMT-101"/>
      <use x="366.943359" xlink:href="#ArialMT-114"/>
      <use x="400.244141" xlink:href="#ArialMT-115"/>
      <use x="450.244141" xlink:href="#ArialMT-111"/>
      <use x="505.859375" xlink:href="#ArialMT-110"/>
      <use x="561.474609" xlink:href="#ArialMT-101"/>
      <use x="617.089844" xlink:href="#ArialMT-114"/>
     </g>
    </g>
   </g>
   <g id="patch_3">
    <path clip-path="url(#p38bbe6dc5d)" d="M 141.805569 280.520532 
L 141.805569 10.600443 
L 172.504769 10.600443 
L 172.504769 280.520532 
z
" style="fill:#008000;opacity:0.2;"/>
   </g>
   <g id="patch_4">
    <path clip-path="url(#p38bbe6dc5d)" d="M 356.699969 280.520532 
L 356.699969 10.600443 
L 387.399169 10.600443 
L 387.399169 280.520532 
z
" style="fill:#008000;opacity:0.2;"/>
   </g>
   <g id="patch_5">
    <path clip-path="url(#p38bbe6dc5d)" d="M 571.594369 280.520532 
L 571.594369 10.600443 
L 602.293569 10.600443 
L 602.293569 280.520532 
z
" style="fill:#008000;opacity:0.2;"/>
   </g>
   <g id="patch_6">
    <path clip-path="url(#p38bbe6dc5d)" d="M 786.488769 280.520532 
L 786.488769 10.600443 
L 817.187969 10.600443 
L 817.187969 280.520532 
z
" style="fill:#008000;opacity:0.2;"/>
   </g>
   <g id="patch_7">
    <path clip-path="url(#p38bbe6dc5d)" d="M 80.407169 280.520532 
L 80.407169 10.600443 
L 141.805569 10.600443 
L 141.805569 280.520532 
z
" style="fill:#ffa500;opacity:0.2;"/>
   </g>
   <g id="patch_8">
    <path clip-path="url(#p38bbe6dc5d)" d="M 141.805569 280.520532 
L 141.805569 10.600443 
L 203.203969 10.600443 
L 203.203969 280.520532 
z
" style="fill:#ffa500;opacity:0.2;"/>
   </g>
   <g id="line2d_22">
    <path clip-path="url(#p38bbe6dc5d)" d="M 49.707969 239.925248 
L 80.407169 210.806718 
L 111.106369 230.219072 
L 141.805569 199.251746 
L 172.504769 155.342851 
L 203.203969 221.767435 
L 233.903169 138.416809 
L 264.602369 195.387763 
L 295.301569 113.546866 
L 326.000769 22.869538 
L 356.699969 91.353982 
L 387.399169 23.564812 
L 418.098369 120.72929 
L 448.797569 76.840147 
L 479.496769 102.652177 
L 510.195969 93.265985 
L 540.895169 86.22634 
L 571.594369 229.03056 
L 602.293569 215.286492 
L 632.992769 46.161202 
L 663.691969 61.252362 
L 694.391169 98.132899 
L 725.090369 46.161202 
L 755.789569 200.946475 
L 786.488769 235.4392 
L 817.187969 188.7843 
" style="fill:none;stroke:#4c72b0;stroke-linecap:round;stroke-width:1.5;"/>
    <defs>
     <path d="M 0 3 
C 0.795609 3 1.55874 2.683901 2.12132 2.12132 
C 2.683901 1.55874 3 0.795609 3 0 
C 3 -0.795609 2.683901 -1.55874 2.12132 -2.12132 
C 1.55874 -2.683901 0.795609 -3 0 -3 
C -0.795609 -3 -1.55874 -2.683901 -2.12132 -2.12132 
C -2.683901 -1.55874 -3 -0.795609 -3 0 
C -3 0.795609 -2.683901 1.55874 -2.12132 2.12132 
C -1.55874 2.683901 -0.795609 3 0 3 
z
" id="m5f6aa4e4f1" style="stroke:#4c72b0;"/>
    </defs>
    <g clip-path="url(#p38bbe6dc5d)">
     <use style="fill:#4c72b0;stroke:#4c72b0;" x="49.707969" xlink:href="#m5f6aa4e4f1" y="239.925248"/>
     <use style="fill:#4c72b0;stroke:#4c72b0;" x="80.407169" xlink:href="#m5f6aa4e4f1" y="210.806718"/>
     <use style="fill:#4c72b0;stroke:#4c72b0;" x="111.106369" xlink:href="#m5f6aa4e4f1" y="230.219072"/>
     <use style="fill:#4c72b0;stroke:#4c72b0;" x="141.805569" xlink:href="#m5f6aa4e4f1" y="199.251746"/>
     <use style="fill:#4c72b0;stroke:#4c72b0;" x="172.504769" xlink:href="#m5f6aa4e4f1" y="155.342851"/>
     <use style="fill:#4c72b0;stroke:#4c72b0;" x="203.203969" xlink:href="#m5f6aa4e4f1" y="221.767435"/>
     <use style="fill:#4c72b0;stroke:#4c72b0;" x="233.903169" xlink:href="#m5f6aa4e4f1" y="138.416809"/>
     <use style="fill:#4c72b0;stroke:#4c72b0;" x="264.602369" xlink:href="#m5f6aa4e4f1" y="195.387763"/>
     <use style="fill:#4c72b0;stroke:#4c72b0;" x="295.301569" xlink:href="#m5f6aa4e4f1" y="113.546866"/>
     <use style="fill:#4c72b0;stroke:#4c72b0;" x="326.000769" xlink:href="#m5f6aa4e4f1" y="22.869538"/>
     <use style="fill:#4c72b0;stroke:#4c72b0;" x="356.699969" xlink:href="#m5f6aa4e4f1" y="91.353982"/>
     <use style="fill:#4c72b0;stroke:#4c72b0;" x="387.399169" xlink:href="#m5f6aa4e4f1" y="23.564812"/>
     <use style="fill:#4c72b0;stroke:#4c72b0;" x="418.098369" xlink:href="#m5f6aa4e4f1" y="120.72929"/>
     <use style="fill:#4c72b0;stroke:#4c72b0;" x="448.797569" xlink:href="#m5f6aa4e4f1" y="76.840147"/>
     <use style="fill:#4c72b0;stroke:#4c72b0;" x="479.496769" xlink:href="#m5f6aa4e4f1" y="102.652177"/>
     <use style="fill:#4c72b0;stroke:#4c72b0;" x="510.195969" xlink:href="#m5f6aa4e4f1" y="93.265985"/>
     <use style="fill:#4c72b0;stroke:#4c72b0;" x="540.895169" xlink:href="#m5f6aa4e4f1" y="86.22634"/>
     <use style="fill:#4c72b0;stroke:#4c72b0;" x="571.594369" xlink:href="#m5f6aa4e4f1" y="229.03056"/>
     <use style="fill:#4c72b0;stroke:#4c72b0;" x="602.293569" xlink:href="#m5f6aa4e4f1" y="215.286492"/>
     <use style="fill:#4c72b0;stroke:#4c72b0;" x="632.992769" xlink:href="#m5f6aa4e4f1" y="46.161202"/>
     <use style="fill:#4c72b0;stroke:#4c72b0;" x="663.691969" xlink:href="#m5f6aa4e4f1" y="61.252362"/>
     <use style="fill:#4c72b0;stroke:#4c72b0;" x="694.391169" xlink:href="#m5f6aa4e4f1" y="98.132899"/>
     <use style="fill:#4c72b0;stroke:#4c72b0;" x="725.090369" xlink:href="#m5f6aa4e4f1" y="46.161202"/>
     <use style="fill:#4c72b0;stroke:#4c72b0;" x="755.789569" xlink:href="#m5f6aa4e4f1" y="200.946475"/>
     <use style="fill:#4c72b0;stroke:#4c72b0;" x="786.488769" xlink:href="#m5f6aa4e4f1" y="235.4392"/>
     <use style="fill:#4c72b0;stroke:#4c72b0;" x="817.187969" xlink:href="#m5f6aa4e4f1" y="188.7843"/>
    </g>
   </g>
   <g id="line2d_23">
    <path clip-path="url(#p38bbe6dc5d)" d="M 49.707969 93.500639 
L 80.407169 180.301591 
L 111.106369 166.435624 
L 141.805569 227.214779 
L 172.504769 122.064531 
L 203.203969 268.251437 
L 233.903169 94.23697 
L 264.602369 139.25833 
L 295.301569 61.252362 
L 326.000769 175.395172 
L 356.699969 172.700987 
L 387.399169 256.307631 
L 418.098369 154.623875 
L 448.797569 149.583142 
L 479.496769 111.067385 
L 510.195969 126.11766 
L 540.895169 170.702076 
L 571.594369 226.851622 
L 602.293569 252.831263 
L 632.992769 138.806402 
L 663.691969 187.630745 
L 694.391169 211.114851 
L 725.090369 177.74172 
L 755.789569 113.418693 
L 786.488769 256.972231 
L 817.187969 224.672685 
" style="fill:none;stroke:#dd8452;stroke-linecap:round;stroke-width:1.5;"/>
    <defs>
     <path d="M 0 3 
C 0.795609 3 1.55874 2.683901 2.12132 2.12132 
C 2.683901 1.55874 3 0.795609 3 0 
C 3 -0.795609 2.683901 -1.55874 2.12132 -2.12132 
C 1.55874 -2.683901 0.795609 -3 0 -3 
C -0.795609 -3 -1.55874 -2.683901 -2.12132 -2.12132 
C -2.683901 -1.55874 -3 -0.795609 -3 0 
C -3 0.795609 -2.683901 1.55874 -2.12132 2.12132 
C -1.55874 2.683901 -0.795609 3 0 3 
z
" id="mdfc01d6fe0" style="stroke:#dd8452;"/>
    </defs>
    <g clip-path="url(#p38bbe6dc5d)">
     <use style="fill:#dd8452;stroke:#dd8452;" x="49.707969" xlink:href="#mdfc01d6fe0" y="93.500639"/>
     <use style="fill:#dd8452;stroke:#dd8452;" x="80.407169" xlink:href="#mdfc01d6fe0" y="180.301591"/>
     <use style="fill:#dd8452;stroke:#dd8452;" x="111.106369" xlink:href="#mdfc01d6fe0" y="166.435624"/>
     <use style="fill:#dd8452;stroke:#dd8452;" x="141.805569" xlink:href="#mdfc01d6fe0" y="227.214779"/>
     <use style="fill:#dd8452;stroke:#dd8452;" x="172.504769" xlink:href="#mdfc01d6fe0" y="122.064531"/>
     <use style="fill:#dd8452;stroke:#dd8452;" x="203.203969" xlink:href="#mdfc01d6fe0" y="268.251437"/>
     <use style="fill:#dd8452;stroke:#dd8452;" x="233.903169" xlink:href="#mdfc01d6fe0" y="94.23697"/>
     <use style="fill:#dd8452;stroke:#dd8452;" x="264.602369" xlink:href="#mdfc01d6fe0" y="139.25833"/>
     <use style="fill:#dd8452;stroke:#dd8452;" x="295.301569" xlink:href="#mdfc01d6fe0" y="61.252362"/>
     <use style="fill:#dd8452;stroke:#dd8452;" x="326.000769" xlink:href="#mdfc01d6fe0" y="175.395172"/>
     <use style="fill:#dd8452;stroke:#dd8452;" x="356.699969" xlink:href="#mdfc01d6fe0" y="172.700987"/>
     <use style="fill:#dd8452;stroke:#dd8452;" x="387.399169" xlink:href="#mdfc01d6fe0" y="256.307631"/>
     <use style="fill:#dd8452;stroke:#dd8452;" x="418.098369" xlink:href="#mdfc01d6fe0" y="154.623875"/>
     <use style="fill:#dd8452;stroke:#dd8452;" x="448.797569" xlink:href="#mdfc01d6fe0" y="149.583142"/>
     <use style="fill:#dd8452;stroke:#dd8452;" x="479.496769" xlink:href="#mdfc01d6fe0" y="111.067385"/>
     <use style="fill:#dd8452;stroke:#dd8452;" x="510.195969" xlink:href="#mdfc01d6fe0" y="126.11766"/>
     <use style="fill:#dd8452;stroke:#dd8452;" x="540.895169" xlink:href="#mdfc01d6fe0" y="170.702076"/>
     <use style="fill:#dd8452;stroke:#dd8452;" x="571.594369" xlink:href="#mdfc01d6fe0" y="226.851622"/>
     <use style="fill:#dd8452;stroke:#dd8452;" x="602.293569" xlink:href="#mdfc01d6fe0" y="252.831263"/>
     <use style="fill:#dd8452;stroke:#dd8452;" x="632.992769" xlink:href="#mdfc01d6fe0" y="138.806402"/>
     <use style="fill:#dd8452;stroke:#dd8452;" x="663.691969" xlink:href="#mdfc01d6fe0" y="187.630745"/>
     <use style="fill:#dd8452;stroke:#dd8452;" x="694.391169" xlink:href="#mdfc01d6fe0" y="211.114851"/>
     <use style="fill:#dd8452;stroke:#dd8452;" x="725.090369" xlink:href="#mdfc01d6fe0" y="177.74172"/>
     <use style="fill:#dd8452;stroke:#dd8452;" x="755.789569" xlink:href="#mdfc01d6fe0" y="113.418693"/>
     <use style="fill:#dd8452;stroke:#dd8452;" x="786.488769" xlink:href="#mdfc01d6fe0" y="256.972231"/>
     <use style="fill:#dd8452;stroke:#dd8452;" x="817.187969" xlink:href="#mdfc01d6fe0" y="224.672685"/>
    </g>
   </g>
   <g id="patch_9">
    <path d="M 49.707969 280.520532 
L 49.707969 10.600443 
" style="fill:none;stroke:#ffffff;stroke-linecap:square;stroke-linejoin:miter;stroke-width:1.25;"/>
   </g>
   <g id="patch_10">
    <path d="M 817.187969 280.520532 
L 817.187969 10.600443 
" style="fill:none;stroke:#ffffff;stroke-linecap:square;stroke-linejoin:miter;stroke-width:1.25;"/>
   </g>
   <g id="patch_11">
    <path d="M 49.707969 280.520532 
L 817.187969 280.520532 
" style="fill:none;stroke:#ffffff;stroke-linecap:square;stroke-linejoin:miter;stroke-width:1.25;"/>
   </g>
   <g id="patch_12">
    <path d="M 49.707969 10.600443 
L 817.187969 10.600443 
" style="fill:none;stroke:#ffffff;stroke-linecap:square;stroke-linejoin:miter;stroke-width:1.25;"/>
   </g>
   <g id="legend_1">
    <g id="patch_13">
     <path d="M 876.415562 86.43013 
L 1036.931969 86.43013 
Q 1039.931969 86.43013 1039.931969 83.43013 
L 1039.931969 21.100443 
Q 1039.931969 18.100443 1036.931969 18.100443 
L 876.415562 18.100443 
Q 873.415562 18.100443 873.415562 21.100443 
L 873.415562 83.43013 
Q 873.415562 86.43013 876.415562 86.43013 
z
" style="fill:#eaeaf2;opacity:0.8;stroke:#cccccc;stroke-linejoin:miter;"/>
    </g>
    <g id="line2d_24">
     <path d="M 879.415562 29.587162 
L 909.415562 29.587162 
" style="fill:none;stroke:#4c72b0;stroke-linecap:round;stroke-width:1.5;"/>
    </g>
    <g id="line2d_25">
     <g>
      <use style="fill:#4c72b0;stroke:#4c72b0;" x="894.415562" xlink:href="#m5f6aa4e4f1" y="29.587162"/>
     </g>
    </g>
    <g id="text_38">
     <!-- Fysiske samtaler -->
     <defs>
      <path d="M 8.203125 0 
L 8.203125 71.578125 
L 56.5 71.578125 
L 56.5 63.140625 
L 17.671875 63.140625 
L 17.671875 40.96875 
L 51.265625 40.96875 
L 51.265625 32.515625 
L 17.671875 32.515625 
L 17.671875 0 
z
" id="ArialMT-70"/>
      <path d="M 6.640625 61.46875 
L 6.640625 71.578125 
L 15.4375 71.578125 
L 15.4375 61.46875 
z
M 6.640625 0 
L 6.640625 51.859375 
L 15.4375 51.859375 
L 15.4375 0 
z
" id="ArialMT-105"/>
      <path d="M 6.640625 0 
L 6.640625 71.578125 
L 15.4375 71.578125 
L 15.4375 30.765625 
L 36.234375 51.859375 
L 47.609375 51.859375 
L 27.78125 32.625 
L 49.609375 0 
L 38.765625 0 
L 21.625 26.515625 
L 15.4375 20.5625 
L 15.4375 0 
z
" id="ArialMT-107"/>
      <path d="M 6.59375 0 
L 6.59375 51.859375 
L 14.453125 51.859375 
L 14.453125 44.578125 
Q 16.890625 48.390625 20.9375 50.703125 
Q 25 53.03125 30.171875 53.03125 
Q 35.9375 53.03125 39.625 50.640625 
Q 43.3125 48.25 44.828125 43.953125 
Q 50.984375 53.03125 60.84375 53.03125 
Q 68.5625 53.03125 72.703125 48.75 
Q 76.859375 44.484375 76.859375 35.59375 
L 76.859375 0 
L 68.109375 0 
L 68.109375 32.671875 
Q 68.109375 37.9375 67.25 40.25 
Q 66.40625 42.578125 64.15625 43.984375 
Q 61.921875 45.40625 58.890625 45.40625 
Q 53.421875 45.40625 49.796875 41.765625 
Q 46.1875 38.140625 46.1875 30.125 
L 46.1875 0 
L 37.40625 0 
L 37.40625 33.6875 
Q 37.40625 39.546875 35.25 42.46875 
Q 33.109375 45.40625 28.21875 45.40625 
Q 24.515625 45.40625 21.359375 43.453125 
Q 18.21875 41.5 16.796875 37.734375 
Q 15.375 33.984375 15.375 26.90625 
L 15.375 0 
z
" id="ArialMT-109"/>
     </defs>
     <g style="fill:#262626;" transform="translate(921.415562 34.837162)scale(0.15 -0.15)">
      <use xlink:href="#ArialMT-70"/>
      <use x="61.083984" xlink:href="#ArialMT-121"/>
      <use x="111.083984" xlink:href="#ArialMT-115"/>
      <use x="161.083984" xlink:href="#ArialMT-105"/>
      <use x="183.300781" xlink:href="#ArialMT-115"/>
      <use x="233.300781" xlink:href="#ArialMT-107"/>
      <use x="283.300781" xlink:href="#ArialMT-101"/>
      <use x="338.916016" xlink:href="#ArialMT-32"/>
      <use x="366.699219" xlink:href="#ArialMT-115"/>
      <use x="416.699219" xlink:href="#ArialMT-97"/>
      <use x="472.314453" xlink:href="#ArialMT-109"/>
      <use x="555.615234" xlink:href="#ArialMT-116"/>
      <use x="583.398438" xlink:href="#ArialMT-97"/>
      <use x="639.013672" xlink:href="#ArialMT-108"/>
      <use x="661.230469" xlink:href="#ArialMT-101"/>
      <use x="716.845703" xlink:href="#ArialMT-114"/>
     </g>
    </g>
    <g id="line2d_26">
     <path d="M 879.415562 50.980912 
L 909.415562 50.980912 
" style="fill:none;stroke:#dd8452;stroke-linecap:round;stroke-width:1.5;"/>
    </g>
    <g id="line2d_27">
     <g>
      <use style="fill:#dd8452;stroke:#dd8452;" x="894.415562" xlink:href="#mdfc01d6fe0" y="50.980912"/>
     </g>
    </g>
    <g id="text_39">
     <!-- Online samtaler -->
     <defs>
      <path d="M 4.828125 34.859375 
Q 4.828125 52.6875 14.390625 62.765625 
Q 23.96875 72.859375 39.109375 72.859375 
Q 49.03125 72.859375 56.984375 68.109375 
Q 64.9375 63.375 69.109375 54.90625 
Q 73.296875 46.4375 73.296875 35.6875 
Q 73.296875 24.8125 68.890625 16.21875 
Q 64.5 7.625 56.4375 3.203125 
Q 48.390625 -1.21875 39.0625 -1.21875 
Q 28.953125 -1.21875 20.984375 3.65625 
Q 13.03125 8.546875 8.921875 16.984375 
Q 4.828125 25.4375 4.828125 34.859375 
z
M 14.59375 34.71875 
Q 14.59375 21.78125 21.546875 14.328125 
Q 28.515625 6.890625 39.015625 6.890625 
Q 49.703125 6.890625 56.609375 14.40625 
Q 63.53125 21.921875 63.53125 35.75 
Q 63.53125 44.484375 60.578125 51 
Q 57.625 57.515625 51.921875 61.109375 
Q 46.234375 64.703125 39.15625 64.703125 
Q 29.109375 64.703125 21.84375 57.78125 
Q 14.59375 50.875 14.59375 34.71875 
z
" id="ArialMT-79"/>
     </defs>
     <g style="fill:#262626;" transform="translate(921.415562 56.230912)scale(0.15 -0.15)">
      <use xlink:href="#ArialMT-79"/>
      <use x="77.783203" xlink:href="#ArialMT-110"/>
      <use x="133.398438" xlink:href="#ArialMT-108"/>
      <use x="155.615234" xlink:href="#ArialMT-105"/>
      <use x="177.832031" xlink:href="#ArialMT-110"/>
      <use x="233.447266" xlink:href="#ArialMT-101"/>
      <use x="289.0625" xlink:href="#ArialMT-32"/>
      <use x="316.845703" xlink:href="#ArialMT-115"/>
      <use x="366.845703" xlink:href="#ArialMT-97"/>
      <use x="422.460938" xlink:href="#ArialMT-109"/>
      <use x="505.761719" xlink:href="#ArialMT-116"/>
      <use x="533.544922" xlink:href="#ArialMT-97"/>
      <use x="589.160156" xlink:href="#ArialMT-108"/>
      <use x="611.376953" xlink:href="#ArialMT-101"/>
      <use x="666.992188" xlink:href="#ArialMT-114"/>
     </g>
    </g>
    <g id="line2d_28">
     <path d="M 879.415562 72.19888 
L 909.415562 72.19888 
" style="fill:none;stroke:#55a868;stroke-linecap:round;stroke-width:1.5;"/>
    </g>
    <g id="line2d_29">
     <defs>
      <path d="M 0 3 
C 0.795609 3 1.55874 2.683901 2.12132 2.12132 
C 2.683901 1.55874 3 0.795609 3 0 
C 3 -0.795609 2.683901 -1.55874 2.12132 -2.12132 
C 1.55874 -2.683901 0.795609 -3 0 -3 
C -0.795609 -3 -1.55874 -2.683901 -2.12132 -2.12132 
C -2.683901 -1.55874 -3 -0.795609 -3 0 
C -3 0.795609 -2.683901 1.55874 -2.12132 2.12132 
C -1.55874 2.683901 -0.795609 3 0 3 
z
" id="m3062bb82f3" style="stroke:#55a868;"/>
     </defs>
     <g>
      <use style="fill:#55a868;stroke:#55a868;" x="894.415562" xlink:href="#m3062bb82f3" y="72.19888"/>
     </g>
    </g>
    <g id="text_40">
     <!-- Skrmtid -->
     <defs>
      <path d="M 4.5 23 
L 13.421875 23.78125 
Q 14.0625 18.40625 16.375 14.96875 
Q 18.703125 11.53125 23.578125 9.40625 
Q 28.46875 7.28125 34.578125 7.28125 
Q 39.984375 7.28125 44.140625 8.890625 
Q 48.296875 10.5 50.3125 13.296875 
Q 52.34375 16.109375 52.34375 19.4375 
Q 52.34375 22.796875 50.390625 25.3125 
Q 48.4375 27.828125 43.953125 29.546875 
Q 41.0625 30.671875 31.203125 33.03125 
Q 21.34375 35.40625 17.390625 37.5 
Q 12.25 40.1875 9.734375 44.15625 
Q 7.234375 48.140625 7.234375 53.078125 
Q 7.234375 58.5 10.296875 63.203125 
Q 13.375 67.921875 19.28125 70.359375 
Q 25.203125 72.796875 32.421875 72.796875 
Q 40.375 72.796875 46.453125 70.234375 
Q 52.546875 67.671875 55.8125 62.6875 
Q 59.078125 57.71875 59.328125 51.421875 
L 50.25 50.734375 
Q 49.515625 57.515625 45.28125 60.984375 
Q 41.0625 64.453125 32.8125 64.453125 
Q 24.21875 64.453125 20.28125 61.296875 
Q 16.359375 58.15625 16.359375 53.71875 
Q 16.359375 49.859375 19.140625 47.359375 
Q 21.875 44.875 33.421875 42.265625 
Q 44.96875 39.65625 49.265625 37.703125 
Q 55.515625 34.8125 58.484375 30.390625 
Q 61.46875 25.984375 61.46875 20.21875 
Q 61.46875 14.5 58.203125 9.4375 
Q 54.9375 4.390625 48.796875 1.578125 
Q 42.671875 -1.21875 35.015625 -1.21875 
Q 25.296875 -1.21875 18.71875 1.609375 
Q 12.15625 4.4375 8.421875 10.125 
Q 4.6875 15.828125 4.5 23 
z
" id="ArialMT-83"/>
      <path d="M 84.671875 15.875 
Q 82.234375 7.71875 76.375 3.265625 
Q 70.515625 -1.171875 61.8125 -1.171875 
Q 55.609375 -1.171875 50.953125 1.171875 
Q 46.296875 3.515625 42.53125 8.5 
Q 37.453125 3.515625 32.25 1.171875 
Q 27.046875 -1.171875 21.046875 -1.171875 
Q 12.640625 -1.171875 7.984375 3.140625 
Q 3.328125 7.46875 3.328125 13.671875 
Q 3.328125 17.875 5.734375 21.5625 
Q 8.15625 25.25 12.46875 27.140625 
Q 16.796875 29.046875 26.265625 30.28125 
Q 33.59375 31.25 38.578125 32.671875 
Q 38.625 33.890625 38.625 34.671875 
Q 38.625 40.828125 36.0625 43.28125 
Q 33.5 45.75 27.09375 45.75 
Q 22.859375 45.75 19.921875 44.71875 
Q 17 43.703125 15.59375 41.8125 
Q 14.203125 39.9375 13.28125 35.796875 
L 4.734375 36.8125 
Q 6.109375 42.53125 8.671875 45.875 
Q 11.234375 49.21875 16.015625 51.125 
Q 20.796875 53.03125 27.203125 53.03125 
Q 35.359375 53.03125 40.328125 50.59375 
Q 43.21875 49.171875 45.171875 46.046875 
Q 48.296875 49.46875 52.25 51.25 
Q 56.203125 53.03125 61.8125 53.03125 
Q 69.734375 53.03125 74.90625 49.1875 
Q 80.078125 45.359375 82.46875 39.0625 
Q 84.859375 32.765625 84.859375 26.65625 
Q 84.859375 25.734375 84.765625 23.6875 
L 47.3125 23.6875 
Q 47.40625 16.65625 49.046875 13.46875 
Q 50.6875 10.296875 54.265625 8.171875 
Q 57.859375 6.0625 62.15625 6.0625 
Q 67.1875 6.0625 70.671875 8.9375 
Q 74.171875 11.8125 75.484375 17.046875 
z
M 47.3125 30.90625 
L 75.828125 30.90625 
Q 75.140625 38.625 71.421875 42.1875 
Q 67.71875 45.75 61.765625 45.75 
Q 55.609375 45.75 51.671875 41.84375 
Q 47.75 37.9375 47.3125 30.90625 
z
M 38.71875 26.03125 
Q 34.859375 24.359375 23 22.46875 
Q 17.671875 21.625 15.53125 19.96875 
Q 12.640625 17.671875 12.640625 13.96875 
Q 12.640625 10.5 15.234375 8.125 
Q 17.828125 5.765625 22.75 5.765625 
Q 28.375 5.765625 32.546875 8.546875 
Q 36.71875 11.328125 37.984375 15.484375 
Q 38.71875 18.015625 38.71875 26.03125 
z
" id="ArialMT-230"/>
      <path d="M 40.234375 0 
L 40.234375 6.546875 
Q 35.296875 -1.171875 25.734375 -1.171875 
Q 19.53125 -1.171875 14.328125 2.25 
Q 9.125 5.671875 6.265625 11.796875 
Q 3.421875 17.921875 3.421875 25.875 
Q 3.421875 33.640625 6 39.96875 
Q 8.59375 46.296875 13.765625 49.65625 
Q 18.953125 53.03125 25.34375 53.03125 
Q 30.03125 53.03125 33.6875 51.046875 
Q 37.359375 49.078125 39.65625 45.90625 
L 39.65625 71.578125 
L 48.390625 71.578125 
L 48.390625 0 
z
M 12.453125 25.875 
Q 12.453125 15.921875 16.640625 10.984375 
Q 20.84375 6.0625 26.5625 6.0625 
Q 32.328125 6.0625 36.34375 10.765625 
Q 40.375 15.484375 40.375 25.140625 
Q 40.375 35.796875 36.265625 40.765625 
Q 32.171875 45.75 26.171875 45.75 
Q 20.3125 45.75 16.375 40.96875 
Q 12.453125 36.1875 12.453125 25.875 
z
" id="ArialMT-100"/>
     </defs>
     <g style="fill:#262626;" transform="translate(921.415562 77.44888)scale(0.15 -0.15)">
      <use xlink:href="#ArialMT-83"/>
      <use x="66.699219" xlink:href="#ArialMT-107"/>
      <use x="116.699219" xlink:href="#ArialMT-230"/>
      <use x="205.615234" xlink:href="#ArialMT-114"/>
      <use x="238.916016" xlink:href="#ArialMT-109"/>
      <use x="322.216797" xlink:href="#ArialMT-116"/>
      <use x="350" xlink:href="#ArialMT-105"/>
      <use x="372.216797" xlink:href="#ArialMT-100"/>
     </g>
    </g>
   </g>
  </g>
  <g id="axes_2">
   <g id="matplotlib.axis_3">
    <g id="ytick_10">
     <g id="line2d_30">
      <defs>
       <path d="M 0 0 
L 6 0 
" id="m31d9c40025" style="stroke:#262626;stroke-width:1.25;"/>
      </defs>
      <g>
       <use style="fill:#262626;stroke:#262626;stroke-width:1.25;" x="817.187969" xlink:href="#m31d9c40025" y="254.355228"/>
      </g>
     </g>
     <g id="text_41">
      <!-- 42.5% -->
      <defs>
       <path d="M 5.8125 54.390625 
Q 5.8125 62.0625 9.671875 67.421875 
Q 13.53125 72.796875 20.84375 72.796875 
Q 27.59375 72.796875 32 67.984375 
Q 36.421875 63.1875 36.421875 53.859375 
Q 36.421875 44.78125 31.953125 39.875 
Q 27.484375 34.96875 20.953125 34.96875 
Q 14.453125 34.96875 10.125 39.796875 
Q 5.8125 44.625 5.8125 54.390625 
z
M 21.09375 66.75 
Q 17.828125 66.75 15.65625 63.90625 
Q 13.484375 61.078125 13.484375 53.515625 
Q 13.484375 46.625 15.671875 43.8125 
Q 17.875 41.015625 21.09375 41.015625 
Q 24.421875 41.015625 26.59375 43.84375 
Q 28.765625 46.6875 28.765625 54.203125 
Q 28.765625 61.140625 26.5625 63.9375 
Q 24.359375 66.75 21.09375 66.75 
z
M 21.140625 -2.640625 
L 60.296875 72.796875 
L 67.4375 72.796875 
L 28.421875 -2.640625 
z
M 52.09375 16.796875 
Q 52.09375 24.515625 55.953125 29.859375 
Q 59.8125 35.203125 67.1875 35.203125 
Q 73.921875 35.203125 78.34375 30.390625 
Q 82.765625 25.59375 82.765625 16.265625 
Q 82.765625 7.171875 78.296875 2.265625 
Q 73.828125 -2.640625 67.234375 -2.640625 
Q 60.75 -2.640625 56.421875 2.21875 
Q 52.09375 7.078125 52.09375 16.796875 
z
M 67.4375 29.15625 
Q 64.109375 29.15625 61.9375 26.3125 
Q 59.765625 23.484375 59.765625 15.921875 
Q 59.765625 9.078125 61.953125 6.25 
Q 64.15625 3.421875 67.390625 3.421875 
Q 70.75 3.421875 72.921875 6.25 
Q 75.09375 9.078125 75.09375 16.609375 
Q 75.09375 23.53125 72.890625 26.34375 
Q 70.703125 29.15625 67.4375 29.15625 
z
" id="ArialMT-37"/>
      </defs>
      <g style="fill:#262626;" transform="translate(826.687969 258.292025)scale(0.11 -0.11)">
       <use xlink:href="#ArialMT-52"/>
       <use x="55.615234" xlink:href="#ArialMT-50"/>
       <use x="111.230469" xlink:href="#ArialMT-46"/>
       <use x="139.013672" xlink:href="#ArialMT-53"/>
       <use x="194.628906" xlink:href="#ArialMT-37"/>
      </g>
     </g>
    </g>
    <g id="ytick_11">
     <g id="line2d_31">
      <g>
       <use style="fill:#262626;stroke:#262626;stroke-width:1.25;" x="817.187969" xlink:href="#m31d9c40025" y="223.14262"/>
      </g>
     </g>
     <g id="text_42">
      <!-- 45.0% -->
      <g style="fill:#262626;" transform="translate(826.687969 227.079417)scale(0.11 -0.11)">
       <use xlink:href="#ArialMT-52"/>
       <use x="55.615234" xlink:href="#ArialMT-53"/>
       <use x="111.230469" xlink:href="#ArialMT-46"/>
       <use x="139.013672" xlink:href="#ArialMT-48"/>
       <use x="194.628906" xlink:href="#ArialMT-37"/>
      </g>
     </g>
    </g>
    <g id="ytick_12">
     <g id="line2d_32">
      <g>
       <use style="fill:#262626;stroke:#262626;stroke-width:1.25;" x="817.187969" xlink:href="#m31d9c40025" y="191.930013"/>
      </g>
     </g>
     <g id="text_43">
      <!-- 47.5% -->
      <g style="fill:#262626;" transform="translate(826.687969 195.86681)scale(0.11 -0.11)">
       <use xlink:href="#ArialMT-52"/>
       <use x="55.615234" xlink:href="#ArialMT-55"/>
       <use x="111.230469" xlink:href="#ArialMT-46"/>
       <use x="139.013672" xlink:href="#ArialMT-53"/>
       <use x="194.628906" xlink:href="#ArialMT-37"/>
      </g>
     </g>
    </g>
    <g id="ytick_13">
     <g id="line2d_33">
      <g>
       <use style="fill:#262626;stroke:#262626;stroke-width:1.25;" x="817.187969" xlink:href="#m31d9c40025" y="160.717405"/>
      </g>
     </g>
     <g id="text_44">
      <!-- 50.0% -->
      <g style="fill:#262626;" transform="translate(826.687969 164.654202)scale(0.11 -0.11)">
       <use xlink:href="#ArialMT-53"/>
       <use x="55.615234" xlink:href="#ArialMT-48"/>
       <use x="111.230469" xlink:href="#ArialMT-46"/>
       <use x="139.013672" xlink:href="#ArialMT-48"/>
       <use x="194.628906" xlink:href="#ArialMT-37"/>
      </g>
     </g>
    </g>
    <g id="ytick_14">
     <g id="line2d_34">
      <g>
       <use style="fill:#262626;stroke:#262626;stroke-width:1.25;" x="817.187969" xlink:href="#m31d9c40025" y="129.504797"/>
      </g>
     </g>
     <g id="text_45">
      <!-- 52.5% -->
      <g style="fill:#262626;" transform="translate(826.687969 133.441594)scale(0.11 -0.11)">
       <use xlink:href="#ArialMT-53"/>
       <use x="55.615234" xlink:href="#ArialMT-50"/>
       <use x="111.230469" xlink:href="#ArialMT-46"/>
       <use x="139.013672" xlink:href="#ArialMT-53"/>
       <use x="194.628906" xlink:href="#ArialMT-37"/>
      </g>
     </g>
    </g>
    <g id="ytick_15">
     <g id="line2d_35">
      <g>
       <use style="fill:#262626;stroke:#262626;stroke-width:1.25;" x="817.187969" xlink:href="#m31d9c40025" y="98.29219"/>
      </g>
     </g>
     <g id="text_46">
      <!-- 55.0% -->
      <g style="fill:#262626;" transform="translate(826.687969 102.228986)scale(0.11 -0.11)">
       <use xlink:href="#ArialMT-53"/>
       <use x="55.615234" xlink:href="#ArialMT-53"/>
       <use x="111.230469" xlink:href="#ArialMT-46"/>
       <use x="139.013672" xlink:href="#ArialMT-48"/>
       <use x="194.628906" xlink:href="#ArialMT-37"/>
      </g>
     </g>
    </g>
    <g id="ytick_16">
     <g id="line2d_36">
      <g>
       <use style="fill:#262626;stroke:#262626;stroke-width:1.25;" x="817.187969" xlink:href="#m31d9c40025" y="67.079582"/>
      </g>
     </g>
     <g id="text_47">
      <!-- 57.5% -->
      <g style="fill:#262626;" transform="translate(826.687969 71.016379)scale(0.11 -0.11)">
       <use xlink:href="#ArialMT-53"/>
       <use x="55.615234" xlink:href="#ArialMT-55"/>
       <use x="111.230469" xlink:href="#ArialMT-46"/>
       <use x="139.013672" xlink:href="#ArialMT-53"/>
       <use x="194.628906" xlink:href="#ArialMT-37"/>
      </g>
     </g>
    </g>
    <g id="ytick_17">
     <g id="line2d_37">
      <g>
       <use style="fill:#262626;stroke:#262626;stroke-width:1.25;" x="817.187969" xlink:href="#m31d9c40025" y="35.866974"/>
      </g>
     </g>
     <g id="text_48">
      <!-- 60.0% -->
      <g style="fill:#262626;" transform="translate(826.687969 39.803771)scale(0.11 -0.11)">
       <use xlink:href="#ArialMT-54"/>
       <use x="55.615234" xlink:href="#ArialMT-48"/>
       <use x="111.230469" xlink:href="#ArialMT-46"/>
       <use x="139.013672" xlink:href="#ArialMT-48"/>
       <use x="194.628906" xlink:href="#ArialMT-37"/>
      </g>
     </g>
    </g>
    <g id="text_49">
     <!-- Procent -->
     <defs>
      <path d="M 7.71875 0 
L 7.71875 71.578125 
L 34.71875 71.578125 
Q 41.84375 71.578125 45.609375 70.90625 
Q 50.875 70.015625 54.4375 67.546875 
Q 58.015625 65.09375 60.1875 60.640625 
Q 62.359375 56.203125 62.359375 50.875 
Q 62.359375 41.75 56.546875 35.421875 
Q 50.734375 29.109375 35.546875 29.109375 
L 17.1875 29.109375 
L 17.1875 0 
z
M 17.1875 37.546875 
L 35.6875 37.546875 
Q 44.875 37.546875 48.734375 40.96875 
Q 52.59375 44.390625 52.59375 50.59375 
Q 52.59375 55.078125 50.3125 58.265625 
Q 48.046875 61.46875 44.34375 62.5 
Q 41.9375 63.140625 35.5 63.140625 
L 17.1875 63.140625 
z
" id="ArialMT-80"/>
      <path d="M 40.4375 19 
L 49.078125 17.875 
Q 47.65625 8.9375 41.8125 3.875 
Q 35.984375 -1.171875 27.484375 -1.171875 
Q 16.84375 -1.171875 10.375 5.78125 
Q 3.90625 12.75 3.90625 25.734375 
Q 3.90625 34.125 6.6875 40.421875 
Q 9.46875 46.734375 15.15625 49.875 
Q 20.84375 53.03125 27.546875 53.03125 
Q 35.984375 53.03125 41.359375 48.75 
Q 46.734375 44.484375 48.25 36.625 
L 39.703125 35.296875 
Q 38.484375 40.53125 35.375 43.15625 
Q 32.28125 45.796875 27.875 45.796875 
Q 21.234375 45.796875 17.078125 41.03125 
Q 12.9375 36.28125 12.9375 25.984375 
Q 12.9375 15.53125 16.9375 10.796875 
Q 20.953125 6.0625 27.390625 6.0625 
Q 32.5625 6.0625 36.03125 9.234375 
Q 39.5 12.40625 40.4375 19 
z
" id="ArialMT-99"/>
     </defs>
     <g style="fill:#008000;" transform="translate(872.613125 171.406191)rotate(-90)scale(0.15 -0.15)">
      <use xlink:href="#ArialMT-80"/>
      <use x="66.699219" xlink:href="#ArialMT-114"/>
      <use x="100" xlink:href="#ArialMT-111"/>
      <use x="155.615234" xlink:href="#ArialMT-99"/>
      <use x="205.615234" xlink:href="#ArialMT-101"/>
      <use x="261.230469" xlink:href="#ArialMT-110"/>
      <use x="316.845703" xlink:href="#ArialMT-116"/>
     </g>
    </g>
   </g>
   <g id="line2d_38">
    <path clip-path="url(#p38bbe6dc5d)" d="M 49.707969 91.012667 
L 80.407169 130.618368 
L 111.106369 117.454252 
L 141.805569 268.251437 
L 172.504769 238.942006 
L 203.203969 120.539384 
L 233.903169 22.869538 
L 264.602369 45.821615 
L 295.301569 89.01767 
L 326.000769 136.155073 
L 356.699969 188.475348 
L 387.399169 210.505947 
L 418.098369 134.838744 
L 448.797569 73.235884 
L 479.496769 106.58114 
L 510.195969 39.673075 
L 540.895169 35.055088 
L 571.594369 182.311136 
L 602.293569 39.259343 
L 632.992769 30.262237 
L 663.691969 131.60234 
L 694.391169 59.563361 
L 725.090369 117.254167 
L 755.789569 94.007938 
L 786.488769 200.418361 
L 817.187969 216.150262 
" style="fill:none;stroke:#55a868;stroke-linecap:round;stroke-width:1.5;"/>
    <g clip-path="url(#p38bbe6dc5d)">
     <use style="fill:#55a868;stroke:#55a868;" x="49.707969" xlink:href="#m3062bb82f3" y="91.012667"/>
     <use style="fill:#55a868;stroke:#55a868;" x="80.407169" xlink:href="#m3062bb82f3" y="130.618368"/>
     <use style="fill:#55a868;stroke:#55a868;" x="111.106369" xlink:href="#m3062bb82f3" y="117.454252"/>
     <use style="fill:#55a868;stroke:#55a868;" x="141.805569" xlink:href="#m3062bb82f3" y="268.251437"/>
     <use style="fill:#55a868;stroke:#55a868;" x="172.504769" xlink:href="#m3062bb82f3" y="238.942006"/>
     <use style="fill:#55a868;stroke:#55a868;" x="203.203969" xlink:href="#m3062bb82f3" y="120.539384"/>
     <use style="fill:#55a868;stroke:#55a868;" x="233.903169" xlink:href="#m3062bb82f3" y="22.869538"/>
     <use style="fill:#55a868;stroke:#55a868;" x="264.602369" xlink:href="#m3062bb82f3" y="45.821615"/>
     <use style="fill:#55a868;stroke:#55a868;" x="295.301569" xlink:href="#m3062bb82f3" y="89.01767"/>
     <use style="fill:#55a868;stroke:#55a868;" x="326.000769" xlink:href="#m3062bb82f3" y="136.155073"/>
     <use style="fill:#55a868;stroke:#55a868;" x="356.699969" xlink:href="#m3062bb82f3" y="188.475348"/>
     <use style="fill:#55a868;stroke:#55a868;" x="387.399169" xlink:href="#m3062bb82f3" y="210.505947"/>
     <use style="fill:#55a868;stroke:#55a868;" x="418.098369" xlink:href="#m3062bb82f3" y="134.838744"/>
     <use style="fill:#55a868;stroke:#55a868;" x="448.797569" xlink:href="#m3062bb82f3" y="73.235884"/>
     <use style="fill:#55a868;stroke:#55a868;" x="479.496769" xlink:href="#m3062bb82f3" y="106.58114"/>
     <use style="fill:#55a868;stroke:#55a868;" x="510.195969" xlink:href="#m3062bb82f3" y="39.673075"/>
     <use style="fill:#55a868;stroke:#55a868;" x="540.895169" xlink:href="#m3062bb82f3" y="35.055088"/>
     <use style="fill:#55a868;stroke:#55a868;" x="571.594369" xlink:href="#m3062bb82f3" y="182.311136"/>
     <use style="fill:#55a868;stroke:#55a868;" x="602.293569" xlink:href="#m3062bb82f3" y="39.259343"/>
     <use style="fill:#55a868;stroke:#55a868;" x="632.992769" xlink:href="#m3062bb82f3" y="30.262237"/>
     <use style="fill:#55a868;stroke:#55a868;" x="663.691969" xlink:href="#m3062bb82f3" y="131.60234"/>
     <use style="fill:#55a868;stroke:#55a868;" x="694.391169" xlink:href="#m3062bb82f3" y="59.563361"/>
     <use style="fill:#55a868;stroke:#55a868;" x="725.090369" xlink:href="#m3062bb82f3" y="117.254167"/>
     <use style="fill:#55a868;stroke:#55a868;" x="755.789569" xlink:href="#m3062bb82f3" y="94.007938"/>
     <use style="fill:#55a868;stroke:#55a868;" x="786.488769" xlink:href="#m3062bb82f3" y="200.418361"/>
     <use style="fill:#55a868;stroke:#55a868;" x="817.187969" xlink:href="#m3062bb82f3" y="216.150262"/>
    </g>
   </g>
   <g id="patch_14">
    <path d="M 49.707969 280.520532 
L 49.707969 10.600443 
" style="fill:none;stroke:#ffffff;stroke-linecap:square;stroke-linejoin:miter;stroke-width:1.25;"/>
   </g>
   <g id="patch_15">
    <path d="M 817.187969 280.520532 
L 817.187969 10.600443 
" style="fill:none;stroke:#ffffff;stroke-linecap:square;stroke-linejoin:miter;stroke-width:1.25;"/>
   </g>
   <g id="patch_16">
    <path d="M 49.707969 280.520532 
L 817.187969 280.520532 
" style="fill:none;stroke:#ffffff;stroke-linecap:square;stroke-linejoin:miter;stroke-width:1.25;"/>
   </g>
   <g id="patch_17">
    <path d="M 49.707969 10.600443 
L 817.187969 10.600443 
" style="fill:none;stroke:#ffffff;stroke-linecap:square;stroke-linejoin:miter;stroke-width:1.25;"/>
   </g>
  </g>
 </g>
 <defs>
  <clipPath id="p38bbe6dc5d">
   <rect height="269.920089" width="767.48" x="49.707969" y="10.600443"/>
  </clipPath>
 </defs>
</svg>
