<?xml version="1.0" encoding="utf-8" standalone="no"?>
<!DOCTYPE svg PUBLIC "-//W3C//DTD SVG 1.1//EN"
  "http://www.w3.org/Graphics/SVG/1.1/DTD/svg11.dtd">
<!-- Created with matplotlib (https://matplotlib.org/) -->
<svg height="348.281151pt" version="1.1" viewBox="0 0 1145.803969 348.281151" width="1145.803969pt" xmlns="http://www.w3.org/2000/svg" xmlns:xlink="http://www.w3.org/1999/xlink">
 <defs>
  <style type="text/css">
*{stroke-linecap:butt;stroke-linejoin:round;}
  </style>
 </defs>
 <g id="figure_1">
  <g id="patch_1">
   <path d="M 0 348.281151 
L 1145.803969 348.281151 
L 1145.803969 0 
L 0 0 
z
" style="fill:#ffffff;"/>
  </g>
  <g id="axes_1">
   <g id="patch_2">
    <path d="M 49.707969 303.674432 
L 832.847969 303.674432 
L 832.847969 10.554343 
L 49.707969 10.554343 
z
" style="fill:#eaeaf2;"/>
   </g>
   <g id="matplotlib.axis_1">
    <g id="xtick_1">
     <g id="text_1">
      <!-- 07 -->
      <defs>
       <path d="M 4.15625 35.296875 
Q 4.15625 48 6.765625 55.734375 
Q 9.375 63.484375 14.515625 67.671875 
Q 19.671875 71.875 27.484375 71.875 
Q 33.25 71.875 37.59375 69.546875 
Q 41.9375 67.234375 44.765625 62.859375 
Q 47.609375 58.5 49.21875 52.21875 
Q 50.828125 45.953125 50.828125 35.296875 
Q 50.828125 22.703125 48.234375 14.96875 
Q 45.65625 7.234375 40.5 3 
Q 35.359375 -1.21875 27.484375 -1.21875 
Q 17.140625 -1.21875 11.234375 6.203125 
Q 4.15625 15.140625 4.15625 35.296875 
z
M 13.1875 35.296875 
Q 13.1875 17.671875 17.3125 11.828125 
Q 21.4375 6 27.484375 6 
Q 33.546875 6 37.671875 11.859375 
Q 41.796875 17.71875 41.796875 35.296875 
Q 41.796875 52.984375 37.671875 58.78125 
Q 33.546875 64.59375 27.390625 64.59375 
Q 21.34375 64.59375 17.71875 59.46875 
Q 13.1875 52.9375 13.1875 35.296875 
z
" id="ArialMT-48"/>
       <path d="M 4.734375 62.203125 
L 4.734375 70.65625 
L 51.078125 70.65625 
L 51.078125 63.8125 
Q 44.234375 56.546875 37.515625 44.484375 
Q 30.8125 32.421875 27.15625 19.671875 
Q 24.515625 10.6875 23.78125 0 
L 14.75 0 
Q 14.890625 8.453125 18.0625 20.40625 
Q 21.234375 32.375 27.171875 43.484375 
Q 33.109375 54.59375 39.796875 62.203125 
z
" id="ArialMT-55"/>
      </defs>
      <g style="fill:#262626;" transform="translate(50.710392 321.048026)scale(0.11 -0.11)">
       <use xlink:href="#ArialMT-48"/>
       <use x="55.615234" xlink:href="#ArialMT-55"/>
      </g>
     </g>
    </g>
    <g id="xtick_2">
     <g id="text_2">
      <!-- 08 -->
      <defs>
       <path d="M 17.671875 38.8125 
Q 12.203125 40.828125 9.5625 44.53125 
Q 6.9375 48.25 6.9375 53.421875 
Q 6.9375 61.234375 12.546875 66.546875 
Q 18.171875 71.875 27.484375 71.875 
Q 36.859375 71.875 42.578125 66.421875 
Q 48.296875 60.984375 48.296875 53.171875 
Q 48.296875 48.1875 45.671875 44.5 
Q 43.0625 40.828125 37.75 38.8125 
Q 44.34375 36.671875 47.78125 31.875 
Q 51.21875 27.09375 51.21875 20.453125 
Q 51.21875 11.28125 44.71875 5.03125 
Q 38.234375 -1.21875 27.640625 -1.21875 
Q 17.046875 -1.21875 10.546875 5.046875 
Q 4.046875 11.328125 4.046875 20.703125 
Q 4.046875 27.6875 7.59375 32.390625 
Q 11.140625 37.109375 17.671875 38.8125 
z
M 15.921875 53.71875 
Q 15.921875 48.640625 19.1875 45.40625 
Q 22.46875 42.1875 27.6875 42.1875 
Q 32.765625 42.1875 36.015625 45.375 
Q 39.265625 48.578125 39.265625 53.21875 
Q 39.265625 58.0625 35.90625 61.359375 
Q 32.5625 64.65625 27.59375 64.65625 
Q 22.5625 64.65625 19.234375 61.421875 
Q 15.921875 58.203125 15.921875 53.71875 
z
M 13.09375 20.65625 
Q 13.09375 16.890625 14.875 13.375 
Q 16.65625 9.859375 20.171875 7.921875 
Q 23.6875 6 27.734375 6 
Q 34.03125 6 38.125 10.046875 
Q 42.234375 14.109375 42.234375 20.359375 
Q 42.234375 26.703125 38.015625 30.859375 
Q 33.796875 35.015625 27.4375 35.015625 
Q 21.234375 35.015625 17.15625 30.90625 
Q 13.09375 26.8125 13.09375 20.65625 
z
" id="ArialMT-56"/>
      </defs>
      <g style="fill:#262626;" transform="translate(79.18821 321.048026)scale(0.11 -0.11)">
       <use xlink:href="#ArialMT-48"/>
       <use x="55.615234" xlink:href="#ArialMT-56"/>
      </g>
     </g>
    </g>
    <g id="xtick_3">
     <g id="text_3">
      <!-- 09 -->
      <defs>
       <path d="M 5.46875 16.546875 
L 13.921875 17.328125 
Q 14.984375 11.375 18.015625 8.6875 
Q 21.046875 6 25.78125 6 
Q 29.828125 6 32.875 7.859375 
Q 35.9375 9.71875 37.890625 12.8125 
Q 39.84375 15.921875 41.15625 21.1875 
Q 42.484375 26.46875 42.484375 31.9375 
Q 42.484375 32.515625 42.4375 33.6875 
Q 39.796875 29.5 35.234375 26.875 
Q 30.671875 24.265625 25.34375 24.265625 
Q 16.453125 24.265625 10.296875 30.703125 
Q 4.15625 37.15625 4.15625 47.703125 
Q 4.15625 58.59375 10.578125 65.234375 
Q 17 71.875 26.65625 71.875 
Q 33.640625 71.875 39.421875 68.109375 
Q 45.21875 64.359375 48.21875 57.390625 
Q 51.21875 50.4375 51.21875 37.25 
Q 51.21875 23.53125 48.234375 15.40625 
Q 45.265625 7.28125 39.375 3.03125 
Q 33.5 -1.21875 25.59375 -1.21875 
Q 17.1875 -1.21875 11.859375 3.4375 
Q 6.546875 8.109375 5.46875 16.546875 
z
M 41.453125 48.140625 
Q 41.453125 55.71875 37.421875 60.15625 
Q 33.40625 64.59375 27.734375 64.59375 
Q 21.875 64.59375 17.53125 59.8125 
Q 13.1875 55.03125 13.1875 47.40625 
Q 13.1875 40.578125 17.3125 36.296875 
Q 21.4375 32.03125 27.484375 32.03125 
Q 33.59375 32.03125 37.515625 36.296875 
Q 41.453125 40.578125 41.453125 48.140625 
z
" id="ArialMT-57"/>
      </defs>
      <g style="fill:#262626;" transform="translate(107.666028 321.048026)scale(0.11 -0.11)">
       <use xlink:href="#ArialMT-48"/>
       <use x="55.615234" xlink:href="#ArialMT-57"/>
      </g>
     </g>
    </g>
    <g id="xtick_4">
     <g id="text_4">
      <!-- 10 -->
      <defs>
       <path d="M 37.25 0 
L 28.46875 0 
L 28.46875 56 
Q 25.296875 52.984375 20.140625 49.953125 
Q 14.984375 46.921875 10.890625 45.40625 
L 10.890625 53.90625 
Q 18.265625 57.375 23.78125 62.296875 
Q 29.296875 67.234375 31.59375 71.875 
L 37.25 71.875 
z
" id="ArialMT-49"/>
      </defs>
      <g style="fill:#262626;" transform="translate(136.143847 321.048026)scale(0.11 -0.11)">
       <use xlink:href="#ArialMT-49"/>
       <use x="55.615234" xlink:href="#ArialMT-48"/>
      </g>
     </g>
    </g>
    <g id="xtick_5">
     <g id="text_5">
      <!-- 11 -->
      <g style="fill:#262626;" transform="translate(164.62768 321.048026)scale(0.11 -0.11)">
       <use xlink:href="#ArialMT-49"/>
       <use x="55.505859" xlink:href="#ArialMT-49"/>
      </g>
     </g>
    </g>
    <g id="xtick_6">
     <g id="text_6">
      <!-- 12 -->
      <defs>
       <path d="M 50.34375 8.453125 
L 50.34375 0 
L 3.03125 0 
Q 2.9375 3.171875 4.046875 6.109375 
Q 5.859375 10.9375 9.828125 15.625 
Q 13.8125 20.3125 21.34375 26.46875 
Q 33.015625 36.03125 37.109375 41.625 
Q 41.21875 47.21875 41.21875 52.203125 
Q 41.21875 57.421875 37.46875 61 
Q 33.734375 64.59375 27.734375 64.59375 
Q 21.390625 64.59375 17.578125 60.78125 
Q 13.765625 56.984375 13.71875 50.25 
L 4.6875 51.171875 
Q 5.609375 61.28125 11.65625 66.578125 
Q 17.71875 71.875 27.9375 71.875 
Q 38.234375 71.875 44.234375 66.15625 
Q 50.25 60.453125 50.25 52 
Q 50.25 47.703125 48.484375 43.546875 
Q 46.734375 39.40625 42.65625 34.8125 
Q 38.578125 30.21875 29.109375 22.21875 
Q 21.1875 15.578125 18.9375 13.203125 
Q 16.703125 10.84375 15.234375 8.453125 
z
" id="ArialMT-50"/>
      </defs>
      <g style="fill:#262626;" transform="translate(193.099483 321.048026)scale(0.11 -0.11)">
       <use xlink:href="#ArialMT-49"/>
       <use x="55.615234" xlink:href="#ArialMT-50"/>
      </g>
     </g>
    </g>
    <g id="xtick_7">
     <g id="text_7">
      <!-- 13 -->
      <defs>
       <path d="M 4.203125 18.890625 
L 12.984375 20.0625 
Q 14.5 12.59375 18.140625 9.296875 
Q 21.78125 6 27 6 
Q 33.203125 6 37.46875 10.296875 
Q 41.75 14.59375 41.75 20.953125 
Q 41.75 27 37.796875 30.921875 
Q 33.84375 34.859375 27.734375 34.859375 
Q 25.25 34.859375 21.53125 33.890625 
L 22.515625 41.609375 
Q 23.390625 41.5 23.921875 41.5 
Q 29.546875 41.5 34.03125 44.421875 
Q 38.53125 47.359375 38.53125 53.46875 
Q 38.53125 58.296875 35.25 61.46875 
Q 31.984375 64.65625 26.8125 64.65625 
Q 21.6875 64.65625 18.265625 61.421875 
Q 14.84375 58.203125 13.875 51.765625 
L 5.078125 53.328125 
Q 6.6875 62.15625 12.390625 67.015625 
Q 18.109375 71.875 26.609375 71.875 
Q 32.46875 71.875 37.390625 69.359375 
Q 42.328125 66.84375 44.9375 62.5 
Q 47.5625 58.15625 47.5625 53.265625 
Q 47.5625 48.640625 45.0625 44.828125 
Q 42.578125 41.015625 37.703125 38.765625 
Q 44.046875 37.3125 47.5625 32.6875 
Q 51.078125 28.078125 51.078125 21.140625 
Q 51.078125 11.765625 44.234375 5.25 
Q 37.40625 -1.265625 26.953125 -1.265625 
Q 17.53125 -1.265625 11.296875 4.34375 
Q 5.078125 9.96875 4.203125 18.890625 
z
" id="ArialMT-51"/>
      </defs>
      <g style="fill:#262626;" transform="translate(221.577301 321.048026)scale(0.11 -0.11)">
       <use xlink:href="#ArialMT-49"/>
       <use x="55.615234" xlink:href="#ArialMT-51"/>
      </g>
     </g>
    </g>
    <g id="xtick_8">
     <g id="text_8">
      <!-- 14 -->
      <defs>
       <path d="M 32.328125 0 
L 32.328125 17.140625 
L 1.265625 17.140625 
L 1.265625 25.203125 
L 33.9375 71.578125 
L 41.109375 71.578125 
L 41.109375 25.203125 
L 50.78125 25.203125 
L 50.78125 17.140625 
L 41.109375 17.140625 
L 41.109375 0 
z
M 32.328125 25.203125 
L 32.328125 57.46875 
L 9.90625 25.203125 
z
" id="ArialMT-52"/>
      </defs>
      <g style="fill:#262626;" transform="translate(250.055119 321.048026)scale(0.11 -0.11)">
       <use xlink:href="#ArialMT-49"/>
       <use x="55.615234" xlink:href="#ArialMT-52"/>
      </g>
     </g>
    </g>
    <g id="xtick_9">
     <g id="text_9">
      <!-- 15 -->
      <defs>
       <path d="M 4.15625 18.75 
L 13.375 19.53125 
Q 14.40625 12.796875 18.140625 9.390625 
Q 21.875 6 27.15625 6 
Q 33.5 6 37.890625 10.78125 
Q 42.28125 15.578125 42.28125 23.484375 
Q 42.28125 31 38.0625 35.34375 
Q 33.84375 39.703125 27 39.703125 
Q 22.75 39.703125 19.328125 37.765625 
Q 15.921875 35.84375 13.96875 32.765625 
L 5.71875 33.84375 
L 12.640625 70.609375 
L 48.25 70.609375 
L 48.25 62.203125 
L 19.671875 62.203125 
L 15.828125 42.96875 
Q 22.265625 47.46875 29.34375 47.46875 
Q 38.71875 47.46875 45.15625 40.96875 
Q 51.609375 34.46875 51.609375 24.265625 
Q 51.609375 14.546875 45.953125 7.46875 
Q 39.0625 -1.21875 27.15625 -1.21875 
Q 17.390625 -1.21875 11.203125 4.25 
Q 5.03125 9.71875 4.15625 18.75 
z
" id="ArialMT-53"/>
      </defs>
      <g style="fill:#262626;" transform="translate(278.532937 321.048026)scale(0.11 -0.11)">
       <use xlink:href="#ArialMT-49"/>
       <use x="55.615234" xlink:href="#ArialMT-53"/>
      </g>
     </g>
    </g>
    <g id="xtick_10">
     <g id="text_10">
      <!-- 16 -->
      <defs>
       <path d="M 49.75 54.046875 
L 41.015625 53.375 
Q 39.84375 58.546875 37.703125 60.890625 
Q 34.125 64.65625 28.90625 64.65625 
Q 24.703125 64.65625 21.53125 62.3125 
Q 17.390625 59.28125 14.984375 53.46875 
Q 12.59375 47.65625 12.5 36.921875 
Q 15.671875 41.75 20.265625 44.09375 
Q 24.859375 46.4375 29.890625 46.4375 
Q 38.671875 46.4375 44.84375 39.96875 
Q 51.03125 33.5 51.03125 23.25 
Q 51.03125 16.5 48.125 10.71875 
Q 45.21875 4.9375 40.140625 1.859375 
Q 35.0625 -1.21875 28.609375 -1.21875 
Q 17.625 -1.21875 10.6875 6.859375 
Q 3.765625 14.9375 3.765625 33.5 
Q 3.765625 54.25 11.421875 63.671875 
Q 18.109375 71.875 29.4375 71.875 
Q 37.890625 71.875 43.28125 67.140625 
Q 48.6875 62.40625 49.75 54.046875 
z
M 13.875 23.1875 
Q 13.875 18.65625 15.796875 14.5 
Q 17.71875 10.359375 21.1875 8.171875 
Q 24.65625 6 28.46875 6 
Q 34.03125 6 38.03125 10.484375 
Q 42.046875 14.984375 42.046875 22.703125 
Q 42.046875 30.125 38.078125 34.390625 
Q 34.125 38.671875 28.125 38.671875 
Q 22.171875 38.671875 18.015625 34.390625 
Q 13.875 30.125 13.875 23.1875 
z
" id="ArialMT-54"/>
      </defs>
      <g style="fill:#262626;" transform="translate(307.010756 321.048026)scale(0.11 -0.11)">
       <use xlink:href="#ArialMT-49"/>
       <use x="55.615234" xlink:href="#ArialMT-54"/>
      </g>
     </g>
    </g>
    <g id="xtick_11">
     <g id="text_11">
      <!-- 17 -->
      <g style="fill:#262626;" transform="translate(335.488574 321.048026)scale(0.11 -0.11)">
       <use xlink:href="#ArialMT-49"/>
       <use x="55.615234" xlink:href="#ArialMT-55"/>
      </g>
     </g>
    </g>
    <g id="xtick_12">
     <g id="text_12">
      <!-- 18 -->
      <g style="fill:#262626;" transform="translate(363.966392 321.048026)scale(0.11 -0.11)">
       <use xlink:href="#ArialMT-49"/>
       <use x="55.615234" xlink:href="#ArialMT-56"/>
      </g>
     </g>
    </g>
    <g id="xtick_13">
     <g id="text_13">
      <!-- 19 -->
      <g style="fill:#262626;" transform="translate(392.44421 321.048026)scale(0.11 -0.11)">
       <use xlink:href="#ArialMT-49"/>
       <use x="55.615234" xlink:href="#ArialMT-57"/>
      </g>
     </g>
    </g>
    <g id="xtick_14">
     <g id="text_14">
      <!-- 20 -->
      <g style="fill:#262626;" transform="translate(420.922028 321.048026)scale(0.11 -0.11)">
       <use xlink:href="#ArialMT-50"/>
       <use x="55.615234" xlink:href="#ArialMT-48"/>
      </g>
     </g>
    </g>
    <g id="xtick_15">
     <g id="text_15">
      <!-- 21 -->
      <g style="fill:#262626;" transform="translate(449.399847 321.048026)scale(0.11 -0.11)">
       <use xlink:href="#ArialMT-50"/>
       <use x="55.615234" xlink:href="#ArialMT-49"/>
      </g>
     </g>
    </g>
    <g id="xtick_16">
     <g id="text_16">
      <!-- 22 -->
      <g style="fill:#262626;" transform="translate(477.877665 321.048026)scale(0.11 -0.11)">
       <use xlink:href="#ArialMT-50"/>
       <use x="55.615234" xlink:href="#ArialMT-50"/>
      </g>
     </g>
    </g>
    <g id="xtick_17">
     <g id="text_17">
      <!-- 23 -->
      <g style="fill:#262626;" transform="translate(506.355483 321.048026)scale(0.11 -0.11)">
       <use xlink:href="#ArialMT-50"/>
       <use x="55.615234" xlink:href="#ArialMT-51"/>
      </g>
     </g>
    </g>
    <g id="xtick_18">
     <g id="text_18">
      <!-- 24 -->
      <g style="fill:#262626;" transform="translate(534.833301 321.048026)scale(0.11 -0.11)">
       <use xlink:href="#ArialMT-50"/>
       <use x="55.615234" xlink:href="#ArialMT-52"/>
      </g>
     </g>
    </g>
    <g id="xtick_19">
     <g id="text_19">
      <!-- 25 -->
      <g style="fill:#262626;" transform="translate(563.311119 321.048026)scale(0.11 -0.11)">
       <use xlink:href="#ArialMT-50"/>
       <use x="55.615234" xlink:href="#ArialMT-53"/>
      </g>
     </g>
    </g>
    <g id="xtick_20">
     <g id="text_20">
      <!-- 26 -->
      <g style="fill:#262626;" transform="translate(591.788937 321.048026)scale(0.11 -0.11)">
       <use xlink:href="#ArialMT-50"/>
       <use x="55.615234" xlink:href="#ArialMT-54"/>
      </g>
     </g>
    </g>
    <g id="xtick_21">
     <g id="text_21">
      <!-- 27 -->
      <g style="fill:#262626;" transform="translate(620.266756 321.048026)scale(0.11 -0.11)">
       <use xlink:href="#ArialMT-50"/>
       <use x="55.615234" xlink:href="#ArialMT-55"/>
      </g>
     </g>
    </g>
    <g id="xtick_22">
     <g id="text_22">
      <!-- 28 -->
      <g style="fill:#262626;" transform="translate(648.744574 321.048026)scale(0.11 -0.11)">
       <use xlink:href="#ArialMT-50"/>
       <use x="55.615234" xlink:href="#ArialMT-56"/>
      </g>
     </g>
    </g>
    <g id="xtick_23">
     <g id="text_23">
      <!-- 29 -->
      <g style="fill:#262626;" transform="translate(677.222392 321.048026)scale(0.11 -0.11)">
       <use xlink:href="#ArialMT-50"/>
       <use x="55.615234" xlink:href="#ArialMT-57"/>
      </g>
     </g>
    </g>
    <g id="xtick_24">
     <g id="text_24">
      <!-- 30 -->
      <g style="fill:#262626;" transform="translate(705.70021 321.048026)scale(0.11 -0.11)">
       <use xlink:href="#ArialMT-51"/>
       <use x="55.615234" xlink:href="#ArialMT-48"/>
      </g>
     </g>
    </g>
    <g id="xtick_25">
     <g id="text_25">
      <!-- May -->
      <defs>
       <path d="M 7.421875 0 
L 7.421875 71.578125 
L 21.6875 71.578125 
L 38.625 20.90625 
Q 40.96875 13.8125 42.046875 10.296875 
Q 43.265625 14.203125 45.84375 21.78125 
L 62.984375 71.578125 
L 75.734375 71.578125 
L 75.734375 0 
L 66.609375 0 
L 66.609375 59.90625 
L 45.796875 0 
L 37.25 0 
L 16.546875 60.9375 
L 16.546875 0 
z
" id="ArialMT-77"/>
       <path d="M 40.4375 6.390625 
Q 35.546875 2.25 31.03125 0.53125 
Q 26.515625 -1.171875 21.34375 -1.171875 
Q 12.796875 -1.171875 8.203125 3 
Q 3.609375 7.171875 3.609375 13.671875 
Q 3.609375 17.484375 5.34375 20.625 
Q 7.078125 23.78125 9.890625 25.6875 
Q 12.703125 27.59375 16.21875 28.5625 
Q 18.796875 29.25 24.03125 29.890625 
Q 34.671875 31.15625 39.703125 32.90625 
Q 39.75 34.71875 39.75 35.203125 
Q 39.75 40.578125 37.25 42.78125 
Q 33.890625 45.75 27.25 45.75 
Q 21.046875 45.75 18.09375 43.578125 
Q 15.140625 41.40625 13.71875 35.890625 
L 5.125 37.0625 
Q 6.296875 42.578125 8.984375 45.96875 
Q 11.671875 49.359375 16.75 51.1875 
Q 21.828125 53.03125 28.515625 53.03125 
Q 35.15625 53.03125 39.296875 51.46875 
Q 43.453125 49.90625 45.40625 47.53125 
Q 47.359375 45.171875 48.140625 41.546875 
Q 48.578125 39.3125 48.578125 33.453125 
L 48.578125 21.734375 
Q 48.578125 9.46875 49.140625 6.21875 
Q 49.703125 2.984375 51.375 0 
L 42.1875 0 
Q 40.828125 2.734375 40.4375 6.390625 
z
M 39.703125 26.03125 
Q 34.90625 24.078125 25.34375 22.703125 
Q 19.921875 21.921875 17.671875 20.9375 
Q 15.4375 19.96875 14.203125 18.09375 
Q 12.984375 16.21875 12.984375 13.921875 
Q 12.984375 10.40625 15.640625 8.0625 
Q 18.3125 5.71875 23.4375 5.71875 
Q 28.515625 5.71875 32.46875 7.9375 
Q 36.421875 10.15625 38.28125 14.015625 
Q 39.703125 17 39.703125 22.796875 
z
" id="ArialMT-97"/>
       <path d="M 6.203125 -19.96875 
L 5.21875 -11.71875 
Q 8.109375 -12.5 10.25 -12.5 
Q 13.1875 -12.5 14.9375 -11.515625 
Q 16.703125 -10.546875 17.828125 -8.796875 
Q 18.65625 -7.46875 20.515625 -2.25 
Q 20.75 -1.515625 21.296875 -0.09375 
L 1.609375 51.859375 
L 11.078125 51.859375 
L 21.875 21.828125 
Q 23.96875 16.109375 25.640625 9.8125 
Q 27.15625 15.875 29.25 21.625 
L 40.328125 51.859375 
L 49.125 51.859375 
L 29.390625 -0.875 
Q 26.21875 -9.421875 24.46875 -12.640625 
Q 22.125 -17 19.09375 -19.015625 
Q 16.0625 -21.046875 11.859375 -21.046875 
Q 9.328125 -21.046875 6.203125 -19.96875 
z
" id="ArialMT-121"/>
      </defs>
      <g style="fill:#262626;" transform="translate(729.905216 321.048026)scale(0.11 -0.11)">
       <use xlink:href="#ArialMT-77"/>
       <use x="83.300781" xlink:href="#ArialMT-97"/>
       <use x="138.916016" xlink:href="#ArialMT-121"/>
      </g>
     </g>
    </g>
    <g id="xtick_26">
     <g id="text_26">
      <!-- 02 -->
      <g style="fill:#262626;" transform="translate(762.655847 321.048026)scale(0.11 -0.11)">
       <use xlink:href="#ArialMT-48"/>
       <use x="55.615234" xlink:href="#ArialMT-50"/>
      </g>
     </g>
    </g>
    <g id="xtick_27">
     <g id="text_27">
      <!-- 03 -->
      <g style="fill:#262626;" transform="translate(791.133665 321.048026)scale(0.11 -0.11)">
       <use xlink:href="#ArialMT-48"/>
       <use x="55.615234" xlink:href="#ArialMT-51"/>
      </g>
     </g>
    </g>
    <g id="xtick_28">
     <g id="text_28">
      <!-- 04 -->
      <g style="fill:#262626;" transform="translate(819.611483 321.048026)scale(0.11 -0.11)">
       <use xlink:href="#ArialMT-48"/>
       <use x="55.615234" xlink:href="#ArialMT-52"/>
      </g>
     </g>
    </g>
    <g id="text_29">
     <!-- Dato -->
     <defs>
      <path d="M 7.71875 0 
L 7.71875 71.578125 
L 32.375 71.578125 
Q 40.71875 71.578125 45.125 70.5625 
Q 51.265625 69.140625 55.609375 65.4375 
Q 61.28125 60.640625 64.078125 53.1875 
Q 66.890625 45.75 66.890625 36.1875 
Q 66.890625 28.03125 64.984375 21.734375 
Q 63.09375 15.4375 60.109375 11.296875 
Q 57.125 7.171875 53.578125 4.796875 
Q 50.046875 2.4375 45.046875 1.21875 
Q 40.046875 0 33.546875 0 
z
M 17.1875 8.453125 
L 32.46875 8.453125 
Q 39.546875 8.453125 43.578125 9.765625 
Q 47.609375 11.078125 50 13.484375 
Q 53.375 16.84375 55.25 22.53125 
Q 57.125 28.21875 57.125 36.328125 
Q 57.125 47.5625 53.4375 53.59375 
Q 49.75 59.625 44.484375 61.671875 
Q 40.671875 63.140625 32.234375 63.140625 
L 17.1875 63.140625 
z
" id="ArialMT-68"/>
      <path d="M 25.78125 7.859375 
L 27.046875 0.09375 
Q 23.34375 -0.6875 20.40625 -0.6875 
Q 15.625 -0.6875 12.984375 0.828125 
Q 10.359375 2.34375 9.28125 4.8125 
Q 8.203125 7.28125 8.203125 15.1875 
L 8.203125 45.015625 
L 1.765625 45.015625 
L 1.765625 51.859375 
L 8.203125 51.859375 
L 8.203125 64.703125 
L 16.9375 69.96875 
L 16.9375 51.859375 
L 25.78125 51.859375 
L 25.78125 45.015625 
L 16.9375 45.015625 
L 16.9375 14.703125 
Q 16.9375 10.9375 17.40625 9.859375 
Q 17.875 8.796875 18.921875 8.15625 
Q 19.96875 7.515625 21.921875 7.515625 
Q 23.390625 7.515625 25.78125 7.859375 
z
" id="ArialMT-116"/>
      <path d="M 3.328125 25.921875 
Q 3.328125 40.328125 11.328125 47.265625 
Q 18.015625 53.03125 27.640625 53.03125 
Q 38.328125 53.03125 45.109375 46.015625 
Q 51.90625 39.015625 51.90625 26.65625 
Q 51.90625 16.65625 48.90625 10.90625 
Q 45.90625 5.171875 40.15625 2 
Q 34.421875 -1.171875 27.640625 -1.171875 
Q 16.75 -1.171875 10.03125 5.8125 
Q 3.328125 12.796875 3.328125 25.921875 
z
M 12.359375 25.921875 
Q 12.359375 15.96875 16.703125 11.015625 
Q 21.046875 6.0625 27.640625 6.0625 
Q 34.1875 6.0625 38.53125 11.03125 
Q 42.875 16.015625 42.875 26.21875 
Q 42.875 35.84375 38.5 40.796875 
Q 34.125 45.75 27.640625 45.75 
Q 21.046875 45.75 16.703125 40.8125 
Q 12.359375 35.890625 12.359375 25.921875 
z
" id="ArialMT-111"/>
     </defs>
     <g style="fill:#262626;" transform="translate(425.436562 338.099901)scale(0.15 -0.15)">
      <use xlink:href="#ArialMT-68"/>
      <use x="72.216797" xlink:href="#ArialMT-97"/>
      <use x="127.832031" xlink:href="#ArialMT-116"/>
      <use x="155.615234" xlink:href="#ArialMT-111"/>
     </g>
    </g>
    <g id="text_30">
     <!-- 2020-May -->
     <defs>
      <path d="M 3.171875 21.484375 
L 3.171875 30.328125 
L 30.171875 30.328125 
L 30.171875 21.484375 
z
" id="ArialMT-45"/>
     </defs>
     <g style="fill:#262626;" transform="translate(783.9375 334.269432)scale(0.11 -0.11)">
      <use xlink:href="#ArialMT-50"/>
      <use x="55.615234" xlink:href="#ArialMT-48"/>
      <use x="111.230469" xlink:href="#ArialMT-50"/>
      <use x="166.845703" xlink:href="#ArialMT-48"/>
      <use x="222.460938" xlink:href="#ArialMT-45"/>
      <use x="255.761719" xlink:href="#ArialMT-77"/>
      <use x="339.0625" xlink:href="#ArialMT-97"/>
      <use x="394.677734" xlink:href="#ArialMT-121"/>
     </g>
    </g>
   </g>
   <g id="matplotlib.axis_2">
    <g id="ytick_1">
     <g id="line2d_1">
      <path clip-path="url(#p6ad0c605d2)" d="M 49.707969 276.15347 
L 832.847969 276.15347 
" style="fill:none;stroke:#ffffff;stroke-linecap:round;"/>
     </g>
     <g id="line2d_2">
      <defs>
       <path d="M 0 0 
L -6 0 
" id="mc53c40052c" style="stroke:#262626;stroke-width:1.25;"/>
      </defs>
      <g>
       <use style="fill:#262626;stroke:#262626;stroke-width:1.25;" x="49.707969" xlink:href="#mc53c40052c" y="276.15347"/>
      </g>
     </g>
     <g id="text_31">
      <!-- 2.5 -->
      <defs>
       <path d="M 9.078125 0 
L 9.078125 10.015625 
L 19.09375 10.015625 
L 19.09375 0 
z
" id="ArialMT-46"/>
      </defs>
      <g style="fill:#262626;" transform="translate(24.917969 280.090267)scale(0.11 -0.11)">
       <use xlink:href="#ArialMT-50"/>
       <use x="55.615234" xlink:href="#ArialMT-46"/>
       <use x="83.398438" xlink:href="#ArialMT-53"/>
      </g>
     </g>
    </g>
    <g id="ytick_2">
     <g id="line2d_3">
      <path clip-path="url(#p6ad0c605d2)" d="M 49.707969 243.026386 
L 832.847969 243.026386 
" style="fill:none;stroke:#ffffff;stroke-linecap:round;"/>
     </g>
     <g id="line2d_4">
      <g>
       <use style="fill:#262626;stroke:#262626;stroke-width:1.25;" x="49.707969" xlink:href="#mc53c40052c" y="243.026386"/>
      </g>
     </g>
     <g id="text_32">
      <!-- 3.0 -->
      <g style="fill:#262626;" transform="translate(24.917969 246.963183)scale(0.11 -0.11)">
       <use xlink:href="#ArialMT-51"/>
       <use x="55.615234" xlink:href="#ArialMT-46"/>
       <use x="83.398438" xlink:href="#ArialMT-48"/>
      </g>
     </g>
    </g>
    <g id="ytick_3">
     <g id="line2d_5">
      <path clip-path="url(#p6ad0c605d2)" d="M 49.707969 209.899302 
L 832.847969 209.899302 
" style="fill:none;stroke:#ffffff;stroke-linecap:round;"/>
     </g>
     <g id="line2d_6">
      <g>
       <use style="fill:#262626;stroke:#262626;stroke-width:1.25;" x="49.707969" xlink:href="#mc53c40052c" y="209.899302"/>
      </g>
     </g>
     <g id="text_33">
      <!-- 3.5 -->
      <g style="fill:#262626;" transform="translate(24.917969 213.836098)scale(0.11 -0.11)">
       <use xlink:href="#ArialMT-51"/>
       <use x="55.615234" xlink:href="#ArialMT-46"/>
       <use x="83.398438" xlink:href="#ArialMT-53"/>
      </g>
     </g>
    </g>
    <g id="ytick_4">
     <g id="line2d_7">
      <path clip-path="url(#p6ad0c605d2)" d="M 49.707969 176.772217 
L 832.847969 176.772217 
" style="fill:none;stroke:#ffffff;stroke-linecap:round;"/>
     </g>
     <g id="line2d_8">
      <g>
       <use style="fill:#262626;stroke:#262626;stroke-width:1.25;" x="49.707969" xlink:href="#mc53c40052c" y="176.772217"/>
      </g>
     </g>
     <g id="text_34">
      <!-- 4.0 -->
      <g style="fill:#262626;" transform="translate(24.917969 180.709014)scale(0.11 -0.11)">
       <use xlink:href="#ArialMT-52"/>
       <use x="55.615234" xlink:href="#ArialMT-46"/>
       <use x="83.398438" xlink:href="#ArialMT-48"/>
      </g>
     </g>
    </g>
    <g id="ytick_5">
     <g id="line2d_9">
      <path clip-path="url(#p6ad0c605d2)" d="M 49.707969 143.645133 
L 832.847969 143.645133 
" style="fill:none;stroke:#ffffff;stroke-linecap:round;"/>
     </g>
     <g id="line2d_10">
      <g>
       <use style="fill:#262626;stroke:#262626;stroke-width:1.25;" x="49.707969" xlink:href="#mc53c40052c" y="143.645133"/>
      </g>
     </g>
     <g id="text_35">
      <!-- 4.5 -->
      <g style="fill:#262626;" transform="translate(24.917969 147.58193)scale(0.11 -0.11)">
       <use xlink:href="#ArialMT-52"/>
       <use x="55.615234" xlink:href="#ArialMT-46"/>
       <use x="83.398438" xlink:href="#ArialMT-53"/>
      </g>
     </g>
    </g>
    <g id="ytick_6">
     <g id="line2d_11">
      <path clip-path="url(#p6ad0c605d2)" d="M 49.707969 110.518049 
L 832.847969 110.518049 
" style="fill:none;stroke:#ffffff;stroke-linecap:round;"/>
     </g>
     <g id="line2d_12">
      <g>
       <use style="fill:#262626;stroke:#262626;stroke-width:1.25;" x="49.707969" xlink:href="#mc53c40052c" y="110.518049"/>
      </g>
     </g>
     <g id="text_36">
      <!-- 5.0 -->
      <g style="fill:#262626;" transform="translate(24.917969 114.454846)scale(0.11 -0.11)">
       <use xlink:href="#ArialMT-53"/>
       <use x="55.615234" xlink:href="#ArialMT-46"/>
       <use x="83.398438" xlink:href="#ArialMT-48"/>
      </g>
     </g>
    </g>
    <g id="ytick_7">
     <g id="line2d_13">
      <path clip-path="url(#p6ad0c605d2)" d="M 49.707969 77.390965 
L 832.847969 77.390965 
" style="fill:none;stroke:#ffffff;stroke-linecap:round;"/>
     </g>
     <g id="line2d_14">
      <g>
       <use style="fill:#262626;stroke:#262626;stroke-width:1.25;" x="49.707969" xlink:href="#mc53c40052c" y="77.390965"/>
      </g>
     </g>
     <g id="text_37">
      <!-- 5.5 -->
      <g style="fill:#262626;" transform="translate(24.917969 81.327762)scale(0.11 -0.11)">
       <use xlink:href="#ArialMT-53"/>
       <use x="55.615234" xlink:href="#ArialMT-46"/>
       <use x="83.398438" xlink:href="#ArialMT-53"/>
      </g>
     </g>
    </g>
    <g id="ytick_8">
     <g id="line2d_15">
      <path clip-path="url(#p6ad0c605d2)" d="M 49.707969 44.263881 
L 832.847969 44.263881 
" style="fill:none;stroke:#ffffff;stroke-linecap:round;"/>
     </g>
     <g id="line2d_16">
      <g>
       <use style="fill:#262626;stroke:#262626;stroke-width:1.25;" x="49.707969" xlink:href="#mc53c40052c" y="44.263881"/>
      </g>
     </g>
     <g id="text_38">
      <!-- 6.0 -->
      <g style="fill:#262626;" transform="translate(24.917969 48.200678)scale(0.11 -0.11)">
       <use xlink:href="#ArialMT-54"/>
       <use x="55.615234" xlink:href="#ArialMT-46"/>
       <use x="83.398438" xlink:href="#ArialMT-48"/>
      </g>
     </g>
    </g>
    <g id="ytick_9">
     <g id="line2d_17">
      <path clip-path="url(#p6ad0c605d2)" d="M 49.707969 11.136797 
L 832.847969 11.136797 
" style="fill:none;stroke:#ffffff;stroke-linecap:round;"/>
     </g>
     <g id="line2d_18">
      <g>
       <use style="fill:#262626;stroke:#262626;stroke-width:1.25;" x="49.707969" xlink:href="#mc53c40052c" y="11.136797"/>
      </g>
     </g>
     <g id="text_39">
      <!-- 6.5 -->
      <g style="fill:#262626;" transform="translate(24.917969 15.073594)scale(0.11 -0.11)">
       <use xlink:href="#ArialMT-54"/>
       <use x="55.615234" xlink:href="#ArialMT-46"/>
       <use x="83.398438" xlink:href="#ArialMT-53"/>
      </g>
     </g>
    </g>
    <g id="text_40">
     <!-- Antal personer -->
     <defs>
      <path d="M -0.140625 0 
L 27.34375 71.578125 
L 37.546875 71.578125 
L 66.84375 0 
L 56.0625 0 
L 47.703125 21.6875 
L 17.78125 21.6875 
L 9.90625 0 
z
M 20.515625 29.390625 
L 44.78125 29.390625 
L 37.3125 49.21875 
Q 33.890625 58.25 32.234375 64.0625 
Q 30.859375 57.171875 28.375 50.390625 
z
" id="ArialMT-65"/>
      <path d="M 6.59375 0 
L 6.59375 51.859375 
L 14.5 51.859375 
L 14.5 44.484375 
Q 20.21875 53.03125 31 53.03125 
Q 35.6875 53.03125 39.625 51.34375 
Q 43.5625 49.65625 45.515625 46.921875 
Q 47.46875 44.1875 48.25 40.4375 
Q 48.734375 37.984375 48.734375 31.890625 
L 48.734375 0 
L 39.9375 0 
L 39.9375 31.546875 
Q 39.9375 36.921875 38.90625 39.578125 
Q 37.890625 42.234375 35.28125 43.8125 
Q 32.671875 45.40625 29.15625 45.40625 
Q 23.53125 45.40625 19.453125 41.84375 
Q 15.375 38.28125 15.375 28.328125 
L 15.375 0 
z
" id="ArialMT-110"/>
      <path d="M 6.390625 0 
L 6.390625 71.578125 
L 15.1875 71.578125 
L 15.1875 0 
z
" id="ArialMT-108"/>
      <path id="ArialMT-32"/>
      <path d="M 6.59375 -19.875 
L 6.59375 51.859375 
L 14.59375 51.859375 
L 14.59375 45.125 
Q 17.4375 49.078125 21 51.046875 
Q 24.5625 53.03125 29.640625 53.03125 
Q 36.28125 53.03125 41.359375 49.609375 
Q 46.4375 46.1875 49.015625 39.953125 
Q 51.609375 33.734375 51.609375 26.3125 
Q 51.609375 18.359375 48.75 11.984375 
Q 45.90625 5.609375 40.453125 2.21875 
Q 35.015625 -1.171875 29 -1.171875 
Q 24.609375 -1.171875 21.109375 0.6875 
Q 17.625 2.546875 15.375 5.375 
L 15.375 -19.875 
z
M 14.546875 25.640625 
Q 14.546875 15.625 18.59375 10.84375 
Q 22.65625 6.0625 28.421875 6.0625 
Q 34.28125 6.0625 38.453125 11.015625 
Q 42.625 15.96875 42.625 26.375 
Q 42.625 36.28125 38.546875 41.203125 
Q 34.46875 46.140625 28.8125 46.140625 
Q 23.1875 46.140625 18.859375 40.890625 
Q 14.546875 35.640625 14.546875 25.640625 
z
" id="ArialMT-112"/>
      <path d="M 42.09375 16.703125 
L 51.171875 15.578125 
Q 49.03125 7.625 43.21875 3.21875 
Q 37.40625 -1.171875 28.375 -1.171875 
Q 17 -1.171875 10.328125 5.828125 
Q 3.65625 12.84375 3.65625 25.484375 
Q 3.65625 38.578125 10.390625 45.796875 
Q 17.140625 53.03125 27.875 53.03125 
Q 38.28125 53.03125 44.875 45.953125 
Q 51.46875 38.875 51.46875 26.03125 
Q 51.46875 25.25 51.421875 23.6875 
L 12.75 23.6875 
Q 13.234375 15.140625 17.578125 10.59375 
Q 21.921875 6.0625 28.421875 6.0625 
Q 33.25 6.0625 36.671875 8.59375 
Q 40.09375 11.140625 42.09375 16.703125 
z
M 13.234375 30.90625 
L 42.1875 30.90625 
Q 41.609375 37.453125 38.875 40.71875 
Q 34.671875 45.796875 27.984375 45.796875 
Q 21.921875 45.796875 17.796875 41.75 
Q 13.671875 37.703125 13.234375 30.90625 
z
" id="ArialMT-101"/>
      <path d="M 6.5 0 
L 6.5 51.859375 
L 14.40625 51.859375 
L 14.40625 44 
Q 17.4375 49.515625 20 51.265625 
Q 22.5625 53.03125 25.640625 53.03125 
Q 30.078125 53.03125 34.671875 50.203125 
L 31.640625 42.046875 
Q 28.421875 43.953125 25.203125 43.953125 
Q 22.3125 43.953125 20.015625 42.21875 
Q 17.71875 40.484375 16.75 37.40625 
Q 15.28125 32.71875 15.28125 27.15625 
L 15.28125 0 
z
" id="ArialMT-114"/>
      <path d="M 3.078125 15.484375 
L 11.765625 16.84375 
Q 12.5 11.625 15.84375 8.84375 
Q 19.1875 6.0625 25.203125 6.0625 
Q 31.25 6.0625 34.171875 8.515625 
Q 37.109375 10.984375 37.109375 14.3125 
Q 37.109375 17.28125 34.515625 19 
Q 32.71875 20.171875 25.53125 21.96875 
Q 15.875 24.421875 12.140625 26.203125 
Q 8.40625 27.984375 6.46875 31.125 
Q 4.546875 34.28125 4.546875 38.09375 
Q 4.546875 41.546875 6.125 44.5 
Q 7.71875 47.46875 10.453125 49.421875 
Q 12.5 50.921875 16.03125 51.96875 
Q 19.578125 53.03125 23.640625 53.03125 
Q 29.734375 53.03125 34.34375 51.265625 
Q 38.96875 49.515625 41.15625 46.5 
Q 43.359375 43.5 44.1875 38.484375 
L 35.59375 37.3125 
Q 35.015625 41.3125 32.203125 43.546875 
Q 29.390625 45.796875 24.265625 45.796875 
Q 18.21875 45.796875 15.625 43.796875 
Q 13.03125 41.796875 13.03125 39.109375 
Q 13.03125 37.40625 14.109375 36.03125 
Q 15.1875 34.625 17.484375 33.6875 
Q 18.796875 33.203125 25.25 31.453125 
Q 34.578125 28.953125 38.25 27.359375 
Q 41.9375 25.78125 44.03125 22.75 
Q 46.140625 19.734375 46.140625 15.234375 
Q 46.140625 10.84375 43.578125 6.953125 
Q 41.015625 3.078125 36.171875 0.953125 
Q 31.34375 -1.171875 25.25 -1.171875 
Q 15.140625 -1.171875 9.84375 3.03125 
Q 4.546875 7.234375 3.078125 15.484375 
z
" id="ArialMT-115"/>
     </defs>
     <g style="fill:#262626;" transform="translate(17.936719 205.890169)rotate(-90)scale(0.15 -0.15)">
      <use xlink:href="#ArialMT-65"/>
      <use x="66.699219" xlink:href="#ArialMT-110"/>
      <use x="122.314453" xlink:href="#ArialMT-116"/>
      <use x="150.097656" xlink:href="#ArialMT-97"/>
      <use x="205.712891" xlink:href="#ArialMT-108"/>
      <use x="227.929688" xlink:href="#ArialMT-32"/>
      <use x="255.712891" xlink:href="#ArialMT-112"/>
      <use x="311.328125" xlink:href="#ArialMT-101"/>
      <use x="366.943359" xlink:href="#ArialMT-114"/>
      <use x="400.244141" xlink:href="#ArialMT-115"/>
      <use x="450.244141" xlink:href="#ArialMT-111"/>
      <use x="505.859375" xlink:href="#ArialMT-110"/>
      <use x="561.474609" xlink:href="#ArialMT-101"/>
      <use x="617.089844" xlink:href="#ArialMT-114"/>
     </g>
    </g>
   </g>
   <g id="patch_3">
    <path clip-path="url(#p6ad0c605d2)" d="M 170.738696 303.674432 
L 170.738696 10.554343 
L 199.216514 10.554343 
L 199.216514 303.674432 
z
" style="fill:#008000;opacity:0.2;"/>
   </g>
   <g id="patch_4">
    <path clip-path="url(#p6ad0c605d2)" d="M 370.083423 303.674432 
L 370.083423 10.554343 
L 398.561241 10.554343 
L 398.561241 303.674432 
z
" style="fill:#008000;opacity:0.2;"/>
   </g>
   <g id="patch_5">
    <path clip-path="url(#p6ad0c605d2)" d="M 569.428151 303.674432 
L 569.428151 10.554343 
L 597.905969 10.554343 
L 597.905969 303.674432 
z
" style="fill:#008000;opacity:0.2;"/>
   </g>
   <g id="patch_6">
    <path clip-path="url(#p6ad0c605d2)" d="M 768.772878 303.674432 
L 768.772878 10.554343 
L 797.250696 10.554343 
L 797.250696 303.674432 
z
" style="fill:#008000;opacity:0.2;"/>
   </g>
   <g id="patch_7">
    <path clip-path="url(#p6ad0c605d2)" d="M 113.78306 303.674432 
L 113.78306 10.554343 
L 170.738696 10.554343 
L 170.738696 303.674432 
z
" style="fill:#ffa500;opacity:0.2;"/>
   </g>
   <g id="patch_8">
    <path clip-path="url(#p6ad0c605d2)" d="M 170.738696 303.674432 
L 170.738696 10.554343 
L 227.694332 10.554343 
L 227.694332 303.674432 
z
" style="fill:#ffa500;opacity:0.2;"/>
   </g>
   <g id="line2d_19">
    <path clip-path="url(#p6ad0c605d2)" d="M 85.305241 100.579924 
L 113.78306 194.841536 
L 142.260878 179.783771 
L 170.738696 245.786976 
L 199.216514 131.598921 
L 227.694332 290.350792 
L 256.172151 101.379543 
L 284.649969 150.27055 
L 313.127787 65.559864 
L 341.605605 189.513404 
L 370.083423 186.58765 
L 398.561241 277.380399 
L 427.03906 166.956785 
L 455.516878 161.482794 
L 483.994696 119.656555 
L 512.472514 136.000422 
L 540.950332 184.416929 
L 569.428151 245.392606 
L 597.905969 273.605233 
L 626.383787 149.779779 
L 654.861605 202.800641 
L 683.339423 228.303237 
L 711.817241 192.061641 
L 740.29506 122.209961 
L 768.772878 278.102122 
L 797.250696 243.026386 
" style="fill:none;stroke:#4c72b0;stroke-linecap:round;stroke-width:1.5;"/>
    <defs>
     <path d="M 0 3 
C 0.795609 3 1.55874 2.683901 2.12132 2.12132 
C 2.683901 1.55874 3 0.795609 3 0 
C 3 -0.795609 2.683901 -1.55874 2.12132 -2.12132 
C 1.55874 -2.683901 0.795609 -3 0 -3 
C -0.795609 -3 -1.55874 -2.683901 -2.12132 -2.12132 
C -2.683901 -1.55874 -3 -0.795609 -3 0 
C -3 0.795609 -2.683901 1.55874 -2.12132 2.12132 
C -1.55874 2.683901 -0.795609 3 0 3 
z
" id="m6848e0134c" style="stroke:#4c72b0;"/>
    </defs>
    <g clip-path="url(#p6ad0c605d2)">
     <use style="fill:#4c72b0;stroke:#4c72b0;" x="85.305241" xlink:href="#m6848e0134c" y="100.579924"/>
     <use style="fill:#4c72b0;stroke:#4c72b0;" x="113.78306" xlink:href="#m6848e0134c" y="194.841536"/>
     <use style="fill:#4c72b0;stroke:#4c72b0;" x="142.260878" xlink:href="#m6848e0134c" y="179.783771"/>
     <use style="fill:#4c72b0;stroke:#4c72b0;" x="170.738696" xlink:href="#m6848e0134c" y="245.786976"/>
     <use style="fill:#4c72b0;stroke:#4c72b0;" x="199.216514" xlink:href="#m6848e0134c" y="131.598921"/>
     <use style="fill:#4c72b0;stroke:#4c72b0;" x="227.694332" xlink:href="#m6848e0134c" y="290.350792"/>
     <use style="fill:#4c72b0;stroke:#4c72b0;" x="256.172151" xlink:href="#m6848e0134c" y="101.379543"/>
     <use style="fill:#4c72b0;stroke:#4c72b0;" x="284.649969" xlink:href="#m6848e0134c" y="150.27055"/>
     <use style="fill:#4c72b0;stroke:#4c72b0;" x="313.127787" xlink:href="#m6848e0134c" y="65.559864"/>
     <use style="fill:#4c72b0;stroke:#4c72b0;" x="341.605605" xlink:href="#m6848e0134c" y="189.513404"/>
     <use style="fill:#4c72b0;stroke:#4c72b0;" x="370.083423" xlink:href="#m6848e0134c" y="186.58765"/>
     <use style="fill:#4c72b0;stroke:#4c72b0;" x="398.561241" xlink:href="#m6848e0134c" y="277.380399"/>
     <use style="fill:#4c72b0;stroke:#4c72b0;" x="427.03906" xlink:href="#m6848e0134c" y="166.956785"/>
     <use style="fill:#4c72b0;stroke:#4c72b0;" x="455.516878" xlink:href="#m6848e0134c" y="161.482794"/>
     <use style="fill:#4c72b0;stroke:#4c72b0;" x="483.994696" xlink:href="#m6848e0134c" y="119.656555"/>
     <use style="fill:#4c72b0;stroke:#4c72b0;" x="512.472514" xlink:href="#m6848e0134c" y="136.000422"/>
     <use style="fill:#4c72b0;stroke:#4c72b0;" x="540.950332" xlink:href="#m6848e0134c" y="184.416929"/>
     <use style="fill:#4c72b0;stroke:#4c72b0;" x="569.428151" xlink:href="#m6848e0134c" y="245.392606"/>
     <use style="fill:#4c72b0;stroke:#4c72b0;" x="597.905969" xlink:href="#m6848e0134c" y="273.605233"/>
     <use style="fill:#4c72b0;stroke:#4c72b0;" x="626.383787" xlink:href="#m6848e0134c" y="149.779779"/>
     <use style="fill:#4c72b0;stroke:#4c72b0;" x="654.861605" xlink:href="#m6848e0134c" y="202.800641"/>
     <use style="fill:#4c72b0;stroke:#4c72b0;" x="683.339423" xlink:href="#m6848e0134c" y="228.303237"/>
     <use style="fill:#4c72b0;stroke:#4c72b0;" x="711.817241" xlink:href="#m6848e0134c" y="192.061641"/>
     <use style="fill:#4c72b0;stroke:#4c72b0;" x="740.29506" xlink:href="#m6848e0134c" y="122.209961"/>
     <use style="fill:#4c72b0;stroke:#4c72b0;" x="768.772878" xlink:href="#m6848e0134c" y="278.102122"/>
     <use style="fill:#4c72b0;stroke:#4c72b0;" x="797.250696" xlink:href="#m6848e0134c" y="243.026386"/>
    </g>
   </g>
   <g id="line2d_20">
    <path clip-path="url(#p6ad0c605d2)" d="M 85.305241 259.589928 
L 113.78306 227.96862 
L 142.260878 249.049492 
L 170.738696 215.420482 
L 199.216514 167.737558 
L 227.694332 239.871425 
L 256.172151 149.3567 
L 284.649969 211.224385 
L 313.127787 122.349151 
L 341.605605 23.877983 
L 370.083423 98.248759 
L 398.561241 24.633016 
L 427.03906 130.148914 
L 455.516878 82.48744 
L 483.994696 110.518049 
L 512.472514 100.3251 
L 540.950332 92.680389 
L 569.428151 247.758826 
L 597.905969 232.833437 
L 626.383787 49.171597 
L 654.861605 65.559864 
L 683.339423 105.610333 
L 711.817241 49.171597 
L 740.29506 217.260876 
L 768.772878 254.718298 
L 797.250696 204.053346 
" style="fill:none;stroke:#dd8452;stroke-linecap:round;stroke-width:1.5;"/>
    <defs>
     <path d="M 0 3 
C 0.795609 3 1.55874 2.683901 2.12132 2.12132 
C 2.683901 1.55874 3 0.795609 3 0 
C 3 -0.795609 2.683901 -1.55874 2.12132 -2.12132 
C 1.55874 -2.683901 0.795609 -3 0 -3 
C -0.795609 -3 -1.55874 -2.683901 -2.12132 -2.12132 
C -2.683901 -1.55874 -3 -0.795609 -3 0 
C -3 0.795609 -2.683901 1.55874 -2.12132 2.12132 
C -1.55874 2.683901 -0.795609 3 0 3 
z
" id="m4d04154bca" style="stroke:#dd8452;"/>
    </defs>
    <g clip-path="url(#p6ad0c605d2)">
     <use style="fill:#dd8452;stroke:#dd8452;" x="85.305241" xlink:href="#m4d04154bca" y="259.589928"/>
     <use style="fill:#dd8452;stroke:#dd8452;" x="113.78306" xlink:href="#m4d04154bca" y="227.96862"/>
     <use style="fill:#dd8452;stroke:#dd8452;" x="142.260878" xlink:href="#m4d04154bca" y="249.049492"/>
     <use style="fill:#dd8452;stroke:#dd8452;" x="170.738696" xlink:href="#m4d04154bca" y="215.420482"/>
     <use style="fill:#dd8452;stroke:#dd8452;" x="199.216514" xlink:href="#m4d04154bca" y="167.737558"/>
     <use style="fill:#dd8452;stroke:#dd8452;" x="227.694332" xlink:href="#m4d04154bca" y="239.871425"/>
     <use style="fill:#dd8452;stroke:#dd8452;" x="256.172151" xlink:href="#m4d04154bca" y="149.3567"/>
     <use style="fill:#dd8452;stroke:#dd8452;" x="284.649969" xlink:href="#m4d04154bca" y="211.224385"/>
     <use style="fill:#dd8452;stroke:#dd8452;" x="313.127787" xlink:href="#m4d04154bca" y="122.349151"/>
     <use style="fill:#dd8452;stroke:#dd8452;" x="341.605605" xlink:href="#m4d04154bca" y="23.877983"/>
     <use style="fill:#dd8452;stroke:#dd8452;" x="370.083423" xlink:href="#m4d04154bca" y="98.248759"/>
     <use style="fill:#dd8452;stroke:#dd8452;" x="398.561241" xlink:href="#m4d04154bca" y="24.633016"/>
     <use style="fill:#dd8452;stroke:#dd8452;" x="427.03906" xlink:href="#m4d04154bca" y="130.148914"/>
     <use style="fill:#dd8452;stroke:#dd8452;" x="455.516878" xlink:href="#m4d04154bca" y="82.48744"/>
     <use style="fill:#dd8452;stroke:#dd8452;" x="483.994696" xlink:href="#m4d04154bca" y="110.518049"/>
     <use style="fill:#dd8452;stroke:#dd8452;" x="512.472514" xlink:href="#m4d04154bca" y="100.3251"/>
     <use style="fill:#dd8452;stroke:#dd8452;" x="540.950332" xlink:href="#m4d04154bca" y="92.680389"/>
     <use style="fill:#dd8452;stroke:#dd8452;" x="569.428151" xlink:href="#m4d04154bca" y="247.758826"/>
     <use style="fill:#dd8452;stroke:#dd8452;" x="597.905969" xlink:href="#m4d04154bca" y="232.833437"/>
     <use style="fill:#dd8452;stroke:#dd8452;" x="626.383787" xlink:href="#m4d04154bca" y="49.171597"/>
     <use style="fill:#dd8452;stroke:#dd8452;" x="654.861605" xlink:href="#m4d04154bca" y="65.559864"/>
     <use style="fill:#dd8452;stroke:#dd8452;" x="683.339423" xlink:href="#m4d04154bca" y="105.610333"/>
     <use style="fill:#dd8452;stroke:#dd8452;" x="711.817241" xlink:href="#m4d04154bca" y="49.171597"/>
     <use style="fill:#dd8452;stroke:#dd8452;" x="740.29506" xlink:href="#m4d04154bca" y="217.260876"/>
     <use style="fill:#dd8452;stroke:#dd8452;" x="768.772878" xlink:href="#m4d04154bca" y="254.718298"/>
     <use style="fill:#dd8452;stroke:#dd8452;" x="797.250696" xlink:href="#m4d04154bca" y="204.053346"/>
    </g>
   </g>
   <g id="patch_9">
    <path d="M 49.707969 303.674432 
L 49.707969 10.554343 
" style="fill:none;stroke:#ffffff;stroke-linecap:square;stroke-linejoin:miter;stroke-width:1.25;"/>
   </g>
   <g id="patch_10">
    <path d="M 832.847969 303.674432 
L 832.847969 10.554343 
" style="fill:none;stroke:#ffffff;stroke-linecap:square;stroke-linejoin:miter;stroke-width:1.25;"/>
   </g>
   <g id="patch_11">
    <path d="M 49.707969 303.674432 
L 832.847969 303.674432 
" style="fill:none;stroke:#ffffff;stroke-linecap:square;stroke-linejoin:miter;stroke-width:1.25;"/>
   </g>
   <g id="patch_12">
    <path d="M 49.707969 10.554343 
L 832.847969 10.554343 
" style="fill:none;stroke:#ffffff;stroke-linecap:square;stroke-linejoin:miter;stroke-width:1.25;"/>
   </g>
   <g id="legend_1">
    <g id="patch_13">
     <path d="M 951.769594 107.960593 
L 1135.603969 107.960593 
Q 1138.603969 107.960593 1138.603969 104.960593 
L 1138.603969 21.054343 
Q 1138.603969 18.054343 1135.603969 18.054343 
L 951.769594 18.054343 
Q 948.769594 18.054343 948.769594 21.054343 
L 948.769594 104.960593 
Q 948.769594 107.960593 951.769594 107.960593 
z
" style="fill:#eaeaf2;opacity:0.8;stroke:#cccccc;stroke-linejoin:miter;"/>
    </g>
    <g id="line2d_21">
     <path d="M 954.769594 29.541061 
L 984.769594 29.541061 
" style="fill:none;stroke:#4c72b0;stroke-linecap:round;stroke-width:1.5;"/>
    </g>
    <g id="line2d_22">
     <g>
      <use style="fill:#4c72b0;stroke:#4c72b0;" x="969.769594" xlink:href="#m6848e0134c" y="29.541061"/>
     </g>
    </g>
    <g id="text_41">
     <!-- Online -->
     <defs>
      <path d="M 4.828125 34.859375 
Q 4.828125 52.6875 14.390625 62.765625 
Q 23.96875 72.859375 39.109375 72.859375 
Q 49.03125 72.859375 56.984375 68.109375 
Q 64.9375 63.375 69.109375 54.90625 
Q 73.296875 46.4375 73.296875 35.6875 
Q 73.296875 24.8125 68.890625 16.21875 
Q 64.5 7.625 56.4375 3.203125 
Q 48.390625 -1.21875 39.0625 -1.21875 
Q 28.953125 -1.21875 20.984375 3.65625 
Q 13.03125 8.546875 8.921875 16.984375 
Q 4.828125 25.4375 4.828125 34.859375 
z
M 14.59375 34.71875 
Q 14.59375 21.78125 21.546875 14.328125 
Q 28.515625 6.890625 39.015625 6.890625 
Q 49.703125 6.890625 56.609375 14.40625 
Q 63.53125 21.921875 63.53125 35.75 
Q 63.53125 44.484375 60.578125 51 
Q 57.625 57.515625 51.921875 61.109375 
Q 46.234375 64.703125 39.15625 64.703125 
Q 29.109375 64.703125 21.84375 57.78125 
Q 14.59375 50.875 14.59375 34.71875 
z
" id="ArialMT-79"/>
      <path d="M 6.640625 61.46875 
L 6.640625 71.578125 
L 15.4375 71.578125 
L 15.4375 61.46875 
z
M 6.640625 0 
L 6.640625 51.859375 
L 15.4375 51.859375 
L 15.4375 0 
z
" id="ArialMT-105"/>
     </defs>
     <g style="fill:#262626;" transform="translate(996.769594 34.791061)scale(0.15 -0.15)">
      <use xlink:href="#ArialMT-79"/>
      <use x="77.783203" xlink:href="#ArialMT-110"/>
      <use x="133.398438" xlink:href="#ArialMT-108"/>
      <use x="155.615234" xlink:href="#ArialMT-105"/>
      <use x="177.832031" xlink:href="#ArialMT-110"/>
      <use x="233.447266" xlink:href="#ArialMT-101"/>
     </g>
    </g>
    <g id="line2d_23">
     <path d="M 954.769594 50.75903 
L 984.769594 50.75903 
" style="fill:none;stroke:#dd8452;stroke-linecap:round;stroke-width:1.5;"/>
    </g>
    <g id="line2d_24">
     <g>
      <use style="fill:#dd8452;stroke:#dd8452;" x="969.769594" xlink:href="#m4d04154bca" y="50.75903"/>
     </g>
    </g>
    <g id="text_42">
     <!-- Fysisk -->
     <defs>
      <path d="M 8.203125 0 
L 8.203125 71.578125 
L 56.5 71.578125 
L 56.5 63.140625 
L 17.671875 63.140625 
L 17.671875 40.96875 
L 51.265625 40.96875 
L 51.265625 32.515625 
L 17.671875 32.515625 
L 17.671875 0 
z
" id="ArialMT-70"/>
      <path d="M 6.640625 0 
L 6.640625 71.578125 
L 15.4375 71.578125 
L 15.4375 30.765625 
L 36.234375 51.859375 
L 47.609375 51.859375 
L 27.78125 32.625 
L 49.609375 0 
L 38.765625 0 
L 21.625 26.515625 
L 15.4375 20.5625 
L 15.4375 0 
z
" id="ArialMT-107"/>
     </defs>
     <g style="fill:#262626;" transform="translate(996.769594 56.00903)scale(0.15 -0.15)">
      <use xlink:href="#ArialMT-70"/>
      <use x="61.083984" xlink:href="#ArialMT-121"/>
      <use x="111.083984" xlink:href="#ArialMT-115"/>
      <use x="161.083984" xlink:href="#ArialMT-105"/>
      <use x="183.300781" xlink:href="#ArialMT-115"/>
      <use x="233.300781" xlink:href="#ArialMT-107"/>
     </g>
    </g>
    <g id="line2d_25">
     <path d="M 954.769594 72.15278 
L 984.769594 72.15278 
" style="fill:none;stroke:#55a868;stroke-linecap:round;stroke-width:1.5;"/>
    </g>
    <g id="line2d_26">
     <defs>
      <path d="M 0 3 
C 0.795609 3 1.55874 2.683901 2.12132 2.12132 
C 2.683901 1.55874 3 0.795609 3 0 
C 3 -0.795609 2.683901 -1.55874 2.12132 -2.12132 
C 1.55874 -2.683901 0.795609 -3 0 -3 
C -0.795609 -3 -1.55874 -2.683901 -2.12132 -2.12132 
C -2.683901 -1.55874 -3 -0.795609 -3 0 
C -3 0.795609 -2.683901 1.55874 -2.12132 2.12132 
C -1.55874 2.683901 -0.795609 3 0 3 
z
" id="meff0f78881" style="stroke:#55a868;"/>
     </defs>
     <g>
      <use style="fill:#55a868;stroke:#55a868;" x="969.769594" xlink:href="#meff0f78881" y="72.15278"/>
     </g>
    </g>
    <g id="text_43">
     <!-- Solskinstimer -->
     <defs>
      <path d="M 4.5 23 
L 13.421875 23.78125 
Q 14.0625 18.40625 16.375 14.96875 
Q 18.703125 11.53125 23.578125 9.40625 
Q 28.46875 7.28125 34.578125 7.28125 
Q 39.984375 7.28125 44.140625 8.890625 
Q 48.296875 10.5 50.3125 13.296875 
Q 52.34375 16.109375 52.34375 19.4375 
Q 52.34375 22.796875 50.390625 25.3125 
Q 48.4375 27.828125 43.953125 29.546875 
Q 41.0625 30.671875 31.203125 33.03125 
Q 21.34375 35.40625 17.390625 37.5 
Q 12.25 40.1875 9.734375 44.15625 
Q 7.234375 48.140625 7.234375 53.078125 
Q 7.234375 58.5 10.296875 63.203125 
Q 13.375 67.921875 19.28125 70.359375 
Q 25.203125 72.796875 32.421875 72.796875 
Q 40.375 72.796875 46.453125 70.234375 
Q 52.546875 67.671875 55.8125 62.6875 
Q 59.078125 57.71875 59.328125 51.421875 
L 50.25 50.734375 
Q 49.515625 57.515625 45.28125 60.984375 
Q 41.0625 64.453125 32.8125 64.453125 
Q 24.21875 64.453125 20.28125 61.296875 
Q 16.359375 58.15625 16.359375 53.71875 
Q 16.359375 49.859375 19.140625 47.359375 
Q 21.875 44.875 33.421875 42.265625 
Q 44.96875 39.65625 49.265625 37.703125 
Q 55.515625 34.8125 58.484375 30.390625 
Q 61.46875 25.984375 61.46875 20.21875 
Q 61.46875 14.5 58.203125 9.4375 
Q 54.9375 4.390625 48.796875 1.578125 
Q 42.671875 -1.21875 35.015625 -1.21875 
Q 25.296875 -1.21875 18.71875 1.609375 
Q 12.15625 4.4375 8.421875 10.125 
Q 4.6875 15.828125 4.5 23 
z
" id="ArialMT-83"/>
      <path d="M 6.59375 0 
L 6.59375 51.859375 
L 14.453125 51.859375 
L 14.453125 44.578125 
Q 16.890625 48.390625 20.9375 50.703125 
Q 25 53.03125 30.171875 53.03125 
Q 35.9375 53.03125 39.625 50.640625 
Q 43.3125 48.25 44.828125 43.953125 
Q 50.984375 53.03125 60.84375 53.03125 
Q 68.5625 53.03125 72.703125 48.75 
Q 76.859375 44.484375 76.859375 35.59375 
L 76.859375 0 
L 68.109375 0 
L 68.109375 32.671875 
Q 68.109375 37.9375 67.25 40.25 
Q 66.40625 42.578125 64.15625 43.984375 
Q 61.921875 45.40625 58.890625 45.40625 
Q 53.421875 45.40625 49.796875 41.765625 
Q 46.1875 38.140625 46.1875 30.125 
L 46.1875 0 
L 37.40625 0 
L 37.40625 33.6875 
Q 37.40625 39.546875 35.25 42.46875 
Q 33.109375 45.40625 28.21875 45.40625 
Q 24.515625 45.40625 21.359375 43.453125 
Q 18.21875 41.5 16.796875 37.734375 
Q 15.375 33.984375 15.375 26.90625 
L 15.375 0 
z
" id="ArialMT-109"/>
     </defs>
     <g style="fill:#262626;" transform="translate(996.769594 77.40278)scale(0.15 -0.15)">
      <use xlink:href="#ArialMT-83"/>
      <use x="66.699219" xlink:href="#ArialMT-111"/>
      <use x="122.314453" xlink:href="#ArialMT-108"/>
      <use x="144.53125" xlink:href="#ArialMT-115"/>
      <use x="194.53125" xlink:href="#ArialMT-107"/>
      <use x="244.53125" xlink:href="#ArialMT-105"/>
      <use x="266.748047" xlink:href="#ArialMT-110"/>
      <use x="322.363281" xlink:href="#ArialMT-115"/>
      <use x="372.363281" xlink:href="#ArialMT-116"/>
      <use x="400.146484" xlink:href="#ArialMT-105"/>
      <use x="422.363281" xlink:href="#ArialMT-109"/>
      <use x="505.664062" xlink:href="#ArialMT-101"/>
      <use x="561.279297" xlink:href="#ArialMT-114"/>
     </g>
    </g>
    <g id="line2d_27">
     <path d="M 954.769594 93.553561 
L 984.769594 93.553561 
" style="fill:none;stroke:#800080;stroke-linecap:round;stroke-width:1.5;"/>
    </g>
    <g id="line2d_28">
     <defs>
      <path d="M 0 3 
C 0.795609 3 1.55874 2.683901 2.12132 2.12132 
C 2.683901 1.55874 3 0.795609 3 0 
C 3 -0.795609 2.683901 -1.55874 2.12132 -2.12132 
C 1.55874 -2.683901 0.795609 -3 0 -3 
C -0.795609 -3 -1.55874 -2.683901 -2.12132 -2.12132 
C -2.683901 -1.55874 -3 -0.795609 -3 0 
C -3 0.795609 -2.683901 1.55874 -2.12132 2.12132 
C -1.55874 2.683901 -0.795609 3 0 3 
z
" id="m649e35a7ad" style="stroke:#800080;"/>
     </defs>
     <g>
      <use style="fill:#800080;stroke:#800080;" x="969.769594" xlink:href="#m649e35a7ad" y="93.553561"/>
     </g>
    </g>
    <g id="text_44">
     <!-- Temperatur (middel) -->
     <defs>
      <path d="M 25.921875 0 
L 25.921875 63.140625 
L 2.34375 63.140625 
L 2.34375 71.578125 
L 59.078125 71.578125 
L 59.078125 63.140625 
L 35.40625 63.140625 
L 35.40625 0 
z
" id="ArialMT-84"/>
      <path d="M 40.578125 0 
L 40.578125 7.625 
Q 34.515625 -1.171875 24.125 -1.171875 
Q 19.53125 -1.171875 15.546875 0.578125 
Q 11.578125 2.34375 9.640625 5 
Q 7.71875 7.671875 6.9375 11.53125 
Q 6.390625 14.109375 6.390625 19.734375 
L 6.390625 51.859375 
L 15.1875 51.859375 
L 15.1875 23.09375 
Q 15.1875 16.21875 15.71875 13.8125 
Q 16.546875 10.359375 19.234375 8.375 
Q 21.921875 6.390625 25.875 6.390625 
Q 29.828125 6.390625 33.296875 8.421875 
Q 36.765625 10.453125 38.203125 13.9375 
Q 39.65625 17.4375 39.65625 24.078125 
L 39.65625 51.859375 
L 48.4375 51.859375 
L 48.4375 0 
z
" id="ArialMT-117"/>
      <path d="M 23.390625 -21.046875 
Q 16.109375 -11.859375 11.078125 0.4375 
Q 6.0625 12.75 6.0625 25.921875 
Q 6.0625 37.546875 9.8125 48.1875 
Q 14.203125 60.546875 23.390625 72.796875 
L 29.6875 72.796875 
Q 23.78125 62.640625 21.875 58.296875 
Q 18.890625 51.5625 17.1875 44.234375 
Q 15.09375 35.109375 15.09375 25.875 
Q 15.09375 2.390625 29.6875 -21.046875 
z
" id="ArialMT-40"/>
      <path d="M 40.234375 0 
L 40.234375 6.546875 
Q 35.296875 -1.171875 25.734375 -1.171875 
Q 19.53125 -1.171875 14.328125 2.25 
Q 9.125 5.671875 6.265625 11.796875 
Q 3.421875 17.921875 3.421875 25.875 
Q 3.421875 33.640625 6 39.96875 
Q 8.59375 46.296875 13.765625 49.65625 
Q 18.953125 53.03125 25.34375 53.03125 
Q 30.03125 53.03125 33.6875 51.046875 
Q 37.359375 49.078125 39.65625 45.90625 
L 39.65625 71.578125 
L 48.390625 71.578125 
L 48.390625 0 
z
M 12.453125 25.875 
Q 12.453125 15.921875 16.640625 10.984375 
Q 20.84375 6.0625 26.5625 6.0625 
Q 32.328125 6.0625 36.34375 10.765625 
Q 40.375 15.484375 40.375 25.140625 
Q 40.375 35.796875 36.265625 40.765625 
Q 32.171875 45.75 26.171875 45.75 
Q 20.3125 45.75 16.375 40.96875 
Q 12.453125 36.1875 12.453125 25.875 
z
" id="ArialMT-100"/>
      <path d="M 12.359375 -21.046875 
L 6.0625 -21.046875 
Q 20.65625 2.390625 20.65625 25.875 
Q 20.65625 35.0625 18.5625 44.09375 
Q 16.890625 51.421875 13.921875 58.15625 
Q 12.015625 62.546875 6.0625 72.796875 
L 12.359375 72.796875 
Q 21.53125 60.546875 25.921875 48.1875 
Q 29.6875 37.546875 29.6875 25.921875 
Q 29.6875 12.75 24.625 0.4375 
Q 19.578125 -11.859375 12.359375 -21.046875 
z
" id="ArialMT-41"/>
     </defs>
     <g style="fill:#262626;" transform="translate(996.769594 98.803561)scale(0.15 -0.15)">
      <use xlink:href="#ArialMT-84"/>
      <use x="60.912109" xlink:href="#ArialMT-101"/>
      <use x="116.527344" xlink:href="#ArialMT-109"/>
      <use x="199.828125" xlink:href="#ArialMT-112"/>
      <use x="255.443359" xlink:href="#ArialMT-101"/>
      <use x="311.058594" xlink:href="#ArialMT-114"/>
      <use x="344.359375" xlink:href="#ArialMT-97"/>
      <use x="399.974609" xlink:href="#ArialMT-116"/>
      <use x="427.757812" xlink:href="#ArialMT-117"/>
      <use x="483.373047" xlink:href="#ArialMT-114"/>
      <use x="516.673828" xlink:href="#ArialMT-32"/>
      <use x="544.457031" xlink:href="#ArialMT-40"/>
      <use x="577.757812" xlink:href="#ArialMT-109"/>
      <use x="661.058594" xlink:href="#ArialMT-105"/>
      <use x="683.275391" xlink:href="#ArialMT-100"/>
      <use x="738.890625" xlink:href="#ArialMT-100"/>
      <use x="794.505859" xlink:href="#ArialMT-101"/>
      <use x="850.121094" xlink:href="#ArialMT-108"/>
      <use x="872.337891" xlink:href="#ArialMT-41"/>
     </g>
    </g>
   </g>
  </g>
  <g id="axes_2">
   <g id="matplotlib.axis_3">
    <g id="ytick_10">
     <g id="line2d_29">
      <defs>
       <path d="M 0 0 
L 6 0 
" id="mf77a45d6e5" style="stroke:#262626;stroke-width:1.25;"/>
      </defs>
      <g>
       <use style="fill:#262626;stroke:#262626;stroke-width:1.25;" x="832.847969" xlink:href="#mf77a45d6e5" y="290.350792"/>
      </g>
     </g>
     <g id="text_45">
      <!-- 0 -->
      <g style="fill:#262626;" transform="translate(842.347969 294.287589)scale(0.11 -0.11)">
       <use xlink:href="#ArialMT-48"/>
      </g>
     </g>
    </g>
    <g id="ytick_11">
     <g id="line2d_30">
      <g>
       <use style="fill:#262626;stroke:#262626;stroke-width:1.25;" x="832.847969" xlink:href="#mf77a45d6e5" y="251.731544"/>
      </g>
     </g>
     <g id="text_46">
      <!-- 2 -->
      <g style="fill:#262626;" transform="translate(842.347969 255.668341)scale(0.11 -0.11)">
       <use xlink:href="#ArialMT-50"/>
      </g>
     </g>
    </g>
    <g id="ytick_12">
     <g id="line2d_31">
      <g>
       <use style="fill:#262626;stroke:#262626;stroke-width:1.25;" x="832.847969" xlink:href="#mf77a45d6e5" y="213.112296"/>
      </g>
     </g>
     <g id="text_47">
      <!-- 4 -->
      <g style="fill:#262626;" transform="translate(842.347969 217.049093)scale(0.11 -0.11)">
       <use xlink:href="#ArialMT-52"/>
      </g>
     </g>
    </g>
    <g id="ytick_13">
     <g id="line2d_32">
      <g>
       <use style="fill:#262626;stroke:#262626;stroke-width:1.25;" x="832.847969" xlink:href="#mf77a45d6e5" y="174.493049"/>
      </g>
     </g>
     <g id="text_48">
      <!-- 6 -->
      <g style="fill:#262626;" transform="translate(842.347969 178.429846)scale(0.11 -0.11)">
       <use xlink:href="#ArialMT-54"/>
      </g>
     </g>
    </g>
    <g id="ytick_14">
     <g id="line2d_33">
      <g>
       <use style="fill:#262626;stroke:#262626;stroke-width:1.25;" x="832.847969" xlink:href="#mf77a45d6e5" y="135.873801"/>
      </g>
     </g>
     <g id="text_49">
      <!-- 8 -->
      <g style="fill:#262626;" transform="translate(842.347969 139.810598)scale(0.11 -0.11)">
       <use xlink:href="#ArialMT-56"/>
      </g>
     </g>
    </g>
    <g id="ytick_15">
     <g id="line2d_34">
      <g>
       <use style="fill:#262626;stroke:#262626;stroke-width:1.25;" x="832.847969" xlink:href="#mf77a45d6e5" y="97.254554"/>
      </g>
     </g>
     <g id="text_50">
      <!-- 10 -->
      <g style="fill:#262626;" transform="translate(842.347969 101.19135)scale(0.11 -0.11)">
       <use xlink:href="#ArialMT-49"/>
       <use x="55.615234" xlink:href="#ArialMT-48"/>
      </g>
     </g>
    </g>
    <g id="ytick_16">
     <g id="line2d_35">
      <g>
       <use style="fill:#262626;stroke:#262626;stroke-width:1.25;" x="832.847969" xlink:href="#mf77a45d6e5" y="58.635306"/>
      </g>
     </g>
     <g id="text_51">
      <!-- 12 -->
      <g style="fill:#262626;" transform="translate(842.347969 62.572103)scale(0.11 -0.11)">
       <use xlink:href="#ArialMT-49"/>
       <use x="55.615234" xlink:href="#ArialMT-50"/>
      </g>
     </g>
    </g>
    <g id="ytick_17">
     <g id="line2d_36">
      <g>
       <use style="fill:#262626;stroke:#262626;stroke-width:1.25;" x="832.847969" xlink:href="#mf77a45d6e5" y="20.016058"/>
      </g>
     </g>
     <g id="text_52">
      <!-- 14 -->
      <g style="fill:#262626;" transform="translate(842.347969 23.952855)scale(0.11 -0.11)">
       <use xlink:href="#ArialMT-49"/>
       <use x="55.615234" xlink:href="#ArialMT-52"/>
      </g>
     </g>
    </g>
    <g id="text_53">
     <!-- Timer -->
     <g style="fill:#55a868;" transform="translate(869.31875 176.273372)rotate(-90)scale(0.15 -0.15)">
      <use xlink:href="#ArialMT-84"/>
      <use x="61.037109" xlink:href="#ArialMT-105"/>
      <use x="83.253906" xlink:href="#ArialMT-109"/>
      <use x="166.554688" xlink:href="#ArialMT-101"/>
      <use x="222.169922" xlink:href="#ArialMT-114"/>
     </g>
    </g>
   </g>
   <g id="line2d_37">
    <path clip-path="url(#p6ad0c605d2)" d="M 85.305241 101.116478 
L 113.78306 91.461666 
L 142.260878 87.599742 
L 170.738696 155.183425 
L 199.216514 147.459575 
L 227.694332 135.873801 
L 256.172151 104.978403 
L 284.649969 130.080914 
L 313.127787 62.497231 
L 341.605605 45.118569 
L 370.083423 103.047441 
L 398.561241 56.704344 
L 427.03906 25.808945 
L 455.516878 23.877983 
L 483.994696 23.877983 
L 512.472514 23.877983 
L 540.950332 41.256645 
L 569.428151 76.013967 
L 597.905969 170.631124 
L 626.383787 199.59556 
L 654.861605 203.457484 
L 683.339423 290.350792 
L 711.817241 282.626942 
L 740.29506 216.974221 
L 768.772878 226.629033 
L 797.250696 106.909365 
" style="fill:none;stroke:#55a868;stroke-linecap:round;stroke-width:1.5;"/>
    <g clip-path="url(#p6ad0c605d2)">
     <use style="fill:#55a868;stroke:#55a868;" x="85.305241" xlink:href="#meff0f78881" y="101.116478"/>
     <use style="fill:#55a868;stroke:#55a868;" x="113.78306" xlink:href="#meff0f78881" y="91.461666"/>
     <use style="fill:#55a868;stroke:#55a868;" x="142.260878" xlink:href="#meff0f78881" y="87.599742"/>
     <use style="fill:#55a868;stroke:#55a868;" x="170.738696" xlink:href="#meff0f78881" y="155.183425"/>
     <use style="fill:#55a868;stroke:#55a868;" x="199.216514" xlink:href="#meff0f78881" y="147.459575"/>
     <use style="fill:#55a868;stroke:#55a868;" x="227.694332" xlink:href="#meff0f78881" y="135.873801"/>
     <use style="fill:#55a868;stroke:#55a868;" x="256.172151" xlink:href="#meff0f78881" y="104.978403"/>
     <use style="fill:#55a868;stroke:#55a868;" x="284.649969" xlink:href="#meff0f78881" y="130.080914"/>
     <use style="fill:#55a868;stroke:#55a868;" x="313.127787" xlink:href="#meff0f78881" y="62.497231"/>
     <use style="fill:#55a868;stroke:#55a868;" x="341.605605" xlink:href="#meff0f78881" y="45.118569"/>
     <use style="fill:#55a868;stroke:#55a868;" x="370.083423" xlink:href="#meff0f78881" y="103.047441"/>
     <use style="fill:#55a868;stroke:#55a868;" x="398.561241" xlink:href="#meff0f78881" y="56.704344"/>
     <use style="fill:#55a868;stroke:#55a868;" x="427.03906" xlink:href="#meff0f78881" y="25.808945"/>
     <use style="fill:#55a868;stroke:#55a868;" x="455.516878" xlink:href="#meff0f78881" y="23.877983"/>
     <use style="fill:#55a868;stroke:#55a868;" x="483.994696" xlink:href="#meff0f78881" y="23.877983"/>
     <use style="fill:#55a868;stroke:#55a868;" x="512.472514" xlink:href="#meff0f78881" y="23.877983"/>
     <use style="fill:#55a868;stroke:#55a868;" x="540.950332" xlink:href="#meff0f78881" y="41.256645"/>
     <use style="fill:#55a868;stroke:#55a868;" x="569.428151" xlink:href="#meff0f78881" y="76.013967"/>
     <use style="fill:#55a868;stroke:#55a868;" x="597.905969" xlink:href="#meff0f78881" y="170.631124"/>
     <use style="fill:#55a868;stroke:#55a868;" x="626.383787" xlink:href="#meff0f78881" y="199.59556"/>
     <use style="fill:#55a868;stroke:#55a868;" x="654.861605" xlink:href="#meff0f78881" y="203.457484"/>
     <use style="fill:#55a868;stroke:#55a868;" x="683.339423" xlink:href="#meff0f78881" y="290.350792"/>
     <use style="fill:#55a868;stroke:#55a868;" x="711.817241" xlink:href="#meff0f78881" y="282.626942"/>
     <use style="fill:#55a868;stroke:#55a868;" x="740.29506" xlink:href="#meff0f78881" y="216.974221"/>
     <use style="fill:#55a868;stroke:#55a868;" x="768.772878" xlink:href="#meff0f78881" y="226.629033"/>
     <use style="fill:#55a868;stroke:#55a868;" x="797.250696" xlink:href="#meff0f78881" y="106.909365"/>
    </g>
   </g>
   <g id="patch_14">
    <path d="M 49.707969 303.674432 
L 49.707969 10.554343 
" style="fill:none;stroke:#ffffff;stroke-linecap:square;stroke-linejoin:miter;stroke-width:1.25;"/>
   </g>
   <g id="patch_15">
    <path d="M 832.847969 303.674432 
L 832.847969 10.554343 
" style="fill:none;stroke:#ffffff;stroke-linecap:square;stroke-linejoin:miter;stroke-width:1.25;"/>
   </g>
   <g id="patch_16">
    <path d="M 49.707969 303.674432 
L 832.847969 303.674432 
" style="fill:none;stroke:#ffffff;stroke-linecap:square;stroke-linejoin:miter;stroke-width:1.25;"/>
   </g>
   <g id="patch_17">
    <path d="M 49.707969 10.554343 
L 832.847969 10.554343 
" style="fill:none;stroke:#ffffff;stroke-linecap:square;stroke-linejoin:miter;stroke-width:1.25;"/>
   </g>
  </g>
  <g id="axes_3">
   <g id="matplotlib.axis_4">
    <g id="ytick_18">
     <g id="line2d_38">
      <g>
       <use style="fill:#262626;stroke:#262626;stroke-width:1.25;" x="892.847969" xlink:href="#mf77a45d6e5" y="286.700479"/>
      </g>
     </g>
     <g id="text_54">
      <!-- 6 -->
      <g style="fill:#262626;" transform="translate(902.347969 290.637276)scale(0.11 -0.11)">
       <use xlink:href="#ArialMT-54"/>
      </g>
     </g>
    </g>
    <g id="ytick_19">
     <g id="line2d_39">
      <g>
       <use style="fill:#262626;stroke:#262626;stroke-width:1.25;" x="892.847969" xlink:href="#mf77a45d6e5" y="250.197355"/>
      </g>
     </g>
     <g id="text_55">
      <!-- 7 -->
      <g style="fill:#262626;" transform="translate(902.347969 254.134152)scale(0.11 -0.11)">
       <use xlink:href="#ArialMT-55"/>
      </g>
     </g>
    </g>
    <g id="ytick_20">
     <g id="line2d_40">
      <g>
       <use style="fill:#262626;stroke:#262626;stroke-width:1.25;" x="892.847969" xlink:href="#mf77a45d6e5" y="213.69423"/>
      </g>
     </g>
     <g id="text_56">
      <!-- 8 -->
      <g style="fill:#262626;" transform="translate(902.347969 217.631027)scale(0.11 -0.11)">
       <use xlink:href="#ArialMT-56"/>
      </g>
     </g>
    </g>
    <g id="ytick_21">
     <g id="line2d_41">
      <g>
       <use style="fill:#262626;stroke:#262626;stroke-width:1.25;" x="892.847969" xlink:href="#mf77a45d6e5" y="177.191106"/>
      </g>
     </g>
     <g id="text_57">
      <!-- 9 -->
      <g style="fill:#262626;" transform="translate(902.347969 181.127903)scale(0.11 -0.11)">
       <use xlink:href="#ArialMT-57"/>
      </g>
     </g>
    </g>
    <g id="ytick_22">
     <g id="line2d_42">
      <g>
       <use style="fill:#262626;stroke:#262626;stroke-width:1.25;" x="892.847969" xlink:href="#mf77a45d6e5" y="140.687981"/>
      </g>
     </g>
     <g id="text_58">
      <!-- 10 -->
      <g style="fill:#262626;" transform="translate(902.347969 144.624778)scale(0.11 -0.11)">
       <use xlink:href="#ArialMT-49"/>
       <use x="55.615234" xlink:href="#ArialMT-48"/>
      </g>
     </g>
    </g>
    <g id="ytick_23">
     <g id="line2d_43">
      <g>
       <use style="fill:#262626;stroke:#262626;stroke-width:1.25;" x="892.847969" xlink:href="#mf77a45d6e5" y="104.184857"/>
      </g>
     </g>
     <g id="text_59">
      <!-- 11 -->
      <g style="fill:#262626;" transform="translate(902.347969 108.121654)scale(0.11 -0.11)">
       <use xlink:href="#ArialMT-49"/>
       <use x="55.505859" xlink:href="#ArialMT-49"/>
      </g>
     </g>
    </g>
    <g id="ytick_24">
     <g id="line2d_44">
      <g>
       <use style="fill:#262626;stroke:#262626;stroke-width:1.25;" x="892.847969" xlink:href="#mf77a45d6e5" y="67.681732"/>
      </g>
     </g>
     <g id="text_60">
      <!-- 12 -->
      <g style="fill:#262626;" transform="translate(902.347969 71.618529)scale(0.11 -0.11)">
       <use xlink:href="#ArialMT-49"/>
       <use x="55.615234" xlink:href="#ArialMT-50"/>
      </g>
     </g>
    </g>
    <g id="ytick_25">
     <g id="line2d_45">
      <g>
       <use style="fill:#262626;stroke:#262626;stroke-width:1.25;" x="892.847969" xlink:href="#mf77a45d6e5" y="31.178608"/>
      </g>
     </g>
     <g id="text_61">
      <!-- 13 -->
      <g style="fill:#262626;" transform="translate(902.347969 35.115405)scale(0.11 -0.11)">
       <use xlink:href="#ArialMT-49"/>
       <use x="55.615234" xlink:href="#ArialMT-51"/>
      </g>
     </g>
    </g>
    <g id="text_62">
     <!-- Grader -->
     <defs>
      <path d="M 41.21875 28.078125 
L 41.21875 36.46875 
L 71.53125 36.53125 
L 71.53125 9.96875 
Q 64.546875 4.390625 57.125 1.578125 
Q 49.703125 -1.21875 41.890625 -1.21875 
Q 31.34375 -1.21875 22.71875 3.296875 
Q 14.109375 7.8125 9.71875 16.359375 
Q 5.328125 24.90625 5.328125 35.453125 
Q 5.328125 45.90625 9.6875 54.953125 
Q 14.0625 64.015625 22.265625 68.40625 
Q 30.46875 72.796875 41.15625 72.796875 
Q 48.921875 72.796875 55.1875 70.28125 
Q 61.46875 67.78125 65.03125 63.28125 
Q 68.609375 58.796875 70.453125 51.5625 
L 61.921875 49.21875 
Q 60.296875 54.6875 57.90625 57.8125 
Q 55.515625 60.9375 51.0625 62.8125 
Q 46.625 64.703125 41.21875 64.703125 
Q 34.71875 64.703125 29.984375 62.71875 
Q 25.25 60.75 22.34375 57.515625 
Q 19.4375 54.296875 17.828125 50.4375 
Q 15.09375 43.796875 15.09375 36.03125 
Q 15.09375 26.46875 18.390625 20.015625 
Q 21.6875 13.578125 27.984375 10.453125 
Q 34.28125 7.328125 41.359375 7.328125 
Q 47.515625 7.328125 53.375 9.6875 
Q 59.234375 12.0625 62.25 14.75 
L 62.25 28.078125 
z
" id="ArialMT-71"/>
     </defs>
     <g style="fill:#800080;" transform="translate(929.31875 180.454622)rotate(-90)scale(0.15 -0.15)">
      <use xlink:href="#ArialMT-71"/>
      <use x="77.783203" xlink:href="#ArialMT-114"/>
      <use x="111.083984" xlink:href="#ArialMT-97"/>
      <use x="166.699219" xlink:href="#ArialMT-100"/>
      <use x="222.314453" xlink:href="#ArialMT-101"/>
      <use x="277.929688" xlink:href="#ArialMT-114"/>
     </g>
    </g>
   </g>
   <g id="line2d_46">
    <path clip-path="url(#p6ad0c605d2)" d="M 85.305241 162.589856 
L 113.78306 184.491731 
L 142.260878 261.148292 
L 170.738696 246.547042 
L 199.216514 53.080483 
L 227.694332 283.050167 
L 256.172151 290.350792 
L 284.649969 151.638919 
L 313.127787 162.589856 
L 341.605605 231.945793 
L 370.083423 239.246417 
L 398.561241 191.792356 
L 427.03906 155.289231 
L 455.516878 129.737044 
L 483.994696 107.835169 
L 512.472514 23.877983 
L 540.950332 74.982357 
L 569.428151 147.988606 
L 597.905969 188.142043 
L 626.383787 169.890481 
L 654.861605 147.988606 
L 683.339423 272.099229 
L 711.817241 253.847667 
L 740.29506 188.142043 
L 768.772878 166.240168 
L 797.250696 122.436419 
" style="fill:none;stroke:#800080;stroke-linecap:round;stroke-width:1.5;"/>
    <g clip-path="url(#p6ad0c605d2)">
     <use style="fill:#800080;stroke:#800080;" x="85.305241" xlink:href="#m649e35a7ad" y="162.589856"/>
     <use style="fill:#800080;stroke:#800080;" x="113.78306" xlink:href="#m649e35a7ad" y="184.491731"/>
     <use style="fill:#800080;stroke:#800080;" x="142.260878" xlink:href="#m649e35a7ad" y="261.148292"/>
     <use style="fill:#800080;stroke:#800080;" x="170.738696" xlink:href="#m649e35a7ad" y="246.547042"/>
     <use style="fill:#800080;stroke:#800080;" x="199.216514" xlink:href="#m649e35a7ad" y="53.080483"/>
     <use style="fill:#800080;stroke:#800080;" x="227.694332" xlink:href="#m649e35a7ad" y="283.050167"/>
     <use style="fill:#800080;stroke:#800080;" x="256.172151" xlink:href="#m649e35a7ad" y="290.350792"/>
     <use style="fill:#800080;stroke:#800080;" x="284.649969" xlink:href="#m649e35a7ad" y="151.638919"/>
     <use style="fill:#800080;stroke:#800080;" x="313.127787" xlink:href="#m649e35a7ad" y="162.589856"/>
     <use style="fill:#800080;stroke:#800080;" x="341.605605" xlink:href="#m649e35a7ad" y="231.945793"/>
     <use style="fill:#800080;stroke:#800080;" x="370.083423" xlink:href="#m649e35a7ad" y="239.246417"/>
     <use style="fill:#800080;stroke:#800080;" x="398.561241" xlink:href="#m649e35a7ad" y="191.792356"/>
     <use style="fill:#800080;stroke:#800080;" x="427.03906" xlink:href="#m649e35a7ad" y="155.289231"/>
     <use style="fill:#800080;stroke:#800080;" x="455.516878" xlink:href="#m649e35a7ad" y="129.737044"/>
     <use style="fill:#800080;stroke:#800080;" x="483.994696" xlink:href="#m649e35a7ad" y="107.835169"/>
     <use style="fill:#800080;stroke:#800080;" x="512.472514" xlink:href="#m649e35a7ad" y="23.877983"/>
     <use style="fill:#800080;stroke:#800080;" x="540.950332" xlink:href="#m649e35a7ad" y="74.982357"/>
     <use style="fill:#800080;stroke:#800080;" x="569.428151" xlink:href="#m649e35a7ad" y="147.988606"/>
     <use style="fill:#800080;stroke:#800080;" x="597.905969" xlink:href="#m649e35a7ad" y="188.142043"/>
     <use style="fill:#800080;stroke:#800080;" x="626.383787" xlink:href="#m649e35a7ad" y="169.890481"/>
     <use style="fill:#800080;stroke:#800080;" x="654.861605" xlink:href="#m649e35a7ad" y="147.988606"/>
     <use style="fill:#800080;stroke:#800080;" x="683.339423" xlink:href="#m649e35a7ad" y="272.099229"/>
     <use style="fill:#800080;stroke:#800080;" x="711.817241" xlink:href="#m649e35a7ad" y="253.847667"/>
     <use style="fill:#800080;stroke:#800080;" x="740.29506" xlink:href="#m649e35a7ad" y="188.142043"/>
     <use style="fill:#800080;stroke:#800080;" x="768.772878" xlink:href="#m649e35a7ad" y="166.240168"/>
     <use style="fill:#800080;stroke:#800080;" x="797.250696" xlink:href="#m649e35a7ad" y="122.436419"/>
    </g>
   </g>
   <g id="patch_18">
    <path d="M 49.707969 303.674432 
L 49.707969 10.554343 
" style="fill:none;stroke:#ffffff;stroke-linecap:square;stroke-linejoin:miter;stroke-width:1.25;"/>
   </g>
   <g id="patch_19">
    <path d="M 892.847969 303.674432 
L 892.847969 10.554343 
" style="fill:none;stroke:#ffffff;stroke-linecap:square;stroke-linejoin:miter;stroke-width:1.25;"/>
   </g>
   <g id="patch_20">
    <path d="M 49.707969 303.674432 
L 832.847969 303.674432 
" style="fill:none;stroke:#ffffff;stroke-linecap:square;stroke-linejoin:miter;stroke-width:1.25;"/>
   </g>
   <g id="patch_21">
    <path d="M 49.707969 10.554343 
L 832.847969 10.554343 
" style="fill:none;stroke:#ffffff;stroke-linecap:square;stroke-linejoin:miter;stroke-width:1.25;"/>
   </g>
  </g>
 </g>
 <defs>
  <clipPath id="p6ad0c605d2">
   <rect height="293.120089" width="783.14" x="49.707969" y="10.554343"/>
  </clipPath>
 </defs>
</svg>
