<?xml version="1.0" encoding="utf-8" standalone="no"?>
<!DOCTYPE svg PUBLIC "-//W3C//DTD SVG 1.1//EN"
  "http://www.w3.org/Graphics/SVG/1.1/DTD/svg11.dtd">
<!-- Created with matplotlib (https://matplotlib.org/) -->
<svg height="348.392641pt" version="1.1" viewBox="0 0 1039.716756 348.392641" width="1039.716756pt" xmlns="http://www.w3.org/2000/svg" xmlns:xlink="http://www.w3.org/1999/xlink">
 <defs>
  <style type="text/css">
*{stroke-linecap:butt;stroke-linejoin:round;}
  </style>
 </defs>
 <g id="figure_1">
  <g id="patch_1">
   <path d="M 0 348.392641 
L 1039.716756 348.392641 
L 1039.716756 0 
L 0 0 
z
" style="fill:#ffffff;"/>
  </g>
  <g id="axes_1">
   <g id="patch_2">
    <path d="M 99.575156 280.516797 
L 834.295156 280.516797 
L 834.295156 11.136797 
L 99.575156 11.136797 
z
" style="fill:#eaeaf2;"/>
   </g>
   <g id="matplotlib.axis_1">
    <g id="xtick_1">
     <g id="line2d_1">
      <path clip-path="url(#pf15579d61a)" d="M 99.575156 280.516797 
L 99.575156 11.136797 
" style="fill:none;stroke:#ffffff;stroke-linecap:round;"/>
     </g>
     <g id="text_1">
      <!-- 08 -->
      <defs>
       <path d="M 4.15625 35.296875 
Q 4.15625 48 6.765625 55.734375 
Q 9.375 63.484375 14.515625 67.671875 
Q 19.671875 71.875 27.484375 71.875 
Q 33.25 71.875 37.59375 69.546875 
Q 41.9375 67.234375 44.765625 62.859375 
Q 47.609375 58.5 49.21875 52.21875 
Q 50.828125 45.953125 50.828125 35.296875 
Q 50.828125 22.703125 48.234375 14.96875 
Q 45.65625 7.234375 40.5 3 
Q 35.359375 -1.21875 27.484375 -1.21875 
Q 17.140625 -1.21875 11.234375 6.203125 
Q 4.15625 15.140625 4.15625 35.296875 
z
M 13.1875 35.296875 
Q 13.1875 17.671875 17.3125 11.828125 
Q 21.4375 6 27.484375 6 
Q 33.546875 6 37.671875 11.859375 
Q 41.796875 17.71875 41.796875 35.296875 
Q 41.796875 52.984375 37.671875 58.78125 
Q 33.546875 64.59375 27.390625 64.59375 
Q 21.34375 64.59375 17.71875 59.46875 
Q 13.1875 52.9375 13.1875 35.296875 
z
" id="ArialMT-48"/>
       <path d="M 17.671875 38.8125 
Q 12.203125 40.828125 9.5625 44.53125 
Q 6.9375 48.25 6.9375 53.421875 
Q 6.9375 61.234375 12.546875 66.546875 
Q 18.171875 71.875 27.484375 71.875 
Q 36.859375 71.875 42.578125 66.421875 
Q 48.296875 60.984375 48.296875 53.171875 
Q 48.296875 48.1875 45.671875 44.5 
Q 43.0625 40.828125 37.75 38.8125 
Q 44.34375 36.671875 47.78125 31.875 
Q 51.21875 27.09375 51.21875 20.453125 
Q 51.21875 11.28125 44.71875 5.03125 
Q 38.234375 -1.21875 27.640625 -1.21875 
Q 17.046875 -1.21875 10.546875 5.046875 
Q 4.046875 11.328125 4.046875 20.703125 
Q 4.046875 27.6875 7.59375 32.390625 
Q 11.140625 37.109375 17.671875 38.8125 
z
M 15.921875 53.71875 
Q 15.921875 48.640625 19.1875 45.40625 
Q 22.46875 42.1875 27.6875 42.1875 
Q 32.765625 42.1875 36.015625 45.375 
Q 39.265625 48.578125 39.265625 53.21875 
Q 39.265625 58.0625 35.90625 61.359375 
Q 32.5625 64.65625 27.59375 64.65625 
Q 22.5625 64.65625 19.234375 61.421875 
Q 15.921875 58.203125 15.921875 53.71875 
z
M 13.09375 20.65625 
Q 13.09375 16.890625 14.875 13.375 
Q 16.65625 9.859375 20.171875 7.921875 
Q 23.6875 6 27.734375 6 
Q 34.03125 6 38.125 10.046875 
Q 42.234375 14.109375 42.234375 20.359375 
Q 42.234375 26.703125 38.015625 30.859375 
Q 33.796875 35.015625 27.4375 35.015625 
Q 21.234375 35.015625 17.15625 30.90625 
Q 13.09375 26.8125 13.09375 20.65625 
z
" id="ArialMT-56"/>
      </defs>
      <g style="fill:#262626;" transform="translate(93.458125 297.890391)scale(0.11 -0.11)">
       <use xlink:href="#ArialMT-48"/>
       <use x="55.615234" xlink:href="#ArialMT-56"/>
      </g>
     </g>
    </g>
    <g id="xtick_2">
     <g id="line2d_2">
      <path clip-path="url(#pf15579d61a)" d="M 775.517556 280.516797 
L 775.517556 11.136797 
" style="fill:none;stroke:#ffffff;stroke-linecap:round;"/>
     </g>
     <g id="text_2">
      <!-- 01 -->
      <defs>
       <path d="M 37.25 0 
L 28.46875 0 
L 28.46875 56 
Q 25.296875 52.984375 20.140625 49.953125 
Q 14.984375 46.921875 10.890625 45.40625 
L 10.890625 53.90625 
Q 18.265625 57.375 23.78125 62.296875 
Q 29.296875 67.234375 31.59375 71.875 
L 37.25 71.875 
z
" id="ArialMT-49"/>
      </defs>
      <g style="fill:#262626;" transform="translate(769.400525 297.890391)scale(0.11 -0.11)">
       <use xlink:href="#ArialMT-48"/>
       <use x="55.615234" xlink:href="#ArialMT-49"/>
      </g>
      <!-- May -->
      <defs>
       <path d="M 7.421875 0 
L 7.421875 71.578125 
L 21.6875 71.578125 
L 38.625 20.90625 
Q 40.96875 13.8125 42.046875 10.296875 
Q 43.265625 14.203125 45.84375 21.78125 
L 62.984375 71.578125 
L 75.734375 71.578125 
L 75.734375 0 
L 66.609375 0 
L 66.609375 59.90625 
L 45.796875 0 
L 37.25 0 
L 16.546875 60.9375 
L 16.546875 0 
z
" id="ArialMT-77"/>
       <path d="M 40.4375 6.390625 
Q 35.546875 2.25 31.03125 0.53125 
Q 26.515625 -1.171875 21.34375 -1.171875 
Q 12.796875 -1.171875 8.203125 3 
Q 3.609375 7.171875 3.609375 13.671875 
Q 3.609375 17.484375 5.34375 20.625 
Q 7.078125 23.78125 9.890625 25.6875 
Q 12.703125 27.59375 16.21875 28.5625 
Q 18.796875 29.25 24.03125 29.890625 
Q 34.671875 31.15625 39.703125 32.90625 
Q 39.75 34.71875 39.75 35.203125 
Q 39.75 40.578125 37.25 42.78125 
Q 33.890625 45.75 27.25 45.75 
Q 21.046875 45.75 18.09375 43.578125 
Q 15.140625 41.40625 13.71875 35.890625 
L 5.125 37.0625 
Q 6.296875 42.578125 8.984375 45.96875 
Q 11.671875 49.359375 16.75 51.1875 
Q 21.828125 53.03125 28.515625 53.03125 
Q 35.15625 53.03125 39.296875 51.46875 
Q 43.453125 49.90625 45.40625 47.53125 
Q 47.359375 45.171875 48.140625 41.546875 
Q 48.578125 39.3125 48.578125 33.453125 
L 48.578125 21.734375 
Q 48.578125 9.46875 49.140625 6.21875 
Q 49.703125 2.984375 51.375 0 
L 42.1875 0 
Q 40.828125 2.734375 40.4375 6.390625 
z
M 39.703125 26.03125 
Q 34.90625 24.078125 25.34375 22.703125 
Q 19.921875 21.921875 17.671875 20.9375 
Q 15.4375 19.96875 14.203125 18.09375 
Q 12.984375 16.21875 12.984375 13.921875 
Q 12.984375 10.40625 15.640625 8.0625 
Q 18.3125 5.71875 23.4375 5.71875 
Q 28.515625 5.71875 32.46875 7.9375 
Q 36.421875 10.15625 38.28125 14.015625 
Q 39.703125 17 39.703125 22.796875 
z
" id="ArialMT-97"/>
       <path d="M 6.203125 -19.96875 
L 5.21875 -11.71875 
Q 8.109375 -12.5 10.25 -12.5 
Q 13.1875 -12.5 14.9375 -11.515625 
Q 16.703125 -10.546875 17.828125 -8.796875 
Q 18.65625 -7.46875 20.515625 -2.25 
Q 20.75 -1.515625 21.296875 -0.09375 
L 1.609375 51.859375 
L 11.078125 51.859375 
L 21.875 21.828125 
Q 23.96875 16.109375 25.640625 9.8125 
Q 27.15625 15.875 29.25 21.625 
L 40.328125 51.859375 
L 49.125 51.859375 
L 29.390625 -0.875 
Q 26.21875 -9.421875 24.46875 -12.640625 
Q 22.125 -17 19.09375 -19.015625 
Q 16.0625 -21.046875 11.859375 -21.046875 
Q 9.328125 -21.046875 6.203125 -19.96875 
z
" id="ArialMT-121"/>
      </defs>
      <g style="fill:#262626;" transform="translate(765.127713 309.524953)scale(0.11 -0.11)">
       <use xlink:href="#ArialMT-77"/>
       <use x="83.300781" xlink:href="#ArialMT-97"/>
       <use x="138.916016" xlink:href="#ArialMT-121"/>
      </g>
      <!-- 2020 -->
      <defs>
       <path d="M 50.34375 8.453125 
L 50.34375 0 
L 3.03125 0 
Q 2.9375 3.171875 4.046875 6.109375 
Q 5.859375 10.9375 9.828125 15.625 
Q 13.8125 20.3125 21.34375 26.46875 
Q 33.015625 36.03125 37.109375 41.625 
Q 41.21875 47.21875 41.21875 52.203125 
Q 41.21875 57.421875 37.46875 61 
Q 33.734375 64.59375 27.734375 64.59375 
Q 21.390625 64.59375 17.578125 60.78125 
Q 13.765625 56.984375 13.71875 50.25 
L 4.6875 51.171875 
Q 5.609375 61.28125 11.65625 66.578125 
Q 17.71875 71.875 27.9375 71.875 
Q 38.234375 71.875 44.234375 66.15625 
Q 50.25 60.453125 50.25 52 
Q 50.25 47.703125 48.484375 43.546875 
Q 46.734375 39.40625 42.65625 34.8125 
Q 38.578125 30.21875 29.109375 22.21875 
Q 21.1875 15.578125 18.9375 13.203125 
Q 16.703125 10.84375 15.234375 8.453125 
z
" id="ArialMT-50"/>
      </defs>
      <g style="fill:#262626;" transform="translate(763.283494 321.288422)scale(0.11 -0.11)">
       <use xlink:href="#ArialMT-50"/>
       <use x="55.615234" xlink:href="#ArialMT-48"/>
       <use x="111.230469" xlink:href="#ArialMT-50"/>
       <use x="166.845703" xlink:href="#ArialMT-48"/>
      </g>
     </g>
    </g>
    <g id="xtick_3">
     <g id="line2d_3">
      <path clip-path="url(#pf15579d61a)" d="M 834.295156 280.516797 
L 834.295156 11.136797 
" style="fill:none;stroke:#ffffff;stroke-linecap:round;"/>
     </g>
     <g id="text_3">
      <!-- 03 -->
      <defs>
       <path d="M 4.203125 18.890625 
L 12.984375 20.0625 
Q 14.5 12.59375 18.140625 9.296875 
Q 21.78125 6 27 6 
Q 33.203125 6 37.46875 10.296875 
Q 41.75 14.59375 41.75 20.953125 
Q 41.75 27 37.796875 30.921875 
Q 33.84375 34.859375 27.734375 34.859375 
Q 25.25 34.859375 21.53125 33.890625 
L 22.515625 41.609375 
Q 23.390625 41.5 23.921875 41.5 
Q 29.546875 41.5 34.03125 44.421875 
Q 38.53125 47.359375 38.53125 53.46875 
Q 38.53125 58.296875 35.25 61.46875 
Q 31.984375 64.65625 26.8125 64.65625 
Q 21.6875 64.65625 18.265625 61.421875 
Q 14.84375 58.203125 13.875 51.765625 
L 5.078125 53.328125 
Q 6.6875 62.15625 12.390625 67.015625 
Q 18.109375 71.875 26.609375 71.875 
Q 32.46875 71.875 37.390625 69.359375 
Q 42.328125 66.84375 44.9375 62.5 
Q 47.5625 58.15625 47.5625 53.265625 
Q 47.5625 48.640625 45.0625 44.828125 
Q 42.578125 41.015625 37.703125 38.765625 
Q 44.046875 37.3125 47.5625 32.6875 
Q 51.078125 28.078125 51.078125 21.140625 
Q 51.078125 11.765625 44.234375 5.25 
Q 37.40625 -1.265625 26.953125 -1.265625 
Q 17.53125 -1.265625 11.296875 4.34375 
Q 5.078125 9.96875 4.203125 18.890625 
z
" id="ArialMT-51"/>
      </defs>
      <g style="fill:#262626;" transform="translate(828.178125 297.890391)scale(0.11 -0.11)">
       <use xlink:href="#ArialMT-48"/>
       <use x="55.615234" xlink:href="#ArialMT-51"/>
      </g>
     </g>
    </g>
    <g id="xtick_4">
     <g id="text_4">
      <!-- 09 -->
      <defs>
       <path d="M 5.46875 16.546875 
L 13.921875 17.328125 
Q 14.984375 11.375 18.015625 8.6875 
Q 21.046875 6 25.78125 6 
Q 29.828125 6 32.875 7.859375 
Q 35.9375 9.71875 37.890625 12.8125 
Q 39.84375 15.921875 41.15625 21.1875 
Q 42.484375 26.46875 42.484375 31.9375 
Q 42.484375 32.515625 42.4375 33.6875 
Q 39.796875 29.5 35.234375 26.875 
Q 30.671875 24.265625 25.34375 24.265625 
Q 16.453125 24.265625 10.296875 30.703125 
Q 4.15625 37.15625 4.15625 47.703125 
Q 4.15625 58.59375 10.578125 65.234375 
Q 17 71.875 26.65625 71.875 
Q 33.640625 71.875 39.421875 68.109375 
Q 45.21875 64.359375 48.21875 57.390625 
Q 51.21875 50.4375 51.21875 37.25 
Q 51.21875 23.53125 48.234375 15.40625 
Q 45.265625 7.28125 39.375 3.03125 
Q 33.5 -1.21875 25.59375 -1.21875 
Q 17.1875 -1.21875 11.859375 3.4375 
Q 6.546875 8.109375 5.46875 16.546875 
z
M 41.453125 48.140625 
Q 41.453125 55.71875 37.421875 60.15625 
Q 33.40625 64.59375 27.734375 64.59375 
Q 21.875 64.59375 17.53125 59.8125 
Q 13.1875 55.03125 13.1875 47.40625 
Q 13.1875 40.578125 17.3125 36.296875 
Q 21.4375 32.03125 27.484375 32.03125 
Q 33.59375 32.03125 37.515625 36.296875 
Q 41.453125 40.578125 41.453125 48.140625 
z
" id="ArialMT-57"/>
      </defs>
      <g style="fill:#262626;" transform="translate(122.846925 295.790391)scale(0.11 -0.11)">
       <use xlink:href="#ArialMT-48"/>
       <use x="55.615234" xlink:href="#ArialMT-57"/>
      </g>
     </g>
    </g>
    <g id="xtick_5">
     <g id="text_5">
      <!-- 10 -->
      <g style="fill:#262626;" transform="translate(152.235725 295.790391)scale(0.11 -0.11)">
       <use xlink:href="#ArialMT-49"/>
       <use x="55.615234" xlink:href="#ArialMT-48"/>
      </g>
     </g>
    </g>
    <g id="xtick_6">
     <g id="text_6">
      <!-- 11 -->
      <g style="fill:#262626;" transform="translate(181.630541 295.790391)scale(0.11 -0.11)">
       <use xlink:href="#ArialMT-49"/>
       <use x="55.505859" xlink:href="#ArialMT-49"/>
      </g>
     </g>
    </g>
    <g id="xtick_7">
     <g id="text_7">
      <!-- 12 -->
      <g style="fill:#262626;" transform="translate(211.013325 295.790391)scale(0.11 -0.11)">
       <use xlink:href="#ArialMT-49"/>
       <use x="55.615234" xlink:href="#ArialMT-50"/>
      </g>
     </g>
    </g>
    <g id="xtick_8">
     <g id="text_8">
      <!-- 13 -->
      <g style="fill:#262626;" transform="translate(240.402125 295.790391)scale(0.11 -0.11)">
       <use xlink:href="#ArialMT-49"/>
       <use x="55.615234" xlink:href="#ArialMT-51"/>
      </g>
     </g>
    </g>
    <g id="xtick_9">
     <g id="text_9">
      <!-- 14 -->
      <defs>
       <path d="M 32.328125 0 
L 32.328125 17.140625 
L 1.265625 17.140625 
L 1.265625 25.203125 
L 33.9375 71.578125 
L 41.109375 71.578125 
L 41.109375 25.203125 
L 50.78125 25.203125 
L 50.78125 17.140625 
L 41.109375 17.140625 
L 41.109375 0 
z
M 32.328125 25.203125 
L 32.328125 57.46875 
L 9.90625 25.203125 
z
" id="ArialMT-52"/>
      </defs>
      <g style="fill:#262626;" transform="translate(269.790925 295.790391)scale(0.11 -0.11)">
       <use xlink:href="#ArialMT-49"/>
       <use x="55.615234" xlink:href="#ArialMT-52"/>
      </g>
     </g>
    </g>
    <g id="xtick_10">
     <g id="text_10">
      <!-- 15 -->
      <defs>
       <path d="M 4.15625 18.75 
L 13.375 19.53125 
Q 14.40625 12.796875 18.140625 9.390625 
Q 21.875 6 27.15625 6 
Q 33.5 6 37.890625 10.78125 
Q 42.28125 15.578125 42.28125 23.484375 
Q 42.28125 31 38.0625 35.34375 
Q 33.84375 39.703125 27 39.703125 
Q 22.75 39.703125 19.328125 37.765625 
Q 15.921875 35.84375 13.96875 32.765625 
L 5.71875 33.84375 
L 12.640625 70.609375 
L 48.25 70.609375 
L 48.25 62.203125 
L 19.671875 62.203125 
L 15.828125 42.96875 
Q 22.265625 47.46875 29.34375 47.46875 
Q 38.71875 47.46875 45.15625 40.96875 
Q 51.609375 34.46875 51.609375 24.265625 
Q 51.609375 14.546875 45.953125 7.46875 
Q 39.0625 -1.21875 27.15625 -1.21875 
Q 17.390625 -1.21875 11.203125 4.25 
Q 5.03125 9.71875 4.15625 18.75 
z
" id="ArialMT-53"/>
      </defs>
      <g style="fill:#262626;" transform="translate(299.179725 295.790391)scale(0.11 -0.11)">
       <use xlink:href="#ArialMT-49"/>
       <use x="55.615234" xlink:href="#ArialMT-53"/>
      </g>
     </g>
    </g>
    <g id="xtick_11">
     <g id="text_11">
      <!-- 16 -->
      <defs>
       <path d="M 49.75 54.046875 
L 41.015625 53.375 
Q 39.84375 58.546875 37.703125 60.890625 
Q 34.125 64.65625 28.90625 64.65625 
Q 24.703125 64.65625 21.53125 62.3125 
Q 17.390625 59.28125 14.984375 53.46875 
Q 12.59375 47.65625 12.5 36.921875 
Q 15.671875 41.75 20.265625 44.09375 
Q 24.859375 46.4375 29.890625 46.4375 
Q 38.671875 46.4375 44.84375 39.96875 
Q 51.03125 33.5 51.03125 23.25 
Q 51.03125 16.5 48.125 10.71875 
Q 45.21875 4.9375 40.140625 1.859375 
Q 35.0625 -1.21875 28.609375 -1.21875 
Q 17.625 -1.21875 10.6875 6.859375 
Q 3.765625 14.9375 3.765625 33.5 
Q 3.765625 54.25 11.421875 63.671875 
Q 18.109375 71.875 29.4375 71.875 
Q 37.890625 71.875 43.28125 67.140625 
Q 48.6875 62.40625 49.75 54.046875 
z
M 13.875 23.1875 
Q 13.875 18.65625 15.796875 14.5 
Q 17.71875 10.359375 21.1875 8.171875 
Q 24.65625 6 28.46875 6 
Q 34.03125 6 38.03125 10.484375 
Q 42.046875 14.984375 42.046875 22.703125 
Q 42.046875 30.125 38.078125 34.390625 
Q 34.125 38.671875 28.125 38.671875 
Q 22.171875 38.671875 18.015625 34.390625 
Q 13.875 30.125 13.875 23.1875 
z
" id="ArialMT-54"/>
      </defs>
      <g style="fill:#262626;" transform="translate(328.568525 295.790391)scale(0.11 -0.11)">
       <use xlink:href="#ArialMT-49"/>
       <use x="55.615234" xlink:href="#ArialMT-54"/>
      </g>
     </g>
    </g>
    <g id="xtick_12">
     <g id="text_12">
      <!-- 17 -->
      <defs>
       <path d="M 4.734375 62.203125 
L 4.734375 70.65625 
L 51.078125 70.65625 
L 51.078125 63.8125 
Q 44.234375 56.546875 37.515625 44.484375 
Q 30.8125 32.421875 27.15625 19.671875 
Q 24.515625 10.6875 23.78125 0 
L 14.75 0 
Q 14.890625 8.453125 18.0625 20.40625 
Q 21.234375 32.375 27.171875 43.484375 
Q 33.109375 54.59375 39.796875 62.203125 
z
" id="ArialMT-55"/>
      </defs>
      <g style="fill:#262626;" transform="translate(357.957325 295.790391)scale(0.11 -0.11)">
       <use xlink:href="#ArialMT-49"/>
       <use x="55.615234" xlink:href="#ArialMT-55"/>
      </g>
     </g>
    </g>
    <g id="xtick_13">
     <g id="text_13">
      <!-- 18 -->
      <g style="fill:#262626;" transform="translate(387.346125 295.790391)scale(0.11 -0.11)">
       <use xlink:href="#ArialMT-49"/>
       <use x="55.615234" xlink:href="#ArialMT-56"/>
      </g>
     </g>
    </g>
    <g id="xtick_14">
     <g id="text_14">
      <!-- 19 -->
      <g style="fill:#262626;" transform="translate(416.734925 295.790391)scale(0.11 -0.11)">
       <use xlink:href="#ArialMT-49"/>
       <use x="55.615234" xlink:href="#ArialMT-57"/>
      </g>
     </g>
    </g>
    <g id="xtick_15">
     <g id="text_15">
      <!-- 20 -->
      <g style="fill:#262626;" transform="translate(446.123725 295.790391)scale(0.11 -0.11)">
       <use xlink:href="#ArialMT-50"/>
       <use x="55.615234" xlink:href="#ArialMT-48"/>
      </g>
     </g>
    </g>
    <g id="xtick_16">
     <g id="text_16">
      <!-- 21 -->
      <g style="fill:#262626;" transform="translate(475.512525 295.790391)scale(0.11 -0.11)">
       <use xlink:href="#ArialMT-50"/>
       <use x="55.615234" xlink:href="#ArialMT-49"/>
      </g>
     </g>
    </g>
    <g id="xtick_17">
     <g id="text_17">
      <!-- 22 -->
      <g style="fill:#262626;" transform="translate(504.901325 295.790391)scale(0.11 -0.11)">
       <use xlink:href="#ArialMT-50"/>
       <use x="55.615234" xlink:href="#ArialMT-50"/>
      </g>
     </g>
    </g>
    <g id="xtick_18">
     <g id="text_18">
      <!-- 23 -->
      <g style="fill:#262626;" transform="translate(534.290125 295.790391)scale(0.11 -0.11)">
       <use xlink:href="#ArialMT-50"/>
       <use x="55.615234" xlink:href="#ArialMT-51"/>
      </g>
     </g>
    </g>
    <g id="xtick_19">
     <g id="text_19">
      <!-- 24 -->
      <g style="fill:#262626;" transform="translate(563.678925 295.790391)scale(0.11 -0.11)">
       <use xlink:href="#ArialMT-50"/>
       <use x="55.615234" xlink:href="#ArialMT-52"/>
      </g>
     </g>
    </g>
    <g id="xtick_20">
     <g id="text_20">
      <!-- 25 -->
      <g style="fill:#262626;" transform="translate(593.067725 295.790391)scale(0.11 -0.11)">
       <use xlink:href="#ArialMT-50"/>
       <use x="55.615234" xlink:href="#ArialMT-53"/>
      </g>
     </g>
    </g>
    <g id="xtick_21">
     <g id="text_21">
      <!-- 26 -->
      <g style="fill:#262626;" transform="translate(622.456525 295.790391)scale(0.11 -0.11)">
       <use xlink:href="#ArialMT-50"/>
       <use x="55.615234" xlink:href="#ArialMT-54"/>
      </g>
     </g>
    </g>
    <g id="xtick_22">
     <g id="text_22">
      <!-- 27 -->
      <g style="fill:#262626;" transform="translate(651.845325 295.790391)scale(0.11 -0.11)">
       <use xlink:href="#ArialMT-50"/>
       <use x="55.615234" xlink:href="#ArialMT-55"/>
      </g>
     </g>
    </g>
    <g id="xtick_23">
     <g id="text_23">
      <!-- 28 -->
      <g style="fill:#262626;" transform="translate(681.234125 295.790391)scale(0.11 -0.11)">
       <use xlink:href="#ArialMT-50"/>
       <use x="55.615234" xlink:href="#ArialMT-56"/>
      </g>
     </g>
    </g>
    <g id="xtick_24">
     <g id="text_24">
      <!-- 29 -->
      <g style="fill:#262626;" transform="translate(710.622925 295.790391)scale(0.11 -0.11)">
       <use xlink:href="#ArialMT-50"/>
       <use x="55.615234" xlink:href="#ArialMT-57"/>
      </g>
     </g>
    </g>
    <g id="xtick_25">
     <g id="text_25">
      <!-- 30 -->
      <g style="fill:#262626;" transform="translate(740.011725 295.790391)scale(0.11 -0.11)">
       <use xlink:href="#ArialMT-51"/>
       <use x="55.615234" xlink:href="#ArialMT-48"/>
      </g>
     </g>
    </g>
    <g id="xtick_26">
     <g id="text_26">
      <!-- 02 -->
      <g style="fill:#262626;" transform="translate(798.789325 295.790391)scale(0.11 -0.11)">
       <use xlink:href="#ArialMT-48"/>
       <use x="55.615234" xlink:href="#ArialMT-50"/>
      </g>
     </g>
    </g>
    <g id="text_27">
     <!-- Dato -->
     <defs>
      <path d="M 7.71875 0 
L 7.71875 71.578125 
L 32.375 71.578125 
Q 40.71875 71.578125 45.125 70.5625 
Q 51.265625 69.140625 55.609375 65.4375 
Q 61.28125 60.640625 64.078125 53.1875 
Q 66.890625 45.75 66.890625 36.1875 
Q 66.890625 28.03125 64.984375 21.734375 
Q 63.09375 15.4375 60.109375 11.296875 
Q 57.125 7.171875 53.578125 4.796875 
Q 50.046875 2.4375 45.046875 1.21875 
Q 40.046875 0 33.546875 0 
z
M 17.1875 8.453125 
L 32.46875 8.453125 
Q 39.546875 8.453125 43.578125 9.765625 
Q 47.609375 11.078125 50 13.484375 
Q 53.375 16.84375 55.25 22.53125 
Q 57.125 28.21875 57.125 36.328125 
Q 57.125 47.5625 53.4375 53.59375 
Q 49.75 59.625 44.484375 61.671875 
Q 40.671875 63.140625 32.234375 63.140625 
L 17.1875 63.140625 
z
" id="ArialMT-68"/>
      <path d="M 25.78125 7.859375 
L 27.046875 0.09375 
Q 23.34375 -0.6875 20.40625 -0.6875 
Q 15.625 -0.6875 12.984375 0.828125 
Q 10.359375 2.34375 9.28125 4.8125 
Q 8.203125 7.28125 8.203125 15.1875 
L 8.203125 45.015625 
L 1.765625 45.015625 
L 1.765625 51.859375 
L 8.203125 51.859375 
L 8.203125 64.703125 
L 16.9375 69.96875 
L 16.9375 51.859375 
L 25.78125 51.859375 
L 25.78125 45.015625 
L 16.9375 45.015625 
L 16.9375 14.703125 
Q 16.9375 10.9375 17.40625 9.859375 
Q 17.875 8.796875 18.921875 8.15625 
Q 19.96875 7.515625 21.921875 7.515625 
Q 23.390625 7.515625 25.78125 7.859375 
z
" id="ArialMT-116"/>
      <path d="M 3.328125 25.921875 
Q 3.328125 40.328125 11.328125 47.265625 
Q 18.015625 53.03125 27.640625 53.03125 
Q 38.328125 53.03125 45.109375 46.015625 
Q 51.90625 39.015625 51.90625 26.65625 
Q 51.90625 16.65625 48.90625 10.90625 
Q 45.90625 5.171875 40.15625 2 
Q 34.421875 -1.171875 27.640625 -1.171875 
Q 16.75 -1.171875 10.03125 5.8125 
Q 3.328125 12.796875 3.328125 25.921875 
z
M 12.359375 25.921875 
Q 12.359375 15.96875 16.703125 11.015625 
Q 21.046875 6.0625 27.640625 6.0625 
Q 34.1875 6.0625 38.53125 11.03125 
Q 42.875 16.015625 42.875 26.21875 
Q 42.875 35.84375 38.5 40.796875 
Q 34.125 45.75 27.640625 45.75 
Q 21.046875 45.75 16.703125 40.8125 
Q 12.359375 35.890625 12.359375 25.921875 
z
" id="ArialMT-111"/>
     </defs>
     <g style="fill:#262626;" transform="translate(451.09375 338.211391)scale(0.15 -0.15)">
      <use xlink:href="#ArialMT-68"/>
      <use x="72.216797" xlink:href="#ArialMT-97"/>
      <use x="127.832031" xlink:href="#ArialMT-116"/>
      <use x="155.615234" xlink:href="#ArialMT-111"/>
     </g>
    </g>
   </g>
   <g id="matplotlib.axis_2">
    <g id="ytick_1">
     <g id="line2d_4">
      <path clip-path="url(#pf15579d61a)" d="M 99.575156 280.516797 
L 834.295156 280.516797 
" style="fill:none;stroke:#ffffff;stroke-linecap:round;"/>
     </g>
     <g id="line2d_5">
      <defs>
       <path d="M 0 0 
L -6 0 
" id="m450d691309" style="stroke:#262626;stroke-width:1.25;"/>
      </defs>
      <g>
       <use style="fill:#262626;stroke:#262626;stroke-width:1.25;" x="99.575156" xlink:href="#m450d691309" y="280.516797"/>
      </g>
     </g>
     <g id="text_28">
      <!-- Uenig -->
      <defs>
       <path d="M 54.6875 71.578125 
L 64.15625 71.578125 
L 64.15625 30.21875 
Q 64.15625 19.4375 61.71875 13.078125 
Q 59.28125 6.734375 52.90625 2.75 
Q 46.53125 -1.21875 36.1875 -1.21875 
Q 26.125 -1.21875 19.71875 2.25 
Q 13.328125 5.71875 10.59375 12.28125 
Q 7.859375 18.84375 7.859375 30.21875 
L 7.859375 71.578125 
L 17.328125 71.578125 
L 17.328125 30.28125 
Q 17.328125 20.953125 19.0625 16.53125 
Q 20.796875 12.109375 25.015625 9.71875 
Q 29.25 7.328125 35.359375 7.328125 
Q 45.796875 7.328125 50.234375 12.0625 
Q 54.6875 16.796875 54.6875 30.28125 
z
" id="ArialMT-85"/>
       <path d="M 42.09375 16.703125 
L 51.171875 15.578125 
Q 49.03125 7.625 43.21875 3.21875 
Q 37.40625 -1.171875 28.375 -1.171875 
Q 17 -1.171875 10.328125 5.828125 
Q 3.65625 12.84375 3.65625 25.484375 
Q 3.65625 38.578125 10.390625 45.796875 
Q 17.140625 53.03125 27.875 53.03125 
Q 38.28125 53.03125 44.875 45.953125 
Q 51.46875 38.875 51.46875 26.03125 
Q 51.46875 25.25 51.421875 23.6875 
L 12.75 23.6875 
Q 13.234375 15.140625 17.578125 10.59375 
Q 21.921875 6.0625 28.421875 6.0625 
Q 33.25 6.0625 36.671875 8.59375 
Q 40.09375 11.140625 42.09375 16.703125 
z
M 13.234375 30.90625 
L 42.1875 30.90625 
Q 41.609375 37.453125 38.875 40.71875 
Q 34.671875 45.796875 27.984375 45.796875 
Q 21.921875 45.796875 17.796875 41.75 
Q 13.671875 37.703125 13.234375 30.90625 
z
" id="ArialMT-101"/>
       <path d="M 6.59375 0 
L 6.59375 51.859375 
L 14.5 51.859375 
L 14.5 44.484375 
Q 20.21875 53.03125 31 53.03125 
Q 35.6875 53.03125 39.625 51.34375 
Q 43.5625 49.65625 45.515625 46.921875 
Q 47.46875 44.1875 48.25 40.4375 
Q 48.734375 37.984375 48.734375 31.890625 
L 48.734375 0 
L 39.9375 0 
L 39.9375 31.546875 
Q 39.9375 36.921875 38.90625 39.578125 
Q 37.890625 42.234375 35.28125 43.8125 
Q 32.671875 45.40625 29.15625 45.40625 
Q 23.53125 45.40625 19.453125 41.84375 
Q 15.375 38.28125 15.375 28.328125 
L 15.375 0 
z
" id="ArialMT-110"/>
       <path d="M 6.640625 61.46875 
L 6.640625 71.578125 
L 15.4375 71.578125 
L 15.4375 61.46875 
z
M 6.640625 0 
L 6.640625 51.859375 
L 15.4375 51.859375 
L 15.4375 0 
z
" id="ArialMT-105"/>
       <path d="M 4.984375 -4.296875 
L 13.53125 -5.5625 
Q 14.0625 -9.515625 16.5 -11.328125 
Q 19.78125 -13.765625 25.4375 -13.765625 
Q 31.546875 -13.765625 34.859375 -11.328125 
Q 38.1875 -8.890625 39.359375 -4.5 
Q 40.046875 -1.8125 39.984375 6.78125 
Q 34.234375 0 25.640625 0 
Q 14.9375 0 9.078125 7.71875 
Q 3.21875 15.4375 3.21875 26.21875 
Q 3.21875 33.640625 5.90625 39.90625 
Q 8.59375 46.1875 13.6875 49.609375 
Q 18.796875 53.03125 25.6875 53.03125 
Q 34.859375 53.03125 40.828125 45.609375 
L 40.828125 51.859375 
L 48.921875 51.859375 
L 48.921875 7.03125 
Q 48.921875 -5.078125 46.453125 -10.125 
Q 44 -15.1875 38.640625 -18.109375 
Q 33.296875 -21.046875 25.484375 -21.046875 
Q 16.21875 -21.046875 10.5 -16.875 
Q 4.78125 -12.703125 4.984375 -4.296875 
z
M 12.25 26.859375 
Q 12.25 16.65625 16.296875 11.96875 
Q 20.359375 7.28125 26.46875 7.28125 
Q 32.515625 7.28125 36.609375 11.9375 
Q 40.71875 16.609375 40.71875 26.5625 
Q 40.71875 36.078125 36.5 40.90625 
Q 32.28125 45.75 26.3125 45.75 
Q 20.453125 45.75 16.34375 40.984375 
Q 12.25 36.234375 12.25 26.859375 
z
" id="ArialMT-103"/>
      </defs>
      <g style="fill:#262626;" transform="translate(61.335937 284.453594)scale(0.11 -0.11)">
       <use xlink:href="#ArialMT-85"/>
       <use x="72.216797" xlink:href="#ArialMT-101"/>
       <use x="127.832031" xlink:href="#ArialMT-110"/>
       <use x="183.447266" xlink:href="#ArialMT-105"/>
       <use x="205.664062" xlink:href="#ArialMT-103"/>
      </g>
     </g>
    </g>
    <g id="ytick_2">
     <g id="line2d_6">
      <path clip-path="url(#pf15579d61a)" d="M 99.575156 213.171797 
L 834.295156 213.171797 
" style="fill:none;stroke:#ffffff;stroke-linecap:round;"/>
     </g>
     <g id="line2d_7">
      <g>
       <use style="fill:#262626;stroke:#262626;stroke-width:1.25;" x="99.575156" xlink:href="#m450d691309" y="213.171797"/>
      </g>
     </g>
     <g id="text_29">
      <!-- Delvist uenig -->
      <defs>
       <path d="M 6.390625 0 
L 6.390625 71.578125 
L 15.1875 71.578125 
L 15.1875 0 
z
" id="ArialMT-108"/>
       <path d="M 21 0 
L 1.265625 51.859375 
L 10.546875 51.859375 
L 21.6875 20.796875 
Q 23.484375 15.765625 25 10.359375 
Q 26.171875 14.453125 28.265625 20.21875 
L 39.796875 51.859375 
L 48.828125 51.859375 
L 29.203125 0 
z
" id="ArialMT-118"/>
       <path d="M 3.078125 15.484375 
L 11.765625 16.84375 
Q 12.5 11.625 15.84375 8.84375 
Q 19.1875 6.0625 25.203125 6.0625 
Q 31.25 6.0625 34.171875 8.515625 
Q 37.109375 10.984375 37.109375 14.3125 
Q 37.109375 17.28125 34.515625 19 
Q 32.71875 20.171875 25.53125 21.96875 
Q 15.875 24.421875 12.140625 26.203125 
Q 8.40625 27.984375 6.46875 31.125 
Q 4.546875 34.28125 4.546875 38.09375 
Q 4.546875 41.546875 6.125 44.5 
Q 7.71875 47.46875 10.453125 49.421875 
Q 12.5 50.921875 16.03125 51.96875 
Q 19.578125 53.03125 23.640625 53.03125 
Q 29.734375 53.03125 34.34375 51.265625 
Q 38.96875 49.515625 41.15625 46.5 
Q 43.359375 43.5 44.1875 38.484375 
L 35.59375 37.3125 
Q 35.015625 41.3125 32.203125 43.546875 
Q 29.390625 45.796875 24.265625 45.796875 
Q 18.21875 45.796875 15.625 43.796875 
Q 13.03125 41.796875 13.03125 39.109375 
Q 13.03125 37.40625 14.109375 36.03125 
Q 15.1875 34.625 17.484375 33.6875 
Q 18.796875 33.203125 25.25 31.453125 
Q 34.578125 28.953125 38.25 27.359375 
Q 41.9375 25.78125 44.03125 22.75 
Q 46.140625 19.734375 46.140625 15.234375 
Q 46.140625 10.84375 43.578125 6.953125 
Q 41.015625 3.078125 36.171875 0.953125 
Q 31.34375 -1.171875 25.25 -1.171875 
Q 15.140625 -1.171875 9.84375 3.03125 
Q 4.546875 7.234375 3.078125 15.484375 
z
" id="ArialMT-115"/>
       <path id="ArialMT-32"/>
       <path d="M 40.578125 0 
L 40.578125 7.625 
Q 34.515625 -1.171875 24.125 -1.171875 
Q 19.53125 -1.171875 15.546875 0.578125 
Q 11.578125 2.34375 9.640625 5 
Q 7.71875 7.671875 6.9375 11.53125 
Q 6.390625 14.109375 6.390625 19.734375 
L 6.390625 51.859375 
L 15.1875 51.859375 
L 15.1875 23.09375 
Q 15.1875 16.21875 15.71875 13.8125 
Q 16.546875 10.359375 19.234375 8.375 
Q 21.921875 6.390625 25.875 6.390625 
Q 29.828125 6.390625 33.296875 8.421875 
Q 36.765625 10.453125 38.203125 13.9375 
Q 39.65625 17.4375 39.65625 24.078125 
L 39.65625 51.859375 
L 48.4375 51.859375 
L 48.4375 0 
z
" id="ArialMT-117"/>
      </defs>
      <g style="fill:#262626;" transform="translate(27.101875 217.108594)scale(0.11 -0.11)">
       <use xlink:href="#ArialMT-68"/>
       <use x="72.216797" xlink:href="#ArialMT-101"/>
       <use x="127.832031" xlink:href="#ArialMT-108"/>
       <use x="150.048828" xlink:href="#ArialMT-118"/>
       <use x="200.048828" xlink:href="#ArialMT-105"/>
       <use x="222.265625" xlink:href="#ArialMT-115"/>
       <use x="272.265625" xlink:href="#ArialMT-116"/>
       <use x="300.048828" xlink:href="#ArialMT-32"/>
       <use x="327.832031" xlink:href="#ArialMT-117"/>
       <use x="383.447266" xlink:href="#ArialMT-101"/>
       <use x="439.0625" xlink:href="#ArialMT-110"/>
       <use x="494.677734" xlink:href="#ArialMT-105"/>
       <use x="516.894531" xlink:href="#ArialMT-103"/>
      </g>
     </g>
    </g>
    <g id="ytick_3">
     <g id="line2d_8">
      <path clip-path="url(#pf15579d61a)" d="M 99.575156 145.826797 
L 834.295156 145.826797 
" style="fill:none;stroke:#ffffff;stroke-linecap:round;"/>
     </g>
     <g id="line2d_9">
      <g>
       <use style="fill:#262626;stroke:#262626;stroke-width:1.25;" x="99.575156" xlink:href="#m450d691309" y="145.826797"/>
      </g>
     </g>
     <g id="text_30">
      <!-- Hverken/eller -->
      <defs>
       <path d="M 8.015625 0 
L 8.015625 71.578125 
L 17.484375 71.578125 
L 17.484375 42.1875 
L 54.6875 42.1875 
L 54.6875 71.578125 
L 64.15625 71.578125 
L 64.15625 0 
L 54.6875 0 
L 54.6875 33.734375 
L 17.484375 33.734375 
L 17.484375 0 
z
" id="ArialMT-72"/>
       <path d="M 6.5 0 
L 6.5 51.859375 
L 14.40625 51.859375 
L 14.40625 44 
Q 17.4375 49.515625 20 51.265625 
Q 22.5625 53.03125 25.640625 53.03125 
Q 30.078125 53.03125 34.671875 50.203125 
L 31.640625 42.046875 
Q 28.421875 43.953125 25.203125 43.953125 
Q 22.3125 43.953125 20.015625 42.21875 
Q 17.71875 40.484375 16.75 37.40625 
Q 15.28125 32.71875 15.28125 27.15625 
L 15.28125 0 
z
" id="ArialMT-114"/>
       <path d="M 6.640625 0 
L 6.640625 71.578125 
L 15.4375 71.578125 
L 15.4375 30.765625 
L 36.234375 51.859375 
L 47.609375 51.859375 
L 27.78125 32.625 
L 49.609375 0 
L 38.765625 0 
L 21.625 26.515625 
L 15.4375 20.5625 
L 15.4375 0 
z
" id="ArialMT-107"/>
       <path d="M 0 -1.21875 
L 20.75 72.796875 
L 27.78125 72.796875 
L 7.078125 -1.21875 
z
" id="ArialMT-47"/>
      </defs>
      <g style="fill:#262626;" transform="translate(25.276562 149.763594)scale(0.11 -0.11)">
       <use xlink:href="#ArialMT-72"/>
       <use x="72.216797" xlink:href="#ArialMT-118"/>
       <use x="122.216797" xlink:href="#ArialMT-101"/>
       <use x="177.832031" xlink:href="#ArialMT-114"/>
       <use x="211.132812" xlink:href="#ArialMT-107"/>
       <use x="261.132812" xlink:href="#ArialMT-101"/>
       <use x="316.748047" xlink:href="#ArialMT-110"/>
       <use x="372.363281" xlink:href="#ArialMT-47"/>
       <use x="400.146484" xlink:href="#ArialMT-101"/>
       <use x="455.761719" xlink:href="#ArialMT-108"/>
       <use x="477.978516" xlink:href="#ArialMT-108"/>
       <use x="500.195312" xlink:href="#ArialMT-101"/>
       <use x="555.810547" xlink:href="#ArialMT-114"/>
      </g>
     </g>
    </g>
    <g id="ytick_4">
     <g id="line2d_10">
      <path clip-path="url(#pf15579d61a)" d="M 99.575156 78.481797 
L 834.295156 78.481797 
" style="fill:none;stroke:#ffffff;stroke-linecap:round;"/>
     </g>
     <g id="line2d_11">
      <g>
       <use style="fill:#262626;stroke:#262626;stroke-width:1.25;" x="99.575156" xlink:href="#m450d691309" y="78.481797"/>
      </g>
     </g>
     <g id="text_31">
      <!-- Delvist enig -->
      <g style="fill:#262626;" transform="translate(33.218906 82.418594)scale(0.11 -0.11)">
       <use xlink:href="#ArialMT-68"/>
       <use x="72.216797" xlink:href="#ArialMT-101"/>
       <use x="127.832031" xlink:href="#ArialMT-108"/>
       <use x="150.048828" xlink:href="#ArialMT-118"/>
       <use x="200.048828" xlink:href="#ArialMT-105"/>
       <use x="222.265625" xlink:href="#ArialMT-115"/>
       <use x="272.265625" xlink:href="#ArialMT-116"/>
       <use x="300.048828" xlink:href="#ArialMT-32"/>
       <use x="327.832031" xlink:href="#ArialMT-101"/>
       <use x="383.447266" xlink:href="#ArialMT-110"/>
       <use x="439.0625" xlink:href="#ArialMT-105"/>
       <use x="461.279297" xlink:href="#ArialMT-103"/>
      </g>
     </g>
    </g>
    <g id="ytick_5">
     <g id="line2d_12">
      <path clip-path="url(#pf15579d61a)" d="M 99.575156 11.136797 
L 834.295156 11.136797 
" style="fill:none;stroke:#ffffff;stroke-linecap:round;"/>
     </g>
     <g id="line2d_13">
      <g>
       <use style="fill:#262626;stroke:#262626;stroke-width:1.25;" x="99.575156" xlink:href="#m450d691309" y="11.136797"/>
      </g>
     </g>
     <g id="text_32">
      <!-- Enig -->
      <defs>
       <path d="M 7.90625 0 
L 7.90625 71.578125 
L 59.671875 71.578125 
L 59.671875 63.140625 
L 17.390625 63.140625 
L 17.390625 41.21875 
L 56.984375 41.21875 
L 56.984375 32.8125 
L 17.390625 32.8125 
L 17.390625 8.453125 
L 61.328125 8.453125 
L 61.328125 0 
z
" id="ArialMT-69"/>
      </defs>
      <g style="fill:#262626;" transform="translate(68.059687 15.073594)scale(0.11 -0.11)">
       <use xlink:href="#ArialMT-69"/>
       <use x="66.699219" xlink:href="#ArialMT-110"/>
       <use x="122.314453" xlink:href="#ArialMT-105"/>
       <use x="144.53125" xlink:href="#ArialMT-103"/>
      </g>
     </g>
    </g>
    <g id="text_33">
     <!-- Grad af enighed -->
     <defs>
      <path d="M 41.21875 28.078125 
L 41.21875 36.46875 
L 71.53125 36.53125 
L 71.53125 9.96875 
Q 64.546875 4.390625 57.125 1.578125 
Q 49.703125 -1.21875 41.890625 -1.21875 
Q 31.34375 -1.21875 22.71875 3.296875 
Q 14.109375 7.8125 9.71875 16.359375 
Q 5.328125 24.90625 5.328125 35.453125 
Q 5.328125 45.90625 9.6875 54.953125 
Q 14.0625 64.015625 22.265625 68.40625 
Q 30.46875 72.796875 41.15625 72.796875 
Q 48.921875 72.796875 55.1875 70.28125 
Q 61.46875 67.78125 65.03125 63.28125 
Q 68.609375 58.796875 70.453125 51.5625 
L 61.921875 49.21875 
Q 60.296875 54.6875 57.90625 57.8125 
Q 55.515625 60.9375 51.0625 62.8125 
Q 46.625 64.703125 41.21875 64.703125 
Q 34.71875 64.703125 29.984375 62.71875 
Q 25.25 60.75 22.34375 57.515625 
Q 19.4375 54.296875 17.828125 50.4375 
Q 15.09375 43.796875 15.09375 36.03125 
Q 15.09375 26.46875 18.390625 20.015625 
Q 21.6875 13.578125 27.984375 10.453125 
Q 34.28125 7.328125 41.359375 7.328125 
Q 47.515625 7.328125 53.375 9.6875 
Q 59.234375 12.0625 62.25 14.75 
L 62.25 28.078125 
z
" id="ArialMT-71"/>
      <path d="M 40.234375 0 
L 40.234375 6.546875 
Q 35.296875 -1.171875 25.734375 -1.171875 
Q 19.53125 -1.171875 14.328125 2.25 
Q 9.125 5.671875 6.265625 11.796875 
Q 3.421875 17.921875 3.421875 25.875 
Q 3.421875 33.640625 6 39.96875 
Q 8.59375 46.296875 13.765625 49.65625 
Q 18.953125 53.03125 25.34375 53.03125 
Q 30.03125 53.03125 33.6875 51.046875 
Q 37.359375 49.078125 39.65625 45.90625 
L 39.65625 71.578125 
L 48.390625 71.578125 
L 48.390625 0 
z
M 12.453125 25.875 
Q 12.453125 15.921875 16.640625 10.984375 
Q 20.84375 6.0625 26.5625 6.0625 
Q 32.328125 6.0625 36.34375 10.765625 
Q 40.375 15.484375 40.375 25.140625 
Q 40.375 35.796875 36.265625 40.765625 
Q 32.171875 45.75 26.171875 45.75 
Q 20.3125 45.75 16.375 40.96875 
Q 12.453125 36.1875 12.453125 25.875 
z
" id="ArialMT-100"/>
      <path d="M 8.6875 0 
L 8.6875 45.015625 
L 0.921875 45.015625 
L 0.921875 51.859375 
L 8.6875 51.859375 
L 8.6875 57.375 
Q 8.6875 62.59375 9.625 65.140625 
Q 10.890625 68.5625 14.078125 70.671875 
Q 17.28125 72.796875 23.046875 72.796875 
Q 26.765625 72.796875 31.25 71.921875 
L 29.9375 64.265625 
Q 27.203125 64.75 24.75 64.75 
Q 20.75 64.75 19.09375 63.03125 
Q 17.4375 61.328125 17.4375 56.640625 
L 17.4375 51.859375 
L 27.546875 51.859375 
L 27.546875 45.015625 
L 17.4375 45.015625 
L 17.4375 0 
z
" id="ArialMT-102"/>
      <path d="M 6.59375 0 
L 6.59375 71.578125 
L 15.375 71.578125 
L 15.375 45.90625 
Q 21.53125 53.03125 30.90625 53.03125 
Q 36.671875 53.03125 40.921875 50.75 
Q 45.171875 48.484375 47 44.484375 
Q 48.828125 40.484375 48.828125 32.859375 
L 48.828125 0 
L 40.046875 0 
L 40.046875 32.859375 
Q 40.046875 39.453125 37.1875 42.453125 
Q 34.328125 45.453125 29.109375 45.453125 
Q 25.203125 45.453125 21.75 43.421875 
Q 18.3125 41.40625 16.84375 37.9375 
Q 15.375 34.46875 15.375 28.375 
L 15.375 0 
z
" id="ArialMT-104"/>
     </defs>
     <g style="fill:#262626;" transform="translate(18.119531 199.611172)rotate(-90)scale(0.15 -0.15)">
      <use xlink:href="#ArialMT-71"/>
      <use x="77.783203" xlink:href="#ArialMT-114"/>
      <use x="111.083984" xlink:href="#ArialMT-97"/>
      <use x="166.699219" xlink:href="#ArialMT-100"/>
      <use x="222.314453" xlink:href="#ArialMT-32"/>
      <use x="250.097656" xlink:href="#ArialMT-97"/>
      <use x="305.712891" xlink:href="#ArialMT-102"/>
      <use x="333.496094" xlink:href="#ArialMT-32"/>
      <use x="361.279297" xlink:href="#ArialMT-101"/>
      <use x="416.894531" xlink:href="#ArialMT-110"/>
      <use x="472.509766" xlink:href="#ArialMT-105"/>
      <use x="494.726562" xlink:href="#ArialMT-103"/>
      <use x="550.341797" xlink:href="#ArialMT-104"/>
      <use x="605.957031" xlink:href="#ArialMT-101"/>
      <use x="661.572266" xlink:href="#ArialMT-100"/>
     </g>
    </g>
   </g>
   <g id="patch_3">
    <path clip-path="url(#pf15579d61a)" d="M 187.741556 280.516797 
L 187.741556 11.136797 
L 217.130356 11.136797 
L 217.130356 280.516797 
z
" style="fill:#008000;opacity:0.2;"/>
   </g>
   <g id="patch_4">
    <path clip-path="url(#pf15579d61a)" d="M 393.463156 280.516797 
L 393.463156 11.136797 
L 422.851956 11.136797 
L 422.851956 280.516797 
z
" style="fill:#008000;opacity:0.2;"/>
   </g>
   <g id="patch_5">
    <path clip-path="url(#pf15579d61a)" d="M 599.184756 280.516797 
L 599.184756 11.136797 
L 628.573556 11.136797 
L 628.573556 280.516797 
z
" style="fill:#008000;opacity:0.2;"/>
   </g>
   <g id="patch_6">
    <path clip-path="url(#pf15579d61a)" d="M 804.906356 280.516797 
L 804.906356 11.136797 
L 834.295156 11.136797 
L 834.295156 280.516797 
z
" style="fill:#008000;opacity:0.2;"/>
   </g>
   <g id="patch_7">
    <path clip-path="url(#pf15579d61a)" d="M 128.963956 280.516797 
L 128.963956 11.136797 
L 187.741556 11.136797 
L 187.741556 280.516797 
z
" style="fill:#ffa500;opacity:0.2;"/>
   </g>
   <g id="patch_8">
    <path clip-path="url(#pf15579d61a)" d="M 187.741556 280.516797 
L 187.741556 11.136797 
L 246.519156 11.136797 
L 246.519156 280.516797 
z
" style="fill:#ffa500;opacity:0.2;"/>
   </g>
   <g id="line2d_14">
    <path clip-path="url(#pf15579d61a)" d="M 99.575156 196.335547 
L 128.963956 207.049524 
L 158.352756 207.049524 
L 187.741556 201.94763 
L 217.130356 185.62157 
L 246.519156 168.27513 
L 275.907956 127.248866 
L 305.296756 124.276397 
L 334.685556 119.369833 
L 364.074356 129.663997 
L 393.463156 182.089489 
L 422.851956 138.05622 
L 452.240756 160.792352 
L 481.629556 127.695451 
L 511.018356 106.348693 
L 540.407156 143.132997 
L 569.795956 166.548335 
L 599.184756 193.930368 
L 628.573556 172.764797 
L 657.962356 140.646412 
L 687.351156 136.206083 
L 716.739956 128.366982 
L 746.128756 135.84976 
L 775.517556 172.016519 
L 804.906356 179.499297 
L 834.295156 161.672679 
" style="fill:none;stroke:#4c72b0;stroke-linecap:round;stroke-width:1.5;"/>
    <defs>
     <path d="M 0 3 
C 0.795609 3 1.55874 2.683901 2.12132 2.12132 
C 2.683901 1.55874 3 0.795609 3 0 
C 3 -0.795609 2.683901 -1.55874 2.12132 -2.12132 
C 1.55874 -2.683901 0.795609 -3 0 -3 
C -0.795609 -3 -1.55874 -2.683901 -2.12132 -2.12132 
C -2.683901 -1.55874 -3 -0.795609 -3 0 
C -3 0.795609 -2.683901 1.55874 -2.12132 2.12132 
C -1.55874 2.683901 -0.795609 3 0 3 
z
" id="m4931baeed2" style="stroke:#4c72b0;"/>
    </defs>
    <g clip-path="url(#pf15579d61a)">
     <use style="fill:#4c72b0;stroke:#4c72b0;" x="99.575156" xlink:href="#m4931baeed2" y="196.335547"/>
     <use style="fill:#4c72b0;stroke:#4c72b0;" x="128.963956" xlink:href="#m4931baeed2" y="207.049524"/>
     <use style="fill:#4c72b0;stroke:#4c72b0;" x="158.352756" xlink:href="#m4931baeed2" y="207.049524"/>
     <use style="fill:#4c72b0;stroke:#4c72b0;" x="187.741556" xlink:href="#m4931baeed2" y="201.94763"/>
     <use style="fill:#4c72b0;stroke:#4c72b0;" x="217.130356" xlink:href="#m4931baeed2" y="185.62157"/>
     <use style="fill:#4c72b0;stroke:#4c72b0;" x="246.519156" xlink:href="#m4931baeed2" y="168.27513"/>
     <use style="fill:#4c72b0;stroke:#4c72b0;" x="275.907956" xlink:href="#m4931baeed2" y="127.248866"/>
     <use style="fill:#4c72b0;stroke:#4c72b0;" x="305.296756" xlink:href="#m4931baeed2" y="124.276397"/>
     <use style="fill:#4c72b0;stroke:#4c72b0;" x="334.685556" xlink:href="#m4931baeed2" y="119.369833"/>
     <use style="fill:#4c72b0;stroke:#4c72b0;" x="364.074356" xlink:href="#m4931baeed2" y="129.663997"/>
     <use style="fill:#4c72b0;stroke:#4c72b0;" x="393.463156" xlink:href="#m4931baeed2" y="182.089489"/>
     <use style="fill:#4c72b0;stroke:#4c72b0;" x="422.851956" xlink:href="#m4931baeed2" y="138.05622"/>
     <use style="fill:#4c72b0;stroke:#4c72b0;" x="452.240756" xlink:href="#m4931baeed2" y="160.792352"/>
     <use style="fill:#4c72b0;stroke:#4c72b0;" x="481.629556" xlink:href="#m4931baeed2" y="127.695451"/>
     <use style="fill:#4c72b0;stroke:#4c72b0;" x="511.018356" xlink:href="#m4931baeed2" y="106.348693"/>
     <use style="fill:#4c72b0;stroke:#4c72b0;" x="540.407156" xlink:href="#m4931baeed2" y="143.132997"/>
     <use style="fill:#4c72b0;stroke:#4c72b0;" x="569.795956" xlink:href="#m4931baeed2" y="166.548335"/>
     <use style="fill:#4c72b0;stroke:#4c72b0;" x="599.184756" xlink:href="#m4931baeed2" y="193.930368"/>
     <use style="fill:#4c72b0;stroke:#4c72b0;" x="628.573556" xlink:href="#m4931baeed2" y="172.764797"/>
     <use style="fill:#4c72b0;stroke:#4c72b0;" x="657.962356" xlink:href="#m4931baeed2" y="140.646412"/>
     <use style="fill:#4c72b0;stroke:#4c72b0;" x="687.351156" xlink:href="#m4931baeed2" y="136.206083"/>
     <use style="fill:#4c72b0;stroke:#4c72b0;" x="716.739956" xlink:href="#m4931baeed2" y="128.366982"/>
     <use style="fill:#4c72b0;stroke:#4c72b0;" x="746.128756" xlink:href="#m4931baeed2" y="135.84976"/>
     <use style="fill:#4c72b0;stroke:#4c72b0;" x="775.517556" xlink:href="#m4931baeed2" y="172.016519"/>
     <use style="fill:#4c72b0;stroke:#4c72b0;" x="804.906356" xlink:href="#m4931baeed2" y="179.499297"/>
     <use style="fill:#4c72b0;stroke:#4c72b0;" x="834.295156" xlink:href="#m4931baeed2" y="161.672679"/>
    </g>
   </g>
   <g id="line2d_15">
    <path clip-path="url(#pf15579d61a)" d="M 99.575156 203.070047 
L 128.963956 203.988388 
L 158.352756 197.866115 
L 187.741556 216.09984 
L 217.130356 219.29407 
L 246.519156 187.516559 
L 275.907956 180.746427 
L 305.296756 199.702797 
L 334.685556 210.677538 
L 364.074356 202.396597 
L 393.463156 213.171797 
L 422.851956 200.220835 
L 452.240756 185.734945 
L 481.629556 170.070997 
L 511.018356 167.473404 
L 540.407156 169.138528 
L 569.795956 158.777758 
L 599.184756 196.335547 
L 628.573556 184.679681 
L 657.962356 178.252167 
L 687.351156 158.298093 
L 716.739956 169.138528 
L 746.128756 153.309575 
L 775.517556 175.757908 
L 804.906356 175.290234 
L 834.295156 185.441503 
" style="fill:none;stroke:#dd8452;stroke-linecap:round;stroke-width:1.5;"/>
    <defs>
     <path d="M 0 3 
C 0.795609 3 1.55874 2.683901 2.12132 2.12132 
C 2.683901 1.55874 3 0.795609 3 0 
C 3 -0.795609 2.683901 -1.55874 2.12132 -2.12132 
C 1.55874 -2.683901 0.795609 -3 0 -3 
C -0.795609 -3 -1.55874 -2.683901 -2.12132 -2.12132 
C -2.683901 -1.55874 -3 -0.795609 -3 0 
C -3 0.795609 -2.683901 1.55874 -2.12132 2.12132 
C -1.55874 2.683901 -0.795609 3 0 3 
z
" id="m2fcf2aac3f" style="stroke:#dd8452;"/>
    </defs>
    <g clip-path="url(#pf15579d61a)">
     <use style="fill:#dd8452;stroke:#dd8452;" x="99.575156" xlink:href="#m2fcf2aac3f" y="203.070047"/>
     <use style="fill:#dd8452;stroke:#dd8452;" x="128.963956" xlink:href="#m2fcf2aac3f" y="203.988388"/>
     <use style="fill:#dd8452;stroke:#dd8452;" x="158.352756" xlink:href="#m2fcf2aac3f" y="197.866115"/>
     <use style="fill:#dd8452;stroke:#dd8452;" x="187.741556" xlink:href="#m2fcf2aac3f" y="216.09984"/>
     <use style="fill:#dd8452;stroke:#dd8452;" x="217.130356" xlink:href="#m2fcf2aac3f" y="219.29407"/>
     <use style="fill:#dd8452;stroke:#dd8452;" x="246.519156" xlink:href="#m2fcf2aac3f" y="187.516559"/>
     <use style="fill:#dd8452;stroke:#dd8452;" x="275.907956" xlink:href="#m2fcf2aac3f" y="180.746427"/>
     <use style="fill:#dd8452;stroke:#dd8452;" x="305.296756" xlink:href="#m2fcf2aac3f" y="199.702797"/>
     <use style="fill:#dd8452;stroke:#dd8452;" x="334.685556" xlink:href="#m2fcf2aac3f" y="210.677538"/>
     <use style="fill:#dd8452;stroke:#dd8452;" x="364.074356" xlink:href="#m2fcf2aac3f" y="202.396597"/>
     <use style="fill:#dd8452;stroke:#dd8452;" x="393.463156" xlink:href="#m2fcf2aac3f" y="213.171797"/>
     <use style="fill:#dd8452;stroke:#dd8452;" x="422.851956" xlink:href="#m2fcf2aac3f" y="200.220835"/>
     <use style="fill:#dd8452;stroke:#dd8452;" x="452.240756" xlink:href="#m2fcf2aac3f" y="185.734945"/>
     <use style="fill:#dd8452;stroke:#dd8452;" x="481.629556" xlink:href="#m2fcf2aac3f" y="170.070997"/>
     <use style="fill:#dd8452;stroke:#dd8452;" x="511.018356" xlink:href="#m2fcf2aac3f" y="167.473404"/>
     <use style="fill:#dd8452;stroke:#dd8452;" x="540.407156" xlink:href="#m2fcf2aac3f" y="169.138528"/>
     <use style="fill:#dd8452;stroke:#dd8452;" x="569.795956" xlink:href="#m2fcf2aac3f" y="158.777758"/>
     <use style="fill:#dd8452;stroke:#dd8452;" x="599.184756" xlink:href="#m2fcf2aac3f" y="196.335547"/>
     <use style="fill:#dd8452;stroke:#dd8452;" x="628.573556" xlink:href="#m2fcf2aac3f" y="184.679681"/>
     <use style="fill:#dd8452;stroke:#dd8452;" x="657.962356" xlink:href="#m2fcf2aac3f" y="178.252167"/>
     <use style="fill:#dd8452;stroke:#dd8452;" x="687.351156" xlink:href="#m2fcf2aac3f" y="158.298093"/>
     <use style="fill:#dd8452;stroke:#dd8452;" x="716.739956" xlink:href="#m2fcf2aac3f" y="169.138528"/>
     <use style="fill:#dd8452;stroke:#dd8452;" x="746.128756" xlink:href="#m2fcf2aac3f" y="153.309575"/>
     <use style="fill:#dd8452;stroke:#dd8452;" x="775.517556" xlink:href="#m2fcf2aac3f" y="175.757908"/>
     <use style="fill:#dd8452;stroke:#dd8452;" x="804.906356" xlink:href="#m2fcf2aac3f" y="175.290234"/>
     <use style="fill:#dd8452;stroke:#dd8452;" x="834.295156" xlink:href="#m2fcf2aac3f" y="185.441503"/>
    </g>
   </g>
   <g id="patch_9">
    <path d="M 99.575156 280.516797 
L 99.575156 11.136797 
" style="fill:none;stroke:#ffffff;stroke-linecap:square;stroke-linejoin:miter;stroke-width:1.25;"/>
   </g>
   <g id="patch_10">
    <path d="M 834.295156 280.516797 
L 834.295156 11.136797 
" style="fill:none;stroke:#ffffff;stroke-linecap:square;stroke-linejoin:miter;stroke-width:1.25;"/>
   </g>
   <g id="patch_11">
    <path d="M 99.575156 280.516797 
L 834.295156 280.516797 
" style="fill:none;stroke:#ffffff;stroke-linecap:square;stroke-linejoin:miter;stroke-width:1.25;"/>
   </g>
   <g id="patch_12">
    <path d="M 99.575156 11.136797 
L 834.295156 11.136797 
" style="fill:none;stroke:#ffffff;stroke-linecap:square;stroke-linejoin:miter;stroke-width:1.25;"/>
   </g>
  </g>
  <g id="axes_2">
   <g id="matplotlib.axis_3">
    <g id="ytick_6">
     <g id="line2d_16">
      <defs>
       <path d="M 0 0 
L 6 0 
" id="mc55b030e72" style="stroke:#262626;stroke-width:1.25;"/>
      </defs>
      <g>
       <use style="fill:#262626;stroke:#262626;stroke-width:1.25;" x="834.295156" xlink:href="#mc55b030e72" y="254.403847"/>
      </g>
     </g>
     <g id="text_34">
      <!-- 42.5% -->
      <defs>
       <path d="M 9.078125 0 
L 9.078125 10.015625 
L 19.09375 10.015625 
L 19.09375 0 
z
" id="ArialMT-46"/>
       <path d="M 5.8125 54.390625 
Q 5.8125 62.0625 9.671875 67.421875 
Q 13.53125 72.796875 20.84375 72.796875 
Q 27.59375 72.796875 32 67.984375 
Q 36.421875 63.1875 36.421875 53.859375 
Q 36.421875 44.78125 31.953125 39.875 
Q 27.484375 34.96875 20.953125 34.96875 
Q 14.453125 34.96875 10.125 39.796875 
Q 5.8125 44.625 5.8125 54.390625 
z
M 21.09375 66.75 
Q 17.828125 66.75 15.65625 63.90625 
Q 13.484375 61.078125 13.484375 53.515625 
Q 13.484375 46.625 15.671875 43.8125 
Q 17.875 41.015625 21.09375 41.015625 
Q 24.421875 41.015625 26.59375 43.84375 
Q 28.765625 46.6875 28.765625 54.203125 
Q 28.765625 61.140625 26.5625 63.9375 
Q 24.359375 66.75 21.09375 66.75 
z
M 21.140625 -2.640625 
L 60.296875 72.796875 
L 67.4375 72.796875 
L 28.421875 -2.640625 
z
M 52.09375 16.796875 
Q 52.09375 24.515625 55.953125 29.859375 
Q 59.8125 35.203125 67.1875 35.203125 
Q 73.921875 35.203125 78.34375 30.390625 
Q 82.765625 25.59375 82.765625 16.265625 
Q 82.765625 7.171875 78.296875 2.265625 
Q 73.828125 -2.640625 67.234375 -2.640625 
Q 60.75 -2.640625 56.421875 2.21875 
Q 52.09375 7.078125 52.09375 16.796875 
z
M 67.4375 29.15625 
Q 64.109375 29.15625 61.9375 26.3125 
Q 59.765625 23.484375 59.765625 15.921875 
Q 59.765625 9.078125 61.953125 6.25 
Q 64.15625 3.421875 67.390625 3.421875 
Q 70.75 3.421875 72.921875 6.25 
Q 75.09375 9.078125 75.09375 16.609375 
Q 75.09375 23.53125 72.890625 26.34375 
Q 70.703125 29.15625 67.4375 29.15625 
z
" id="ArialMT-37"/>
      </defs>
      <g style="fill:#262626;" transform="translate(843.795156 258.340644)scale(0.11 -0.11)">
       <use xlink:href="#ArialMT-52"/>
       <use x="55.615234" xlink:href="#ArialMT-50"/>
       <use x="111.230469" xlink:href="#ArialMT-46"/>
       <use x="139.013672" xlink:href="#ArialMT-53"/>
       <use x="194.628906" xlink:href="#ArialMT-37"/>
      </g>
     </g>
    </g>
    <g id="ytick_7">
     <g id="line2d_17">
      <g>
       <use style="fill:#262626;stroke:#262626;stroke-width:1.25;" x="834.295156" xlink:href="#mc55b030e72" y="223.253694"/>
      </g>
     </g>
     <g id="text_35">
      <!-- 45.0% -->
      <g style="fill:#262626;" transform="translate(843.795156 227.190491)scale(0.11 -0.11)">
       <use xlink:href="#ArialMT-52"/>
       <use x="55.615234" xlink:href="#ArialMT-53"/>
       <use x="111.230469" xlink:href="#ArialMT-46"/>
       <use x="139.013672" xlink:href="#ArialMT-48"/>
       <use x="194.628906" xlink:href="#ArialMT-37"/>
      </g>
     </g>
    </g>
    <g id="ytick_8">
     <g id="line2d_18">
      <g>
       <use style="fill:#262626;stroke:#262626;stroke-width:1.25;" x="834.295156" xlink:href="#mc55b030e72" y="192.10354"/>
      </g>
     </g>
     <g id="text_36">
      <!-- 47.5% -->
      <g style="fill:#262626;" transform="translate(843.795156 196.040337)scale(0.11 -0.11)">
       <use xlink:href="#ArialMT-52"/>
       <use x="55.615234" xlink:href="#ArialMT-55"/>
       <use x="111.230469" xlink:href="#ArialMT-46"/>
       <use x="139.013672" xlink:href="#ArialMT-53"/>
       <use x="194.628906" xlink:href="#ArialMT-37"/>
      </g>
     </g>
    </g>
    <g id="ytick_9">
     <g id="line2d_19">
      <g>
       <use style="fill:#262626;stroke:#262626;stroke-width:1.25;" x="834.295156" xlink:href="#mc55b030e72" y="160.953386"/>
      </g>
     </g>
     <g id="text_37">
      <!-- 50.0% -->
      <g style="fill:#262626;" transform="translate(843.795156 164.890183)scale(0.11 -0.11)">
       <use xlink:href="#ArialMT-53"/>
       <use x="55.615234" xlink:href="#ArialMT-48"/>
       <use x="111.230469" xlink:href="#ArialMT-46"/>
       <use x="139.013672" xlink:href="#ArialMT-48"/>
       <use x="194.628906" xlink:href="#ArialMT-37"/>
      </g>
     </g>
    </g>
    <g id="ytick_10">
     <g id="line2d_20">
      <g>
       <use style="fill:#262626;stroke:#262626;stroke-width:1.25;" x="834.295156" xlink:href="#mc55b030e72" y="129.803233"/>
      </g>
     </g>
     <g id="text_38">
      <!-- 52.5% -->
      <g style="fill:#262626;" transform="translate(843.795156 133.74003)scale(0.11 -0.11)">
       <use xlink:href="#ArialMT-53"/>
       <use x="55.615234" xlink:href="#ArialMT-50"/>
       <use x="111.230469" xlink:href="#ArialMT-46"/>
       <use x="139.013672" xlink:href="#ArialMT-53"/>
       <use x="194.628906" xlink:href="#ArialMT-37"/>
      </g>
     </g>
    </g>
    <g id="ytick_11">
     <g id="line2d_21">
      <g>
       <use style="fill:#262626;stroke:#262626;stroke-width:1.25;" x="834.295156" xlink:href="#mc55b030e72" y="98.653079"/>
      </g>
     </g>
     <g id="text_39">
      <!-- 55.0% -->
      <g style="fill:#262626;" transform="translate(843.795156 102.589876)scale(0.11 -0.11)">
       <use xlink:href="#ArialMT-53"/>
       <use x="55.615234" xlink:href="#ArialMT-53"/>
       <use x="111.230469" xlink:href="#ArialMT-46"/>
       <use x="139.013672" xlink:href="#ArialMT-48"/>
       <use x="194.628906" xlink:href="#ArialMT-37"/>
      </g>
     </g>
    </g>
    <g id="ytick_12">
     <g id="line2d_22">
      <g>
       <use style="fill:#262626;stroke:#262626;stroke-width:1.25;" x="834.295156" xlink:href="#mc55b030e72" y="67.502925"/>
      </g>
     </g>
     <g id="text_40">
      <!-- 57.5% -->
      <g style="fill:#262626;" transform="translate(843.795156 71.439722)scale(0.11 -0.11)">
       <use xlink:href="#ArialMT-53"/>
       <use x="55.615234" xlink:href="#ArialMT-55"/>
       <use x="111.230469" xlink:href="#ArialMT-46"/>
       <use x="139.013672" xlink:href="#ArialMT-53"/>
       <use x="194.628906" xlink:href="#ArialMT-37"/>
      </g>
     </g>
    </g>
    <g id="ytick_13">
     <g id="line2d_23">
      <g>
       <use style="fill:#262626;stroke:#262626;stroke-width:1.25;" x="834.295156" xlink:href="#mc55b030e72" y="36.352772"/>
      </g>
     </g>
     <g id="text_41">
      <!-- 60.0% -->
      <g style="fill:#262626;" transform="translate(843.795156 40.289568)scale(0.11 -0.11)">
       <use xlink:href="#ArialMT-54"/>
       <use x="55.615234" xlink:href="#ArialMT-48"/>
       <use x="111.230469" xlink:href="#ArialMT-46"/>
       <use x="139.013672" xlink:href="#ArialMT-48"/>
       <use x="194.628906" xlink:href="#ArialMT-37"/>
      </g>
     </g>
    </g>
    <g id="text_42">
     <!-- Procent -->
     <defs>
      <path d="M 7.71875 0 
L 7.71875 71.578125 
L 34.71875 71.578125 
Q 41.84375 71.578125 45.609375 70.90625 
Q 50.875 70.015625 54.4375 67.546875 
Q 58.015625 65.09375 60.1875 60.640625 
Q 62.359375 56.203125 62.359375 50.875 
Q 62.359375 41.75 56.546875 35.421875 
Q 50.734375 29.109375 35.546875 29.109375 
L 17.1875 29.109375 
L 17.1875 0 
z
M 17.1875 37.546875 
L 35.6875 37.546875 
Q 44.875 37.546875 48.734375 40.96875 
Q 52.59375 44.390625 52.59375 50.59375 
Q 52.59375 55.078125 50.3125 58.265625 
Q 48.046875 61.46875 44.34375 62.5 
Q 41.9375 63.140625 35.5 63.140625 
L 17.1875 63.140625 
z
" id="ArialMT-80"/>
      <path d="M 40.4375 19 
L 49.078125 17.875 
Q 47.65625 8.9375 41.8125 3.875 
Q 35.984375 -1.171875 27.484375 -1.171875 
Q 16.84375 -1.171875 10.375 5.78125 
Q 3.90625 12.75 3.90625 25.734375 
Q 3.90625 34.125 6.6875 40.421875 
Q 9.46875 46.734375 15.15625 49.875 
Q 20.84375 53.03125 27.546875 53.03125 
Q 35.984375 53.03125 41.359375 48.75 
Q 46.734375 44.484375 48.25 36.625 
L 39.703125 35.296875 
Q 38.484375 40.53125 35.375 43.15625 
Q 32.28125 45.796875 27.875 45.796875 
Q 21.234375 45.796875 17.078125 41.03125 
Q 12.9375 36.28125 12.9375 25.984375 
Q 12.9375 15.53125 16.9375 10.796875 
Q 20.953125 6.0625 27.390625 6.0625 
Q 32.5625 6.0625 36.03125 9.234375 
Q 39.5 12.40625 40.4375 19 
z
" id="ArialMT-99"/>
     </defs>
     <g style="fill:#008000;" transform="translate(889.720312 171.6725)rotate(-90)scale(0.15 -0.15)">
      <use xlink:href="#ArialMT-80"/>
      <use x="66.699219" xlink:href="#ArialMT-114"/>
      <use x="100" xlink:href="#ArialMT-111"/>
      <use x="155.615234" xlink:href="#ArialMT-99"/>
      <use x="205.615234" xlink:href="#ArialMT-101"/>
      <use x="261.230469" xlink:href="#ArialMT-110"/>
      <use x="316.845703" xlink:href="#ArialMT-116"/>
     </g>
    </g>
   </g>
   <g id="line2d_24">
    <path clip-path="url(#pf15579d61a)" d="M 99.575156 91.388122 
L 128.963956 130.914575 
L 158.352756 117.7768 
L 187.741556 268.272251 
L 217.130356 239.021466 
L 246.519156 120.855758 
L 275.907956 23.381342 
L 305.296756 46.287494 
L 334.685556 89.397117 
L 364.074356 136.440202 
L 393.463156 188.655787 
L 422.851956 210.642306 
L 452.240756 135.126507 
L 481.629556 73.646909 
L 511.018356 106.925444 
L 540.407156 40.151257 
L 569.795956 35.54251 
L 599.184756 182.50391 
L 628.573556 39.738353 
L 657.962356 30.759249 
L 687.351156 131.896578 
L 716.739956 60.001744 
L 746.128756 117.577115 
L 775.517556 94.3774 
L 804.906356 200.574904 
L 834.295156 216.275326 
" style="fill:none;stroke:#55a868;stroke-linecap:round;stroke-width:1.5;"/>
    <defs>
     <path d="M 0 3 
C 0.795609 3 1.55874 2.683901 2.12132 2.12132 
C 2.683901 1.55874 3 0.795609 3 0 
C 3 -0.795609 2.683901 -1.55874 2.12132 -2.12132 
C 1.55874 -2.683901 0.795609 -3 0 -3 
C -0.795609 -3 -1.55874 -2.683901 -2.12132 -2.12132 
C -2.683901 -1.55874 -3 -0.795609 -3 0 
C -3 0.795609 -2.683901 1.55874 -2.12132 2.12132 
C -1.55874 2.683901 -0.795609 3 0 3 
z
" id="m7d9bcf2f3a" style="stroke:#55a868;"/>
    </defs>
    <g clip-path="url(#pf15579d61a)">
     <use style="fill:#55a868;stroke:#55a868;" x="99.575156" xlink:href="#m7d9bcf2f3a" y="91.388122"/>
     <use style="fill:#55a868;stroke:#55a868;" x="128.963956" xlink:href="#m7d9bcf2f3a" y="130.914575"/>
     <use style="fill:#55a868;stroke:#55a868;" x="158.352756" xlink:href="#m7d9bcf2f3a" y="117.7768"/>
     <use style="fill:#55a868;stroke:#55a868;" x="187.741556" xlink:href="#m7d9bcf2f3a" y="268.272251"/>
     <use style="fill:#55a868;stroke:#55a868;" x="217.130356" xlink:href="#m7d9bcf2f3a" y="239.021466"/>
     <use style="fill:#55a868;stroke:#55a868;" x="246.519156" xlink:href="#m7d9bcf2f3a" y="120.855758"/>
     <use style="fill:#55a868;stroke:#55a868;" x="275.907956" xlink:href="#m7d9bcf2f3a" y="23.381342"/>
     <use style="fill:#55a868;stroke:#55a868;" x="305.296756" xlink:href="#m7d9bcf2f3a" y="46.287494"/>
     <use style="fill:#55a868;stroke:#55a868;" x="334.685556" xlink:href="#m7d9bcf2f3a" y="89.397117"/>
     <use style="fill:#55a868;stroke:#55a868;" x="364.074356" xlink:href="#m7d9bcf2f3a" y="136.440202"/>
     <use style="fill:#55a868;stroke:#55a868;" x="393.463156" xlink:href="#m7d9bcf2f3a" y="188.655787"/>
     <use style="fill:#55a868;stroke:#55a868;" x="422.851956" xlink:href="#m7d9bcf2f3a" y="210.642306"/>
     <use style="fill:#55a868;stroke:#55a868;" x="452.240756" xlink:href="#m7d9bcf2f3a" y="135.126507"/>
     <use style="fill:#55a868;stroke:#55a868;" x="481.629556" xlink:href="#m7d9bcf2f3a" y="73.646909"/>
     <use style="fill:#55a868;stroke:#55a868;" x="511.018356" xlink:href="#m7d9bcf2f3a" y="106.925444"/>
     <use style="fill:#55a868;stroke:#55a868;" x="540.407156" xlink:href="#m7d9bcf2f3a" y="40.151257"/>
     <use style="fill:#55a868;stroke:#55a868;" x="569.795956" xlink:href="#m7d9bcf2f3a" y="35.54251"/>
     <use style="fill:#55a868;stroke:#55a868;" x="599.184756" xlink:href="#m7d9bcf2f3a" y="182.50391"/>
     <use style="fill:#55a868;stroke:#55a868;" x="628.573556" xlink:href="#m7d9bcf2f3a" y="39.738353"/>
     <use style="fill:#55a868;stroke:#55a868;" x="657.962356" xlink:href="#m7d9bcf2f3a" y="30.759249"/>
     <use style="fill:#55a868;stroke:#55a868;" x="687.351156" xlink:href="#m7d9bcf2f3a" y="131.896578"/>
     <use style="fill:#55a868;stroke:#55a868;" x="716.739956" xlink:href="#m7d9bcf2f3a" y="60.001744"/>
     <use style="fill:#55a868;stroke:#55a868;" x="746.128756" xlink:href="#m7d9bcf2f3a" y="117.577115"/>
     <use style="fill:#55a868;stroke:#55a868;" x="775.517556" xlink:href="#m7d9bcf2f3a" y="94.3774"/>
     <use style="fill:#55a868;stroke:#55a868;" x="804.906356" xlink:href="#m7d9bcf2f3a" y="200.574904"/>
     <use style="fill:#55a868;stroke:#55a868;" x="834.295156" xlink:href="#m7d9bcf2f3a" y="216.275326"/>
    </g>
   </g>
   <g id="patch_13">
    <path d="M 99.575156 280.516797 
L 99.575156 11.136797 
" style="fill:none;stroke:#ffffff;stroke-linecap:square;stroke-linejoin:miter;stroke-width:1.25;"/>
   </g>
   <g id="patch_14">
    <path d="M 834.295156 280.516797 
L 834.295156 11.136797 
" style="fill:none;stroke:#ffffff;stroke-linecap:square;stroke-linejoin:miter;stroke-width:1.25;"/>
   </g>
   <g id="patch_15">
    <path d="M 99.575156 280.516797 
L 834.295156 280.516797 
" style="fill:none;stroke:#ffffff;stroke-linecap:square;stroke-linejoin:miter;stroke-width:1.25;"/>
   </g>
   <g id="patch_16">
    <path d="M 99.575156 11.136797 
L 834.295156 11.136797 
" style="fill:none;stroke:#ffffff;stroke-linecap:square;stroke-linejoin:miter;stroke-width:1.25;"/>
   </g>
   <g id="legend_1">
    <g id="patch_17">
     <path d="M 888.137069 86.790703 
L 1029.516756 86.790703 
Q 1032.516756 86.790703 1032.516756 83.790703 
L 1032.516756 21.636797 
Q 1032.516756 18.636797 1029.516756 18.636797 
L 888.137069 18.636797 
Q 885.137069 18.636797 885.137069 21.636797 
L 885.137069 83.790703 
Q 885.137069 86.790703 888.137069 86.790703 
z
" style="fill:#eaeaf2;opacity:0.8;stroke:#cccccc;stroke-linejoin:miter;"/>
    </g>
    <g id="line2d_25">
     <path d="M 891.137069 30.123516 
L 921.137069 30.123516 
" style="fill:none;stroke:#4c72b0;stroke-linecap:round;stroke-width:1.5;"/>
    </g>
    <g id="line2d_26">
     <g>
      <use style="fill:#4c72b0;stroke:#4c72b0;" x="906.137069" xlink:href="#m4931baeed2" y="30.123516"/>
     </g>
    </g>
    <g id="text_43">
     <!-- Travlhed -->
     <defs>
      <path d="M 25.921875 0 
L 25.921875 63.140625 
L 2.34375 63.140625 
L 2.34375 71.578125 
L 59.078125 71.578125 
L 59.078125 63.140625 
L 35.40625 63.140625 
L 35.40625 0 
z
" id="ArialMT-84"/>
     </defs>
     <g style="fill:#262626;" transform="translate(933.137069 35.373516)scale(0.15 -0.15)">
      <use xlink:href="#ArialMT-84"/>
      <use x="61.037109" xlink:href="#ArialMT-114"/>
      <use x="94.337891" xlink:href="#ArialMT-97"/>
      <use x="149.953125" xlink:href="#ArialMT-118"/>
      <use x="199.953125" xlink:href="#ArialMT-108"/>
      <use x="222.169922" xlink:href="#ArialMT-104"/>
      <use x="277.785156" xlink:href="#ArialMT-101"/>
      <use x="333.400391" xlink:href="#ArialMT-100"/>
     </g>
    </g>
    <g id="line2d_27">
     <path d="M 891.137069 51.341484 
L 921.137069 51.341484 
" style="fill:none;stroke:#dd8452;stroke-linecap:round;stroke-width:1.5;"/>
    </g>
    <g id="line2d_28">
     <g>
      <use style="fill:#dd8452;stroke:#dd8452;" x="906.137069" xlink:href="#m2fcf2aac3f" y="51.341484"/>
     </g>
    </g>
    <g id="text_44">
     <!-- Socialt afsavn -->
     <defs>
      <path d="M 4.5 23 
L 13.421875 23.78125 
Q 14.0625 18.40625 16.375 14.96875 
Q 18.703125 11.53125 23.578125 9.40625 
Q 28.46875 7.28125 34.578125 7.28125 
Q 39.984375 7.28125 44.140625 8.890625 
Q 48.296875 10.5 50.3125 13.296875 
Q 52.34375 16.109375 52.34375 19.4375 
Q 52.34375 22.796875 50.390625 25.3125 
Q 48.4375 27.828125 43.953125 29.546875 
Q 41.0625 30.671875 31.203125 33.03125 
Q 21.34375 35.40625 17.390625 37.5 
Q 12.25 40.1875 9.734375 44.15625 
Q 7.234375 48.140625 7.234375 53.078125 
Q 7.234375 58.5 10.296875 63.203125 
Q 13.375 67.921875 19.28125 70.359375 
Q 25.203125 72.796875 32.421875 72.796875 
Q 40.375 72.796875 46.453125 70.234375 
Q 52.546875 67.671875 55.8125 62.6875 
Q 59.078125 57.71875 59.328125 51.421875 
L 50.25 50.734375 
Q 49.515625 57.515625 45.28125 60.984375 
Q 41.0625 64.453125 32.8125 64.453125 
Q 24.21875 64.453125 20.28125 61.296875 
Q 16.359375 58.15625 16.359375 53.71875 
Q 16.359375 49.859375 19.140625 47.359375 
Q 21.875 44.875 33.421875 42.265625 
Q 44.96875 39.65625 49.265625 37.703125 
Q 55.515625 34.8125 58.484375 30.390625 
Q 61.46875 25.984375 61.46875 20.21875 
Q 61.46875 14.5 58.203125 9.4375 
Q 54.9375 4.390625 48.796875 1.578125 
Q 42.671875 -1.21875 35.015625 -1.21875 
Q 25.296875 -1.21875 18.71875 1.609375 
Q 12.15625 4.4375 8.421875 10.125 
Q 4.6875 15.828125 4.5 23 
z
" id="ArialMT-83"/>
     </defs>
     <g style="fill:#262626;" transform="translate(933.137069 56.591484)scale(0.15 -0.15)">
      <use xlink:href="#ArialMT-83"/>
      <use x="66.699219" xlink:href="#ArialMT-111"/>
      <use x="122.314453" xlink:href="#ArialMT-99"/>
      <use x="172.314453" xlink:href="#ArialMT-105"/>
      <use x="194.53125" xlink:href="#ArialMT-97"/>
      <use x="250.146484" xlink:href="#ArialMT-108"/>
      <use x="272.363281" xlink:href="#ArialMT-116"/>
      <use x="300.146484" xlink:href="#ArialMT-32"/>
      <use x="327.929688" xlink:href="#ArialMT-97"/>
      <use x="383.544922" xlink:href="#ArialMT-102"/>
      <use x="411.328125" xlink:href="#ArialMT-115"/>
      <use x="461.328125" xlink:href="#ArialMT-97"/>
      <use x="516.943359" xlink:href="#ArialMT-118"/>
      <use x="566.943359" xlink:href="#ArialMT-110"/>
     </g>
    </g>
    <g id="line2d_29">
     <path d="M 891.137069 72.559453 
L 921.137069 72.559453 
" style="fill:none;stroke:#55a868;stroke-linecap:round;stroke-width:1.5;"/>
    </g>
    <g id="line2d_30">
     <g>
      <use style="fill:#55a868;stroke:#55a868;" x="906.137069" xlink:href="#m7d9bcf2f3a" y="72.559453"/>
     </g>
    </g>
    <g id="text_45">
     <!-- Skrmtid -->
     <defs>
      <path d="M 84.671875 15.875 
Q 82.234375 7.71875 76.375 3.265625 
Q 70.515625 -1.171875 61.8125 -1.171875 
Q 55.609375 -1.171875 50.953125 1.171875 
Q 46.296875 3.515625 42.53125 8.5 
Q 37.453125 3.515625 32.25 1.171875 
Q 27.046875 -1.171875 21.046875 -1.171875 
Q 12.640625 -1.171875 7.984375 3.140625 
Q 3.328125 7.46875 3.328125 13.671875 
Q 3.328125 17.875 5.734375 21.5625 
Q 8.15625 25.25 12.46875 27.140625 
Q 16.796875 29.046875 26.265625 30.28125 
Q 33.59375 31.25 38.578125 32.671875 
Q 38.625 33.890625 38.625 34.671875 
Q 38.625 40.828125 36.0625 43.28125 
Q 33.5 45.75 27.09375 45.75 
Q 22.859375 45.75 19.921875 44.71875 
Q 17 43.703125 15.59375 41.8125 
Q 14.203125 39.9375 13.28125 35.796875 
L 4.734375 36.8125 
Q 6.109375 42.53125 8.671875 45.875 
Q 11.234375 49.21875 16.015625 51.125 
Q 20.796875 53.03125 27.203125 53.03125 
Q 35.359375 53.03125 40.328125 50.59375 
Q 43.21875 49.171875 45.171875 46.046875 
Q 48.296875 49.46875 52.25 51.25 
Q 56.203125 53.03125 61.8125 53.03125 
Q 69.734375 53.03125 74.90625 49.1875 
Q 80.078125 45.359375 82.46875 39.0625 
Q 84.859375 32.765625 84.859375 26.65625 
Q 84.859375 25.734375 84.765625 23.6875 
L 47.3125 23.6875 
Q 47.40625 16.65625 49.046875 13.46875 
Q 50.6875 10.296875 54.265625 8.171875 
Q 57.859375 6.0625 62.15625 6.0625 
Q 67.1875 6.0625 70.671875 8.9375 
Q 74.171875 11.8125 75.484375 17.046875 
z
M 47.3125 30.90625 
L 75.828125 30.90625 
Q 75.140625 38.625 71.421875 42.1875 
Q 67.71875 45.75 61.765625 45.75 
Q 55.609375 45.75 51.671875 41.84375 
Q 47.75 37.9375 47.3125 30.90625 
z
M 38.71875 26.03125 
Q 34.859375 24.359375 23 22.46875 
Q 17.671875 21.625 15.53125 19.96875 
Q 12.640625 17.671875 12.640625 13.96875 
Q 12.640625 10.5 15.234375 8.125 
Q 17.828125 5.765625 22.75 5.765625 
Q 28.375 5.765625 32.546875 8.546875 
Q 36.71875 11.328125 37.984375 15.484375 
Q 38.71875 18.015625 38.71875 26.03125 
z
" id="ArialMT-230"/>
      <path d="M 6.59375 0 
L 6.59375 51.859375 
L 14.453125 51.859375 
L 14.453125 44.578125 
Q 16.890625 48.390625 20.9375 50.703125 
Q 25 53.03125 30.171875 53.03125 
Q 35.9375 53.03125 39.625 50.640625 
Q 43.3125 48.25 44.828125 43.953125 
Q 50.984375 53.03125 60.84375 53.03125 
Q 68.5625 53.03125 72.703125 48.75 
Q 76.859375 44.484375 76.859375 35.59375 
L 76.859375 0 
L 68.109375 0 
L 68.109375 32.671875 
Q 68.109375 37.9375 67.25 40.25 
Q 66.40625 42.578125 64.15625 43.984375 
Q 61.921875 45.40625 58.890625 45.40625 
Q 53.421875 45.40625 49.796875 41.765625 
Q 46.1875 38.140625 46.1875 30.125 
L 46.1875 0 
L 37.40625 0 
L 37.40625 33.6875 
Q 37.40625 39.546875 35.25 42.46875 
Q 33.109375 45.40625 28.21875 45.40625 
Q 24.515625 45.40625 21.359375 43.453125 
Q 18.21875 41.5 16.796875 37.734375 
Q 15.375 33.984375 15.375 26.90625 
L 15.375 0 
z
" id="ArialMT-109"/>
     </defs>
     <g style="fill:#262626;" transform="translate(933.137069 77.809453)scale(0.15 -0.15)">
      <use xlink:href="#ArialMT-83"/>
      <use x="66.699219" xlink:href="#ArialMT-107"/>
      <use x="116.699219" xlink:href="#ArialMT-230"/>
      <use x="205.615234" xlink:href="#ArialMT-114"/>
      <use x="238.916016" xlink:href="#ArialMT-109"/>
      <use x="322.216797" xlink:href="#ArialMT-116"/>
      <use x="350" xlink:href="#ArialMT-105"/>
      <use x="372.216797" xlink:href="#ArialMT-100"/>
     </g>
    </g>
   </g>
  </g>
 </g>
 <defs>
  <clipPath id="pf15579d61a">
   <rect height="269.38" width="734.72" x="99.575156" y="11.136797"/>
  </clipPath>
 </defs>
</svg>
