<?xml version="1.0" encoding="utf-8" standalone="no"?>
<!DOCTYPE svg PUBLIC "-//W3C//DTD SVG 1.1//EN"
  "http://www.w3.org/Graphics/SVG/1.1/DTD/svg11.dtd">
<!-- Created with matplotlib (https://matplotlib.org/) -->
<svg height="584.39952pt" version="1.1" viewBox="0 0 1016.39952 584.39952" width="1016.39952pt" xmlns="http://www.w3.org/2000/svg" xmlns:xlink="http://www.w3.org/1999/xlink">
 <defs>
  <style type="text/css">
*{stroke-linecap:butt;stroke-linejoin:round;}
  </style>
 </defs>
 <g id="figure_1">
  <g id="patch_1">
   <path d="M 0 584.39952 
L 1016.39952 584.39952 
L 1016.39952 0 
L 0 0 
z
" style="fill:#ffffff;"/>
  </g>
  <g id="axes_1">
   <g id="patch_2">
    <path d="M 46.965625 546.84327 
L 1009.19952 546.84327 
L 1009.19952 24.597656 
L 46.965625 24.597656 
z
" style="fill:#ffffff;"/>
   </g>
   <g id="PolyCollection_1">
    <path clip-path="url(#p8fd9ed233d)" d="M 90.703529 546.84327 
L 90.703529 546.84327 
L 134.441434 546.84327 
L 178.179338 546.84327 
L 221.917242 546.84327 
L 265.655147 546.84327 
L 309.393051 546.84327 
L 353.130955 546.84327 
L 396.86886 546.84327 
L 440.606764 546.84327 
L 484.344668 546.84327 
L 528.082572 546.84327 
L 571.820477 546.84327 
L 615.558381 546.84327 
L 659.296285 546.84327 
L 703.03419 546.84327 
L 746.772094 546.84327 
L 790.509998 546.84327 
L 834.247903 546.84327 
L 877.985807 546.84327 
L 921.723711 546.84327 
L 965.461616 546.84327 
L 965.461616 422.499076 
L 965.461616 422.499076 
L 921.723711 447.367915 
L 877.985807 462.289218 
L 834.247903 462.289218 
L 790.509998 467.262986 
L 746.772094 422.499076 
L 703.03419 462.289218 
L 659.296285 462.289218 
L 615.558381 472.236754 
L 571.820477 512.026896 
L 528.082572 492.131825 
L 484.344668 497.105592 
L 440.606764 482.184289 
L 396.86886 487.158057 
L 353.130955 467.262986 
L 309.393051 526.948199 
L 265.655147 482.184289 
L 221.917242 517.000663 
L 178.179338 472.236754 
L 134.441434 487.158057 
L 90.703529 546.84327 
z
" style="fill:#1f77b4;"/>
   </g>
   <g id="PolyCollection_2">
    <path clip-path="url(#p8fd9ed233d)" d="M 90.703529 546.84327 
L 90.703529 546.84327 
L 134.441434 487.158057 
L 178.179338 472.236754 
L 221.917242 517.000663 
L 265.655147 482.184289 
L 309.393051 526.948199 
L 353.130955 467.262986 
L 396.86886 487.158057 
L 440.606764 482.184289 
L 484.344668 497.105592 
L 528.082572 492.131825 
L 571.820477 512.026896 
L 615.558381 472.236754 
L 659.296285 462.289218 
L 703.03419 462.289218 
L 746.772094 422.499076 
L 790.509998 467.262986 
L 834.247903 462.289218 
L 877.985807 462.289218 
L 921.723711 447.367915 
L 965.461616 422.499076 
L 965.461616 253.390973 
L 965.461616 253.390973 
L 921.723711 293.181115 
L 877.985807 238.469669 
L 834.247903 258.36474 
L 790.509998 347.89256 
L 746.772094 278.259811 
L 703.03419 298.154882 
L 659.296285 357.840095 
L 615.558381 273.286044 
L 571.820477 323.023721 
L 528.082572 288.207347 
L 484.344668 357.840095 
L 440.606764 323.023721 
L 396.86886 327.997489 
L 353.130955 298.154882 
L 309.393051 412.551541 
L 265.655147 367.787631 
L 221.917242 397.630237 
L 178.179338 357.840095 
L 134.441434 352.866328 
L 90.703529 546.84327 
z
" style="fill:#ff7f0e;"/>
   </g>
   <g id="PolyCollection_3">
    <path clip-path="url(#p8fd9ed233d)" d="M 90.703529 541.869502 
L 90.703529 546.84327 
L 134.441434 352.866328 
L 178.179338 357.840095 
L 221.917242 397.630237 
L 265.655147 367.787631 
L 309.393051 412.551541 
L 353.130955 298.154882 
L 396.86886 327.997489 
L 440.606764 323.023721 
L 484.344668 357.840095 
L 528.082572 288.207347 
L 571.820477 323.023721 
L 615.558381 273.286044 
L 659.296285 357.840095 
L 703.03419 298.154882 
L 746.772094 278.259811 
L 790.509998 347.89256 
L 834.247903 258.36474 
L 877.985807 238.469669 
L 921.723711 293.181115 
L 965.461616 253.390973 
L 965.461616 233.495902 
L 965.461616 233.495902 
L 921.723711 278.259811 
L 877.985807 218.574598 
L 834.247903 243.443437 
L 790.509998 332.971257 
L 746.772094 243.443437 
L 703.03419 278.259811 
L 659.296285 342.918792 
L 615.558381 228.522134 
L 571.820477 273.286044 
L 528.082572 258.36474 
L 484.344668 337.945024 
L 440.606764 308.102418 
L 396.86886 323.023721 
L 353.130955 278.259811 
L 309.393051 387.682702 
L 265.655147 357.840095 
L 221.917242 397.630237 
L 178.179338 347.89256 
L 134.441434 342.918792 
L 90.703529 541.869502 
z
" style="fill:#2ca02c;"/>
   </g>
   <g id="PolyCollection_4">
    <path clip-path="url(#p8fd9ed233d)" d="M 90.703529 531.921967 
L 90.703529 541.869502 
L 134.441434 342.918792 
L 178.179338 347.89256 
L 221.917242 397.630237 
L 265.655147 357.840095 
L 309.393051 387.682702 
L 353.130955 278.259811 
L 396.86886 323.023721 
L 440.606764 308.102418 
L 484.344668 337.945024 
L 528.082572 258.36474 
L 571.820477 273.286044 
L 615.558381 228.522134 
L 659.296285 342.918792 
L 703.03419 278.259811 
L 746.772094 243.443437 
L 790.509998 332.971257 
L 834.247903 243.443437 
L 877.985807 218.574598 
L 921.723711 278.259811 
L 965.461616 233.495902 
L 965.461616 124.073011 
L 965.461616 124.073011 
L 921.723711 183.758224 
L 877.985807 134.020547 
L 834.247903 158.889385 
L 790.509998 258.36474 
L 746.772094 163.863153 
L 703.03419 183.758224 
L 659.296285 288.207347 
L 615.558381 114.125476 
L 571.820477 129.046779 
L 528.082572 183.758224 
L 484.344668 208.627063 
L 440.606764 243.443437 
L 396.86886 258.36474 
L 353.130955 138.994314 
L 309.393051 293.181115 
L 265.655147 288.207347 
L 221.917242 303.12865 
L 178.179338 248.417205 
L 134.441434 283.233579 
L 90.703529 531.921967 
z
" style="fill:#d62728;"/>
   </g>
   <g id="PolyCollection_5">
    <path clip-path="url(#p8fd9ed233d)" d="M 90.703529 517.000663 
L 90.703529 531.921967 
L 134.441434 283.233579 
L 178.179338 248.417205 
L 221.917242 303.12865 
L 265.655147 288.207347 
L 309.393051 293.181115 
L 353.130955 138.994314 
L 396.86886 258.36474 
L 440.606764 243.443437 
L 484.344668 208.627063 
L 528.082572 183.758224 
L 571.820477 129.046779 
L 615.558381 114.125476 
L 659.296285 288.207347 
L 703.03419 183.758224 
L 746.772094 163.863153 
L 790.509998 258.36474 
L 834.247903 158.889385 
L 877.985807 134.020547 
L 921.723711 183.758224 
L 965.461616 124.073011 
L 965.461616 49.466495 
L 965.461616 49.466495 
L 921.723711 104.17794 
L 877.985807 99.204172 
L 834.247903 143.968082 
L 790.509998 218.574598 
L 746.772094 109.151708 
L 703.03419 158.889385 
L 659.296285 268.312276 
L 615.558381 89.256637 
L 571.820477 119.099243 
L 528.082572 143.968082 
L 484.344668 168.836921 
L 440.606764 158.889385 
L 396.86886 138.994314 
L 353.130955 84.282869 
L 309.393051 268.312276 
L 265.655147 238.469669 
L 221.917242 208.627063 
L 178.179338 178.784456 
L 134.441434 223.548366 
L 90.703529 517.000663 
z
" style="fill:#9467bd;"/>
   </g>
   <g id="matplotlib.axis_1">
    <g id="xtick_1">
     <g id="line2d_1">
      <defs>
       <path d="M 0 0 
L 0 3.5 
" id="mff9b65de89" style="stroke:#000000;stroke-width:0.8;"/>
      </defs>
      <g>
       <use style="stroke:#000000;stroke-width:0.8;" x="90.703529" xlink:href="#mff9b65de89" y="546.84327"/>
      </g>
     </g>
     <g id="text_1">
      <!-- 12-01 -->
      <defs>
       <path d="M 12.40625 8.296875 
L 28.515625 8.296875 
L 28.515625 63.921875 
L 10.984375 60.40625 
L 10.984375 69.390625 
L 28.421875 72.90625 
L 38.28125 72.90625 
L 38.28125 8.296875 
L 54.390625 8.296875 
L 54.390625 0 
L 12.40625 0 
z
" id="DejaVuSans-49"/>
       <path d="M 19.1875 8.296875 
L 53.609375 8.296875 
L 53.609375 0 
L 7.328125 0 
L 7.328125 8.296875 
Q 12.9375 14.109375 22.625 23.890625 
Q 32.328125 33.6875 34.8125 36.53125 
Q 39.546875 41.84375 41.421875 45.53125 
Q 43.3125 49.21875 43.3125 52.78125 
Q 43.3125 58.59375 39.234375 62.25 
Q 35.15625 65.921875 28.609375 65.921875 
Q 23.96875 65.921875 18.8125 64.3125 
Q 13.671875 62.703125 7.8125 59.421875 
L 7.8125 69.390625 
Q 13.765625 71.78125 18.9375 73 
Q 24.125 74.21875 28.421875 74.21875 
Q 39.75 74.21875 46.484375 68.546875 
Q 53.21875 62.890625 53.21875 53.421875 
Q 53.21875 48.921875 51.53125 44.890625 
Q 49.859375 40.875 45.40625 35.40625 
Q 44.1875 33.984375 37.640625 27.21875 
Q 31.109375 20.453125 19.1875 8.296875 
z
" id="DejaVuSans-50"/>
       <path d="M 4.890625 31.390625 
L 31.203125 31.390625 
L 31.203125 23.390625 
L 4.890625 23.390625 
z
" id="DejaVuSans-45"/>
       <path d="M 31.78125 66.40625 
Q 24.171875 66.40625 20.328125 58.90625 
Q 16.5 51.421875 16.5 36.375 
Q 16.5 21.390625 20.328125 13.890625 
Q 24.171875 6.390625 31.78125 6.390625 
Q 39.453125 6.390625 43.28125 13.890625 
Q 47.125 21.390625 47.125 36.375 
Q 47.125 51.421875 43.28125 58.90625 
Q 39.453125 66.40625 31.78125 66.40625 
z
M 31.78125 74.21875 
Q 44.046875 74.21875 50.515625 64.515625 
Q 56.984375 54.828125 56.984375 36.375 
Q 56.984375 17.96875 50.515625 8.265625 
Q 44.046875 -1.421875 31.78125 -1.421875 
Q 19.53125 -1.421875 13.0625 8.265625 
Q 6.59375 17.96875 6.59375 36.375 
Q 6.59375 54.828125 13.0625 64.515625 
Q 19.53125 74.21875 31.78125 74.21875 
z
" id="DejaVuSans-48"/>
      </defs>
      <g transform="translate(76.174623 561.441707)scale(0.1 -0.1)">
       <use xlink:href="#DejaVuSans-49"/>
       <use x="63.623047" xlink:href="#DejaVuSans-50"/>
       <use x="127.246094" xlink:href="#DejaVuSans-45"/>
       <use x="163.330078" xlink:href="#DejaVuSans-48"/>
       <use x="226.953125" xlink:href="#DejaVuSans-49"/>
      </g>
     </g>
    </g>
    <g id="xtick_2">
     <g id="line2d_2">
      <g>
       <use style="stroke:#000000;stroke-width:0.8;" x="134.441434" xlink:href="#mff9b65de89" y="546.84327"/>
      </g>
     </g>
     <g id="text_2">
      <!-- 19-01 -->
      <defs>
       <path d="M 10.984375 1.515625 
L 10.984375 10.5 
Q 14.703125 8.734375 18.5 7.8125 
Q 22.3125 6.890625 25.984375 6.890625 
Q 35.75 6.890625 40.890625 13.453125 
Q 46.046875 20.015625 46.78125 33.40625 
Q 43.953125 29.203125 39.59375 26.953125 
Q 35.25 24.703125 29.984375 24.703125 
Q 19.046875 24.703125 12.671875 31.3125 
Q 6.296875 37.9375 6.296875 49.421875 
Q 6.296875 60.640625 12.9375 67.421875 
Q 19.578125 74.21875 30.609375 74.21875 
Q 43.265625 74.21875 49.921875 64.515625 
Q 56.59375 54.828125 56.59375 36.375 
Q 56.59375 19.140625 48.40625 8.859375 
Q 40.234375 -1.421875 26.421875 -1.421875 
Q 22.703125 -1.421875 18.890625 -0.6875 
Q 15.09375 0.046875 10.984375 1.515625 
z
M 30.609375 32.421875 
Q 37.25 32.421875 41.125 36.953125 
Q 45.015625 41.5 45.015625 49.421875 
Q 45.015625 57.28125 41.125 61.84375 
Q 37.25 66.40625 30.609375 66.40625 
Q 23.96875 66.40625 20.09375 61.84375 
Q 16.21875 57.28125 16.21875 49.421875 
Q 16.21875 41.5 20.09375 36.953125 
Q 23.96875 32.421875 30.609375 32.421875 
z
" id="DejaVuSans-57"/>
      </defs>
      <g transform="translate(119.912527 561.441707)scale(0.1 -0.1)">
       <use xlink:href="#DejaVuSans-49"/>
       <use x="63.623047" xlink:href="#DejaVuSans-57"/>
       <use x="127.246094" xlink:href="#DejaVuSans-45"/>
       <use x="163.330078" xlink:href="#DejaVuSans-48"/>
       <use x="226.953125" xlink:href="#DejaVuSans-49"/>
      </g>
     </g>
    </g>
    <g id="xtick_3">
     <g id="line2d_3">
      <g>
       <use style="stroke:#000000;stroke-width:0.8;" x="178.179338" xlink:href="#mff9b65de89" y="546.84327"/>
      </g>
     </g>
     <g id="text_3">
      <!-- 26-01 -->
      <defs>
       <path d="M 33.015625 40.375 
Q 26.375 40.375 22.484375 35.828125 
Q 18.609375 31.296875 18.609375 23.390625 
Q 18.609375 15.53125 22.484375 10.953125 
Q 26.375 6.390625 33.015625 6.390625 
Q 39.65625 6.390625 43.53125 10.953125 
Q 47.40625 15.53125 47.40625 23.390625 
Q 47.40625 31.296875 43.53125 35.828125 
Q 39.65625 40.375 33.015625 40.375 
z
M 52.59375 71.296875 
L 52.59375 62.3125 
Q 48.875 64.0625 45.09375 64.984375 
Q 41.3125 65.921875 37.59375 65.921875 
Q 27.828125 65.921875 22.671875 59.328125 
Q 17.53125 52.734375 16.796875 39.40625 
Q 19.671875 43.65625 24.015625 45.921875 
Q 28.375 48.1875 33.59375 48.1875 
Q 44.578125 48.1875 50.953125 41.515625 
Q 57.328125 34.859375 57.328125 23.390625 
Q 57.328125 12.15625 50.6875 5.359375 
Q 44.046875 -1.421875 33.015625 -1.421875 
Q 20.359375 -1.421875 13.671875 8.265625 
Q 6.984375 17.96875 6.984375 36.375 
Q 6.984375 53.65625 15.1875 63.9375 
Q 23.390625 74.21875 37.203125 74.21875 
Q 40.921875 74.21875 44.703125 73.484375 
Q 48.484375 72.75 52.59375 71.296875 
z
" id="DejaVuSans-54"/>
      </defs>
      <g transform="translate(163.650432 561.441707)scale(0.1 -0.1)">
       <use xlink:href="#DejaVuSans-50"/>
       <use x="63.623047" xlink:href="#DejaVuSans-54"/>
       <use x="127.246094" xlink:href="#DejaVuSans-45"/>
       <use x="163.330078" xlink:href="#DejaVuSans-48"/>
       <use x="226.953125" xlink:href="#DejaVuSans-49"/>
      </g>
     </g>
    </g>
    <g id="xtick_4">
     <g id="line2d_4">
      <g>
       <use style="stroke:#000000;stroke-width:0.8;" x="221.917242" xlink:href="#mff9b65de89" y="546.84327"/>
      </g>
     </g>
     <g id="text_4">
      <!-- 02-02 -->
      <g transform="translate(207.388336 561.441707)scale(0.1 -0.1)">
       <use xlink:href="#DejaVuSans-48"/>
       <use x="63.623047" xlink:href="#DejaVuSans-50"/>
       <use x="127.246094" xlink:href="#DejaVuSans-45"/>
       <use x="163.330078" xlink:href="#DejaVuSans-48"/>
       <use x="226.953125" xlink:href="#DejaVuSans-50"/>
      </g>
     </g>
    </g>
    <g id="xtick_5">
     <g id="line2d_5">
      <g>
       <use style="stroke:#000000;stroke-width:0.8;" x="265.655147" xlink:href="#mff9b65de89" y="546.84327"/>
      </g>
     </g>
     <g id="text_5">
      <!-- 09-02 -->
      <g transform="translate(251.12624 561.441707)scale(0.1 -0.1)">
       <use xlink:href="#DejaVuSans-48"/>
       <use x="63.623047" xlink:href="#DejaVuSans-57"/>
       <use x="127.246094" xlink:href="#DejaVuSans-45"/>
       <use x="163.330078" xlink:href="#DejaVuSans-48"/>
       <use x="226.953125" xlink:href="#DejaVuSans-50"/>
      </g>
     </g>
    </g>
    <g id="xtick_6">
     <g id="line2d_6">
      <g>
       <use style="stroke:#000000;stroke-width:0.8;" x="309.393051" xlink:href="#mff9b65de89" y="546.84327"/>
      </g>
     </g>
     <g id="text_6">
      <!-- 16-02 -->
      <g transform="translate(294.864145 561.441707)scale(0.1 -0.1)">
       <use xlink:href="#DejaVuSans-49"/>
       <use x="63.623047" xlink:href="#DejaVuSans-54"/>
       <use x="127.246094" xlink:href="#DejaVuSans-45"/>
       <use x="163.330078" xlink:href="#DejaVuSans-48"/>
       <use x="226.953125" xlink:href="#DejaVuSans-50"/>
      </g>
     </g>
    </g>
    <g id="xtick_7">
     <g id="line2d_7">
      <g>
       <use style="stroke:#000000;stroke-width:0.8;" x="353.130955" xlink:href="#mff9b65de89" y="546.84327"/>
      </g>
     </g>
     <g id="text_7">
      <!-- 23-02 -->
      <defs>
       <path d="M 40.578125 39.3125 
Q 47.65625 37.796875 51.625 33 
Q 55.609375 28.21875 55.609375 21.1875 
Q 55.609375 10.40625 48.1875 4.484375 
Q 40.765625 -1.421875 27.09375 -1.421875 
Q 22.515625 -1.421875 17.65625 -0.515625 
Q 12.796875 0.390625 7.625 2.203125 
L 7.625 11.71875 
Q 11.71875 9.328125 16.59375 8.109375 
Q 21.484375 6.890625 26.8125 6.890625 
Q 36.078125 6.890625 40.9375 10.546875 
Q 45.796875 14.203125 45.796875 21.1875 
Q 45.796875 27.640625 41.28125 31.265625 
Q 36.765625 34.90625 28.71875 34.90625 
L 20.21875 34.90625 
L 20.21875 43.015625 
L 29.109375 43.015625 
Q 36.375 43.015625 40.234375 45.921875 
Q 44.09375 48.828125 44.09375 54.296875 
Q 44.09375 59.90625 40.109375 62.90625 
Q 36.140625 65.921875 28.71875 65.921875 
Q 24.65625 65.921875 20.015625 65.03125 
Q 15.375 64.15625 9.8125 62.3125 
L 9.8125 71.09375 
Q 15.4375 72.65625 20.34375 73.4375 
Q 25.25 74.21875 29.59375 74.21875 
Q 40.828125 74.21875 47.359375 69.109375 
Q 53.90625 64.015625 53.90625 55.328125 
Q 53.90625 49.265625 50.4375 45.09375 
Q 46.96875 40.921875 40.578125 39.3125 
z
" id="DejaVuSans-51"/>
      </defs>
      <g transform="translate(338.602049 561.441707)scale(0.1 -0.1)">
       <use xlink:href="#DejaVuSans-50"/>
       <use x="63.623047" xlink:href="#DejaVuSans-51"/>
       <use x="127.246094" xlink:href="#DejaVuSans-45"/>
       <use x="163.330078" xlink:href="#DejaVuSans-48"/>
       <use x="226.953125" xlink:href="#DejaVuSans-50"/>
      </g>
     </g>
    </g>
    <g id="xtick_8">
     <g id="line2d_8">
      <g>
       <use style="stroke:#000000;stroke-width:0.8;" x="396.86886" xlink:href="#mff9b65de89" y="546.84327"/>
      </g>
     </g>
     <g id="text_8">
      <!-- 01-03 -->
      <g transform="translate(382.339953 561.441707)scale(0.1 -0.1)">
       <use xlink:href="#DejaVuSans-48"/>
       <use x="63.623047" xlink:href="#DejaVuSans-49"/>
       <use x="127.246094" xlink:href="#DejaVuSans-45"/>
       <use x="163.330078" xlink:href="#DejaVuSans-48"/>
       <use x="226.953125" xlink:href="#DejaVuSans-51"/>
      </g>
     </g>
    </g>
    <g id="xtick_9">
     <g id="line2d_9">
      <g>
       <use style="stroke:#000000;stroke-width:0.8;" x="440.606764" xlink:href="#mff9b65de89" y="546.84327"/>
      </g>
     </g>
     <g id="text_9">
      <!-- 08-03 -->
      <defs>
       <path d="M 31.78125 34.625 
Q 24.75 34.625 20.71875 30.859375 
Q 16.703125 27.09375 16.703125 20.515625 
Q 16.703125 13.921875 20.71875 10.15625 
Q 24.75 6.390625 31.78125 6.390625 
Q 38.8125 6.390625 42.859375 10.171875 
Q 46.921875 13.96875 46.921875 20.515625 
Q 46.921875 27.09375 42.890625 30.859375 
Q 38.875 34.625 31.78125 34.625 
z
M 21.921875 38.8125 
Q 15.578125 40.375 12.03125 44.71875 
Q 8.5 49.078125 8.5 55.328125 
Q 8.5 64.0625 14.71875 69.140625 
Q 20.953125 74.21875 31.78125 74.21875 
Q 42.671875 74.21875 48.875 69.140625 
Q 55.078125 64.0625 55.078125 55.328125 
Q 55.078125 49.078125 51.53125 44.71875 
Q 48 40.375 41.703125 38.8125 
Q 48.828125 37.15625 52.796875 32.3125 
Q 56.78125 27.484375 56.78125 20.515625 
Q 56.78125 9.90625 50.3125 4.234375 
Q 43.84375 -1.421875 31.78125 -1.421875 
Q 19.734375 -1.421875 13.25 4.234375 
Q 6.78125 9.90625 6.78125 20.515625 
Q 6.78125 27.484375 10.78125 32.3125 
Q 14.796875 37.15625 21.921875 38.8125 
z
M 18.3125 54.390625 
Q 18.3125 48.734375 21.84375 45.5625 
Q 25.390625 42.390625 31.78125 42.390625 
Q 38.140625 42.390625 41.71875 45.5625 
Q 45.3125 48.734375 45.3125 54.390625 
Q 45.3125 60.0625 41.71875 63.234375 
Q 38.140625 66.40625 31.78125 66.40625 
Q 25.390625 66.40625 21.84375 63.234375 
Q 18.3125 60.0625 18.3125 54.390625 
z
" id="DejaVuSans-56"/>
      </defs>
      <g transform="translate(426.077858 561.441707)scale(0.1 -0.1)">
       <use xlink:href="#DejaVuSans-48"/>
       <use x="63.623047" xlink:href="#DejaVuSans-56"/>
       <use x="127.246094" xlink:href="#DejaVuSans-45"/>
       <use x="163.330078" xlink:href="#DejaVuSans-48"/>
       <use x="226.953125" xlink:href="#DejaVuSans-51"/>
      </g>
     </g>
    </g>
    <g id="xtick_10">
     <g id="line2d_10">
      <g>
       <use style="stroke:#000000;stroke-width:0.8;" x="484.344668" xlink:href="#mff9b65de89" y="546.84327"/>
      </g>
     </g>
     <g id="text_10">
      <!-- 15-03 -->
      <defs>
       <path d="M 10.796875 72.90625 
L 49.515625 72.90625 
L 49.515625 64.59375 
L 19.828125 64.59375 
L 19.828125 46.734375 
Q 21.96875 47.46875 24.109375 47.828125 
Q 26.265625 48.1875 28.421875 48.1875 
Q 40.625 48.1875 47.75 41.5 
Q 54.890625 34.8125 54.890625 23.390625 
Q 54.890625 11.625 47.5625 5.09375 
Q 40.234375 -1.421875 26.90625 -1.421875 
Q 22.3125 -1.421875 17.546875 -0.640625 
Q 12.796875 0.140625 7.71875 1.703125 
L 7.71875 11.625 
Q 12.109375 9.234375 16.796875 8.0625 
Q 21.484375 6.890625 26.703125 6.890625 
Q 35.15625 6.890625 40.078125 11.328125 
Q 45.015625 15.765625 45.015625 23.390625 
Q 45.015625 31 40.078125 35.4375 
Q 35.15625 39.890625 26.703125 39.890625 
Q 22.75 39.890625 18.8125 39.015625 
Q 14.890625 38.140625 10.796875 36.28125 
z
" id="DejaVuSans-53"/>
      </defs>
      <g transform="translate(469.815762 561.441707)scale(0.1 -0.1)">
       <use xlink:href="#DejaVuSans-49"/>
       <use x="63.623047" xlink:href="#DejaVuSans-53"/>
       <use x="127.246094" xlink:href="#DejaVuSans-45"/>
       <use x="163.330078" xlink:href="#DejaVuSans-48"/>
       <use x="226.953125" xlink:href="#DejaVuSans-51"/>
      </g>
     </g>
    </g>
    <g id="xtick_11">
     <g id="line2d_11">
      <g>
       <use style="stroke:#000000;stroke-width:0.8;" x="528.082572" xlink:href="#mff9b65de89" y="546.84327"/>
      </g>
     </g>
     <g id="text_11">
      <!-- 22-03 -->
      <g transform="translate(513.553666 561.441707)scale(0.1 -0.1)">
       <use xlink:href="#DejaVuSans-50"/>
       <use x="63.623047" xlink:href="#DejaVuSans-50"/>
       <use x="127.246094" xlink:href="#DejaVuSans-45"/>
       <use x="163.330078" xlink:href="#DejaVuSans-48"/>
       <use x="226.953125" xlink:href="#DejaVuSans-51"/>
      </g>
     </g>
    </g>
    <g id="xtick_12">
     <g id="line2d_12">
      <g>
       <use style="stroke:#000000;stroke-width:0.8;" x="571.820477" xlink:href="#mff9b65de89" y="546.84327"/>
      </g>
     </g>
     <g id="text_12">
      <!-- 29-03 -->
      <g transform="translate(557.291571 561.441707)scale(0.1 -0.1)">
       <use xlink:href="#DejaVuSans-50"/>
       <use x="63.623047" xlink:href="#DejaVuSans-57"/>
       <use x="127.246094" xlink:href="#DejaVuSans-45"/>
       <use x="163.330078" xlink:href="#DejaVuSans-48"/>
       <use x="226.953125" xlink:href="#DejaVuSans-51"/>
      </g>
     </g>
    </g>
    <g id="xtick_13">
     <g id="line2d_13">
      <g>
       <use style="stroke:#000000;stroke-width:0.8;" x="615.558381" xlink:href="#mff9b65de89" y="546.84327"/>
      </g>
     </g>
     <g id="text_13">
      <!-- 05-04 -->
      <defs>
       <path d="M 37.796875 64.3125 
L 12.890625 25.390625 
L 37.796875 25.390625 
z
M 35.203125 72.90625 
L 47.609375 72.90625 
L 47.609375 25.390625 
L 58.015625 25.390625 
L 58.015625 17.1875 
L 47.609375 17.1875 
L 47.609375 0 
L 37.796875 0 
L 37.796875 17.1875 
L 4.890625 17.1875 
L 4.890625 26.703125 
z
" id="DejaVuSans-52"/>
      </defs>
      <g transform="translate(601.029475 561.441707)scale(0.1 -0.1)">
       <use xlink:href="#DejaVuSans-48"/>
       <use x="63.623047" xlink:href="#DejaVuSans-53"/>
       <use x="127.246094" xlink:href="#DejaVuSans-45"/>
       <use x="163.330078" xlink:href="#DejaVuSans-48"/>
       <use x="226.953125" xlink:href="#DejaVuSans-52"/>
      </g>
     </g>
    </g>
    <g id="xtick_14">
     <g id="line2d_14">
      <g>
       <use style="stroke:#000000;stroke-width:0.8;" x="659.296285" xlink:href="#mff9b65de89" y="546.84327"/>
      </g>
     </g>
     <g id="text_14">
      <!-- 12-04 -->
      <g transform="translate(644.767379 561.441707)scale(0.1 -0.1)">
       <use xlink:href="#DejaVuSans-49"/>
       <use x="63.623047" xlink:href="#DejaVuSans-50"/>
       <use x="127.246094" xlink:href="#DejaVuSans-45"/>
       <use x="163.330078" xlink:href="#DejaVuSans-48"/>
       <use x="226.953125" xlink:href="#DejaVuSans-52"/>
      </g>
     </g>
    </g>
    <g id="xtick_15">
     <g id="line2d_15">
      <g>
       <use style="stroke:#000000;stroke-width:0.8;" x="703.03419" xlink:href="#mff9b65de89" y="546.84327"/>
      </g>
     </g>
     <g id="text_15">
      <!-- 19-04 -->
      <g transform="translate(688.505284 561.441707)scale(0.1 -0.1)">
       <use xlink:href="#DejaVuSans-49"/>
       <use x="63.623047" xlink:href="#DejaVuSans-57"/>
       <use x="127.246094" xlink:href="#DejaVuSans-45"/>
       <use x="163.330078" xlink:href="#DejaVuSans-48"/>
       <use x="226.953125" xlink:href="#DejaVuSans-52"/>
      </g>
     </g>
    </g>
    <g id="xtick_16">
     <g id="line2d_16">
      <g>
       <use style="stroke:#000000;stroke-width:0.8;" x="746.772094" xlink:href="#mff9b65de89" y="546.84327"/>
      </g>
     </g>
     <g id="text_16">
      <!-- 26-04 -->
      <g transform="translate(732.243188 561.441707)scale(0.1 -0.1)">
       <use xlink:href="#DejaVuSans-50"/>
       <use x="63.623047" xlink:href="#DejaVuSans-54"/>
       <use x="127.246094" xlink:href="#DejaVuSans-45"/>
       <use x="163.330078" xlink:href="#DejaVuSans-48"/>
       <use x="226.953125" xlink:href="#DejaVuSans-52"/>
      </g>
     </g>
    </g>
    <g id="xtick_17">
     <g id="line2d_17">
      <g>
       <use style="stroke:#000000;stroke-width:0.8;" x="790.509998" xlink:href="#mff9b65de89" y="546.84327"/>
      </g>
     </g>
     <g id="text_17">
      <!-- 03-05 -->
      <g transform="translate(775.981092 561.441707)scale(0.1 -0.1)">
       <use xlink:href="#DejaVuSans-48"/>
       <use x="63.623047" xlink:href="#DejaVuSans-51"/>
       <use x="127.246094" xlink:href="#DejaVuSans-45"/>
       <use x="163.330078" xlink:href="#DejaVuSans-48"/>
       <use x="226.953125" xlink:href="#DejaVuSans-53"/>
      </g>
     </g>
    </g>
    <g id="xtick_18">
     <g id="line2d_18">
      <g>
       <use style="stroke:#000000;stroke-width:0.8;" x="834.247903" xlink:href="#mff9b65de89" y="546.84327"/>
      </g>
     </g>
     <g id="text_18">
      <!-- 10-05 -->
      <g transform="translate(819.718996 561.441707)scale(0.1 -0.1)">
       <use xlink:href="#DejaVuSans-49"/>
       <use x="63.623047" xlink:href="#DejaVuSans-48"/>
       <use x="127.246094" xlink:href="#DejaVuSans-45"/>
       <use x="163.330078" xlink:href="#DejaVuSans-48"/>
       <use x="226.953125" xlink:href="#DejaVuSans-53"/>
      </g>
     </g>
    </g>
    <g id="xtick_19">
     <g id="line2d_19">
      <g>
       <use style="stroke:#000000;stroke-width:0.8;" x="877.985807" xlink:href="#mff9b65de89" y="546.84327"/>
      </g>
     </g>
     <g id="text_19">
      <!-- 17-05 -->
      <defs>
       <path d="M 8.203125 72.90625 
L 55.078125 72.90625 
L 55.078125 68.703125 
L 28.609375 0 
L 18.3125 0 
L 43.21875 64.59375 
L 8.203125 64.59375 
z
" id="DejaVuSans-55"/>
      </defs>
      <g transform="translate(863.456901 561.441707)scale(0.1 -0.1)">
       <use xlink:href="#DejaVuSans-49"/>
       <use x="63.623047" xlink:href="#DejaVuSans-55"/>
       <use x="127.246094" xlink:href="#DejaVuSans-45"/>
       <use x="163.330078" xlink:href="#DejaVuSans-48"/>
       <use x="226.953125" xlink:href="#DejaVuSans-53"/>
      </g>
     </g>
    </g>
    <g id="xtick_20">
     <g id="line2d_20">
      <g>
       <use style="stroke:#000000;stroke-width:0.8;" x="921.723711" xlink:href="#mff9b65de89" y="546.84327"/>
      </g>
     </g>
     <g id="text_20">
      <!-- 24-05 -->
      <g transform="translate(907.194805 561.441707)scale(0.1 -0.1)">
       <use xlink:href="#DejaVuSans-50"/>
       <use x="63.623047" xlink:href="#DejaVuSans-52"/>
       <use x="127.246094" xlink:href="#DejaVuSans-45"/>
       <use x="163.330078" xlink:href="#DejaVuSans-48"/>
       <use x="226.953125" xlink:href="#DejaVuSans-53"/>
      </g>
     </g>
    </g>
    <g id="xtick_21">
     <g id="line2d_21">
      <g>
       <use style="stroke:#000000;stroke-width:0.8;" x="965.461616" xlink:href="#mff9b65de89" y="546.84327"/>
      </g>
     </g>
     <g id="text_21">
      <!-- 31-05 -->
      <g transform="translate(950.932709 561.441707)scale(0.1 -0.1)">
       <use xlink:href="#DejaVuSans-51"/>
       <use x="63.623047" xlink:href="#DejaVuSans-49"/>
       <use x="127.246094" xlink:href="#DejaVuSans-45"/>
       <use x="163.330078" xlink:href="#DejaVuSans-48"/>
       <use x="226.953125" xlink:href="#DejaVuSans-53"/>
      </g>
     </g>
    </g>
    <g id="text_22">
     <!-- Sidste dag i ugen -->
     <defs>
      <path d="M 53.515625 70.515625 
L 53.515625 60.890625 
Q 47.90625 63.578125 42.921875 64.890625 
Q 37.9375 66.21875 33.296875 66.21875 
Q 25.25 66.21875 20.875 63.09375 
Q 16.5 59.96875 16.5 54.203125 
Q 16.5 49.359375 19.40625 46.890625 
Q 22.3125 44.4375 30.421875 42.921875 
L 36.375 41.703125 
Q 47.40625 39.59375 52.65625 34.296875 
Q 57.90625 29 57.90625 20.125 
Q 57.90625 9.515625 50.796875 4.046875 
Q 43.703125 -1.421875 29.984375 -1.421875 
Q 24.8125 -1.421875 18.96875 -0.25 
Q 13.140625 0.921875 6.890625 3.21875 
L 6.890625 13.375 
Q 12.890625 10.015625 18.65625 8.296875 
Q 24.421875 6.59375 29.984375 6.59375 
Q 38.421875 6.59375 43.015625 9.90625 
Q 47.609375 13.234375 47.609375 19.390625 
Q 47.609375 24.75 44.3125 27.78125 
Q 41.015625 30.8125 33.5 32.328125 
L 27.484375 33.5 
Q 16.453125 35.6875 11.515625 40.375 
Q 6.59375 45.0625 6.59375 53.421875 
Q 6.59375 63.09375 13.40625 68.65625 
Q 20.21875 74.21875 32.171875 74.21875 
Q 37.3125 74.21875 42.625 73.28125 
Q 47.953125 72.359375 53.515625 70.515625 
z
" id="DejaVuSans-83"/>
      <path d="M 9.421875 54.6875 
L 18.40625 54.6875 
L 18.40625 0 
L 9.421875 0 
z
M 9.421875 75.984375 
L 18.40625 75.984375 
L 18.40625 64.59375 
L 9.421875 64.59375 
z
" id="DejaVuSans-105"/>
      <path d="M 45.40625 46.390625 
L 45.40625 75.984375 
L 54.390625 75.984375 
L 54.390625 0 
L 45.40625 0 
L 45.40625 8.203125 
Q 42.578125 3.328125 38.25 0.953125 
Q 33.9375 -1.421875 27.875 -1.421875 
Q 17.96875 -1.421875 11.734375 6.484375 
Q 5.515625 14.40625 5.515625 27.296875 
Q 5.515625 40.1875 11.734375 48.09375 
Q 17.96875 56 27.875 56 
Q 33.9375 56 38.25 53.625 
Q 42.578125 51.265625 45.40625 46.390625 
z
M 14.796875 27.296875 
Q 14.796875 17.390625 18.875 11.75 
Q 22.953125 6.109375 30.078125 6.109375 
Q 37.203125 6.109375 41.296875 11.75 
Q 45.40625 17.390625 45.40625 27.296875 
Q 45.40625 37.203125 41.296875 42.84375 
Q 37.203125 48.484375 30.078125 48.484375 
Q 22.953125 48.484375 18.875 42.84375 
Q 14.796875 37.203125 14.796875 27.296875 
z
" id="DejaVuSans-100"/>
      <path d="M 44.28125 53.078125 
L 44.28125 44.578125 
Q 40.484375 46.53125 36.375 47.5 
Q 32.28125 48.484375 27.875 48.484375 
Q 21.1875 48.484375 17.84375 46.4375 
Q 14.5 44.390625 14.5 40.28125 
Q 14.5 37.15625 16.890625 35.375 
Q 19.28125 33.59375 26.515625 31.984375 
L 29.59375 31.296875 
Q 39.15625 29.25 43.1875 25.515625 
Q 47.21875 21.78125 47.21875 15.09375 
Q 47.21875 7.46875 41.1875 3.015625 
Q 35.15625 -1.421875 24.609375 -1.421875 
Q 20.21875 -1.421875 15.453125 -0.5625 
Q 10.6875 0.296875 5.421875 2 
L 5.421875 11.28125 
Q 10.40625 8.6875 15.234375 7.390625 
Q 20.0625 6.109375 24.8125 6.109375 
Q 31.15625 6.109375 34.5625 8.28125 
Q 37.984375 10.453125 37.984375 14.40625 
Q 37.984375 18.0625 35.515625 20.015625 
Q 33.0625 21.96875 24.703125 23.78125 
L 21.578125 24.515625 
Q 13.234375 26.265625 9.515625 29.90625 
Q 5.8125 33.546875 5.8125 39.890625 
Q 5.8125 47.609375 11.28125 51.796875 
Q 16.75 56 26.8125 56 
Q 31.78125 56 36.171875 55.265625 
Q 40.578125 54.546875 44.28125 53.078125 
z
" id="DejaVuSans-115"/>
      <path d="M 18.3125 70.21875 
L 18.3125 54.6875 
L 36.8125 54.6875 
L 36.8125 47.703125 
L 18.3125 47.703125 
L 18.3125 18.015625 
Q 18.3125 11.328125 20.140625 9.421875 
Q 21.96875 7.515625 27.59375 7.515625 
L 36.8125 7.515625 
L 36.8125 0 
L 27.59375 0 
Q 17.1875 0 13.234375 3.875 
Q 9.28125 7.765625 9.28125 18.015625 
L 9.28125 47.703125 
L 2.6875 47.703125 
L 2.6875 54.6875 
L 9.28125 54.6875 
L 9.28125 70.21875 
z
" id="DejaVuSans-116"/>
      <path d="M 56.203125 29.59375 
L 56.203125 25.203125 
L 14.890625 25.203125 
Q 15.484375 15.921875 20.484375 11.0625 
Q 25.484375 6.203125 34.421875 6.203125 
Q 39.59375 6.203125 44.453125 7.46875 
Q 49.3125 8.734375 54.109375 11.28125 
L 54.109375 2.78125 
Q 49.265625 0.734375 44.1875 -0.34375 
Q 39.109375 -1.421875 33.890625 -1.421875 
Q 20.796875 -1.421875 13.15625 6.1875 
Q 5.515625 13.8125 5.515625 26.8125 
Q 5.515625 40.234375 12.765625 48.109375 
Q 20.015625 56 32.328125 56 
Q 43.359375 56 49.78125 48.890625 
Q 56.203125 41.796875 56.203125 29.59375 
z
M 47.21875 32.234375 
Q 47.125 39.59375 43.09375 43.984375 
Q 39.0625 48.390625 32.421875 48.390625 
Q 24.90625 48.390625 20.390625 44.140625 
Q 15.875 39.890625 15.1875 32.171875 
z
" id="DejaVuSans-101"/>
      <path id="DejaVuSans-32"/>
      <path d="M 34.28125 27.484375 
Q 23.390625 27.484375 19.1875 25 
Q 14.984375 22.515625 14.984375 16.5 
Q 14.984375 11.71875 18.140625 8.90625 
Q 21.296875 6.109375 26.703125 6.109375 
Q 34.1875 6.109375 38.703125 11.40625 
Q 43.21875 16.703125 43.21875 25.484375 
L 43.21875 27.484375 
z
M 52.203125 31.203125 
L 52.203125 0 
L 43.21875 0 
L 43.21875 8.296875 
Q 40.140625 3.328125 35.546875 0.953125 
Q 30.953125 -1.421875 24.3125 -1.421875 
Q 15.921875 -1.421875 10.953125 3.296875 
Q 6 8.015625 6 15.921875 
Q 6 25.140625 12.171875 29.828125 
Q 18.359375 34.515625 30.609375 34.515625 
L 43.21875 34.515625 
L 43.21875 35.40625 
Q 43.21875 41.609375 39.140625 45 
Q 35.0625 48.390625 27.6875 48.390625 
Q 23 48.390625 18.546875 47.265625 
Q 14.109375 46.140625 10.015625 43.890625 
L 10.015625 52.203125 
Q 14.9375 54.109375 19.578125 55.046875 
Q 24.21875 56 28.609375 56 
Q 40.484375 56 46.34375 49.84375 
Q 52.203125 43.703125 52.203125 31.203125 
z
" id="DejaVuSans-97"/>
      <path d="M 45.40625 27.984375 
Q 45.40625 37.75 41.375 43.109375 
Q 37.359375 48.484375 30.078125 48.484375 
Q 22.859375 48.484375 18.828125 43.109375 
Q 14.796875 37.75 14.796875 27.984375 
Q 14.796875 18.265625 18.828125 12.890625 
Q 22.859375 7.515625 30.078125 7.515625 
Q 37.359375 7.515625 41.375 12.890625 
Q 45.40625 18.265625 45.40625 27.984375 
z
M 54.390625 6.78125 
Q 54.390625 -7.171875 48.1875 -13.984375 
Q 42 -20.796875 29.203125 -20.796875 
Q 24.46875 -20.796875 20.265625 -20.09375 
Q 16.0625 -19.390625 12.109375 -17.921875 
L 12.109375 -9.1875 
Q 16.0625 -11.328125 19.921875 -12.34375 
Q 23.78125 -13.375 27.78125 -13.375 
Q 36.625 -13.375 41.015625 -8.765625 
Q 45.40625 -4.15625 45.40625 5.171875 
L 45.40625 9.625 
Q 42.625 4.78125 38.28125 2.390625 
Q 33.9375 0 27.875 0 
Q 17.828125 0 11.671875 7.65625 
Q 5.515625 15.328125 5.515625 27.984375 
Q 5.515625 40.671875 11.671875 48.328125 
Q 17.828125 56 27.875 56 
Q 33.9375 56 38.28125 53.609375 
Q 42.625 51.21875 45.40625 46.390625 
L 45.40625 54.6875 
L 54.390625 54.6875 
z
" id="DejaVuSans-103"/>
      <path d="M 8.5 21.578125 
L 8.5 54.6875 
L 17.484375 54.6875 
L 17.484375 21.921875 
Q 17.484375 14.15625 20.5 10.265625 
Q 23.53125 6.390625 29.59375 6.390625 
Q 36.859375 6.390625 41.078125 11.03125 
Q 45.3125 15.671875 45.3125 23.6875 
L 45.3125 54.6875 
L 54.296875 54.6875 
L 54.296875 0 
L 45.3125 0 
L 45.3125 8.40625 
Q 42.046875 3.421875 37.71875 1 
Q 33.40625 -1.421875 27.6875 -1.421875 
Q 18.265625 -1.421875 13.375 4.4375 
Q 8.5 10.296875 8.5 21.578125 
z
M 31.109375 56 
z
" id="DejaVuSans-117"/>
      <path d="M 54.890625 33.015625 
L 54.890625 0 
L 45.90625 0 
L 45.90625 32.71875 
Q 45.90625 40.484375 42.875 44.328125 
Q 39.84375 48.1875 33.796875 48.1875 
Q 26.515625 48.1875 22.3125 43.546875 
Q 18.109375 38.921875 18.109375 30.90625 
L 18.109375 0 
L 9.078125 0 
L 9.078125 54.6875 
L 18.109375 54.6875 
L 18.109375 46.1875 
Q 21.34375 51.125 25.703125 53.5625 
Q 30.078125 56 35.796875 56 
Q 45.21875 56 50.046875 50.171875 
Q 54.890625 44.34375 54.890625 33.015625 
z
" id="DejaVuSans-110"/>
     </defs>
     <g transform="translate(484.546635 575.119832)scale(0.1 -0.1)">
      <use xlink:href="#DejaVuSans-83"/>
      <use x="63.476562" xlink:href="#DejaVuSans-105"/>
      <use x="91.259766" xlink:href="#DejaVuSans-100"/>
      <use x="154.736328" xlink:href="#DejaVuSans-115"/>
      <use x="206.835938" xlink:href="#DejaVuSans-116"/>
      <use x="246.044922" xlink:href="#DejaVuSans-101"/>
      <use x="307.568359" xlink:href="#DejaVuSans-32"/>
      <use x="339.355469" xlink:href="#DejaVuSans-100"/>
      <use x="402.832031" xlink:href="#DejaVuSans-97"/>
      <use x="464.111328" xlink:href="#DejaVuSans-103"/>
      <use x="527.587891" xlink:href="#DejaVuSans-32"/>
      <use x="559.375" xlink:href="#DejaVuSans-105"/>
      <use x="587.158203" xlink:href="#DejaVuSans-32"/>
      <use x="618.945312" xlink:href="#DejaVuSans-117"/>
      <use x="682.324219" xlink:href="#DejaVuSans-103"/>
      <use x="745.800781" xlink:href="#DejaVuSans-101"/>
      <use x="807.324219" xlink:href="#DejaVuSans-110"/>
     </g>
    </g>
   </g>
   <g id="matplotlib.axis_2">
    <g id="ytick_1">
     <g id="line2d_22">
      <defs>
       <path d="M 0 0 
L -3.5 0 
" id="me8b98a7f61" style="stroke:#000000;stroke-width:0.8;"/>
      </defs>
      <g>
       <use style="stroke:#000000;stroke-width:0.8;" x="46.965625" xlink:href="#me8b98a7f61" y="546.84327"/>
      </g>
     </g>
     <g id="text_23">
      <!-- 0 -->
      <g transform="translate(33.603125 550.642489)scale(0.1 -0.1)">
       <use xlink:href="#DejaVuSans-48"/>
      </g>
     </g>
    </g>
    <g id="ytick_2">
     <g id="line2d_23">
      <g>
       <use style="stroke:#000000;stroke-width:0.8;" x="46.965625" xlink:href="#me8b98a7f61" y="447.367915"/>
      </g>
     </g>
     <g id="text_24">
      <!-- 20 -->
      <g transform="translate(27.240625 451.167134)scale(0.1 -0.1)">
       <use xlink:href="#DejaVuSans-50"/>
       <use x="63.623047" xlink:href="#DejaVuSans-48"/>
      </g>
     </g>
    </g>
    <g id="ytick_3">
     <g id="line2d_24">
      <g>
       <use style="stroke:#000000;stroke-width:0.8;" x="46.965625" xlink:href="#me8b98a7f61" y="347.89256"/>
      </g>
     </g>
     <g id="text_25">
      <!-- 40 -->
      <g transform="translate(27.240625 351.691779)scale(0.1 -0.1)">
       <use xlink:href="#DejaVuSans-52"/>
       <use x="63.623047" xlink:href="#DejaVuSans-48"/>
      </g>
     </g>
    </g>
    <g id="ytick_4">
     <g id="line2d_25">
      <g>
       <use style="stroke:#000000;stroke-width:0.8;" x="46.965625" xlink:href="#me8b98a7f61" y="248.417205"/>
      </g>
     </g>
     <g id="text_26">
      <!-- 60 -->
      <g transform="translate(27.240625 252.216424)scale(0.1 -0.1)">
       <use xlink:href="#DejaVuSans-54"/>
       <use x="63.623047" xlink:href="#DejaVuSans-48"/>
      </g>
     </g>
    </g>
    <g id="ytick_5">
     <g id="line2d_26">
      <g>
       <use style="stroke:#000000;stroke-width:0.8;" x="46.965625" xlink:href="#me8b98a7f61" y="148.94185"/>
      </g>
     </g>
     <g id="text_27">
      <!-- 80 -->
      <g transform="translate(27.240625 152.741069)scale(0.1 -0.1)">
       <use xlink:href="#DejaVuSans-56"/>
       <use x="63.623047" xlink:href="#DejaVuSans-48"/>
      </g>
     </g>
    </g>
    <g id="ytick_6">
     <g id="line2d_27">
      <g>
       <use style="stroke:#000000;stroke-width:0.8;" x="46.965625" xlink:href="#me8b98a7f61" y="49.466495"/>
      </g>
     </g>
     <g id="text_28">
      <!-- 100 -->
      <g transform="translate(20.878125 53.265714)scale(0.1 -0.1)">
       <use xlink:href="#DejaVuSans-49"/>
       <use x="63.623047" xlink:href="#DejaVuSans-48"/>
       <use x="127.246094" xlink:href="#DejaVuSans-48"/>
      </g>
     </g>
    </g>
    <g id="text_29">
     <!-- Antal posts -->
     <defs>
      <path d="M 34.1875 63.1875 
L 20.796875 26.90625 
L 47.609375 26.90625 
z
M 28.609375 72.90625 
L 39.796875 72.90625 
L 67.578125 0 
L 57.328125 0 
L 50.6875 18.703125 
L 17.828125 18.703125 
L 11.1875 0 
L 0.78125 0 
z
" id="DejaVuSans-65"/>
      <path d="M 9.421875 75.984375 
L 18.40625 75.984375 
L 18.40625 0 
L 9.421875 0 
z
" id="DejaVuSans-108"/>
      <path d="M 18.109375 8.203125 
L 18.109375 -20.796875 
L 9.078125 -20.796875 
L 9.078125 54.6875 
L 18.109375 54.6875 
L 18.109375 46.390625 
Q 20.953125 51.265625 25.265625 53.625 
Q 29.59375 56 35.59375 56 
Q 45.5625 56 51.78125 48.09375 
Q 58.015625 40.1875 58.015625 27.296875 
Q 58.015625 14.40625 51.78125 6.484375 
Q 45.5625 -1.421875 35.59375 -1.421875 
Q 29.59375 -1.421875 25.265625 0.953125 
Q 20.953125 3.328125 18.109375 8.203125 
z
M 48.6875 27.296875 
Q 48.6875 37.203125 44.609375 42.84375 
Q 40.53125 48.484375 33.40625 48.484375 
Q 26.265625 48.484375 22.1875 42.84375 
Q 18.109375 37.203125 18.109375 27.296875 
Q 18.109375 17.390625 22.1875 11.75 
Q 26.265625 6.109375 33.40625 6.109375 
Q 40.53125 6.109375 44.609375 11.75 
Q 48.6875 17.390625 48.6875 27.296875 
z
" id="DejaVuSans-112"/>
      <path d="M 30.609375 48.390625 
Q 23.390625 48.390625 19.1875 42.75 
Q 14.984375 37.109375 14.984375 27.296875 
Q 14.984375 17.484375 19.15625 11.84375 
Q 23.34375 6.203125 30.609375 6.203125 
Q 37.796875 6.203125 41.984375 11.859375 
Q 46.1875 17.53125 46.1875 27.296875 
Q 46.1875 37.015625 41.984375 42.703125 
Q 37.796875 48.390625 30.609375 48.390625 
z
M 30.609375 56 
Q 42.328125 56 49.015625 48.375 
Q 55.71875 40.765625 55.71875 27.296875 
Q 55.71875 13.875 49.015625 6.21875 
Q 42.328125 -1.421875 30.609375 -1.421875 
Q 18.84375 -1.421875 12.171875 6.21875 
Q 5.515625 13.875 5.515625 27.296875 
Q 5.515625 40.765625 12.171875 48.375 
Q 18.84375 56 30.609375 56 
z
" id="DejaVuSans-111"/>
     </defs>
     <g transform="translate(14.798437 313.714994)rotate(-90)scale(0.1 -0.1)">
      <use xlink:href="#DejaVuSans-65"/>
      <use x="68.408203" xlink:href="#DejaVuSans-110"/>
      <use x="131.787109" xlink:href="#DejaVuSans-116"/>
      <use x="170.996094" xlink:href="#DejaVuSans-97"/>
      <use x="232.275391" xlink:href="#DejaVuSans-108"/>
      <use x="260.058594" xlink:href="#DejaVuSans-32"/>
      <use x="291.845703" xlink:href="#DejaVuSans-112"/>
      <use x="355.322266" xlink:href="#DejaVuSans-111"/>
      <use x="416.503906" xlink:href="#DejaVuSans-115"/>
      <use x="468.603516" xlink:href="#DejaVuSans-116"/>
      <use x="507.8125" xlink:href="#DejaVuSans-115"/>
     </g>
    </g>
   </g>
   <g id="patch_3">
    <path d="M 46.965625 546.84327 
L 46.965625 24.597656 
" style="fill:none;stroke:#000000;stroke-linecap:square;stroke-linejoin:miter;stroke-width:0.8;"/>
   </g>
   <g id="patch_4">
    <path d="M 1009.19952 546.84327 
L 1009.19952 24.597656 
" style="fill:none;stroke:#000000;stroke-linecap:square;stroke-linejoin:miter;stroke-width:0.8;"/>
   </g>
   <g id="patch_5">
    <path d="M 46.965625 546.84327 
L 1009.19952 546.84327 
" style="fill:none;stroke:#000000;stroke-linecap:square;stroke-linejoin:miter;stroke-width:0.8;"/>
   </g>
   <g id="patch_6">
    <path d="M 46.965625 24.597656 
L 1009.19952 24.597656 
" style="fill:none;stroke:#000000;stroke-linecap:square;stroke-linejoin:miter;stroke-width:0.8;"/>
   </g>
   <g id="text_30">
    <!-- Ugentlig Facebook-aktivitet per NGO-type i Danmark -->
    <defs>
     <path d="M 8.6875 72.90625 
L 18.609375 72.90625 
L 18.609375 28.609375 
Q 18.609375 16.890625 22.84375 11.734375 
Q 27.09375 6.59375 36.625 6.59375 
Q 46.09375 6.59375 50.34375 11.734375 
Q 54.59375 16.890625 54.59375 28.609375 
L 54.59375 72.90625 
L 64.5 72.90625 
L 64.5 27.390625 
Q 64.5 13.140625 57.4375 5.859375 
Q 50.390625 -1.421875 36.625 -1.421875 
Q 22.796875 -1.421875 15.734375 5.859375 
Q 8.6875 13.140625 8.6875 27.390625 
z
" id="DejaVuSans-85"/>
     <path d="M 9.8125 72.90625 
L 51.703125 72.90625 
L 51.703125 64.59375 
L 19.671875 64.59375 
L 19.671875 43.109375 
L 48.578125 43.109375 
L 48.578125 34.8125 
L 19.671875 34.8125 
L 19.671875 0 
L 9.8125 0 
z
" id="DejaVuSans-70"/>
     <path d="M 48.78125 52.59375 
L 48.78125 44.1875 
Q 44.96875 46.296875 41.140625 47.34375 
Q 37.3125 48.390625 33.40625 48.390625 
Q 24.65625 48.390625 19.8125 42.84375 
Q 14.984375 37.3125 14.984375 27.296875 
Q 14.984375 17.28125 19.8125 11.734375 
Q 24.65625 6.203125 33.40625 6.203125 
Q 37.3125 6.203125 41.140625 7.25 
Q 44.96875 8.296875 48.78125 10.40625 
L 48.78125 2.09375 
Q 45.015625 0.34375 40.984375 -0.53125 
Q 36.96875 -1.421875 32.421875 -1.421875 
Q 20.0625 -1.421875 12.78125 6.34375 
Q 5.515625 14.109375 5.515625 27.296875 
Q 5.515625 40.671875 12.859375 48.328125 
Q 20.21875 56 33.015625 56 
Q 37.15625 56 41.109375 55.140625 
Q 45.0625 54.296875 48.78125 52.59375 
z
" id="DejaVuSans-99"/>
     <path d="M 48.6875 27.296875 
Q 48.6875 37.203125 44.609375 42.84375 
Q 40.53125 48.484375 33.40625 48.484375 
Q 26.265625 48.484375 22.1875 42.84375 
Q 18.109375 37.203125 18.109375 27.296875 
Q 18.109375 17.390625 22.1875 11.75 
Q 26.265625 6.109375 33.40625 6.109375 
Q 40.53125 6.109375 44.609375 11.75 
Q 48.6875 17.390625 48.6875 27.296875 
z
M 18.109375 46.390625 
Q 20.953125 51.265625 25.265625 53.625 
Q 29.59375 56 35.59375 56 
Q 45.5625 56 51.78125 48.09375 
Q 58.015625 40.1875 58.015625 27.296875 
Q 58.015625 14.40625 51.78125 6.484375 
Q 45.5625 -1.421875 35.59375 -1.421875 
Q 29.59375 -1.421875 25.265625 0.953125 
Q 20.953125 3.328125 18.109375 8.203125 
L 18.109375 0 
L 9.078125 0 
L 9.078125 75.984375 
L 18.109375 75.984375 
z
" id="DejaVuSans-98"/>
     <path d="M 9.078125 75.984375 
L 18.109375 75.984375 
L 18.109375 31.109375 
L 44.921875 54.6875 
L 56.390625 54.6875 
L 27.390625 29.109375 
L 57.625 0 
L 45.90625 0 
L 18.109375 26.703125 
L 18.109375 0 
L 9.078125 0 
z
" id="DejaVuSans-107"/>
     <path d="M 2.984375 54.6875 
L 12.5 54.6875 
L 29.59375 8.796875 
L 46.6875 54.6875 
L 56.203125 54.6875 
L 35.6875 0 
L 23.484375 0 
z
" id="DejaVuSans-118"/>
     <path d="M 41.109375 46.296875 
Q 39.59375 47.171875 37.8125 47.578125 
Q 36.03125 48 33.890625 48 
Q 26.265625 48 22.1875 43.046875 
Q 18.109375 38.09375 18.109375 28.8125 
L 18.109375 0 
L 9.078125 0 
L 9.078125 54.6875 
L 18.109375 54.6875 
L 18.109375 46.1875 
Q 20.953125 51.171875 25.484375 53.578125 
Q 30.03125 56 36.53125 56 
Q 37.453125 56 38.578125 55.875 
Q 39.703125 55.765625 41.0625 55.515625 
z
" id="DejaVuSans-114"/>
     <path d="M 9.8125 72.90625 
L 23.09375 72.90625 
L 55.421875 11.921875 
L 55.421875 72.90625 
L 64.984375 72.90625 
L 64.984375 0 
L 51.703125 0 
L 19.390625 60.984375 
L 19.390625 0 
L 9.8125 0 
z
" id="DejaVuSans-78"/>
     <path d="M 59.515625 10.40625 
L 59.515625 29.984375 
L 43.40625 29.984375 
L 43.40625 38.09375 
L 69.28125 38.09375 
L 69.28125 6.78125 
Q 63.578125 2.734375 56.6875 0.65625 
Q 49.8125 -1.421875 42 -1.421875 
Q 24.90625 -1.421875 15.25 8.5625 
Q 5.609375 18.5625 5.609375 36.375 
Q 5.609375 54.25 15.25 64.234375 
Q 24.90625 74.21875 42 74.21875 
Q 49.125 74.21875 55.546875 72.453125 
Q 61.96875 70.703125 67.390625 67.28125 
L 67.390625 56.78125 
Q 61.921875 61.421875 55.765625 63.765625 
Q 49.609375 66.109375 42.828125 66.109375 
Q 29.4375 66.109375 22.71875 58.640625 
Q 16.015625 51.171875 16.015625 36.375 
Q 16.015625 21.625 22.71875 14.15625 
Q 29.4375 6.6875 42.828125 6.6875 
Q 48.046875 6.6875 52.140625 7.59375 
Q 56.25 8.5 59.515625 10.40625 
z
" id="DejaVuSans-71"/>
     <path d="M 39.40625 66.21875 
Q 28.65625 66.21875 22.328125 58.203125 
Q 16.015625 50.203125 16.015625 36.375 
Q 16.015625 22.609375 22.328125 14.59375 
Q 28.65625 6.59375 39.40625 6.59375 
Q 50.140625 6.59375 56.421875 14.59375 
Q 62.703125 22.609375 62.703125 36.375 
Q 62.703125 50.203125 56.421875 58.203125 
Q 50.140625 66.21875 39.40625 66.21875 
z
M 39.40625 74.21875 
Q 54.734375 74.21875 63.90625 63.9375 
Q 73.09375 53.65625 73.09375 36.375 
Q 73.09375 19.140625 63.90625 8.859375 
Q 54.734375 -1.421875 39.40625 -1.421875 
Q 24.03125 -1.421875 14.8125 8.828125 
Q 5.609375 19.09375 5.609375 36.375 
Q 5.609375 53.65625 14.8125 63.9375 
Q 24.03125 74.21875 39.40625 74.21875 
z
" id="DejaVuSans-79"/>
     <path d="M 32.171875 -5.078125 
Q 28.375 -14.84375 24.75 -17.8125 
Q 21.140625 -20.796875 15.09375 -20.796875 
L 7.90625 -20.796875 
L 7.90625 -13.28125 
L 13.1875 -13.28125 
Q 16.890625 -13.28125 18.9375 -11.515625 
Q 21 -9.765625 23.484375 -3.21875 
L 25.09375 0.875 
L 2.984375 54.6875 
L 12.5 54.6875 
L 29.59375 11.921875 
L 46.6875 54.6875 
L 56.203125 54.6875 
z
" id="DejaVuSans-121"/>
     <path d="M 19.671875 64.796875 
L 19.671875 8.109375 
L 31.59375 8.109375 
Q 46.6875 8.109375 53.6875 14.9375 
Q 60.6875 21.78125 60.6875 36.53125 
Q 60.6875 51.171875 53.6875 57.984375 
Q 46.6875 64.796875 31.59375 64.796875 
z
M 9.8125 72.90625 
L 30.078125 72.90625 
Q 51.265625 72.90625 61.171875 64.09375 
Q 71.09375 55.28125 71.09375 36.53125 
Q 71.09375 17.671875 61.125 8.828125 
Q 51.171875 0 30.078125 0 
L 9.8125 0 
z
" id="DejaVuSans-68"/>
     <path d="M 52 44.1875 
Q 55.375 50.25 60.0625 53.125 
Q 64.75 56 71.09375 56 
Q 79.640625 56 84.28125 50.015625 
Q 88.921875 44.046875 88.921875 33.015625 
L 88.921875 0 
L 79.890625 0 
L 79.890625 32.71875 
Q 79.890625 40.578125 77.09375 44.375 
Q 74.3125 48.1875 68.609375 48.1875 
Q 61.625 48.1875 57.5625 43.546875 
Q 53.515625 38.921875 53.515625 30.90625 
L 53.515625 0 
L 44.484375 0 
L 44.484375 32.71875 
Q 44.484375 40.625 41.703125 44.40625 
Q 38.921875 48.1875 33.109375 48.1875 
Q 26.21875 48.1875 22.15625 43.53125 
Q 18.109375 38.875 18.109375 30.90625 
L 18.109375 0 
L 9.078125 0 
L 9.078125 54.6875 
L 18.109375 54.6875 
L 18.109375 46.1875 
Q 21.1875 51.21875 25.484375 53.609375 
Q 29.78125 56 35.6875 56 
Q 41.65625 56 45.828125 52.96875 
Q 50 49.953125 52 44.1875 
z
" id="DejaVuSans-109"/>
    </defs>
    <g transform="translate(329.755619 18.597656)scale(0.15 -0.15)">
     <use xlink:href="#DejaVuSans-85"/>
     <use x="73.193359" xlink:href="#DejaVuSans-103"/>
     <use x="136.669922" xlink:href="#DejaVuSans-101"/>
     <use x="198.193359" xlink:href="#DejaVuSans-110"/>
     <use x="261.572266" xlink:href="#DejaVuSans-116"/>
     <use x="300.78125" xlink:href="#DejaVuSans-108"/>
     <use x="328.564453" xlink:href="#DejaVuSans-105"/>
     <use x="356.347656" xlink:href="#DejaVuSans-103"/>
     <use x="419.824219" xlink:href="#DejaVuSans-32"/>
     <use x="451.611328" xlink:href="#DejaVuSans-70"/>
     <use x="500.005859" xlink:href="#DejaVuSans-97"/>
     <use x="561.285156" xlink:href="#DejaVuSans-99"/>
     <use x="616.265625" xlink:href="#DejaVuSans-101"/>
     <use x="677.789062" xlink:href="#DejaVuSans-98"/>
     <use x="741.265625" xlink:href="#DejaVuSans-111"/>
     <use x="802.447266" xlink:href="#DejaVuSans-111"/>
     <use x="863.628906" xlink:href="#DejaVuSans-107"/>
     <use x="921.539062" xlink:href="#DejaVuSans-45"/>
     <use x="957.623047" xlink:href="#DejaVuSans-97"/>
     <use x="1018.902344" xlink:href="#DejaVuSans-107"/>
     <use x="1076.8125" xlink:href="#DejaVuSans-116"/>
     <use x="1116.021484" xlink:href="#DejaVuSans-105"/>
     <use x="1143.804688" xlink:href="#DejaVuSans-118"/>
     <use x="1202.984375" xlink:href="#DejaVuSans-105"/>
     <use x="1230.767578" xlink:href="#DejaVuSans-116"/>
     <use x="1269.976562" xlink:href="#DejaVuSans-101"/>
     <use x="1331.5" xlink:href="#DejaVuSans-116"/>
     <use x="1370.708984" xlink:href="#DejaVuSans-32"/>
     <use x="1402.496094" xlink:href="#DejaVuSans-112"/>
     <use x="1465.972656" xlink:href="#DejaVuSans-101"/>
     <use x="1527.496094" xlink:href="#DejaVuSans-114"/>
     <use x="1568.609375" xlink:href="#DejaVuSans-32"/>
     <use x="1600.396484" xlink:href="#DejaVuSans-78"/>
     <use x="1675.201172" xlink:href="#DejaVuSans-71"/>
     <use x="1752.691406" xlink:href="#DejaVuSans-79"/>
     <use x="1834.152344" xlink:href="#DejaVuSans-45"/>
     <use x="1870.236328" xlink:href="#DejaVuSans-116"/>
     <use x="1909.445312" xlink:href="#DejaVuSans-121"/>
     <use x="1968.625" xlink:href="#DejaVuSans-112"/>
     <use x="2032.101562" xlink:href="#DejaVuSans-101"/>
     <use x="2093.625" xlink:href="#DejaVuSans-32"/>
     <use x="2125.412109" xlink:href="#DejaVuSans-105"/>
     <use x="2153.195312" xlink:href="#DejaVuSans-32"/>
     <use x="2184.982422" xlink:href="#DejaVuSans-68"/>
     <use x="2261.984375" xlink:href="#DejaVuSans-97"/>
     <use x="2323.263672" xlink:href="#DejaVuSans-110"/>
     <use x="2386.642578" xlink:href="#DejaVuSans-109"/>
     <use x="2484.054688" xlink:href="#DejaVuSans-97"/>
     <use x="2545.333984" xlink:href="#DejaVuSans-114"/>
     <use x="2586.447266" xlink:href="#DejaVuSans-107"/>
    </g>
   </g>
   <g id="legend_1">
    <g id="patch_7">
     <path d="M 53.965625 107.169531 
L 249.726562 107.169531 
Q 251.726562 107.169531 251.726562 105.169531 
L 251.726562 31.597656 
Q 251.726562 29.597656 249.726562 29.597656 
L 53.965625 29.597656 
Q 51.965625 29.597656 51.965625 31.597656 
L 51.965625 105.169531 
Q 51.965625 107.169531 53.965625 107.169531 
z
" style="fill:#ffffff;opacity:0.8;stroke:#cccccc;stroke-linejoin:miter;"/>
    </g>
    <g id="patch_8">
     <path d="M 55.965625 41.196094 
L 75.965625 41.196094 
L 75.965625 34.196094 
L 55.965625 34.196094 
z
" style="fill:#1f77b4;"/>
    </g>
    <g id="text_31">
     <!-- Etablerede klima NGOer -->
     <defs>
      <path d="M 9.8125 72.90625 
L 55.90625 72.90625 
L 55.90625 64.59375 
L 19.671875 64.59375 
L 19.671875 43.015625 
L 54.390625 43.015625 
L 54.390625 34.71875 
L 19.671875 34.71875 
L 19.671875 8.296875 
L 56.78125 8.296875 
L 56.78125 0 
L 9.8125 0 
z
" id="DejaVuSans-69"/>
     </defs>
     <g transform="translate(83.965625 41.196094)scale(0.1 -0.1)">
      <use xlink:href="#DejaVuSans-69"/>
      <use x="63.183594" xlink:href="#DejaVuSans-116"/>
      <use x="102.392578" xlink:href="#DejaVuSans-97"/>
      <use x="163.671875" xlink:href="#DejaVuSans-98"/>
      <use x="227.148438" xlink:href="#DejaVuSans-108"/>
      <use x="254.931641" xlink:href="#DejaVuSans-101"/>
      <use x="316.455078" xlink:href="#DejaVuSans-114"/>
      <use x="355.318359" xlink:href="#DejaVuSans-101"/>
      <use x="416.841797" xlink:href="#DejaVuSans-100"/>
      <use x="480.318359" xlink:href="#DejaVuSans-101"/>
      <use x="541.841797" xlink:href="#DejaVuSans-32"/>
      <use x="573.628906" xlink:href="#DejaVuSans-107"/>
      <use x="631.539062" xlink:href="#DejaVuSans-108"/>
      <use x="659.322266" xlink:href="#DejaVuSans-105"/>
      <use x="687.105469" xlink:href="#DejaVuSans-109"/>
      <use x="784.517578" xlink:href="#DejaVuSans-97"/>
      <use x="845.796875" xlink:href="#DejaVuSans-32"/>
      <use x="877.583984" xlink:href="#DejaVuSans-78"/>
      <use x="952.388672" xlink:href="#DejaVuSans-71"/>
      <use x="1029.878906" xlink:href="#DejaVuSans-79"/>
      <use x="1108.589844" xlink:href="#DejaVuSans-101"/>
      <use x="1170.113281" xlink:href="#DejaVuSans-114"/>
     </g>
    </g>
    <g id="patch_9">
     <path d="M 55.965625 55.874219 
L 75.965625 55.874219 
L 75.965625 48.874219 
L 55.965625 48.874219 
z
" style="fill:#ff7f0e;"/>
    </g>
    <g id="text_32">
     <!-- Etablerede natur og milj NGOer -->
     <defs>
      <path d="M 9.421875 54.6875 
L 18.40625 54.6875 
L 18.40625 -0.984375 
Q 18.40625 -11.421875 14.421875 -16.109375 
Q 10.453125 -20.796875 1.609375 -20.796875 
L -1.8125 -20.796875 
L -1.8125 -13.1875 
L 0.59375 -13.1875 
Q 5.71875 -13.1875 7.5625 -10.8125 
Q 9.421875 -8.453125 9.421875 -0.984375 
z
M 9.421875 75.984375 
L 18.40625 75.984375 
L 18.40625 64.59375 
L 9.421875 64.59375 
z
" id="DejaVuSans-106"/>
      <path d="M 44.1875 39.109375 
L 20.40625 10.203125 
Q 22.40625 8.15625 24.921875 7.171875 
Q 27.4375 6.203125 30.609375 6.203125 
Q 37.796875 6.203125 41.984375 11.859375 
Q 46.1875 17.53125 46.1875 27.296875 
Q 46.1875 31.15625 45.703125 34 
Q 45.21875 36.859375 44.1875 39.109375 
z
M 40.71875 44.390625 
Q 38.671875 46.390625 36.15625 47.390625 
Q 33.640625 48.390625 30.609375 48.390625 
Q 23.25 48.390625 19.109375 42.65625 
Q 14.984375 36.921875 14.984375 26.609375 
Q 14.984375 23.09375 15.453125 20.40625 
Q 15.921875 17.71875 16.890625 15.484375 
z
M 10.796875 8.109375 
Q 8.15625 11.859375 6.828125 16.671875 
Q 5.515625 21.484375 5.515625 27.296875 
Q 5.515625 40.765625 12.171875 48.375 
Q 18.84375 56 30.609375 56 
Q 35.15625 56 39.03125 54.75 
Q 42.921875 53.515625 46.1875 50.984375 
L 52.984375 59.1875 
L 57.625 55.328125 
L 50.484375 46.578125 
Q 53.078125 42.828125 54.390625 37.984375 
Q 55.71875 33.15625 55.71875 27.296875 
Q 55.71875 13.875 49.015625 6.21875 
Q 42.328125 -1.421875 30.609375 -1.421875 
Q 25.921875 -1.421875 21.984375 -0.140625 
Q 18.0625 1.125 14.984375 3.609375 
L 8.203125 -4.59375 
L 3.515625 -0.78125 
z
" id="DejaVuSans-248"/>
     </defs>
     <g transform="translate(83.965625 55.874219)scale(0.1 -0.1)">
      <use xlink:href="#DejaVuSans-69"/>
      <use x="63.183594" xlink:href="#DejaVuSans-116"/>
      <use x="102.392578" xlink:href="#DejaVuSans-97"/>
      <use x="163.671875" xlink:href="#DejaVuSans-98"/>
      <use x="227.148438" xlink:href="#DejaVuSans-108"/>
      <use x="254.931641" xlink:href="#DejaVuSans-101"/>
      <use x="316.455078" xlink:href="#DejaVuSans-114"/>
      <use x="355.318359" xlink:href="#DejaVuSans-101"/>
      <use x="416.841797" xlink:href="#DejaVuSans-100"/>
      <use x="480.318359" xlink:href="#DejaVuSans-101"/>
      <use x="541.841797" xlink:href="#DejaVuSans-32"/>
      <use x="573.628906" xlink:href="#DejaVuSans-110"/>
      <use x="637.007812" xlink:href="#DejaVuSans-97"/>
      <use x="698.287109" xlink:href="#DejaVuSans-116"/>
      <use x="737.496094" xlink:href="#DejaVuSans-117"/>
      <use x="800.875" xlink:href="#DejaVuSans-114"/>
      <use x="841.988281" xlink:href="#DejaVuSans-32"/>
      <use x="873.775391" xlink:href="#DejaVuSans-111"/>
      <use x="934.957031" xlink:href="#DejaVuSans-103"/>
      <use x="998.433594" xlink:href="#DejaVuSans-32"/>
      <use x="1030.220703" xlink:href="#DejaVuSans-109"/>
      <use x="1127.632812" xlink:href="#DejaVuSans-105"/>
      <use x="1155.416016" xlink:href="#DejaVuSans-108"/>
      <use x="1183.199219" xlink:href="#DejaVuSans-106"/>
      <use x="1210.982422" xlink:href="#DejaVuSans-248"/>
      <use x="1272.164062" xlink:href="#DejaVuSans-32"/>
      <use x="1303.951172" xlink:href="#DejaVuSans-78"/>
      <use x="1378.755859" xlink:href="#DejaVuSans-71"/>
      <use x="1456.246094" xlink:href="#DejaVuSans-79"/>
      <use x="1534.957031" xlink:href="#DejaVuSans-101"/>
      <use x="1596.480469" xlink:href="#DejaVuSans-114"/>
     </g>
    </g>
    <g id="patch_10">
     <path d="M 55.965625 70.552344 
L 75.965625 70.552344 
L 75.965625 63.552344 
L 55.965625 63.552344 
z
" style="fill:#2ca02c;"/>
    </g>
    <g id="text_33">
     <!-- Nye, aktivistiske klima NGOer -->
     <defs>
      <path d="M 11.71875 12.40625 
L 22.015625 12.40625 
L 22.015625 4 
L 14.015625 -11.625 
L 7.71875 -11.625 
L 11.71875 4 
z
" id="DejaVuSans-44"/>
     </defs>
     <g transform="translate(83.965625 70.552344)scale(0.1 -0.1)">
      <use xlink:href="#DejaVuSans-78"/>
      <use x="74.804688" xlink:href="#DejaVuSans-121"/>
      <use x="133.984375" xlink:href="#DejaVuSans-101"/>
      <use x="195.507812" xlink:href="#DejaVuSans-44"/>
      <use x="227.294922" xlink:href="#DejaVuSans-32"/>
      <use x="259.082031" xlink:href="#DejaVuSans-97"/>
      <use x="320.361328" xlink:href="#DejaVuSans-107"/>
      <use x="378.271484" xlink:href="#DejaVuSans-116"/>
      <use x="417.480469" xlink:href="#DejaVuSans-105"/>
      <use x="445.263672" xlink:href="#DejaVuSans-118"/>
      <use x="504.443359" xlink:href="#DejaVuSans-105"/>
      <use x="532.226562" xlink:href="#DejaVuSans-115"/>
      <use x="584.326172" xlink:href="#DejaVuSans-116"/>
      <use x="623.535156" xlink:href="#DejaVuSans-105"/>
      <use x="651.318359" xlink:href="#DejaVuSans-115"/>
      <use x="703.417969" xlink:href="#DejaVuSans-107"/>
      <use x="757.703125" xlink:href="#DejaVuSans-101"/>
      <use x="819.226562" xlink:href="#DejaVuSans-32"/>
      <use x="851.013672" xlink:href="#DejaVuSans-107"/>
      <use x="908.923828" xlink:href="#DejaVuSans-108"/>
      <use x="936.707031" xlink:href="#DejaVuSans-105"/>
      <use x="964.490234" xlink:href="#DejaVuSans-109"/>
      <use x="1061.902344" xlink:href="#DejaVuSans-97"/>
      <use x="1123.181641" xlink:href="#DejaVuSans-32"/>
      <use x="1154.96875" xlink:href="#DejaVuSans-78"/>
      <use x="1229.773438" xlink:href="#DejaVuSans-71"/>
      <use x="1307.263672" xlink:href="#DejaVuSans-79"/>
      <use x="1385.974609" xlink:href="#DejaVuSans-101"/>
      <use x="1447.498047" xlink:href="#DejaVuSans-114"/>
     </g>
    </g>
    <g id="patch_11">
     <path d="M 55.965625 86.411719 
L 75.965625 86.411719 
L 75.965625 79.411719 
L 55.965625 79.411719 
z
" style="fill:#d62728;"/>
    </g>
    <g id="text_34">
     <!-- Tnketanke og rd -->
     <defs>
      <path d="M -0.296875 72.90625 
L 61.375 72.90625 
L 61.375 64.59375 
L 35.5 64.59375 
L 35.5 0 
L 25.59375 0 
L 25.59375 64.59375 
L -0.296875 64.59375 
z
" id="DejaVuSans-84"/>
      <path d="M 83.890625 32.234375 
Q 83.84375 39.59375 79.8125 43.984375 
Q 75.78125 48.390625 69.09375 48.390625 
Q 61.625 48.390625 57.109375 44.140625 
Q 52.59375 39.890625 51.90625 32.171875 
z
M 48.578125 47.015625 
Q 52.203125 51.421875 57.375 53.703125 
Q 62.546875 56 69 56 
Q 80.03125 56 86.46875 48.890625 
Q 92.921875 41.796875 92.921875 29.59375 
L 92.921875 25.203125 
L 51.609375 25.203125 
Q 52.203125 15.875 57.171875 10.984375 
Q 62.15625 6.109375 71.09375 6.109375 
Q 76.171875 6.109375 81.046875 7.390625 
Q 85.9375 8.6875 90.828125 11.28125 
L 90.828125 2.78125 
Q 85.9375 0.734375 80.859375 -0.34375 
Q 75.78125 -1.421875 70.609375 -1.421875 
Q 62.453125 -1.421875 56.390625 1.53125 
Q 50.34375 4.5 46.578125 10.296875 
Q 43.015625 4.4375 37.734375 1.5 
Q 32.46875 -1.421875 25.484375 -1.421875 
Q 16.265625 -1.421875 11.125 3.140625 
Q 6 7.71875 6 15.921875 
Q 6 25.140625 12.171875 29.828125 
Q 18.359375 34.515625 30.609375 34.515625 
L 43.21875 34.515625 
L 43.21875 35.40625 
Q 43.21875 41.609375 39.140625 45 
Q 35.0625 48.390625 27.6875 48.390625 
Q 23 48.390625 18.546875 47.265625 
Q 14.109375 46.140625 10.015625 43.890625 
L 10.015625 52.203125 
Q 14.9375 54.109375 19.578125 55.046875 
Q 24.21875 56 28.609375 56 
Q 35.546875 56 40.75 53.65625 
Q 45.953125 51.3125 48.578125 47.015625 
z
M 34.28125 27.484375 
Q 23.390625 27.484375 19.1875 25 
Q 14.984375 22.515625 14.984375 16.5 
Q 14.984375 11.71875 18.140625 8.90625 
Q 21.296875 6.109375 26.703125 6.109375 
Q 34.1875 6.109375 38.703125 11.40625 
Q 43.21875 16.703125 43.21875 25.484375 
L 43.21875 27.484375 
z
" id="DejaVuSans-230"/>
      <path d="M 34.28125 27.484375 
Q 23.390625 27.484375 19.1875 25 
Q 14.984375 22.515625 14.984375 16.5 
Q 14.984375 11.71875 18.140625 8.90625 
Q 21.296875 6.109375 26.703125 6.109375 
Q 34.1875 6.109375 38.703125 11.40625 
Q 43.21875 16.703125 43.21875 25.484375 
L 43.21875 27.484375 
z
M 52.203125 31.203125 
L 52.203125 0 
L 43.21875 0 
L 43.21875 8.296875 
Q 40.140625 3.328125 35.546875 0.953125 
Q 30.953125 -1.421875 24.3125 -1.421875 
Q 15.921875 -1.421875 10.953125 3.296875 
Q 6 8.015625 6 15.921875 
Q 6 25.140625 12.171875 29.828125 
Q 18.359375 34.515625 30.609375 34.515625 
L 43.21875 34.515625 
L 43.21875 35.40625 
Q 43.21875 41.609375 39.140625 45 
Q 35.0625 48.390625 27.6875 48.390625 
Q 23 48.390625 18.546875 47.265625 
Q 14.109375 46.140625 10.015625 43.890625 
L 10.015625 52.203125 
Q 14.9375 54.109375 19.578125 55.046875 
Q 24.21875 56 28.609375 56 
Q 40.484375 56 46.34375 49.84375 
Q 52.203125 43.703125 52.203125 31.203125 
z
M 36.421875 74.421875 
Q 36.421875 77.484375 34.265625 79.625 
Q 32.125 81.78125 29 81.78125 
Q 25.828125 81.78125 23.703125 79.65625 
Q 21.578125 77.546875 21.578125 74.421875 
Q 21.578125 71.234375 23.703125 69.109375 
Q 25.828125 67 29 67 
Q 32.125 67 34.265625 69.140625 
Q 36.421875 71.296875 36.421875 74.421875 
z
M 42.390625 74.421875 
Q 42.390625 68.796875 38.5 64.890625 
Q 34.625 60.984375 29 60.984375 
Q 23.390625 60.984375 19.5 64.890625 
Q 15.625 68.796875 15.625 74.421875 
Q 15.625 80.03125 19.5 83.90625 
Q 23.390625 87.796875 29 87.796875 
Q 34.625 87.796875 38.5 83.90625 
Q 42.390625 80.03125 42.390625 74.421875 
z
" id="DejaVuSans-229"/>
     </defs>
     <g transform="translate(83.965625 86.411719)scale(0.1 -0.1)">
      <use xlink:href="#DejaVuSans-84"/>
      <use x="61.083984" xlink:href="#DejaVuSans-230"/>
      <use x="159.277344" xlink:href="#DejaVuSans-110"/>
      <use x="222.65625" xlink:href="#DejaVuSans-107"/>
      <use x="276.941406" xlink:href="#DejaVuSans-101"/>
      <use x="338.464844" xlink:href="#DejaVuSans-116"/>
      <use x="377.673828" xlink:href="#DejaVuSans-97"/>
      <use x="438.953125" xlink:href="#DejaVuSans-110"/>
      <use x="502.332031" xlink:href="#DejaVuSans-107"/>
      <use x="556.617188" xlink:href="#DejaVuSans-101"/>
      <use x="618.140625" xlink:href="#DejaVuSans-32"/>
      <use x="649.927734" xlink:href="#DejaVuSans-111"/>
      <use x="711.109375" xlink:href="#DejaVuSans-103"/>
      <use x="774.585938" xlink:href="#DejaVuSans-32"/>
      <use x="806.373047" xlink:href="#DejaVuSans-114"/>
      <use x="847.486328" xlink:href="#DejaVuSans-229"/>
      <use x="908.765625" xlink:href="#DejaVuSans-100"/>
     </g>
    </g>
    <g id="patch_12">
     <path d="M 55.965625 101.089844 
L 75.965625 101.089844 
L 75.965625 94.089844 
L 55.965625 94.089844 
z
" style="fill:#9467bd;"/>
    </g>
    <g id="text_35">
     <!-- Andre interesseorganisationer -->
     <g transform="translate(83.965625 101.089844)scale(0.1 -0.1)">
      <use xlink:href="#DejaVuSans-65"/>
      <use x="68.408203" xlink:href="#DejaVuSans-110"/>
      <use x="131.787109" xlink:href="#DejaVuSans-100"/>
      <use x="195.263672" xlink:href="#DejaVuSans-114"/>
      <use x="234.126953" xlink:href="#DejaVuSans-101"/>
      <use x="295.650391" xlink:href="#DejaVuSans-32"/>
      <use x="327.4375" xlink:href="#DejaVuSans-105"/>
      <use x="355.220703" xlink:href="#DejaVuSans-110"/>
      <use x="418.599609" xlink:href="#DejaVuSans-116"/>
      <use x="457.808594" xlink:href="#DejaVuSans-101"/>
      <use x="519.332031" xlink:href="#DejaVuSans-114"/>
      <use x="558.195312" xlink:href="#DejaVuSans-101"/>
      <use x="619.71875" xlink:href="#DejaVuSans-115"/>
      <use x="671.818359" xlink:href="#DejaVuSans-115"/>
      <use x="723.917969" xlink:href="#DejaVuSans-101"/>
      <use x="785.441406" xlink:href="#DejaVuSans-111"/>
      <use x="846.623047" xlink:href="#DejaVuSans-114"/>
      <use x="885.986328" xlink:href="#DejaVuSans-103"/>
      <use x="949.462891" xlink:href="#DejaVuSans-97"/>
      <use x="1010.742188" xlink:href="#DejaVuSans-110"/>
      <use x="1074.121094" xlink:href="#DejaVuSans-105"/>
      <use x="1101.904297" xlink:href="#DejaVuSans-115"/>
      <use x="1154.003906" xlink:href="#DejaVuSans-97"/>
      <use x="1215.283203" xlink:href="#DejaVuSans-116"/>
      <use x="1254.492188" xlink:href="#DejaVuSans-105"/>
      <use x="1282.275391" xlink:href="#DejaVuSans-111"/>
      <use x="1343.457031" xlink:href="#DejaVuSans-110"/>
      <use x="1406.835938" xlink:href="#DejaVuSans-101"/>
      <use x="1468.359375" xlink:href="#DejaVuSans-114"/>
     </g>
    </g>
   </g>
  </g>
 </g>
 <defs>
  <clipPath id="p8fd9ed233d">
   <rect height="522.245614" width="962.233895" x="46.965625" y="24.597656"/>
  </clipPath>
 </defs>
</svg>
