<?xml version="1.0" encoding="utf-8" standalone="no"?>
<!DOCTYPE svg PUBLIC "-//W3C//DTD SVG 1.1//EN"
  "http://www.w3.org/Graphics/SVG/1.1/DTD/svg11.dtd">
<!-- Created with matplotlib (https://matplotlib.org/) -->
<svg height="576pt" version="1.1" viewBox="0 0 1008 576" width="1008pt" xmlns="http://www.w3.org/2000/svg" xmlns:xlink="http://www.w3.org/1999/xlink">
 <defs>
  <style type="text/css">
*{stroke-linecap:butt;stroke-linejoin:round;}
  </style>
 </defs>
 <g id="figure_1">
  <g id="patch_1">
   <path d="M 0 576 
L 1008 576 
L 1008 0 
L 0 0 
z
" style="fill:#ffffff;"/>
  </g>
  <g id="axes_1">
   <g id="patch_2">
    <path d="M 42.765865 494.815099 
L 1004.99976 494.815099 
L 1004.99976 20.397896 
L 42.765865 20.397896 
z
" style="fill:#ffffff;"/>
   </g>
   <g id="patch_3">
    <path clip-path="url(#ped9ea1f395)" d="M 86.503769 494.815099 
L 118.604983 494.815099 
L 118.604983 42.989192 
L 86.503769 42.989192 
z
" style="fill:#1f77b4;"/>
   </g>
   <g id="patch_4">
    <path clip-path="url(#ped9ea1f395)" d="M 126.630287 494.815099 
L 158.731501 494.815099 
L 158.731501 142.656671 
L 126.630287 142.656671 
z
" style="fill:#1f77b4;"/>
   </g>
   <g id="patch_5">
    <path clip-path="url(#ped9ea1f395)" d="M 166.756805 494.815099 
L 198.858019 494.815099 
L 198.858019 250.867078 
L 166.756805 250.867078 
z
" style="fill:#1f77b4;"/>
   </g>
   <g id="patch_6">
    <path clip-path="url(#ped9ea1f395)" d="M 206.883322 494.815099 
L 238.984537 494.815099 
L 238.984537 302.124639 
L 206.883322 302.124639 
z
" style="fill:#1f77b4;"/>
   </g>
   <g id="patch_7">
    <path clip-path="url(#ped9ea1f395)" d="M 247.00984 494.815099 
L 279.111054 494.815099 
L 279.111054 330.601061 
L 247.00984 330.601061 
z
" style="fill:#1f77b4;"/>
   </g>
   <g id="patch_8">
    <path clip-path="url(#ped9ea1f395)" d="M 287.136358 494.815099 
L 319.237572 494.815099 
L 319.237572 344.839273 
L 287.136358 344.839273 
z
" style="fill:#1f77b4;"/>
   </g>
   <g id="patch_9">
    <path clip-path="url(#ped9ea1f395)" d="M 327.262876 494.815099 
L 359.36409 494.815099 
L 359.36409 364.772769 
L 327.262876 364.772769 
z
" style="fill:#1f77b4;"/>
   </g>
   <g id="patch_10">
    <path clip-path="url(#ped9ea1f395)" d="M 367.389393 494.815099 
L 399.490608 494.815099 
L 399.490608 380.909408 
L 367.389393 380.909408 
z
" style="fill:#1f77b4;"/>
   </g>
   <g id="patch_11">
    <path clip-path="url(#ped9ea1f395)" d="M 407.515911 494.815099 
L 439.617125 494.815099 
L 439.617125 397.046048 
L 407.515911 397.046048 
z
" style="fill:#1f77b4;"/>
   </g>
   <g id="patch_12">
    <path clip-path="url(#ped9ea1f395)" d="M 447.642429 494.815099 
L 479.743643 494.815099 
L 479.743643 412.233473 
L 447.642429 412.233473 
z
" style="fill:#1f77b4;"/>
   </g>
   <g id="patch_13">
    <path clip-path="url(#ped9ea1f395)" d="M 487.768947 494.815099 
L 519.870161 494.815099 
L 519.870161 416.03033 
L 487.768947 416.03033 
z
" style="fill:#1f77b4;"/>
   </g>
   <g id="patch_14">
    <path clip-path="url(#ped9ea1f395)" d="M 527.895464 494.815099 
L 559.996678 494.815099 
L 559.996678 427.420899 
L 527.895464 427.420899 
z
" style="fill:#1f77b4;"/>
   </g>
   <g id="patch_15">
    <path clip-path="url(#ped9ea1f395)" d="M 568.021982 494.815099 
L 600.123196 494.815099 
L 600.123196 446.405181 
L 568.021982 446.405181 
z
" style="fill:#1f77b4;"/>
   </g>
   <g id="patch_16">
    <path clip-path="url(#ped9ea1f395)" d="M 608.1485 494.815099 
L 640.249714 494.815099 
L 640.249714 447.354395 
L 608.1485 447.354395 
z
" style="fill:#1f77b4;"/>
   </g>
   <g id="patch_17">
    <path clip-path="url(#ped9ea1f395)" d="M 648.275017 494.815099 
L 680.376232 494.815099 
L 680.376232 453.998893 
L 648.275017 453.998893 
z
" style="fill:#1f77b4;"/>
   </g>
   <g id="patch_18">
    <path clip-path="url(#ped9ea1f395)" d="M 688.401535 494.815099 
L 720.502749 494.815099 
L 720.502749 454.948108 
L 688.401535 454.948108 
z
" style="fill:#1f77b4;"/>
   </g>
   <g id="patch_19">
    <path clip-path="url(#ped9ea1f395)" d="M 728.528053 494.815099 
L 760.629267 494.815099 
L 760.629267 455.897322 
L 728.528053 455.897322 
z
" style="fill:#1f77b4;"/>
   </g>
   <g id="patch_20">
    <path clip-path="url(#ped9ea1f395)" d="M 768.654571 494.815099 
L 800.755785 494.815099 
L 800.755785 456.846536 
L 768.654571 456.846536 
z
" style="fill:#1f77b4;"/>
   </g>
   <g id="patch_21">
    <path clip-path="url(#ped9ea1f395)" d="M 808.781088 494.815099 
L 840.882303 494.815099 
L 840.882303 458.744964 
L 808.781088 458.744964 
z
" style="fill:#1f77b4;"/>
   </g>
   <g id="patch_22">
    <path clip-path="url(#ped9ea1f395)" d="M 848.907606 494.815099 
L 881.00882 494.815099 
L 881.00882 478.67846 
L 848.907606 478.67846 
z
" style="fill:#1f77b4;"/>
   </g>
   <g id="patch_23">
    <path clip-path="url(#ped9ea1f395)" d="M 889.034124 494.815099 
L 921.135338 494.815099 
L 921.135338 484.373744 
L 889.034124 484.373744 
z
" style="fill:#1f77b4;"/>
   </g>
   <g id="patch_24">
    <path clip-path="url(#ped9ea1f395)" d="M 929.160642 494.815099 
L 961.261856 494.815099 
L 961.261856 491.967457 
L 929.160642 491.967457 
z
" style="fill:#1f77b4;"/>
   </g>
   <g id="matplotlib.axis_1">
    <g id="xtick_1">
     <g id="line2d_1">
      <defs>
       <path d="M 0 0 
L 0 3.5 
" id="m43e4623bea" style="stroke:#000000;stroke-width:0.8;"/>
      </defs>
      <g>
       <use style="stroke:#000000;stroke-width:0.8;" x="102.554376" xlink:href="#m43e4623bea" y="494.815099"/>
      </g>
     </g>
     <g id="text_1">
      <!-- Naturvern -->
      <defs>
       <path d="M 9.8125 72.90625 
L 23.09375 72.90625 
L 55.421875 11.921875 
L 55.421875 72.90625 
L 64.984375 72.90625 
L 64.984375 0 
L 51.703125 0 
L 19.390625 60.984375 
L 19.390625 0 
L 9.8125 0 
z
" id="DejaVuSans-78"/>
       <path d="M 34.28125 27.484375 
Q 23.390625 27.484375 19.1875 25 
Q 14.984375 22.515625 14.984375 16.5 
Q 14.984375 11.71875 18.140625 8.90625 
Q 21.296875 6.109375 26.703125 6.109375 
Q 34.1875 6.109375 38.703125 11.40625 
Q 43.21875 16.703125 43.21875 25.484375 
L 43.21875 27.484375 
z
M 52.203125 31.203125 
L 52.203125 0 
L 43.21875 0 
L 43.21875 8.296875 
Q 40.140625 3.328125 35.546875 0.953125 
Q 30.953125 -1.421875 24.3125 -1.421875 
Q 15.921875 -1.421875 10.953125 3.296875 
Q 6 8.015625 6 15.921875 
Q 6 25.140625 12.171875 29.828125 
Q 18.359375 34.515625 30.609375 34.515625 
L 43.21875 34.515625 
L 43.21875 35.40625 
Q 43.21875 41.609375 39.140625 45 
Q 35.0625 48.390625 27.6875 48.390625 
Q 23 48.390625 18.546875 47.265625 
Q 14.109375 46.140625 10.015625 43.890625 
L 10.015625 52.203125 
Q 14.9375 54.109375 19.578125 55.046875 
Q 24.21875 56 28.609375 56 
Q 40.484375 56 46.34375 49.84375 
Q 52.203125 43.703125 52.203125 31.203125 
z
" id="DejaVuSans-97"/>
       <path d="M 18.3125 70.21875 
L 18.3125 54.6875 
L 36.8125 54.6875 
L 36.8125 47.703125 
L 18.3125 47.703125 
L 18.3125 18.015625 
Q 18.3125 11.328125 20.140625 9.421875 
Q 21.96875 7.515625 27.59375 7.515625 
L 36.8125 7.515625 
L 36.8125 0 
L 27.59375 0 
Q 17.1875 0 13.234375 3.875 
Q 9.28125 7.765625 9.28125 18.015625 
L 9.28125 47.703125 
L 2.6875 47.703125 
L 2.6875 54.6875 
L 9.28125 54.6875 
L 9.28125 70.21875 
z
" id="DejaVuSans-116"/>
       <path d="M 8.5 21.578125 
L 8.5 54.6875 
L 17.484375 54.6875 
L 17.484375 21.921875 
Q 17.484375 14.15625 20.5 10.265625 
Q 23.53125 6.390625 29.59375 6.390625 
Q 36.859375 6.390625 41.078125 11.03125 
Q 45.3125 15.671875 45.3125 23.6875 
L 45.3125 54.6875 
L 54.296875 54.6875 
L 54.296875 0 
L 45.3125 0 
L 45.3125 8.40625 
Q 42.046875 3.421875 37.71875 1 
Q 33.40625 -1.421875 27.6875 -1.421875 
Q 18.265625 -1.421875 13.375 4.4375 
Q 8.5 10.296875 8.5 21.578125 
z
M 31.109375 56 
z
" id="DejaVuSans-117"/>
       <path d="M 41.109375 46.296875 
Q 39.59375 47.171875 37.8125 47.578125 
Q 36.03125 48 33.890625 48 
Q 26.265625 48 22.1875 43.046875 
Q 18.109375 38.09375 18.109375 28.8125 
L 18.109375 0 
L 9.078125 0 
L 9.078125 54.6875 
L 18.109375 54.6875 
L 18.109375 46.1875 
Q 20.953125 51.171875 25.484375 53.578125 
Q 30.03125 56 36.53125 56 
Q 37.453125 56 38.578125 55.875 
Q 39.703125 55.765625 41.0625 55.515625 
z
" id="DejaVuSans-114"/>
       <path d="M 2.984375 54.6875 
L 12.5 54.6875 
L 29.59375 8.796875 
L 46.6875 54.6875 
L 56.203125 54.6875 
L 35.6875 0 
L 23.484375 0 
z
" id="DejaVuSans-118"/>
       <path d="M 56.203125 29.59375 
L 56.203125 25.203125 
L 14.890625 25.203125 
Q 15.484375 15.921875 20.484375 11.0625 
Q 25.484375 6.203125 34.421875 6.203125 
Q 39.59375 6.203125 44.453125 7.46875 
Q 49.3125 8.734375 54.109375 11.28125 
L 54.109375 2.78125 
Q 49.265625 0.734375 44.1875 -0.34375 
Q 39.109375 -1.421875 33.890625 -1.421875 
Q 20.796875 -1.421875 13.15625 6.1875 
Q 5.515625 13.8125 5.515625 26.8125 
Q 5.515625 40.234375 12.765625 48.109375 
Q 20.015625 56 32.328125 56 
Q 43.359375 56 49.78125 48.890625 
Q 56.203125 41.796875 56.203125 29.59375 
z
M 47.21875 32.234375 
Q 47.125 39.59375 43.09375 43.984375 
Q 39.0625 48.390625 32.421875 48.390625 
Q 24.90625 48.390625 20.390625 44.140625 
Q 15.875 39.890625 15.1875 32.171875 
z
" id="DejaVuSans-101"/>
       <path d="M 54.890625 33.015625 
L 54.890625 0 
L 45.90625 0 
L 45.90625 32.71875 
Q 45.90625 40.484375 42.875 44.328125 
Q 39.84375 48.1875 33.796875 48.1875 
Q 26.515625 48.1875 22.3125 43.546875 
Q 18.109375 38.921875 18.109375 30.90625 
L 18.109375 0 
L 9.078125 0 
L 9.078125 54.6875 
L 18.109375 54.6875 
L 18.109375 46.1875 
Q 21.34375 51.125 25.703125 53.5625 
Q 30.078125 56 35.796875 56 
Q 45.21875 56 50.046875 50.171875 
Q 54.890625 44.34375 54.890625 33.015625 
z
" id="DejaVuSans-110"/>
      </defs>
      <g transform="translate(86.652208 542.894689)rotate(-45)scale(0.1 -0.1)">
       <use xlink:href="#DejaVuSans-78"/>
       <use x="74.804688" xlink:href="#DejaVuSans-97"/>
       <use x="136.083984" xlink:href="#DejaVuSans-116"/>
       <use x="175.292969" xlink:href="#DejaVuSans-117"/>
       <use x="238.671875" xlink:href="#DejaVuSans-114"/>
       <use x="279.785156" xlink:href="#DejaVuSans-118"/>
       <use x="338.964844" xlink:href="#DejaVuSans-101"/>
       <use x="400.488281" xlink:href="#DejaVuSans-114"/>
       <use x="441.585938" xlink:href="#DejaVuSans-110"/>
      </g>
     </g>
    </g>
    <g id="xtick_2">
     <g id="line2d_2">
      <g>
       <use style="stroke:#000000;stroke-width:0.8;" x="142.680894" xlink:href="#m43e4623bea" y="494.815099"/>
      </g>
     </g>
     <g id="text_2">
      <!-- Civita_ -->
      <defs>
       <path d="M 64.40625 67.28125 
L 64.40625 56.890625 
Q 59.421875 61.53125 53.78125 63.8125 
Q 48.140625 66.109375 41.796875 66.109375 
Q 29.296875 66.109375 22.65625 58.46875 
Q 16.015625 50.828125 16.015625 36.375 
Q 16.015625 21.96875 22.65625 14.328125 
Q 29.296875 6.6875 41.796875 6.6875 
Q 48.140625 6.6875 53.78125 8.984375 
Q 59.421875 11.28125 64.40625 15.921875 
L 64.40625 5.609375 
Q 59.234375 2.09375 53.4375 0.328125 
Q 47.65625 -1.421875 41.21875 -1.421875 
Q 24.65625 -1.421875 15.125 8.703125 
Q 5.609375 18.84375 5.609375 36.375 
Q 5.609375 53.953125 15.125 64.078125 
Q 24.65625 74.21875 41.21875 74.21875 
Q 47.75 74.21875 53.53125 72.484375 
Q 59.328125 70.75 64.40625 67.28125 
z
" id="DejaVuSans-67"/>
       <path d="M 9.421875 54.6875 
L 18.40625 54.6875 
L 18.40625 0 
L 9.421875 0 
z
M 9.421875 75.984375 
L 18.40625 75.984375 
L 18.40625 64.59375 
L 9.421875 64.59375 
z
" id="DejaVuSans-105"/>
       <path d="M 50.984375 -16.609375 
L 50.984375 -23.578125 
L -0.984375 -23.578125 
L -0.984375 -16.609375 
z
" id="DejaVuSans-95"/>
      </defs>
      <g transform="translate(132.687487 530.880503)rotate(-45)scale(0.1 -0.1)">
       <use xlink:href="#DejaVuSans-67"/>
       <use x="69.824219" xlink:href="#DejaVuSans-105"/>
       <use x="97.607422" xlink:href="#DejaVuSans-118"/>
       <use x="156.787109" xlink:href="#DejaVuSans-105"/>
       <use x="184.570312" xlink:href="#DejaVuSans-116"/>
       <use x="223.779297" xlink:href="#DejaVuSans-97"/>
       <use x="285.058594" xlink:href="#DejaVuSans-95"/>
      </g>
     </g>
    </g>
    <g id="xtick_3">
     <g id="line2d_3">
      <g>
       <use style="stroke:#000000;stroke-width:0.8;" x="182.807412" xlink:href="#m43e4623bea" y="494.815099"/>
      </g>
     </g>
     <g id="text_3">
      <!-- rodekorsnorge -->
      <defs>
       <path d="M 30.609375 48.390625 
Q 23.390625 48.390625 19.1875 42.75 
Q 14.984375 37.109375 14.984375 27.296875 
Q 14.984375 17.484375 19.15625 11.84375 
Q 23.34375 6.203125 30.609375 6.203125 
Q 37.796875 6.203125 41.984375 11.859375 
Q 46.1875 17.53125 46.1875 27.296875 
Q 46.1875 37.015625 41.984375 42.703125 
Q 37.796875 48.390625 30.609375 48.390625 
z
M 30.609375 56 
Q 42.328125 56 49.015625 48.375 
Q 55.71875 40.765625 55.71875 27.296875 
Q 55.71875 13.875 49.015625 6.21875 
Q 42.328125 -1.421875 30.609375 -1.421875 
Q 18.84375 -1.421875 12.171875 6.21875 
Q 5.515625 13.875 5.515625 27.296875 
Q 5.515625 40.765625 12.171875 48.375 
Q 18.84375 56 30.609375 56 
z
" id="DejaVuSans-111"/>
       <path d="M 45.40625 46.390625 
L 45.40625 75.984375 
L 54.390625 75.984375 
L 54.390625 0 
L 45.40625 0 
L 45.40625 8.203125 
Q 42.578125 3.328125 38.25 0.953125 
Q 33.9375 -1.421875 27.875 -1.421875 
Q 17.96875 -1.421875 11.734375 6.484375 
Q 5.515625 14.40625 5.515625 27.296875 
Q 5.515625 40.1875 11.734375 48.09375 
Q 17.96875 56 27.875 56 
Q 33.9375 56 38.25 53.625 
Q 42.578125 51.265625 45.40625 46.390625 
z
M 14.796875 27.296875 
Q 14.796875 17.390625 18.875 11.75 
Q 22.953125 6.109375 30.078125 6.109375 
Q 37.203125 6.109375 41.296875 11.75 
Q 45.40625 17.390625 45.40625 27.296875 
Q 45.40625 37.203125 41.296875 42.84375 
Q 37.203125 48.484375 30.078125 48.484375 
Q 22.953125 48.484375 18.875 42.84375 
Q 14.796875 37.203125 14.796875 27.296875 
z
" id="DejaVuSans-100"/>
       <path d="M 9.078125 75.984375 
L 18.109375 75.984375 
L 18.109375 31.109375 
L 44.921875 54.6875 
L 56.390625 54.6875 
L 27.390625 29.109375 
L 57.625 0 
L 45.90625 0 
L 18.109375 26.703125 
L 18.109375 0 
L 9.078125 0 
z
" id="DejaVuSans-107"/>
       <path d="M 44.28125 53.078125 
L 44.28125 44.578125 
Q 40.484375 46.53125 36.375 47.5 
Q 32.28125 48.484375 27.875 48.484375 
Q 21.1875 48.484375 17.84375 46.4375 
Q 14.5 44.390625 14.5 40.28125 
Q 14.5 37.15625 16.890625 35.375 
Q 19.28125 33.59375 26.515625 31.984375 
L 29.59375 31.296875 
Q 39.15625 29.25 43.1875 25.515625 
Q 47.21875 21.78125 47.21875 15.09375 
Q 47.21875 7.46875 41.1875 3.015625 
Q 35.15625 -1.421875 24.609375 -1.421875 
Q 20.21875 -1.421875 15.453125 -0.5625 
Q 10.6875 0.296875 5.421875 2 
L 5.421875 11.28125 
Q 10.40625 8.6875 15.234375 7.390625 
Q 20.0625 6.109375 24.8125 6.109375 
Q 31.15625 6.109375 34.5625 8.28125 
Q 37.984375 10.453125 37.984375 14.40625 
Q 37.984375 18.0625 35.515625 20.015625 
Q 33.0625 21.96875 24.703125 23.78125 
L 21.578125 24.515625 
Q 13.234375 26.265625 9.515625 29.90625 
Q 5.8125 33.546875 5.8125 39.890625 
Q 5.8125 47.609375 11.28125 51.796875 
Q 16.75 56 26.8125 56 
Q 31.78125 56 36.171875 55.265625 
Q 40.578125 54.546875 44.28125 53.078125 
z
" id="DejaVuSans-115"/>
       <path d="M 45.40625 27.984375 
Q 45.40625 37.75 41.375 43.109375 
Q 37.359375 48.484375 30.078125 48.484375 
Q 22.859375 48.484375 18.828125 43.109375 
Q 14.796875 37.75 14.796875 27.984375 
Q 14.796875 18.265625 18.828125 12.890625 
Q 22.859375 7.515625 30.078125 7.515625 
Q 37.359375 7.515625 41.375 12.890625 
Q 45.40625 18.265625 45.40625 27.984375 
z
M 54.390625 6.78125 
Q 54.390625 -7.171875 48.1875 -13.984375 
Q 42 -20.796875 29.203125 -20.796875 
Q 24.46875 -20.796875 20.265625 -20.09375 
Q 16.0625 -19.390625 12.109375 -17.921875 
L 12.109375 -9.1875 
Q 16.0625 -11.328125 19.921875 -12.34375 
Q 23.78125 -13.375 27.78125 -13.375 
Q 36.625 -13.375 41.015625 -8.765625 
Q 45.40625 -4.15625 45.40625 5.171875 
L 45.40625 9.625 
Q 42.625 4.78125 38.28125 2.390625 
Q 33.9375 0 27.875 0 
Q 17.828125 0 11.671875 7.65625 
Q 5.515625 15.328125 5.515625 27.984375 
Q 5.515625 40.671875 11.671875 48.328125 
Q 17.828125 56 27.875 56 
Q 33.9375 56 38.28125 53.609375 
Q 42.625 51.21875 45.40625 46.390625 
L 45.40625 54.6875 
L 54.390625 54.6875 
z
" id="DejaVuSans-103"/>
      </defs>
      <g transform="translate(158.942006 558.821164)rotate(-45)scale(0.1 -0.1)">
       <use xlink:href="#DejaVuSans-114"/>
       <use x="41.082031" xlink:href="#DejaVuSans-111"/>
       <use x="102.263672" xlink:href="#DejaVuSans-100"/>
       <use x="165.740234" xlink:href="#DejaVuSans-101"/>
       <use x="227.263672" xlink:href="#DejaVuSans-107"/>
       <use x="285.126953" xlink:href="#DejaVuSans-111"/>
       <use x="346.308594" xlink:href="#DejaVuSans-114"/>
       <use x="387.421875" xlink:href="#DejaVuSans-115"/>
       <use x="439.521484" xlink:href="#DejaVuSans-110"/>
       <use x="502.900391" xlink:href="#DejaVuSans-111"/>
       <use x="564.082031" xlink:href="#DejaVuSans-114"/>
       <use x="605.179688" xlink:href="#DejaVuSans-103"/>
       <use x="668.65625" xlink:href="#DejaVuSans-101"/>
      </g>
     </g>
    </g>
    <g id="xtick_4">
     <g id="line2d_4">
      <g>
       <use style="stroke:#000000;stroke-width:0.8;" x="222.93393" xlink:href="#m43e4623bea" y="494.815099"/>
      </g>
     </g>
     <g id="text_4">
      <!-- WWFNorge -->
      <defs>
       <path d="M 3.328125 72.90625 
L 13.28125 72.90625 
L 28.609375 11.28125 
L 43.890625 72.90625 
L 54.984375 72.90625 
L 70.3125 11.28125 
L 85.59375 72.90625 
L 95.609375 72.90625 
L 77.296875 0 
L 64.890625 0 
L 49.515625 63.28125 
L 33.984375 0 
L 21.578125 0 
z
" id="DejaVuSans-87"/>
       <path d="M 9.8125 72.90625 
L 51.703125 72.90625 
L 51.703125 64.59375 
L 19.671875 64.59375 
L 19.671875 43.109375 
L 48.578125 43.109375 
L 48.578125 34.8125 
L 19.671875 34.8125 
L 19.671875 0 
L 9.8125 0 
z
" id="DejaVuSans-70"/>
      </defs>
      <g transform="translate(205.17892 546.60037)rotate(-45)scale(0.1 -0.1)">
       <use xlink:href="#DejaVuSans-87"/>
       <use x="98.876953" xlink:href="#DejaVuSans-87"/>
       <use x="197.753906" xlink:href="#DejaVuSans-70"/>
       <use x="255.273438" xlink:href="#DejaVuSans-78"/>
       <use x="330.078125" xlink:href="#DejaVuSans-111"/>
       <use x="391.259766" xlink:href="#DejaVuSans-114"/>
       <use x="432.357422" xlink:href="#DejaVuSans-103"/>
       <use x="495.833984" xlink:href="#DejaVuSans-101"/>
      </g>
     </g>
    </g>
    <g id="xtick_5">
     <g id="line2d_5">
      <g>
       <use style="stroke:#000000;stroke-width:0.8;" x="263.060447" xlink:href="#m43e4623bea" y="494.815099"/>
      </g>
     </g>
     <g id="text_5">
      <!-- Stoyforeningen -->
      <defs>
       <path d="M 53.515625 70.515625 
L 53.515625 60.890625 
Q 47.90625 63.578125 42.921875 64.890625 
Q 37.9375 66.21875 33.296875 66.21875 
Q 25.25 66.21875 20.875 63.09375 
Q 16.5 59.96875 16.5 54.203125 
Q 16.5 49.359375 19.40625 46.890625 
Q 22.3125 44.4375 30.421875 42.921875 
L 36.375 41.703125 
Q 47.40625 39.59375 52.65625 34.296875 
Q 57.90625 29 57.90625 20.125 
Q 57.90625 9.515625 50.796875 4.046875 
Q 43.703125 -1.421875 29.984375 -1.421875 
Q 24.8125 -1.421875 18.96875 -0.25 
Q 13.140625 0.921875 6.890625 3.21875 
L 6.890625 13.375 
Q 12.890625 10.015625 18.65625 8.296875 
Q 24.421875 6.59375 29.984375 6.59375 
Q 38.421875 6.59375 43.015625 9.90625 
Q 47.609375 13.234375 47.609375 19.390625 
Q 47.609375 24.75 44.3125 27.78125 
Q 41.015625 30.8125 33.5 32.328125 
L 27.484375 33.5 
Q 16.453125 35.6875 11.515625 40.375 
Q 6.59375 45.0625 6.59375 53.421875 
Q 6.59375 63.09375 13.40625 68.65625 
Q 20.21875 74.21875 32.171875 74.21875 
Q 37.3125 74.21875 42.625 73.28125 
Q 47.953125 72.359375 53.515625 70.515625 
z
" id="DejaVuSans-83"/>
       <path d="M 32.171875 -5.078125 
Q 28.375 -14.84375 24.75 -17.8125 
Q 21.140625 -20.796875 15.09375 -20.796875 
L 7.90625 -20.796875 
L 7.90625 -13.28125 
L 13.1875 -13.28125 
Q 16.890625 -13.28125 18.9375 -11.515625 
Q 21 -9.765625 23.484375 -3.21875 
L 25.09375 0.875 
L 2.984375 54.6875 
L 12.5 54.6875 
L 29.59375 11.921875 
L 46.6875 54.6875 
L 56.203125 54.6875 
z
" id="DejaVuSans-121"/>
       <path d="M 37.109375 75.984375 
L 37.109375 68.5 
L 28.515625 68.5 
Q 23.6875 68.5 21.796875 66.546875 
Q 19.921875 64.59375 19.921875 59.515625 
L 19.921875 54.6875 
L 34.71875 54.6875 
L 34.71875 47.703125 
L 19.921875 47.703125 
L 19.921875 0 
L 10.890625 0 
L 10.890625 47.703125 
L 2.296875 47.703125 
L 2.296875 54.6875 
L 10.890625 54.6875 
L 10.890625 58.5 
Q 10.890625 67.625 15.140625 71.796875 
Q 19.390625 75.984375 28.609375 75.984375 
z
" id="DejaVuSans-102"/>
      </defs>
      <g transform="translate(237.965338 561.28057)rotate(-45)scale(0.1 -0.1)">
       <use xlink:href="#DejaVuSans-83"/>
       <use x="63.476562" xlink:href="#DejaVuSans-116"/>
       <use x="102.685547" xlink:href="#DejaVuSans-111"/>
       <use x="163.867188" xlink:href="#DejaVuSans-121"/>
       <use x="223.046875" xlink:href="#DejaVuSans-102"/>
       <use x="258.251953" xlink:href="#DejaVuSans-111"/>
       <use x="319.433594" xlink:href="#DejaVuSans-114"/>
       <use x="360.515625" xlink:href="#DejaVuSans-101"/>
       <use x="422.039062" xlink:href="#DejaVuSans-110"/>
       <use x="485.417969" xlink:href="#DejaVuSans-105"/>
       <use x="513.201172" xlink:href="#DejaVuSans-110"/>
       <use x="576.580078" xlink:href="#DejaVuSans-103"/>
       <use x="640.056641" xlink:href="#DejaVuSans-101"/>
       <use x="701.580078" xlink:href="#DejaVuSans-110"/>
      </g>
     </g>
    </g>
    <g id="xtick_6">
     <g id="line2d_6">
      <g>
       <use style="stroke:#000000;stroke-width:0.8;" x="303.186965" xlink:href="#m43e4623bea" y="494.815099"/>
      </g>
     </g>
     <g id="text_6">
      <!-- Klimastiftelsen -->
      <defs>
       <path d="M 9.8125 72.90625 
L 19.671875 72.90625 
L 19.671875 42.09375 
L 52.390625 72.90625 
L 65.09375 72.90625 
L 28.90625 38.921875 
L 67.671875 0 
L 54.6875 0 
L 19.671875 35.109375 
L 19.671875 0 
L 9.8125 0 
z
" id="DejaVuSans-75"/>
       <path d="M 9.421875 75.984375 
L 18.40625 75.984375 
L 18.40625 0 
L 9.421875 0 
z
" id="DejaVuSans-108"/>
       <path d="M 52 44.1875 
Q 55.375 50.25 60.0625 53.125 
Q 64.75 56 71.09375 56 
Q 79.640625 56 84.28125 50.015625 
Q 88.921875 44.046875 88.921875 33.015625 
L 88.921875 0 
L 79.890625 0 
L 79.890625 32.71875 
Q 79.890625 40.578125 77.09375 44.375 
Q 74.3125 48.1875 68.609375 48.1875 
Q 61.625 48.1875 57.5625 43.546875 
Q 53.515625 38.921875 53.515625 30.90625 
L 53.515625 0 
L 44.484375 0 
L 44.484375 32.71875 
Q 44.484375 40.625 41.703125 44.40625 
Q 38.921875 48.1875 33.109375 48.1875 
Q 26.21875 48.1875 22.15625 43.53125 
Q 18.109375 38.875 18.109375 30.90625 
L 18.109375 0 
L 9.078125 0 
L 9.078125 54.6875 
L 18.109375 54.6875 
L 18.109375 46.1875 
Q 21.1875 51.21875 25.484375 53.609375 
Q 29.78125 56 35.6875 56 
Q 41.65625 56 45.828125 52.96875 
Q 50 49.953125 52 44.1875 
z
" id="DejaVuSans-109"/>
      </defs>
      <g transform="translate(278.988998 559.486286)rotate(-45)scale(0.1 -0.1)">
       <use xlink:href="#DejaVuSans-75"/>
       <use x="65.576172" xlink:href="#DejaVuSans-108"/>
       <use x="93.359375" xlink:href="#DejaVuSans-105"/>
       <use x="121.142578" xlink:href="#DejaVuSans-109"/>
       <use x="218.554688" xlink:href="#DejaVuSans-97"/>
       <use x="279.833984" xlink:href="#DejaVuSans-115"/>
       <use x="331.933594" xlink:href="#DejaVuSans-116"/>
       <use x="371.142578" xlink:href="#DejaVuSans-105"/>
       <use x="398.925781" xlink:href="#DejaVuSans-102"/>
       <use x="434.115234" xlink:href="#DejaVuSans-116"/>
       <use x="473.324219" xlink:href="#DejaVuSans-101"/>
       <use x="534.847656" xlink:href="#DejaVuSans-108"/>
       <use x="562.630859" xlink:href="#DejaVuSans-115"/>
       <use x="614.730469" xlink:href="#DejaVuSans-101"/>
       <use x="676.253906" xlink:href="#DejaVuSans-110"/>
      </g>
     </g>
    </g>
    <g id="xtick_7">
     <g id="line2d_7">
      <g>
       <use style="stroke:#000000;stroke-width:0.8;" x="343.313483" xlink:href="#m43e4623bea" y="494.815099"/>
      </g>
     </g>
     <g id="text_7">
      <!-- GreenpeaceNorge -->
      <defs>
       <path d="M 59.515625 10.40625 
L 59.515625 29.984375 
L 43.40625 29.984375 
L 43.40625 38.09375 
L 69.28125 38.09375 
L 69.28125 6.78125 
Q 63.578125 2.734375 56.6875 0.65625 
Q 49.8125 -1.421875 42 -1.421875 
Q 24.90625 -1.421875 15.25 8.5625 
Q 5.609375 18.5625 5.609375 36.375 
Q 5.609375 54.25 15.25 64.234375 
Q 24.90625 74.21875 42 74.21875 
Q 49.125 74.21875 55.546875 72.453125 
Q 61.96875 70.703125 67.390625 67.28125 
L 67.390625 56.78125 
Q 61.921875 61.421875 55.765625 63.765625 
Q 49.609375 66.109375 42.828125 66.109375 
Q 29.4375 66.109375 22.71875 58.640625 
Q 16.015625 51.171875 16.015625 36.375 
Q 16.015625 21.625 22.71875 14.15625 
Q 29.4375 6.6875 42.828125 6.6875 
Q 48.046875 6.6875 52.140625 7.59375 
Q 56.25 8.5 59.515625 10.40625 
z
" id="DejaVuSans-71"/>
       <path d="M 18.109375 8.203125 
L 18.109375 -20.796875 
L 9.078125 -20.796875 
L 9.078125 54.6875 
L 18.109375 54.6875 
L 18.109375 46.390625 
Q 20.953125 51.265625 25.265625 53.625 
Q 29.59375 56 35.59375 56 
Q 45.5625 56 51.78125 48.09375 
Q 58.015625 40.1875 58.015625 27.296875 
Q 58.015625 14.40625 51.78125 6.484375 
Q 45.5625 -1.421875 35.59375 -1.421875 
Q 29.59375 -1.421875 25.265625 0.953125 
Q 20.953125 3.328125 18.109375 8.203125 
z
M 48.6875 27.296875 
Q 48.6875 37.203125 44.609375 42.84375 
Q 40.53125 48.484375 33.40625 48.484375 
Q 26.265625 48.484375 22.1875 42.84375 
Q 18.109375 37.203125 18.109375 27.296875 
Q 18.109375 17.390625 22.1875 11.75 
Q 26.265625 6.109375 33.40625 6.109375 
Q 40.53125 6.109375 44.609375 11.75 
Q 48.6875 17.390625 48.6875 27.296875 
z
" id="DejaVuSans-112"/>
       <path d="M 48.78125 52.59375 
L 48.78125 44.1875 
Q 44.96875 46.296875 41.140625 47.34375 
Q 37.3125 48.390625 33.40625 48.390625 
Q 24.65625 48.390625 19.8125 42.84375 
Q 14.984375 37.3125 14.984375 27.296875 
Q 14.984375 17.28125 19.8125 11.734375 
Q 24.65625 6.203125 33.40625 6.203125 
Q 37.3125 6.203125 41.140625 7.25 
Q 44.96875 8.296875 48.78125 10.40625 
L 48.78125 2.09375 
Q 45.015625 0.34375 40.984375 -0.53125 
Q 36.96875 -1.421875 32.421875 -1.421875 
Q 20.0625 -1.421875 12.78125 6.34375 
Q 5.515625 14.109375 5.515625 27.296875 
Q 5.515625 40.671875 12.859375 48.328125 
Q 20.21875 56 33.015625 56 
Q 37.15625 56 41.109375 55.140625 
Q 45.0625 54.296875 48.78125 52.59375 
z
" id="DejaVuSans-99"/>
      </defs>
      <g transform="translate(313.094059 571.529199)rotate(-45)scale(0.1 -0.1)">
       <use xlink:href="#DejaVuSans-71"/>
       <use x="77.490234" xlink:href="#DejaVuSans-114"/>
       <use x="118.572266" xlink:href="#DejaVuSans-101"/>
       <use x="180.095703" xlink:href="#DejaVuSans-101"/>
       <use x="241.619141" xlink:href="#DejaVuSans-110"/>
       <use x="304.998047" xlink:href="#DejaVuSans-112"/>
       <use x="368.474609" xlink:href="#DejaVuSans-101"/>
       <use x="429.998047" xlink:href="#DejaVuSans-97"/>
       <use x="491.277344" xlink:href="#DejaVuSans-99"/>
       <use x="546.257812" xlink:href="#DejaVuSans-101"/>
       <use x="607.78125" xlink:href="#DejaVuSans-78"/>
       <use x="682.585938" xlink:href="#DejaVuSans-111"/>
       <use x="743.767578" xlink:href="#DejaVuSans-114"/>
       <use x="784.865234" xlink:href="#DejaVuSans-103"/>
       <use x="848.341797" xlink:href="#DejaVuSans-101"/>
      </g>
     </g>
    </g>
    <g id="xtick_8">
     <g id="line2d_8">
      <g>
       <use style="stroke:#000000;stroke-width:0.8;" x="383.44" xlink:href="#m43e4623bea" y="494.815099"/>
      </g>
     </g>
     <g id="text_8">
      <!-- ForumNorway -->
      <defs>
       <path d="M 4.203125 54.6875 
L 13.1875 54.6875 
L 24.421875 12.015625 
L 35.59375 54.6875 
L 46.1875 54.6875 
L 57.421875 12.015625 
L 68.609375 54.6875 
L 77.59375 54.6875 
L 63.28125 0 
L 52.6875 0 
L 40.921875 44.828125 
L 29.109375 0 
L 18.5 0 
z
" id="DejaVuSans-119"/>
      </defs>
      <g transform="translate(360.64575 556.678852)rotate(-45)scale(0.1 -0.1)">
       <use xlink:href="#DejaVuSans-70"/>
       <use x="57.472656" xlink:href="#DejaVuSans-111"/>
       <use x="118.654297" xlink:href="#DejaVuSans-114"/>
       <use x="159.767578" xlink:href="#DejaVuSans-117"/>
       <use x="223.146484" xlink:href="#DejaVuSans-109"/>
       <use x="320.558594" xlink:href="#DejaVuSans-78"/>
       <use x="395.363281" xlink:href="#DejaVuSans-111"/>
       <use x="456.544922" xlink:href="#DejaVuSans-114"/>
       <use x="497.658203" xlink:href="#DejaVuSans-119"/>
       <use x="579.445312" xlink:href="#DejaVuSans-97"/>
       <use x="640.724609" xlink:href="#DejaVuSans-121"/>
      </g>
     </g>
    </g>
    <g id="xtick_9">
     <g id="line2d_9">
      <g>
       <use style="stroke:#000000;stroke-width:0.8;" x="423.566518" xlink:href="#m43e4623bea" y="494.815099"/>
      </g>
     </g>
     <g id="text_9">
      <!-- Elbilforeningen -->
      <defs>
       <path d="M 9.8125 72.90625 
L 55.90625 72.90625 
L 55.90625 64.59375 
L 19.671875 64.59375 
L 19.671875 43.015625 
L 54.390625 43.015625 
L 54.390625 34.71875 
L 19.671875 34.71875 
L 19.671875 8.296875 
L 56.78125 8.296875 
L 56.78125 0 
L 9.8125 0 
z
" id="DejaVuSans-69"/>
       <path d="M 48.6875 27.296875 
Q 48.6875 37.203125 44.609375 42.84375 
Q 40.53125 48.484375 33.40625 48.484375 
Q 26.265625 48.484375 22.1875 42.84375 
Q 18.109375 37.203125 18.109375 27.296875 
Q 18.109375 17.390625 22.1875 11.75 
Q 26.265625 6.109375 33.40625 6.109375 
Q 40.53125 6.109375 44.609375 11.75 
Q 48.6875 17.390625 48.6875 27.296875 
z
M 18.109375 46.390625 
Q 20.953125 51.265625 25.265625 53.625 
Q 29.59375 56 35.59375 56 
Q 45.5625 56 51.78125 48.09375 
Q 58.015625 40.1875 58.015625 27.296875 
Q 58.015625 14.40625 51.78125 6.484375 
Q 45.5625 -1.421875 35.59375 -1.421875 
Q 29.59375 -1.421875 25.265625 0.953125 
Q 20.953125 3.328125 18.109375 8.203125 
L 18.109375 0 
L 9.078125 0 
L 9.078125 75.984375 
L 18.109375 75.984375 
z
" id="DejaVuSans-98"/>
      </defs>
      <g transform="translate(398.932686 560.358017)rotate(-45)scale(0.1 -0.1)">
       <use xlink:href="#DejaVuSans-69"/>
       <use x="63.183594" xlink:href="#DejaVuSans-108"/>
       <use x="90.966797" xlink:href="#DejaVuSans-98"/>
       <use x="154.443359" xlink:href="#DejaVuSans-105"/>
       <use x="182.226562" xlink:href="#DejaVuSans-108"/>
       <use x="210.009766" xlink:href="#DejaVuSans-102"/>
       <use x="245.214844" xlink:href="#DejaVuSans-111"/>
       <use x="306.396484" xlink:href="#DejaVuSans-114"/>
       <use x="347.478516" xlink:href="#DejaVuSans-101"/>
       <use x="409.001953" xlink:href="#DejaVuSans-110"/>
       <use x="472.380859" xlink:href="#DejaVuSans-105"/>
       <use x="500.164062" xlink:href="#DejaVuSans-110"/>
       <use x="563.542969" xlink:href="#DejaVuSans-103"/>
       <use x="627.019531" xlink:href="#DejaVuSans-101"/>
       <use x="688.542969" xlink:href="#DejaVuSans-110"/>
      </g>
     </g>
    </g>
    <g id="xtick_10">
     <g id="line2d_10">
      <g>
       <use style="stroke:#000000;stroke-width:0.8;" x="463.693036" xlink:href="#m43e4623bea" y="494.815099"/>
      </g>
     </g>
     <g id="text_10">
      <!-- AttacNorge -->
      <defs>
       <path d="M 34.1875 63.1875 
L 20.796875 26.90625 
L 47.609375 26.90625 
z
M 28.609375 72.90625 
L 39.796875 72.90625 
L 67.578125 0 
L 57.328125 0 
L 50.6875 18.703125 
L 17.828125 18.703125 
L 11.1875 0 
L 0.78125 0 
z
" id="DejaVuSans-65"/>
      </defs>
      <g transform="translate(445.662365 547.151693)rotate(-45)scale(0.1 -0.1)">
       <use xlink:href="#DejaVuSans-65"/>
       <use x="68.392578" xlink:href="#DejaVuSans-116"/>
       <use x="107.601562" xlink:href="#DejaVuSans-116"/>
       <use x="146.810547" xlink:href="#DejaVuSans-97"/>
       <use x="208.089844" xlink:href="#DejaVuSans-99"/>
       <use x="263.070312" xlink:href="#DejaVuSans-78"/>
       <use x="337.875" xlink:href="#DejaVuSans-111"/>
       <use x="399.056641" xlink:href="#DejaVuSans-114"/>
       <use x="440.154297" xlink:href="#DejaVuSans-103"/>
       <use x="503.630859" xlink:href="#DejaVuSans-101"/>
      </g>
     </g>
    </g>
    <g id="xtick_11">
     <g id="line2d_11">
      <g>
       <use style="stroke:#000000;stroke-width:0.8;" x="503.819554" xlink:href="#m43e4623bea" y="494.815099"/>
      </g>
     </g>
     <g id="text_11">
      <!-- NaturogUngdom -->
      <defs>
       <path d="M 8.6875 72.90625 
L 18.609375 72.90625 
L 18.609375 28.609375 
Q 18.609375 16.890625 22.84375 11.734375 
Q 27.09375 6.59375 36.625 6.59375 
Q 46.09375 6.59375 50.34375 11.734375 
Q 54.59375 16.890625 54.59375 28.609375 
L 54.59375 72.90625 
L 64.5 72.90625 
L 64.5 27.390625 
Q 64.5 13.140625 57.4375 5.859375 
Q 50.390625 -1.421875 36.625 -1.421875 
Q 22.796875 -1.421875 15.734375 5.859375 
Q 8.6875 13.140625 8.6875 27.390625 
z
" id="DejaVuSans-85"/>
      </defs>
      <g transform="translate(476.547881 565.633696)rotate(-45)scale(0.1 -0.1)">
       <use xlink:href="#DejaVuSans-78"/>
       <use x="74.804688" xlink:href="#DejaVuSans-97"/>
       <use x="136.083984" xlink:href="#DejaVuSans-116"/>
       <use x="175.292969" xlink:href="#DejaVuSans-117"/>
       <use x="238.671875" xlink:href="#DejaVuSans-114"/>
       <use x="279.753906" xlink:href="#DejaVuSans-111"/>
       <use x="340.935547" xlink:href="#DejaVuSans-103"/>
       <use x="404.412109" xlink:href="#DejaVuSans-85"/>
       <use x="477.605469" xlink:href="#DejaVuSans-110"/>
       <use x="540.984375" xlink:href="#DejaVuSans-103"/>
       <use x="604.460938" xlink:href="#DejaVuSans-100"/>
       <use x="667.9375" xlink:href="#DejaVuSans-111"/>
       <use x="729.119141" xlink:href="#DejaVuSans-109"/>
      </g>
     </g>
    </g>
    <g id="xtick_12">
     <g id="line2d_12">
      <g>
       <use style="stroke:#000000;stroke-width:0.8;" x="543.946071" xlink:href="#m43e4623bea" y="494.815099"/>
      </g>
     </g>
     <g id="text_12">
      <!-- zeronorge -->
      <defs>
       <path d="M 5.515625 54.6875 
L 48.1875 54.6875 
L 48.1875 46.484375 
L 14.40625 7.171875 
L 48.1875 7.171875 
L 48.1875 0 
L 4.296875 0 
L 4.296875 8.203125 
L 38.09375 47.515625 
L 5.515625 47.515625 
z
" id="DejaVuSans-122"/>
      </defs>
      <g transform="translate(527.973745 543.035005)rotate(-45)scale(0.1 -0.1)">
       <use xlink:href="#DejaVuSans-122"/>
       <use x="52.490234" xlink:href="#DejaVuSans-101"/>
       <use x="114.013672" xlink:href="#DejaVuSans-114"/>
       <use x="155.095703" xlink:href="#DejaVuSans-111"/>
       <use x="216.277344" xlink:href="#DejaVuSans-110"/>
       <use x="279.65625" xlink:href="#DejaVuSans-111"/>
       <use x="340.837891" xlink:href="#DejaVuSans-114"/>
       <use x="381.935547" xlink:href="#DejaVuSans-103"/>
       <use x="445.412109" xlink:href="#DejaVuSans-101"/>
      </g>
     </g>
    </g>
    <g id="xtick_13">
     <g id="line2d_13">
      <g>
       <use style="stroke:#000000;stroke-width:0.8;" x="584.072589" xlink:href="#m43e4623bea" y="494.815099"/>
      </g>
     </g>
     <g id="text_13">
      <!-- SABIMAnorge -->
      <defs>
       <path d="M 19.671875 34.8125 
L 19.671875 8.109375 
L 35.5 8.109375 
Q 43.453125 8.109375 47.28125 11.40625 
Q 51.125 14.703125 51.125 21.484375 
Q 51.125 28.328125 47.28125 31.5625 
Q 43.453125 34.8125 35.5 34.8125 
z
M 19.671875 64.796875 
L 19.671875 42.828125 
L 34.28125 42.828125 
Q 41.5 42.828125 45.03125 45.53125 
Q 48.578125 48.25 48.578125 53.8125 
Q 48.578125 59.328125 45.03125 62.0625 
Q 41.5 64.796875 34.28125 64.796875 
z
M 9.8125 72.90625 
L 35.015625 72.90625 
Q 46.296875 72.90625 52.390625 68.21875 
Q 58.5 63.53125 58.5 54.890625 
Q 58.5 48.1875 55.375 44.234375 
Q 52.25 40.28125 46.1875 39.3125 
Q 53.46875 37.75 57.5 32.78125 
Q 61.53125 27.828125 61.53125 20.40625 
Q 61.53125 10.640625 54.890625 5.3125 
Q 48.25 0 35.984375 0 
L 9.8125 0 
z
" id="DejaVuSans-66"/>
       <path d="M 9.8125 72.90625 
L 19.671875 72.90625 
L 19.671875 0 
L 9.8125 0 
z
" id="DejaVuSans-73"/>
       <path d="M 9.8125 72.90625 
L 24.515625 72.90625 
L 43.109375 23.296875 
L 61.8125 72.90625 
L 76.515625 72.90625 
L 76.515625 0 
L 66.890625 0 
L 66.890625 64.015625 
L 48.09375 14.015625 
L 38.1875 14.015625 
L 19.390625 64.015625 
L 19.390625 0 
L 9.8125 0 
z
" id="DejaVuSans-77"/>
      </defs>
      <g transform="translate(562.14565 554.94423)rotate(-45)scale(0.1 -0.1)">
       <use xlink:href="#DejaVuSans-83"/>
       <use x="63.492188" xlink:href="#DejaVuSans-65"/>
       <use x="131.900391" xlink:href="#DejaVuSans-66"/>
       <use x="200.503906" xlink:href="#DejaVuSans-73"/>
       <use x="229.996094" xlink:href="#DejaVuSans-77"/>
       <use x="316.275391" xlink:href="#DejaVuSans-65"/>
       <use x="384.683594" xlink:href="#DejaVuSans-110"/>
       <use x="448.0625" xlink:href="#DejaVuSans-111"/>
       <use x="509.244141" xlink:href="#DejaVuSans-114"/>
       <use x="550.341797" xlink:href="#DejaVuSans-103"/>
       <use x="613.818359" xlink:href="#DejaVuSans-101"/>
      </g>
     </g>
    </g>
    <g id="xtick_14">
     <g id="line2d_14">
      <g>
       <use style="stroke:#000000;stroke-width:0.8;" x="624.199107" xlink:href="#m43e4623bea" y="494.815099"/>
      </g>
     </g>
     <g id="text_14">
      <!-- norskfriluft -->
      <g transform="translate(606.870571 545.747423)rotate(-45)scale(0.1 -0.1)">
       <use xlink:href="#DejaVuSans-110"/>
       <use x="63.378906" xlink:href="#DejaVuSans-111"/>
       <use x="124.560547" xlink:href="#DejaVuSans-114"/>
       <use x="165.673828" xlink:href="#DejaVuSans-115"/>
       <use x="217.773438" xlink:href="#DejaVuSans-107"/>
       <use x="275.683594" xlink:href="#DejaVuSans-102"/>
       <use x="310.888672" xlink:href="#DejaVuSans-114"/>
       <use x="352.001953" xlink:href="#DejaVuSans-105"/>
       <use x="379.785156" xlink:href="#DejaVuSans-108"/>
       <use x="407.568359" xlink:href="#DejaVuSans-117"/>
       <use x="470.947266" xlink:href="#DejaVuSans-102"/>
       <use x="506.136719" xlink:href="#DejaVuSans-116"/>
      </g>
     </g>
    </g>
    <g id="xtick_15">
     <g id="line2d_15">
      <g>
       <use style="stroke:#000000;stroke-width:0.8;" x="664.325625" xlink:href="#m43e4623bea" y="494.815099"/>
      </g>
     </g>
     <g id="text_15">
      <!-- NMF_tweet -->
      <g transform="translate(646.568958 546.013693)rotate(-45)scale(0.1 -0.1)">
       <use xlink:href="#DejaVuSans-78"/>
       <use x="74.804688" xlink:href="#DejaVuSans-77"/>
       <use x="161.083984" xlink:href="#DejaVuSans-70"/>
       <use x="218.603516" xlink:href="#DejaVuSans-95"/>
       <use x="268.603516" xlink:href="#DejaVuSans-116"/>
       <use x="307.8125" xlink:href="#DejaVuSans-119"/>
       <use x="389.599609" xlink:href="#DejaVuSans-101"/>
       <use x="451.123047" xlink:href="#DejaVuSans-101"/>
       <use x="512.646484" xlink:href="#DejaVuSans-116"/>
      </g>
     </g>
    </g>
    <g id="xtick_16">
     <g id="line2d_16">
      <g>
       <use style="stroke:#000000;stroke-width:0.8;" x="704.452142" xlink:href="#m43e4623bea" y="494.815099"/>
      </g>
     </g>
     <g id="text_16">
      <!-- regnskogfondet -->
      <g transform="translate(678.540546 562.913545)rotate(-45)scale(0.1 -0.1)">
       <use xlink:href="#DejaVuSans-114"/>
       <use x="41.082031" xlink:href="#DejaVuSans-101"/>
       <use x="102.605469" xlink:href="#DejaVuSans-103"/>
       <use x="166.082031" xlink:href="#DejaVuSans-110"/>
       <use x="229.460938" xlink:href="#DejaVuSans-115"/>
       <use x="281.560547" xlink:href="#DejaVuSans-107"/>
       <use x="339.423828" xlink:href="#DejaVuSans-111"/>
       <use x="400.605469" xlink:href="#DejaVuSans-103"/>
       <use x="464.082031" xlink:href="#DejaVuSans-102"/>
       <use x="499.287109" xlink:href="#DejaVuSans-111"/>
       <use x="560.46875" xlink:href="#DejaVuSans-110"/>
       <use x="623.847656" xlink:href="#DejaVuSans-100"/>
       <use x="687.324219" xlink:href="#DejaVuSans-101"/>
       <use x="748.847656" xlink:href="#DejaVuSans-116"/>
      </g>
     </g>
    </g>
    <g id="xtick_17">
     <g id="line2d_17">
      <g>
       <use style="stroke:#000000;stroke-width:0.8;" x="744.57866" xlink:href="#m43e4623bea" y="494.815099"/>
      </g>
     </g>
     <g id="text_17">
      <!-- CICERO_klima -->
      <defs>
       <path d="M 44.390625 34.1875 
Q 47.5625 33.109375 50.5625 29.59375 
Q 53.5625 26.078125 56.59375 19.921875 
L 66.609375 0 
L 56 0 
L 46.6875 18.703125 
Q 43.0625 26.03125 39.671875 28.421875 
Q 36.28125 30.8125 30.421875 30.8125 
L 19.671875 30.8125 
L 19.671875 0 
L 9.8125 0 
L 9.8125 72.90625 
L 32.078125 72.90625 
Q 44.578125 72.90625 50.734375 67.671875 
Q 56.890625 62.453125 56.890625 51.90625 
Q 56.890625 45.015625 53.6875 40.46875 
Q 50.484375 35.9375 44.390625 34.1875 
z
M 19.671875 64.796875 
L 19.671875 38.921875 
L 32.078125 38.921875 
Q 39.203125 38.921875 42.84375 42.21875 
Q 46.484375 45.515625 46.484375 51.90625 
Q 46.484375 58.296875 42.84375 61.546875 
Q 39.203125 64.796875 32.078125 64.796875 
z
" id="DejaVuSans-82"/>
       <path d="M 39.40625 66.21875 
Q 28.65625 66.21875 22.328125 58.203125 
Q 16.015625 50.203125 16.015625 36.375 
Q 16.015625 22.609375 22.328125 14.59375 
Q 28.65625 6.59375 39.40625 6.59375 
Q 50.140625 6.59375 56.421875 14.59375 
Q 62.703125 22.609375 62.703125 36.375 
Q 62.703125 50.203125 56.421875 58.203125 
Q 50.140625 66.21875 39.40625 66.21875 
z
M 39.40625 74.21875 
Q 54.734375 74.21875 63.90625 63.9375 
Q 73.09375 53.65625 73.09375 36.375 
Q 73.09375 19.140625 63.90625 8.859375 
Q 54.734375 -1.421875 39.40625 -1.421875 
Q 24.03125 -1.421875 14.8125 8.828125 
Q 5.609375 19.09375 5.609375 36.375 
Q 5.609375 53.65625 14.8125 63.9375 
Q 24.03125 74.21875 39.40625 74.21875 
z
" id="DejaVuSans-79"/>
      </defs>
      <g transform="translate(721.587193 556.876621)rotate(-45)scale(0.1 -0.1)">
       <use xlink:href="#DejaVuSans-67"/>
       <use x="69.824219" xlink:href="#DejaVuSans-73"/>
       <use x="99.316406" xlink:href="#DejaVuSans-67"/>
       <use x="169.140625" xlink:href="#DejaVuSans-69"/>
       <use x="232.324219" xlink:href="#DejaVuSans-82"/>
       <use x="301.806641" xlink:href="#DejaVuSans-79"/>
       <use x="380.517578" xlink:href="#DejaVuSans-95"/>
       <use x="430.517578" xlink:href="#DejaVuSans-107"/>
       <use x="488.427734" xlink:href="#DejaVuSans-108"/>
       <use x="516.210938" xlink:href="#DejaVuSans-105"/>
       <use x="543.994141" xlink:href="#DejaVuSans-109"/>
       <use x="641.40625" xlink:href="#DejaVuSans-97"/>
      </g>
     </g>
    </g>
    <g id="xtick_18">
     <g id="line2d_18">
      <g>
       <use style="stroke:#000000;stroke-width:0.8;" x="784.705178" xlink:href="#m43e4623bea" y="494.815099"/>
      </g>
     </g>
     <g id="text_18">
      <!-- Syklistenes -->
      <g transform="translate(766.646333 547.20804)rotate(-45)scale(0.1 -0.1)">
       <use xlink:href="#DejaVuSans-83"/>
       <use x="63.476562" xlink:href="#DejaVuSans-121"/>
       <use x="122.65625" xlink:href="#DejaVuSans-107"/>
       <use x="180.566406" xlink:href="#DejaVuSans-108"/>
       <use x="208.349609" xlink:href="#DejaVuSans-105"/>
       <use x="236.132812" xlink:href="#DejaVuSans-115"/>
       <use x="288.232422" xlink:href="#DejaVuSans-116"/>
       <use x="327.441406" xlink:href="#DejaVuSans-101"/>
       <use x="388.964844" xlink:href="#DejaVuSans-110"/>
       <use x="452.34375" xlink:href="#DejaVuSans-101"/>
       <use x="513.867188" xlink:href="#DejaVuSans-115"/>
      </g>
     </g>
    </g>
    <g id="xtick_19">
     <g id="line2d_19">
      <g>
       <use style="stroke:#000000;stroke-width:0.8;" x="824.831695" xlink:href="#m43e4623bea" y="494.815099"/>
      </g>
     </g>
     <g id="text_19">
      <!-- FIVH -->
      <defs>
       <path d="M 28.609375 0 
L 0.78125 72.90625 
L 11.078125 72.90625 
L 34.1875 11.53125 
L 57.328125 72.90625 
L 67.578125 72.90625 
L 39.796875 0 
z
" id="DejaVuSans-86"/>
       <path d="M 9.8125 72.90625 
L 19.671875 72.90625 
L 19.671875 43.015625 
L 55.515625 43.015625 
L 55.515625 72.90625 
L 65.375 72.90625 
L 65.375 0 
L 55.515625 0 
L 55.515625 34.71875 
L 19.671875 34.71875 
L 19.671875 0 
L 9.8125 0 
z
" id="DejaVuSans-72"/>
      </defs>
      <g transform="translate(818.629043 523.495656)rotate(-45)scale(0.1 -0.1)">
       <use xlink:href="#DejaVuSans-70"/>
       <use x="57.519531" xlink:href="#DejaVuSans-73"/>
       <use x="87.011719" xlink:href="#DejaVuSans-86"/>
       <use x="155.419922" xlink:href="#DejaVuSans-72"/>
      </g>
     </g>
    </g>
    <g id="xtick_20">
     <g id="line2d_20">
      <g>
       <use style="stroke:#000000;stroke-width:0.8;" x="864.958213" xlink:href="#m43e4623bea" y="494.815099"/>
      </g>
     </g>
     <g id="text_20">
      <!-- tankesmien -->
      <g transform="translate(846.211045 548.584689)rotate(-45)scale(0.1 -0.1)">
       <use xlink:href="#DejaVuSans-116"/>
       <use x="39.208984" xlink:href="#DejaVuSans-97"/>
       <use x="100.488281" xlink:href="#DejaVuSans-110"/>
       <use x="163.867188" xlink:href="#DejaVuSans-107"/>
       <use x="221.730469" xlink:href="#DejaVuSans-101"/>
       <use x="283.253906" xlink:href="#DejaVuSans-115"/>
       <use x="335.353516" xlink:href="#DejaVuSans-109"/>
       <use x="432.765625" xlink:href="#DejaVuSans-105"/>
       <use x="460.548828" xlink:href="#DejaVuSans-101"/>
       <use x="522.072266" xlink:href="#DejaVuSans-110"/>
      </g>
     </g>
    </g>
    <g id="xtick_21">
     <g id="line2d_21">
      <g>
       <use style="stroke:#000000;stroke-width:0.8;" x="905.084731" xlink:href="#m43e4623bea" y="494.815099"/>
      </g>
     </g>
     <g id="text_21">
      <!-- Bellona_no -->
      <g transform="translate(887.629689 545.80377)rotate(-45)scale(0.1 -0.1)">
       <use xlink:href="#DejaVuSans-66"/>
       <use x="68.603516" xlink:href="#DejaVuSans-101"/>
       <use x="130.126953" xlink:href="#DejaVuSans-108"/>
       <use x="157.910156" xlink:href="#DejaVuSans-108"/>
       <use x="185.693359" xlink:href="#DejaVuSans-111"/>
       <use x="246.875" xlink:href="#DejaVuSans-110"/>
       <use x="310.253906" xlink:href="#DejaVuSans-97"/>
       <use x="371.533203" xlink:href="#DejaVuSans-95"/>
       <use x="421.533203" xlink:href="#DejaVuSans-110"/>
       <use x="484.912109" xlink:href="#DejaVuSans-111"/>
      </g>
     </g>
    </g>
    <g id="xtick_22">
     <g id="line2d_22">
      <g>
       <use style="stroke:#000000;stroke-width:0.8;" x="945.211249" xlink:href="#m43e4623bea" y="494.815099"/>
      </g>
     </g>
     <g id="text_22">
      <!-- FNFHordaland -->
      <g transform="translate(922.130289 557.252271)rotate(-45)scale(0.1 -0.1)">
       <use xlink:href="#DejaVuSans-70"/>
       <use x="57.519531" xlink:href="#DejaVuSans-78"/>
       <use x="132.324219" xlink:href="#DejaVuSans-70"/>
       <use x="189.84375" xlink:href="#DejaVuSans-72"/>
       <use x="265.039062" xlink:href="#DejaVuSans-111"/>
       <use x="326.220703" xlink:href="#DejaVuSans-114"/>
       <use x="367.318359" xlink:href="#DejaVuSans-100"/>
       <use x="430.794922" xlink:href="#DejaVuSans-97"/>
       <use x="492.074219" xlink:href="#DejaVuSans-108"/>
       <use x="519.857422" xlink:href="#DejaVuSans-97"/>
       <use x="581.136719" xlink:href="#DejaVuSans-110"/>
       <use x="644.515625" xlink:href="#DejaVuSans-100"/>
      </g>
     </g>
    </g>
   </g>
   <g id="matplotlib.axis_2">
    <g id="ytick_1">
     <g id="line2d_23">
      <defs>
       <path d="M 0 0 
L -3.5 0 
" id="m0241fb8874" style="stroke:#000000;stroke-width:0.8;"/>
      </defs>
      <g>
       <use style="stroke:#000000;stroke-width:0.8;" x="42.765865" xlink:href="#m0241fb8874" y="494.815099"/>
      </g>
     </g>
     <g id="text_23">
      <!-- 0 -->
      <defs>
       <path d="M 31.78125 66.40625 
Q 24.171875 66.40625 20.328125 58.90625 
Q 16.5 51.421875 16.5 36.375 
Q 16.5 21.390625 20.328125 13.890625 
Q 24.171875 6.390625 31.78125 6.390625 
Q 39.453125 6.390625 43.28125 13.890625 
Q 47.125 21.390625 47.125 36.375 
Q 47.125 51.421875 43.28125 58.90625 
Q 39.453125 66.40625 31.78125 66.40625 
z
M 31.78125 74.21875 
Q 44.046875 74.21875 50.515625 64.515625 
Q 56.984375 54.828125 56.984375 36.375 
Q 56.984375 17.96875 50.515625 8.265625 
Q 44.046875 -1.421875 31.78125 -1.421875 
Q 19.53125 -1.421875 13.0625 8.265625 
Q 6.59375 17.96875 6.59375 36.375 
Q 6.59375 54.828125 13.0625 64.515625 
Q 19.53125 74.21875 31.78125 74.21875 
z
" id="DejaVuSans-48"/>
      </defs>
      <g transform="translate(29.403365 498.614318)scale(0.1 -0.1)">
       <use xlink:href="#DejaVuSans-48"/>
      </g>
     </g>
    </g>
    <g id="ytick_2">
     <g id="line2d_24">
      <g>
       <use style="stroke:#000000;stroke-width:0.8;" x="42.765865" xlink:href="#m0241fb8874" y="399.89369"/>
      </g>
     </g>
     <g id="text_24">
      <!-- 100 -->
      <defs>
       <path d="M 12.40625 8.296875 
L 28.515625 8.296875 
L 28.515625 63.921875 
L 10.984375 60.40625 
L 10.984375 69.390625 
L 28.421875 72.90625 
L 38.28125 72.90625 
L 38.28125 8.296875 
L 54.390625 8.296875 
L 54.390625 0 
L 12.40625 0 
z
" id="DejaVuSans-49"/>
      </defs>
      <g transform="translate(16.678365 403.692909)scale(0.1 -0.1)">
       <use xlink:href="#DejaVuSans-49"/>
       <use x="63.623047" xlink:href="#DejaVuSans-48"/>
       <use x="127.246094" xlink:href="#DejaVuSans-48"/>
      </g>
     </g>
    </g>
    <g id="ytick_3">
     <g id="line2d_25">
      <g>
       <use style="stroke:#000000;stroke-width:0.8;" x="42.765865" xlink:href="#m0241fb8874" y="304.972281"/>
      </g>
     </g>
     <g id="text_25">
      <!-- 200 -->
      <defs>
       <path d="M 19.1875 8.296875 
L 53.609375 8.296875 
L 53.609375 0 
L 7.328125 0 
L 7.328125 8.296875 
Q 12.9375 14.109375 22.625 23.890625 
Q 32.328125 33.6875 34.8125 36.53125 
Q 39.546875 41.84375 41.421875 45.53125 
Q 43.3125 49.21875 43.3125 52.78125 
Q 43.3125 58.59375 39.234375 62.25 
Q 35.15625 65.921875 28.609375 65.921875 
Q 23.96875 65.921875 18.8125 64.3125 
Q 13.671875 62.703125 7.8125 59.421875 
L 7.8125 69.390625 
Q 13.765625 71.78125 18.9375 73 
Q 24.125 74.21875 28.421875 74.21875 
Q 39.75 74.21875 46.484375 68.546875 
Q 53.21875 62.890625 53.21875 53.421875 
Q 53.21875 48.921875 51.53125 44.890625 
Q 49.859375 40.875 45.40625 35.40625 
Q 44.1875 33.984375 37.640625 27.21875 
Q 31.109375 20.453125 19.1875 8.296875 
z
" id="DejaVuSans-50"/>
      </defs>
      <g transform="translate(16.678365 308.7715)scale(0.1 -0.1)">
       <use xlink:href="#DejaVuSans-50"/>
       <use x="63.623047" xlink:href="#DejaVuSans-48"/>
       <use x="127.246094" xlink:href="#DejaVuSans-48"/>
      </g>
     </g>
    </g>
    <g id="ytick_4">
     <g id="line2d_26">
      <g>
       <use style="stroke:#000000;stroke-width:0.8;" x="42.765865" xlink:href="#m0241fb8874" y="210.050872"/>
      </g>
     </g>
     <g id="text_26">
      <!-- 300 -->
      <defs>
       <path d="M 40.578125 39.3125 
Q 47.65625 37.796875 51.625 33 
Q 55.609375 28.21875 55.609375 21.1875 
Q 55.609375 10.40625 48.1875 4.484375 
Q 40.765625 -1.421875 27.09375 -1.421875 
Q 22.515625 -1.421875 17.65625 -0.515625 
Q 12.796875 0.390625 7.625 2.203125 
L 7.625 11.71875 
Q 11.71875 9.328125 16.59375 8.109375 
Q 21.484375 6.890625 26.8125 6.890625 
Q 36.078125 6.890625 40.9375 10.546875 
Q 45.796875 14.203125 45.796875 21.1875 
Q 45.796875 27.640625 41.28125 31.265625 
Q 36.765625 34.90625 28.71875 34.90625 
L 20.21875 34.90625 
L 20.21875 43.015625 
L 29.109375 43.015625 
Q 36.375 43.015625 40.234375 45.921875 
Q 44.09375 48.828125 44.09375 54.296875 
Q 44.09375 59.90625 40.109375 62.90625 
Q 36.140625 65.921875 28.71875 65.921875 
Q 24.65625 65.921875 20.015625 65.03125 
Q 15.375 64.15625 9.8125 62.3125 
L 9.8125 71.09375 
Q 15.4375 72.65625 20.34375 73.4375 
Q 25.25 74.21875 29.59375 74.21875 
Q 40.828125 74.21875 47.359375 69.109375 
Q 53.90625 64.015625 53.90625 55.328125 
Q 53.90625 49.265625 50.4375 45.09375 
Q 46.96875 40.921875 40.578125 39.3125 
z
" id="DejaVuSans-51"/>
      </defs>
      <g transform="translate(16.678365 213.850091)scale(0.1 -0.1)">
       <use xlink:href="#DejaVuSans-51"/>
       <use x="63.623047" xlink:href="#DejaVuSans-48"/>
       <use x="127.246094" xlink:href="#DejaVuSans-48"/>
      </g>
     </g>
    </g>
    <g id="ytick_5">
     <g id="line2d_27">
      <g>
       <use style="stroke:#000000;stroke-width:0.8;" x="42.765865" xlink:href="#m0241fb8874" y="115.129463"/>
      </g>
     </g>
     <g id="text_27">
      <!-- 400 -->
      <defs>
       <path d="M 37.796875 64.3125 
L 12.890625 25.390625 
L 37.796875 25.390625 
z
M 35.203125 72.90625 
L 47.609375 72.90625 
L 47.609375 25.390625 
L 58.015625 25.390625 
L 58.015625 17.1875 
L 47.609375 17.1875 
L 47.609375 0 
L 37.796875 0 
L 37.796875 17.1875 
L 4.890625 17.1875 
L 4.890625 26.703125 
z
" id="DejaVuSans-52"/>
      </defs>
      <g transform="translate(16.678365 118.928681)scale(0.1 -0.1)">
       <use xlink:href="#DejaVuSans-52"/>
       <use x="63.623047" xlink:href="#DejaVuSans-48"/>
       <use x="127.246094" xlink:href="#DejaVuSans-48"/>
      </g>
     </g>
    </g>
    <g id="text_28">
     <!-- Antal tweets -->
     <defs>
      <path id="DejaVuSans-32"/>
     </defs>
     <g transform="translate(10.598678 288.965092)rotate(-90)scale(0.1 -0.1)">
      <use xlink:href="#DejaVuSans-65"/>
      <use x="68.408203" xlink:href="#DejaVuSans-110"/>
      <use x="131.787109" xlink:href="#DejaVuSans-116"/>
      <use x="170.996094" xlink:href="#DejaVuSans-97"/>
      <use x="232.275391" xlink:href="#DejaVuSans-108"/>
      <use x="260.058594" xlink:href="#DejaVuSans-32"/>
      <use x="291.845703" xlink:href="#DejaVuSans-116"/>
      <use x="331.054688" xlink:href="#DejaVuSans-119"/>
      <use x="412.841797" xlink:href="#DejaVuSans-101"/>
      <use x="474.365234" xlink:href="#DejaVuSans-101"/>
      <use x="535.888672" xlink:href="#DejaVuSans-116"/>
      <use x="575.097656" xlink:href="#DejaVuSans-115"/>
     </g>
    </g>
   </g>
   <g id="patch_25">
    <path d="M 42.765865 494.815099 
L 42.765865 20.397896 
" style="fill:none;stroke:#000000;stroke-linecap:square;stroke-linejoin:miter;stroke-width:0.8;"/>
   </g>
   <g id="patch_26">
    <path d="M 1004.99976 494.815099 
L 1004.99976 20.397896 
" style="fill:none;stroke:#000000;stroke-linecap:square;stroke-linejoin:miter;stroke-width:0.8;"/>
   </g>
   <g id="patch_27">
    <path d="M 42.765865 494.815099 
L 1004.99976 494.815099 
" style="fill:none;stroke:#000000;stroke-linecap:square;stroke-linejoin:miter;stroke-width:0.8;"/>
   </g>
   <g id="patch_28">
    <path d="M 42.765865 20.397896 
L 1004.99976 20.397896 
" style="fill:none;stroke:#000000;stroke-linecap:square;stroke-linejoin:miter;stroke-width:0.8;"/>
   </g>
   <g id="text_29">
    <!-- Twitter-aktivitet per NGO, Norge -->
    <defs>
     <path d="M -0.296875 72.90625 
L 61.375 72.90625 
L 61.375 64.59375 
L 35.5 64.59375 
L 35.5 0 
L 25.59375 0 
L 25.59375 64.59375 
L -0.296875 64.59375 
z
" id="DejaVuSans-84"/>
     <path d="M 4.890625 31.390625 
L 31.203125 31.390625 
L 31.203125 23.390625 
L 4.890625 23.390625 
z
" id="DejaVuSans-45"/>
     <path d="M 11.71875 12.40625 
L 22.015625 12.40625 
L 22.015625 4 
L 14.015625 -11.625 
L 7.71875 -11.625 
L 11.71875 4 
z
" id="DejaVuSans-44"/>
    </defs>
    <g transform="translate(401.867188 14.397896)scale(0.15 -0.15)">
     <use xlink:href="#DejaVuSans-84"/>
     <use x="60.833984" xlink:href="#DejaVuSans-119"/>
     <use x="142.621094" xlink:href="#DejaVuSans-105"/>
     <use x="170.404297" xlink:href="#DejaVuSans-116"/>
     <use x="209.613281" xlink:href="#DejaVuSans-116"/>
     <use x="248.822266" xlink:href="#DejaVuSans-101"/>
     <use x="310.345703" xlink:href="#DejaVuSans-114"/>
     <use x="351.365234" xlink:href="#DejaVuSans-45"/>
     <use x="387.449219" xlink:href="#DejaVuSans-97"/>
     <use x="448.728516" xlink:href="#DejaVuSans-107"/>
     <use x="506.638672" xlink:href="#DejaVuSans-116"/>
     <use x="545.847656" xlink:href="#DejaVuSans-105"/>
     <use x="573.630859" xlink:href="#DejaVuSans-118"/>
     <use x="632.810547" xlink:href="#DejaVuSans-105"/>
     <use x="660.59375" xlink:href="#DejaVuSans-116"/>
     <use x="699.802734" xlink:href="#DejaVuSans-101"/>
     <use x="761.326172" xlink:href="#DejaVuSans-116"/>
     <use x="800.535156" xlink:href="#DejaVuSans-32"/>
     <use x="832.322266" xlink:href="#DejaVuSans-112"/>
     <use x="895.798828" xlink:href="#DejaVuSans-101"/>
     <use x="957.322266" xlink:href="#DejaVuSans-114"/>
     <use x="998.435547" xlink:href="#DejaVuSans-32"/>
     <use x="1030.222656" xlink:href="#DejaVuSans-78"/>
     <use x="1105.027344" xlink:href="#DejaVuSans-71"/>
     <use x="1182.517578" xlink:href="#DejaVuSans-79"/>
     <use x="1261.228516" xlink:href="#DejaVuSans-44"/>
     <use x="1293.015625" xlink:href="#DejaVuSans-32"/>
     <use x="1324.802734" xlink:href="#DejaVuSans-78"/>
     <use x="1399.607422" xlink:href="#DejaVuSans-111"/>
     <use x="1460.789062" xlink:href="#DejaVuSans-114"/>
     <use x="1501.886719" xlink:href="#DejaVuSans-103"/>
     <use x="1565.363281" xlink:href="#DejaVuSans-101"/>
    </g>
   </g>
  </g>
 </g>
 <defs>
  <clipPath id="ped9ea1f395">
   <rect height="474.417203" width="962.233895" x="42.765865" y="20.397896"/>
  </clipPath>
 </defs>
</svg>
