<?xml version="1.0" encoding="utf-8" standalone="no"?>
<!DOCTYPE svg PUBLIC "-//W3C//DTD SVG 1.1//EN"
  "http://www.w3.org/Graphics/SVG/1.1/DTD/svg11.dtd">
<!-- Created with matplotlib (https://matplotlib.org/) -->
<svg height="576pt" version="1.1" viewBox="0 0 1008 576" width="1008pt" xmlns="http://www.w3.org/2000/svg" xmlns:xlink="http://www.w3.org/1999/xlink">
 <defs>
  <style type="text/css">
*{stroke-linecap:butt;stroke-linejoin:round;}
  </style>
 </defs>
 <g id="figure_1">
  <g id="patch_1">
   <path d="M 0 576 
L 1008 576 
L 1008 0 
L 0 0 
z
" style="fill:#ffffff;"/>
  </g>
  <g id="axes_1">
   <g id="patch_2">
    <path d="M 42.765865 503.207573 
L 1004.99976 503.207573 
L 1004.99976 20.397896 
L 42.765865 20.397896 
z
" style="fill:#ffffff;"/>
   </g>
   <g id="patch_3">
    <path clip-path="url(#peb092e1b53)" d="M 56.916363 503.207573 
L 85.21736 503.207573 
L 85.21736 460.099566 
L 56.916363 460.099566 
z
" style="fill:#1f77b4;"/>
   </g>
   <g id="patch_4">
    <path clip-path="url(#peb092e1b53)" d="M 113.518357 503.207573 
L 141.819354 503.207573 
L 141.819354 482.451866 
L 113.518357 482.451866 
z
" style="fill:#1f77b4;"/>
   </g>
   <g id="patch_5">
    <path clip-path="url(#peb092e1b53)" d="M 170.120351 503.207573 
L 198.421348 503.207573 
L 198.421348 488.838237 
L 170.120351 488.838237 
z
" style="fill:#1f77b4;"/>
   </g>
   <g id="patch_6">
    <path clip-path="url(#peb092e1b53)" d="M 226.722345 503.207573 
L 255.023342 503.207573 
L 255.023342 444.133638 
L 226.722345 444.133638 
z
" style="fill:#1f77b4;"/>
   </g>
   <g id="patch_7">
    <path clip-path="url(#peb092e1b53)" d="M 283.324339 503.207573 
L 311.625336 503.207573 
L 311.625336 500.014387 
L 283.324339 500.014387 
z
" style="fill:#1f77b4;"/>
   </g>
   <g id="patch_8">
    <path clip-path="url(#peb092e1b53)" d="M 339.926333 503.207573 
L 368.227329 503.207573 
L 368.227329 479.25868 
L 339.926333 479.25868 
z
" style="fill:#1f77b4;"/>
   </g>
   <g id="patch_9">
    <path clip-path="url(#peb092e1b53)" d="M 396.528326 503.207573 
L 424.829323 503.207573 
L 424.829323 498.417794 
L 396.528326 498.417794 
z
" style="fill:#1f77b4;"/>
   </g>
   <g id="patch_10">
    <path clip-path="url(#peb092e1b53)" d="M 453.13032 503.207573 
L 481.431317 503.207573 
L 481.431317 488.838237 
L 453.13032 488.838237 
z
" style="fill:#1f77b4;"/>
   </g>
   <g id="patch_11">
    <path clip-path="url(#peb092e1b53)" d="M 509.732314 503.207573 
L 538.033311 503.207573 
L 538.033311 463.292752 
L 509.732314 463.292752 
z
" style="fill:#1f77b4;"/>
   </g>
   <g id="patch_12">
    <path clip-path="url(#peb092e1b53)" d="M 566.334308 503.207573 
L 594.635305 503.207573 
L 594.635305 488.838237 
L 566.334308 488.838237 
z
" style="fill:#1f77b4;"/>
   </g>
   <g id="patch_13">
    <path clip-path="url(#peb092e1b53)" d="M 622.936302 503.207573 
L 651.237299 503.207573 
L 651.237299 490.43483 
L 622.936302 490.43483 
z
" style="fill:#1f77b4;"/>
   </g>
   <g id="patch_14">
    <path clip-path="url(#peb092e1b53)" d="M 679.538296 503.207573 
L 707.839292 503.207573 
L 707.839292 484.048459 
L 679.538296 484.048459 
z
" style="fill:#1f77b4;"/>
   </g>
   <g id="patch_15">
    <path clip-path="url(#peb092e1b53)" d="M 736.140289 503.207573 
L 764.441286 503.207573 
L 764.441286 484.048459 
L 736.140289 484.048459 
z
" style="fill:#1f77b4;"/>
   </g>
   <g id="patch_16">
    <path clip-path="url(#peb092e1b53)" d="M 792.742283 503.207573 
L 821.04328 503.207573 
L 821.04328 503.207573 
L 792.742283 503.207573 
z
" style="fill:#1f77b4;"/>
   </g>
   <g id="patch_17">
    <path clip-path="url(#peb092e1b53)" d="M 849.344277 503.207573 
L 877.645274 503.207573 
L 877.645274 501.61098 
L 849.344277 501.61098 
z
" style="fill:#1f77b4;"/>
   </g>
   <g id="patch_18">
    <path clip-path="url(#peb092e1b53)" d="M 905.946271 503.207573 
L 934.247268 503.207573 
L 934.247268 503.207573 
L 905.946271 503.207573 
z
" style="fill:#1f77b4;"/>
   </g>
   <g id="patch_19">
    <path clip-path="url(#peb092e1b53)" d="M 962.548265 503.207573 
L 990.849262 503.207573 
L 990.849262 496.821202 
L 962.548265 496.821202 
z
" style="fill:#1f77b4;"/>
   </g>
   <g id="patch_20">
    <path clip-path="url(#peb092e1b53)" d="M 56.916363 460.099566 
L 85.21736 460.099566 
L 85.21736 105.655954 
L 56.916363 105.655954 
z
" style="fill:#ff7f0e;"/>
   </g>
   <g id="patch_21">
    <path clip-path="url(#peb092e1b53)" d="M 113.518357 482.451866 
L 141.819354 482.451866 
L 141.819354 335.565324 
L 113.518357 335.565324 
z
" style="fill:#ff7f0e;"/>
   </g>
   <g id="patch_22">
    <path clip-path="url(#peb092e1b53)" d="M 170.120351 488.838237 
L 198.421348 488.838237 
L 198.421348 335.565324 
L 170.120351 335.565324 
z
" style="fill:#ff7f0e;"/>
   </g>
   <g id="patch_23">
    <path clip-path="url(#peb092e1b53)" d="M 226.722345 444.133638 
L 255.023342 444.133638 
L 255.023342 420.184745 
L 226.722345 420.184745 
z
" style="fill:#ff7f0e;"/>
   </g>
   <g id="patch_24">
    <path clip-path="url(#peb092e1b53)" d="M 283.324339 500.014387 
L 311.625336 500.014387 
L 311.625336 439.343859 
L 283.324339 439.343859 
z
" style="fill:#ff7f0e;"/>
   </g>
   <g id="patch_25">
    <path clip-path="url(#peb092e1b53)" d="M 339.926333 479.25868 
L 368.227329 479.25868 
L 368.227329 440.940452 
L 339.926333 440.940452 
z
" style="fill:#ff7f0e;"/>
   </g>
   <g id="patch_26">
    <path clip-path="url(#peb092e1b53)" d="M 396.528326 498.417794 
L 424.829323 498.417794 
L 424.829323 448.923416 
L 396.528326 448.923416 
z
" style="fill:#ff7f0e;"/>
   </g>
   <g id="patch_27">
    <path clip-path="url(#peb092e1b53)" d="M 453.13032 488.838237 
L 481.431317 488.838237 
L 481.431317 448.923416 
L 453.13032 448.923416 
z
" style="fill:#ff7f0e;"/>
   </g>
   <g id="patch_28">
    <path clip-path="url(#peb092e1b53)" d="M 509.732314 503.207573 
L 538.033311 503.207573 
L 538.033311 503.207573 
L 509.732314 503.207573 
z
" style="fill:#ff7f0e;"/>
   </g>
   <g id="patch_29">
    <path clip-path="url(#peb092e1b53)" d="M 566.334308 488.838237 
L 594.635305 488.838237 
L 594.635305 458.502973 
L 566.334308 458.502973 
z
" style="fill:#ff7f0e;"/>
   </g>
   <g id="patch_30">
    <path clip-path="url(#peb092e1b53)" d="M 622.936302 490.43483 
L 651.237299 490.43483 
L 651.237299 463.292752 
L 622.936302 463.292752 
z
" style="fill:#ff7f0e;"/>
   </g>
   <g id="patch_31">
    <path clip-path="url(#peb092e1b53)" d="M 679.538296 484.048459 
L 707.839292 484.048459 
L 707.839292 468.08253 
L 679.538296 468.08253 
z
" style="fill:#ff7f0e;"/>
   </g>
   <g id="patch_32">
    <path clip-path="url(#peb092e1b53)" d="M 736.140289 484.048459 
L 764.441286 484.048459 
L 764.441286 482.451866 
L 736.140289 482.451866 
z
" style="fill:#ff7f0e;"/>
   </g>
   <g id="patch_33">
    <path clip-path="url(#peb092e1b53)" d="M 792.742283 503.207573 
L 821.04328 503.207573 
L 821.04328 484.048459 
L 792.742283 484.048459 
z
" style="fill:#ff7f0e;"/>
   </g>
   <g id="patch_34">
    <path clip-path="url(#peb092e1b53)" d="M 849.344277 501.61098 
L 877.645274 501.61098 
L 877.645274 488.838237 
L 849.344277 488.838237 
z
" style="fill:#ff7f0e;"/>
   </g>
   <g id="patch_35">
    <path clip-path="url(#peb092e1b53)" d="M 905.946271 503.207573 
L 934.247268 503.207573 
L 934.247268 492.031423 
L 905.946271 492.031423 
z
" style="fill:#ff7f0e;"/>
   </g>
   <g id="patch_36">
    <path clip-path="url(#peb092e1b53)" d="M 962.548265 496.821202 
L 990.849262 496.821202 
L 990.849262 495.224609 
L 962.548265 495.224609 
z
" style="fill:#ff7f0e;"/>
   </g>
   <g id="patch_37">
    <path clip-path="url(#peb092e1b53)" d="M 56.916363 105.655954 
L 85.21736 105.655954 
L 85.21736 44.985426 
L 56.916363 44.985426 
z
" style="fill:#2ca02c;"/>
   </g>
   <g id="patch_38">
    <path clip-path="url(#peb092e1b53)" d="M 113.518357 335.565324 
L 141.819354 335.565324 
L 141.819354 330.775546 
L 113.518357 330.775546 
z
" style="fill:#2ca02c;"/>
   </g>
   <g id="patch_39">
    <path clip-path="url(#peb092e1b53)" d="M 170.120351 335.565324 
L 198.421348 335.565324 
L 198.421348 332.372138 
L 170.120351 332.372138 
z
" style="fill:#2ca02c;"/>
   </g>
   <g id="patch_40">
    <path clip-path="url(#peb092e1b53)" d="M 226.722345 503.207573 
L 255.023342 503.207573 
L 255.023342 503.207573 
L 226.722345 503.207573 
z
" style="fill:#2ca02c;"/>
   </g>
   <g id="patch_41">
    <path clip-path="url(#peb092e1b53)" d="M 283.324339 439.343859 
L 311.625336 439.343859 
L 311.625336 431.360895 
L 283.324339 431.360895 
z
" style="fill:#2ca02c;"/>
   </g>
   <g id="patch_42">
    <path clip-path="url(#peb092e1b53)" d="M 339.926333 503.207573 
L 368.227329 503.207573 
L 368.227329 503.207573 
L 339.926333 503.207573 
z
" style="fill:#2ca02c;"/>
   </g>
   <g id="patch_43">
    <path clip-path="url(#peb092e1b53)" d="M 396.528326 448.923416 
L 424.829323 448.923416 
L 424.829323 447.326823 
L 396.528326 447.326823 
z
" style="fill:#2ca02c;"/>
   </g>
   <g id="patch_44">
    <path clip-path="url(#peb092e1b53)" d="M 453.13032 503.207573 
L 481.431317 503.207573 
L 481.431317 503.207573 
L 453.13032 503.207573 
z
" style="fill:#2ca02c;"/>
   </g>
   <g id="patch_45">
    <path clip-path="url(#peb092e1b53)" d="M 509.732314 503.207573 
L 538.033311 503.207573 
L 538.033311 503.207573 
L 509.732314 503.207573 
z
" style="fill:#2ca02c;"/>
   </g>
   <g id="patch_46">
    <path clip-path="url(#peb092e1b53)" d="M 566.334308 503.207573 
L 594.635305 503.207573 
L 594.635305 503.207573 
L 566.334308 503.207573 
z
" style="fill:#2ca02c;"/>
   </g>
   <g id="patch_47">
    <path clip-path="url(#peb092e1b53)" d="M 622.936302 503.207573 
L 651.237299 503.207573 
L 651.237299 503.207573 
L 622.936302 503.207573 
z
" style="fill:#2ca02c;"/>
   </g>
   <g id="patch_48">
    <path clip-path="url(#peb092e1b53)" d="M 679.538296 503.207573 
L 707.839292 503.207573 
L 707.839292 503.207573 
L 679.538296 503.207573 
z
" style="fill:#2ca02c;"/>
   </g>
   <g id="patch_49">
    <path clip-path="url(#peb092e1b53)" d="M 736.140289 503.207573 
L 764.441286 503.207573 
L 764.441286 503.207573 
L 736.140289 503.207573 
z
" style="fill:#2ca02c;"/>
   </g>
   <g id="patch_50">
    <path clip-path="url(#peb092e1b53)" d="M 792.742283 484.048459 
L 821.04328 484.048459 
L 821.04328 482.451866 
L 792.742283 482.451866 
z
" style="fill:#2ca02c;"/>
   </g>
   <g id="patch_51">
    <path clip-path="url(#peb092e1b53)" d="M 849.344277 503.207573 
L 877.645274 503.207573 
L 877.645274 503.207573 
L 849.344277 503.207573 
z
" style="fill:#2ca02c;"/>
   </g>
   <g id="patch_52">
    <path clip-path="url(#peb092e1b53)" d="M 905.946271 492.031423 
L 934.247268 492.031423 
L 934.247268 490.43483 
L 905.946271 490.43483 
z
" style="fill:#2ca02c;"/>
   </g>
   <g id="patch_53">
    <path clip-path="url(#peb092e1b53)" d="M 962.548265 503.207573 
L 990.849262 503.207573 
L 990.849262 503.207573 
L 962.548265 503.207573 
z
" style="fill:#2ca02c;"/>
   </g>
   <g id="patch_54">
    <path clip-path="url(#peb092e1b53)" d="M 56.916363 44.985426 
L 85.21736 44.985426 
L 85.21736 43.388833 
L 56.916363 43.388833 
z
" style="fill:#d62728;"/>
   </g>
   <g id="patch_55">
    <path clip-path="url(#peb092e1b53)" d="M 113.518357 503.207573 
L 141.819354 503.207573 
L 141.819354 503.207573 
L 113.518357 503.207573 
z
" style="fill:#d62728;"/>
   </g>
   <g id="patch_56">
    <path clip-path="url(#peb092e1b53)" d="M 170.120351 503.207573 
L 198.421348 503.207573 
L 198.421348 503.207573 
L 170.120351 503.207573 
z
" style="fill:#d62728;"/>
   </g>
   <g id="patch_57">
    <path clip-path="url(#peb092e1b53)" d="M 226.722345 503.207573 
L 255.023342 503.207573 
L 255.023342 503.207573 
L 226.722345 503.207573 
z
" style="fill:#d62728;"/>
   </g>
   <g id="patch_58">
    <path clip-path="url(#peb092e1b53)" d="M 283.324339 503.207573 
L 311.625336 503.207573 
L 311.625336 503.207573 
L 283.324339 503.207573 
z
" style="fill:#d62728;"/>
   </g>
   <g id="patch_59">
    <path clip-path="url(#peb092e1b53)" d="M 339.926333 440.940452 
L 368.227329 440.940452 
L 368.227329 439.343859 
L 339.926333 439.343859 
z
" style="fill:#d62728;"/>
   </g>
   <g id="patch_60">
    <path clip-path="url(#peb092e1b53)" d="M 396.528326 503.207573 
L 424.829323 503.207573 
L 424.829323 503.207573 
L 396.528326 503.207573 
z
" style="fill:#d62728;"/>
   </g>
   <g id="patch_61">
    <path clip-path="url(#peb092e1b53)" d="M 453.13032 503.207573 
L 481.431317 503.207573 
L 481.431317 503.207573 
L 453.13032 503.207573 
z
" style="fill:#d62728;"/>
   </g>
   <g id="patch_62">
    <path clip-path="url(#peb092e1b53)" d="M 509.732314 463.292752 
L 538.033311 463.292752 
L 538.033311 448.923416 
L 509.732314 448.923416 
z
" style="fill:#d62728;"/>
   </g>
   <g id="patch_63">
    <path clip-path="url(#peb092e1b53)" d="M 566.334308 503.207573 
L 594.635305 503.207573 
L 594.635305 503.207573 
L 566.334308 503.207573 
z
" style="fill:#d62728;"/>
   </g>
   <g id="patch_64">
    <path clip-path="url(#peb092e1b53)" d="M 622.936302 463.292752 
L 651.237299 463.292752 
L 651.237299 461.696159 
L 622.936302 461.696159 
z
" style="fill:#d62728;"/>
   </g>
   <g id="patch_65">
    <path clip-path="url(#peb092e1b53)" d="M 679.538296 503.207573 
L 707.839292 503.207573 
L 707.839292 503.207573 
L 679.538296 503.207573 
z
" style="fill:#d62728;"/>
   </g>
   <g id="patch_66">
    <path clip-path="url(#peb092e1b53)" d="M 736.140289 482.451866 
L 764.441286 482.451866 
L 764.441286 471.275716 
L 736.140289 471.275716 
z
" style="fill:#d62728;"/>
   </g>
   <g id="patch_67">
    <path clip-path="url(#peb092e1b53)" d="M 792.742283 503.207573 
L 821.04328 503.207573 
L 821.04328 503.207573 
L 792.742283 503.207573 
z
" style="fill:#d62728;"/>
   </g>
   <g id="patch_68">
    <path clip-path="url(#peb092e1b53)" d="M 849.344277 503.207573 
L 877.645274 503.207573 
L 877.645274 503.207573 
L 849.344277 503.207573 
z
" style="fill:#d62728;"/>
   </g>
   <g id="patch_69">
    <path clip-path="url(#peb092e1b53)" d="M 905.946271 503.207573 
L 934.247268 503.207573 
L 934.247268 503.207573 
L 905.946271 503.207573 
z
" style="fill:#d62728;"/>
   </g>
   <g id="patch_70">
    <path clip-path="url(#peb092e1b53)" d="M 962.548265 503.207573 
L 990.849262 503.207573 
L 990.849262 503.207573 
L 962.548265 503.207573 
z
" style="fill:#d62728;"/>
   </g>
   <g id="matplotlib.axis_1">
    <g id="xtick_1">
     <g id="line2d_1">
      <defs>
       <path d="M 0 0 
L 0 3.5 
" id="m503897ce65" style="stroke:#000000;stroke-width:0.8;"/>
      </defs>
      <g>
       <use style="stroke:#000000;stroke-width:0.8;" x="71.066862" xlink:href="#m503897ce65" y="503.207573"/>
      </g>
     </g>
     <g id="text_1">
      <!-- greenpeacedk -->
      <defs>
       <path d="M 45.40625 27.984375 
Q 45.40625 37.75 41.375 43.109375 
Q 37.359375 48.484375 30.078125 48.484375 
Q 22.859375 48.484375 18.828125 43.109375 
Q 14.796875 37.75 14.796875 27.984375 
Q 14.796875 18.265625 18.828125 12.890625 
Q 22.859375 7.515625 30.078125 7.515625 
Q 37.359375 7.515625 41.375 12.890625 
Q 45.40625 18.265625 45.40625 27.984375 
z
M 54.390625 6.78125 
Q 54.390625 -7.171875 48.1875 -13.984375 
Q 42 -20.796875 29.203125 -20.796875 
Q 24.46875 -20.796875 20.265625 -20.09375 
Q 16.0625 -19.390625 12.109375 -17.921875 
L 12.109375 -9.1875 
Q 16.0625 -11.328125 19.921875 -12.34375 
Q 23.78125 -13.375 27.78125 -13.375 
Q 36.625 -13.375 41.015625 -8.765625 
Q 45.40625 -4.15625 45.40625 5.171875 
L 45.40625 9.625 
Q 42.625 4.78125 38.28125 2.390625 
Q 33.9375 0 27.875 0 
Q 17.828125 0 11.671875 7.65625 
Q 5.515625 15.328125 5.515625 27.984375 
Q 5.515625 40.671875 11.671875 48.328125 
Q 17.828125 56 27.875 56 
Q 33.9375 56 38.28125 53.609375 
Q 42.625 51.21875 45.40625 46.390625 
L 45.40625 54.6875 
L 54.390625 54.6875 
z
" id="DejaVuSans-103"/>
       <path d="M 41.109375 46.296875 
Q 39.59375 47.171875 37.8125 47.578125 
Q 36.03125 48 33.890625 48 
Q 26.265625 48 22.1875 43.046875 
Q 18.109375 38.09375 18.109375 28.8125 
L 18.109375 0 
L 9.078125 0 
L 9.078125 54.6875 
L 18.109375 54.6875 
L 18.109375 46.1875 
Q 20.953125 51.171875 25.484375 53.578125 
Q 30.03125 56 36.53125 56 
Q 37.453125 56 38.578125 55.875 
Q 39.703125 55.765625 41.0625 55.515625 
z
" id="DejaVuSans-114"/>
       <path d="M 56.203125 29.59375 
L 56.203125 25.203125 
L 14.890625 25.203125 
Q 15.484375 15.921875 20.484375 11.0625 
Q 25.484375 6.203125 34.421875 6.203125 
Q 39.59375 6.203125 44.453125 7.46875 
Q 49.3125 8.734375 54.109375 11.28125 
L 54.109375 2.78125 
Q 49.265625 0.734375 44.1875 -0.34375 
Q 39.109375 -1.421875 33.890625 -1.421875 
Q 20.796875 -1.421875 13.15625 6.1875 
Q 5.515625 13.8125 5.515625 26.8125 
Q 5.515625 40.234375 12.765625 48.109375 
Q 20.015625 56 32.328125 56 
Q 43.359375 56 49.78125 48.890625 
Q 56.203125 41.796875 56.203125 29.59375 
z
M 47.21875 32.234375 
Q 47.125 39.59375 43.09375 43.984375 
Q 39.0625 48.390625 32.421875 48.390625 
Q 24.90625 48.390625 20.390625 44.140625 
Q 15.875 39.890625 15.1875 32.171875 
z
" id="DejaVuSans-101"/>
       <path d="M 54.890625 33.015625 
L 54.890625 0 
L 45.90625 0 
L 45.90625 32.71875 
Q 45.90625 40.484375 42.875 44.328125 
Q 39.84375 48.1875 33.796875 48.1875 
Q 26.515625 48.1875 22.3125 43.546875 
Q 18.109375 38.921875 18.109375 30.90625 
L 18.109375 0 
L 9.078125 0 
L 9.078125 54.6875 
L 18.109375 54.6875 
L 18.109375 46.1875 
Q 21.34375 51.125 25.703125 53.5625 
Q 30.078125 56 35.796875 56 
Q 45.21875 56 50.046875 50.171875 
Q 54.890625 44.34375 54.890625 33.015625 
z
" id="DejaVuSans-110"/>
       <path d="M 18.109375 8.203125 
L 18.109375 -20.796875 
L 9.078125 -20.796875 
L 9.078125 54.6875 
L 18.109375 54.6875 
L 18.109375 46.390625 
Q 20.953125 51.265625 25.265625 53.625 
Q 29.59375 56 35.59375 56 
Q 45.5625 56 51.78125 48.09375 
Q 58.015625 40.1875 58.015625 27.296875 
Q 58.015625 14.40625 51.78125 6.484375 
Q 45.5625 -1.421875 35.59375 -1.421875 
Q 29.59375 -1.421875 25.265625 0.953125 
Q 20.953125 3.328125 18.109375 8.203125 
z
M 48.6875 27.296875 
Q 48.6875 37.203125 44.609375 42.84375 
Q 40.53125 48.484375 33.40625 48.484375 
Q 26.265625 48.484375 22.1875 42.84375 
Q 18.109375 37.203125 18.109375 27.296875 
Q 18.109375 17.390625 22.1875 11.75 
Q 26.265625 6.109375 33.40625 6.109375 
Q 40.53125 6.109375 44.609375 11.75 
Q 48.6875 17.390625 48.6875 27.296875 
z
" id="DejaVuSans-112"/>
       <path d="M 34.28125 27.484375 
Q 23.390625 27.484375 19.1875 25 
Q 14.984375 22.515625 14.984375 16.5 
Q 14.984375 11.71875 18.140625 8.90625 
Q 21.296875 6.109375 26.703125 6.109375 
Q 34.1875 6.109375 38.703125 11.40625 
Q 43.21875 16.703125 43.21875 25.484375 
L 43.21875 27.484375 
z
M 52.203125 31.203125 
L 52.203125 0 
L 43.21875 0 
L 43.21875 8.296875 
Q 40.140625 3.328125 35.546875 0.953125 
Q 30.953125 -1.421875 24.3125 -1.421875 
Q 15.921875 -1.421875 10.953125 3.296875 
Q 6 8.015625 6 15.921875 
Q 6 25.140625 12.171875 29.828125 
Q 18.359375 34.515625 30.609375 34.515625 
L 43.21875 34.515625 
L 43.21875 35.40625 
Q 43.21875 41.609375 39.140625 45 
Q 35.0625 48.390625 27.6875 48.390625 
Q 23 48.390625 18.546875 47.265625 
Q 14.109375 46.140625 10.015625 43.890625 
L 10.015625 52.203125 
Q 14.9375 54.109375 19.578125 55.046875 
Q 24.21875 56 28.609375 56 
Q 40.484375 56 46.34375 49.84375 
Q 52.203125 43.703125 52.203125 31.203125 
z
" id="DejaVuSans-97"/>
       <path d="M 48.78125 52.59375 
L 48.78125 44.1875 
Q 44.96875 46.296875 41.140625 47.34375 
Q 37.3125 48.390625 33.40625 48.390625 
Q 24.65625 48.390625 19.8125 42.84375 
Q 14.984375 37.3125 14.984375 27.296875 
Q 14.984375 17.28125 19.8125 11.734375 
Q 24.65625 6.203125 33.40625 6.203125 
Q 37.3125 6.203125 41.140625 7.25 
Q 44.96875 8.296875 48.78125 10.40625 
L 48.78125 2.09375 
Q 45.015625 0.34375 40.984375 -0.53125 
Q 36.96875 -1.421875 32.421875 -1.421875 
Q 20.0625 -1.421875 12.78125 6.34375 
Q 5.515625 14.109375 5.515625 27.296875 
Q 5.515625 40.671875 12.859375 48.328125 
Q 20.21875 56 33.015625 56 
Q 37.15625 56 41.109375 55.140625 
Q 45.0625 54.296875 48.78125 52.59375 
z
" id="DejaVuSans-99"/>
       <path d="M 45.40625 46.390625 
L 45.40625 75.984375 
L 54.390625 75.984375 
L 54.390625 0 
L 45.40625 0 
L 45.40625 8.203125 
Q 42.578125 3.328125 38.25 0.953125 
Q 33.9375 -1.421875 27.875 -1.421875 
Q 17.96875 -1.421875 11.734375 6.484375 
Q 5.515625 14.40625 5.515625 27.296875 
Q 5.515625 40.1875 11.734375 48.09375 
Q 17.96875 56 27.875 56 
Q 33.9375 56 38.25 53.625 
Q 42.578125 51.265625 45.40625 46.390625 
z
M 14.796875 27.296875 
Q 14.796875 17.390625 18.875 11.75 
Q 22.953125 6.109375 30.078125 6.109375 
Q 37.203125 6.109375 41.296875 11.75 
Q 45.40625 17.390625 45.40625 27.296875 
Q 45.40625 37.203125 41.296875 42.84375 
Q 37.203125 48.484375 30.078125 48.484375 
Q 22.953125 48.484375 18.875 42.84375 
Q 14.796875 37.203125 14.796875 27.296875 
z
" id="DejaVuSans-100"/>
       <path d="M 9.078125 75.984375 
L 18.109375 75.984375 
L 18.109375 31.109375 
L 44.921875 54.6875 
L 56.390625 54.6875 
L 27.390625 29.109375 
L 57.625 0 
L 45.90625 0 
L 18.109375 26.703125 
L 18.109375 0 
L 9.078125 0 
z
" id="DejaVuSans-107"/>
      </defs>
      <g transform="translate(47.731786 566.152978)rotate(-45)scale(0.1 -0.1)">
       <use xlink:href="#DejaVuSans-103"/>
       <use x="63.476562" xlink:href="#DejaVuSans-114"/>
       <use x="104.558594" xlink:href="#DejaVuSans-101"/>
       <use x="166.082031" xlink:href="#DejaVuSans-101"/>
       <use x="227.605469" xlink:href="#DejaVuSans-110"/>
       <use x="290.984375" xlink:href="#DejaVuSans-112"/>
       <use x="354.460938" xlink:href="#DejaVuSans-101"/>
       <use x="415.984375" xlink:href="#DejaVuSans-97"/>
       <use x="477.263672" xlink:href="#DejaVuSans-99"/>
       <use x="532.244141" xlink:href="#DejaVuSans-101"/>
       <use x="593.767578" xlink:href="#DejaVuSans-100"/>
       <use x="657.244141" xlink:href="#DejaVuSans-107"/>
      </g>
     </g>
    </g>
    <g id="xtick_2">
     <g id="line2d_2">
      <g>
       <use style="stroke:#000000;stroke-width:0.8;" x="127.668856" xlink:href="#m503897ce65" y="503.207573"/>
      </g>
     </g>
     <g id="text_2">
      <!-- Klimabev -->
      <defs>
       <path d="M 9.8125 72.90625 
L 19.671875 72.90625 
L 19.671875 42.09375 
L 52.390625 72.90625 
L 65.09375 72.90625 
L 28.90625 38.921875 
L 67.671875 0 
L 54.6875 0 
L 19.671875 35.109375 
L 19.671875 0 
L 9.8125 0 
z
" id="DejaVuSans-75"/>
       <path d="M 9.421875 75.984375 
L 18.40625 75.984375 
L 18.40625 0 
L 9.421875 0 
z
" id="DejaVuSans-108"/>
       <path d="M 9.421875 54.6875 
L 18.40625 54.6875 
L 18.40625 0 
L 9.421875 0 
z
M 9.421875 75.984375 
L 18.40625 75.984375 
L 18.40625 64.59375 
L 9.421875 64.59375 
z
" id="DejaVuSans-105"/>
       <path d="M 52 44.1875 
Q 55.375 50.25 60.0625 53.125 
Q 64.75 56 71.09375 56 
Q 79.640625 56 84.28125 50.015625 
Q 88.921875 44.046875 88.921875 33.015625 
L 88.921875 0 
L 79.890625 0 
L 79.890625 32.71875 
Q 79.890625 40.578125 77.09375 44.375 
Q 74.3125 48.1875 68.609375 48.1875 
Q 61.625 48.1875 57.5625 43.546875 
Q 53.515625 38.921875 53.515625 30.90625 
L 53.515625 0 
L 44.484375 0 
L 44.484375 32.71875 
Q 44.484375 40.625 41.703125 44.40625 
Q 38.921875 48.1875 33.109375 48.1875 
Q 26.21875 48.1875 22.15625 43.53125 
Q 18.109375 38.875 18.109375 30.90625 
L 18.109375 0 
L 9.078125 0 
L 9.078125 54.6875 
L 18.109375 54.6875 
L 18.109375 46.1875 
Q 21.1875 51.21875 25.484375 53.609375 
Q 29.78125 56 35.6875 56 
Q 41.65625 56 45.828125 52.96875 
Q 50 49.953125 52 44.1875 
z
" id="DejaVuSans-109"/>
       <path d="M 48.6875 27.296875 
Q 48.6875 37.203125 44.609375 42.84375 
Q 40.53125 48.484375 33.40625 48.484375 
Q 26.265625 48.484375 22.1875 42.84375 
Q 18.109375 37.203125 18.109375 27.296875 
Q 18.109375 17.390625 22.1875 11.75 
Q 26.265625 6.109375 33.40625 6.109375 
Q 40.53125 6.109375 44.609375 11.75 
Q 48.6875 17.390625 48.6875 27.296875 
z
M 18.109375 46.390625 
Q 20.953125 51.265625 25.265625 53.625 
Q 29.59375 56 35.59375 56 
Q 45.5625 56 51.78125 48.09375 
Q 58.015625 40.1875 58.015625 27.296875 
Q 58.015625 14.40625 51.78125 6.484375 
Q 45.5625 -1.421875 35.59375 -1.421875 
Q 29.59375 -1.421875 25.265625 0.953125 
Q 20.953125 3.328125 18.109375 8.203125 
L 18.109375 0 
L 9.078125 0 
L 9.078125 75.984375 
L 18.109375 75.984375 
z
" id="DejaVuSans-98"/>
       <path d="M 2.984375 54.6875 
L 12.5 54.6875 
L 29.59375 8.796875 
L 46.6875 54.6875 
L 56.203125 54.6875 
L 35.6875 0 
L 23.484375 0 
z
" id="DejaVuSans-118"/>
      </defs>
      <g transform="translate(113.214046 548.392444)rotate(-45)scale(0.1 -0.1)">
       <use xlink:href="#DejaVuSans-75"/>
       <use x="65.576172" xlink:href="#DejaVuSans-108"/>
       <use x="93.359375" xlink:href="#DejaVuSans-105"/>
       <use x="121.142578" xlink:href="#DejaVuSans-109"/>
       <use x="218.554688" xlink:href="#DejaVuSans-97"/>
       <use x="279.833984" xlink:href="#DejaVuSans-98"/>
       <use x="343.310547" xlink:href="#DejaVuSans-101"/>
       <use x="404.833984" xlink:href="#DejaVuSans-118"/>
      </g>
     </g>
    </g>
    <g id="xtick_3">
     <g id="line2d_3">
      <g>
       <use style="stroke:#000000;stroke-width:0.8;" x="184.27085" xlink:href="#m503897ce65" y="503.207573"/>
      </g>
     </g>
     <g id="text_3">
      <!-- DanmarksNatur -->
      <defs>
       <path d="M 19.671875 64.796875 
L 19.671875 8.109375 
L 31.59375 8.109375 
Q 46.6875 8.109375 53.6875 14.9375 
Q 60.6875 21.78125 60.6875 36.53125 
Q 60.6875 51.171875 53.6875 57.984375 
Q 46.6875 64.796875 31.59375 64.796875 
z
M 9.8125 72.90625 
L 30.078125 72.90625 
Q 51.265625 72.90625 61.171875 64.09375 
Q 71.09375 55.28125 71.09375 36.53125 
Q 71.09375 17.671875 61.125 8.828125 
Q 51.171875 0 30.078125 0 
L 9.8125 0 
z
" id="DejaVuSans-68"/>
       <path d="M 44.28125 53.078125 
L 44.28125 44.578125 
Q 40.484375 46.53125 36.375 47.5 
Q 32.28125 48.484375 27.875 48.484375 
Q 21.1875 48.484375 17.84375 46.4375 
Q 14.5 44.390625 14.5 40.28125 
Q 14.5 37.15625 16.890625 35.375 
Q 19.28125 33.59375 26.515625 31.984375 
L 29.59375 31.296875 
Q 39.15625 29.25 43.1875 25.515625 
Q 47.21875 21.78125 47.21875 15.09375 
Q 47.21875 7.46875 41.1875 3.015625 
Q 35.15625 -1.421875 24.609375 -1.421875 
Q 20.21875 -1.421875 15.453125 -0.5625 
Q 10.6875 0.296875 5.421875 2 
L 5.421875 11.28125 
Q 10.40625 8.6875 15.234375 7.390625 
Q 20.0625 6.109375 24.8125 6.109375 
Q 31.15625 6.109375 34.5625 8.28125 
Q 37.984375 10.453125 37.984375 14.40625 
Q 37.984375 18.0625 35.515625 20.015625 
Q 33.0625 21.96875 24.703125 23.78125 
L 21.578125 24.515625 
Q 13.234375 26.265625 9.515625 29.90625 
Q 5.8125 33.546875 5.8125 39.890625 
Q 5.8125 47.609375 11.28125 51.796875 
Q 16.75 56 26.8125 56 
Q 31.78125 56 36.171875 55.265625 
Q 40.578125 54.546875 44.28125 53.078125 
z
" id="DejaVuSans-115"/>
       <path d="M 9.8125 72.90625 
L 23.09375 72.90625 
L 55.421875 11.921875 
L 55.421875 72.90625 
L 64.984375 72.90625 
L 64.984375 0 
L 51.703125 0 
L 19.390625 60.984375 
L 19.390625 0 
L 9.8125 0 
z
" id="DejaVuSans-78"/>
       <path d="M 18.3125 70.21875 
L 18.3125 54.6875 
L 36.8125 54.6875 
L 36.8125 47.703125 
L 18.3125 47.703125 
L 18.3125 18.015625 
Q 18.3125 11.328125 20.140625 9.421875 
Q 21.96875 7.515625 27.59375 7.515625 
L 36.8125 7.515625 
L 36.8125 0 
L 27.59375 0 
Q 17.1875 0 13.234375 3.875 
Q 9.28125 7.765625 9.28125 18.015625 
L 9.28125 47.703125 
L 2.6875 47.703125 
L 2.6875 54.6875 
L 9.28125 54.6875 
L 9.28125 70.21875 
z
" id="DejaVuSans-116"/>
       <path d="M 8.5 21.578125 
L 8.5 54.6875 
L 17.484375 54.6875 
L 17.484375 21.921875 
Q 17.484375 14.15625 20.5 10.265625 
Q 23.53125 6.390625 29.59375 6.390625 
Q 36.859375 6.390625 41.078125 11.03125 
Q 45.3125 15.671875 45.3125 23.6875 
L 45.3125 54.6875 
L 54.296875 54.6875 
L 54.296875 0 
L 45.3125 0 
L 45.3125 8.40625 
Q 42.046875 3.421875 37.71875 1 
Q 33.40625 -1.421875 27.6875 -1.421875 
Q 18.265625 -1.421875 13.375 4.4375 
Q 8.5 10.296875 8.5 21.578125 
z
M 31.109375 56 
z
" id="DejaVuSans-117"/>
      </defs>
      <g transform="translate(158.247663 571.529199)rotate(-45)scale(0.1 -0.1)">
       <use xlink:href="#DejaVuSans-68"/>
       <use x="77.001953" xlink:href="#DejaVuSans-97"/>
       <use x="138.28125" xlink:href="#DejaVuSans-110"/>
       <use x="201.660156" xlink:href="#DejaVuSans-109"/>
       <use x="299.072266" xlink:href="#DejaVuSans-97"/>
       <use x="360.351562" xlink:href="#DejaVuSans-114"/>
       <use x="401.464844" xlink:href="#DejaVuSans-107"/>
       <use x="459.375" xlink:href="#DejaVuSans-115"/>
       <use x="511.474609" xlink:href="#DejaVuSans-78"/>
       <use x="586.279297" xlink:href="#DejaVuSans-97"/>
       <use x="647.558594" xlink:href="#DejaVuSans-116"/>
       <use x="686.767578" xlink:href="#DejaVuSans-117"/>
       <use x="750.146484" xlink:href="#DejaVuSans-114"/>
      </g>
     </g>
    </g>
    <g id="xtick_4">
     <g id="line2d_4">
      <g>
       <use style="stroke:#000000;stroke-width:0.8;" x="240.872843" xlink:href="#m503897ce65" y="503.207573"/>
      </g>
     </g>
     <g id="text_4">
      <!-- FDELdk -->
      <defs>
       <path d="M 9.8125 72.90625 
L 51.703125 72.90625 
L 51.703125 64.59375 
L 19.671875 64.59375 
L 19.671875 43.109375 
L 48.578125 43.109375 
L 48.578125 34.8125 
L 19.671875 34.8125 
L 19.671875 0 
L 9.8125 0 
z
" id="DejaVuSans-70"/>
       <path d="M 9.8125 72.90625 
L 55.90625 72.90625 
L 55.90625 64.59375 
L 19.671875 64.59375 
L 19.671875 43.015625 
L 54.390625 43.015625 
L 54.390625 34.71875 
L 19.671875 34.71875 
L 19.671875 8.296875 
L 56.78125 8.296875 
L 56.78125 0 
L 9.8125 0 
z
" id="DejaVuSans-69"/>
       <path d="M 9.8125 72.90625 
L 19.671875 72.90625 
L 19.671875 8.296875 
L 55.171875 8.296875 
L 55.171875 0 
L 9.8125 0 
z
" id="DejaVuSans-76"/>
      </defs>
      <g transform="translate(229.572393 542.083726)rotate(-45)scale(0.1 -0.1)">
       <use xlink:href="#DejaVuSans-70"/>
       <use x="57.519531" xlink:href="#DejaVuSans-68"/>
       <use x="134.521484" xlink:href="#DejaVuSans-69"/>
       <use x="197.705078" xlink:href="#DejaVuSans-76"/>
       <use x="253.417969" xlink:href="#DejaVuSans-100"/>
       <use x="316.894531" xlink:href="#DejaVuSans-107"/>
      </g>
     </g>
    </g>
    <g id="xtick_5">
     <g id="line2d_5">
      <g>
       <use style="stroke:#000000;stroke-width:0.8;" x="297.474837" xlink:href="#m503897ce65" y="503.207573"/>
      </g>
     </g>
     <g id="text_5">
      <!-- concitoinfo -->
      <defs>
       <path d="M 30.609375 48.390625 
Q 23.390625 48.390625 19.1875 42.75 
Q 14.984375 37.109375 14.984375 27.296875 
Q 14.984375 17.484375 19.15625 11.84375 
Q 23.34375 6.203125 30.609375 6.203125 
Q 37.796875 6.203125 41.984375 11.859375 
Q 46.1875 17.53125 46.1875 27.296875 
Q 46.1875 37.015625 41.984375 42.703125 
Q 37.796875 48.390625 30.609375 48.390625 
z
M 30.609375 56 
Q 42.328125 56 49.015625 48.375 
Q 55.71875 40.765625 55.71875 27.296875 
Q 55.71875 13.875 49.015625 6.21875 
Q 42.328125 -1.421875 30.609375 -1.421875 
Q 18.84375 -1.421875 12.171875 6.21875 
Q 5.515625 13.875 5.515625 27.296875 
Q 5.515625 40.765625 12.171875 48.375 
Q 18.84375 56 30.609375 56 
z
" id="DejaVuSans-111"/>
       <path d="M 37.109375 75.984375 
L 37.109375 68.5 
L 28.515625 68.5 
Q 23.6875 68.5 21.796875 66.546875 
Q 19.921875 64.59375 19.921875 59.515625 
L 19.921875 54.6875 
L 34.71875 54.6875 
L 34.71875 47.703125 
L 19.921875 47.703125 
L 19.921875 0 
L 10.890625 0 
L 10.890625 47.703125 
L 2.296875 47.703125 
L 2.296875 54.6875 
L 10.890625 54.6875 
L 10.890625 58.5 
Q 10.890625 67.625 15.140625 71.796875 
Q 19.390625 75.984375 28.609375 75.984375 
z
" id="DejaVuSans-102"/>
      </defs>
      <g transform="translate(279.971735 554.48903)rotate(-45)scale(0.1 -0.1)">
       <use xlink:href="#DejaVuSans-99"/>
       <use x="54.980469" xlink:href="#DejaVuSans-111"/>
       <use x="116.162109" xlink:href="#DejaVuSans-110"/>
       <use x="179.541016" xlink:href="#DejaVuSans-99"/>
       <use x="234.521484" xlink:href="#DejaVuSans-105"/>
       <use x="262.304688" xlink:href="#DejaVuSans-116"/>
       <use x="301.513672" xlink:href="#DejaVuSans-111"/>
       <use x="362.695312" xlink:href="#DejaVuSans-105"/>
       <use x="390.478516" xlink:href="#DejaVuSans-110"/>
       <use x="453.857422" xlink:href="#DejaVuSans-102"/>
       <use x="489.0625" xlink:href="#DejaVuSans-111"/>
      </g>
     </g>
    </g>
    <g id="xtick_6">
     <g id="line2d_6">
      <g>
       <use style="stroke:#000000;stroke-width:0.8;" x="354.076831" xlink:href="#m503897ce65" y="503.207573"/>
      </g>
     </g>
     <g id="text_6">
      <!-- okologidk -->
      <g transform="translate(338.991702 549.653083)rotate(-45)scale(0.1 -0.1)">
       <use xlink:href="#DejaVuSans-111"/>
       <use x="61.181641" xlink:href="#DejaVuSans-107"/>
       <use x="119.044922" xlink:href="#DejaVuSans-111"/>
       <use x="180.226562" xlink:href="#DejaVuSans-108"/>
       <use x="208.009766" xlink:href="#DejaVuSans-111"/>
       <use x="269.191406" xlink:href="#DejaVuSans-103"/>
       <use x="332.667969" xlink:href="#DejaVuSans-105"/>
       <use x="360.451172" xlink:href="#DejaVuSans-100"/>
       <use x="423.927734" xlink:href="#DejaVuSans-107"/>
      </g>
     </g>
    </g>
    <g id="xtick_7">
     <g id="line2d_7">
      <g>
       <use style="stroke:#000000;stroke-width:0.8;" x="410.678825" xlink:href="#m503897ce65" y="503.207573"/>
      </g>
     </g>
     <g id="text_7">
      <!-- gronomstilling -->
      <g transform="translate(387.28022 566.280036)rotate(-45)scale(0.1 -0.1)">
       <use xlink:href="#DejaVuSans-103"/>
       <use x="63.476562" xlink:href="#DejaVuSans-114"/>
       <use x="104.558594" xlink:href="#DejaVuSans-111"/>
       <use x="165.740234" xlink:href="#DejaVuSans-110"/>
       <use x="229.119141" xlink:href="#DejaVuSans-111"/>
       <use x="290.300781" xlink:href="#DejaVuSans-109"/>
       <use x="387.712891" xlink:href="#DejaVuSans-115"/>
       <use x="439.8125" xlink:href="#DejaVuSans-116"/>
       <use x="479.021484" xlink:href="#DejaVuSans-105"/>
       <use x="506.804688" xlink:href="#DejaVuSans-108"/>
       <use x="534.587891" xlink:href="#DejaVuSans-108"/>
       <use x="562.371094" xlink:href="#DejaVuSans-105"/>
       <use x="590.154297" xlink:href="#DejaVuSans-110"/>
       <use x="653.533203" xlink:href="#DejaVuSans-103"/>
      </g>
     </g>
    </g>
    <g id="xtick_8">
     <g id="line2d_8">
      <g>
       <use style="stroke:#000000;stroke-width:0.8;" x="467.280819" xlink:href="#m503897ce65" y="503.207573"/>
      </g>
     </g>
     <g id="text_8">
      <!-- WWFdk -->
      <defs>
       <path d="M 3.328125 72.90625 
L 13.28125 72.90625 
L 28.609375 11.28125 
L 43.890625 72.90625 
L 54.984375 72.90625 
L 70.3125 11.28125 
L 85.59375 72.90625 
L 95.609375 72.90625 
L 77.296875 0 
L 64.890625 0 
L 49.515625 63.28125 
L 33.984375 0 
L 21.578125 0 
z
" id="DejaVuSans-87"/>
      </defs>
      <g transform="translate(455.915182 542.214099)rotate(-45)scale(0.1 -0.1)">
       <use xlink:href="#DejaVuSans-87"/>
       <use x="98.876953" xlink:href="#DejaVuSans-87"/>
       <use x="197.753906" xlink:href="#DejaVuSans-70"/>
       <use x="255.273438" xlink:href="#DejaVuSans-100"/>
       <use x="318.75" xlink:href="#DejaVuSans-107"/>
      </g>
     </g>
    </g>
    <g id="xtick_9">
     <g id="line2d_9">
      <g>
       <use style="stroke:#000000;stroke-width:0.8;" x="523.882812" xlink:href="#m503897ce65" y="503.207573"/>
      </g>
     </g>
     <g id="text_9">
      <!-- CEPOS -->
      <defs>
       <path d="M 64.40625 67.28125 
L 64.40625 56.890625 
Q 59.421875 61.53125 53.78125 63.8125 
Q 48.140625 66.109375 41.796875 66.109375 
Q 29.296875 66.109375 22.65625 58.46875 
Q 16.015625 50.828125 16.015625 36.375 
Q 16.015625 21.96875 22.65625 14.328125 
Q 29.296875 6.6875 41.796875 6.6875 
Q 48.140625 6.6875 53.78125 8.984375 
Q 59.421875 11.28125 64.40625 15.921875 
L 64.40625 5.609375 
Q 59.234375 2.09375 53.4375 0.328125 
Q 47.65625 -1.421875 41.21875 -1.421875 
Q 24.65625 -1.421875 15.125 8.703125 
Q 5.609375 18.84375 5.609375 36.375 
Q 5.609375 53.953125 15.125 64.078125 
Q 24.65625 74.21875 41.21875 74.21875 
Q 47.75 74.21875 53.53125 72.484375 
Q 59.328125 70.75 64.40625 67.28125 
z
" id="DejaVuSans-67"/>
       <path d="M 19.671875 64.796875 
L 19.671875 37.40625 
L 32.078125 37.40625 
Q 38.96875 37.40625 42.71875 40.96875 
Q 46.484375 44.53125 46.484375 51.125 
Q 46.484375 57.671875 42.71875 61.234375 
Q 38.96875 64.796875 32.078125 64.796875 
z
M 9.8125 72.90625 
L 32.078125 72.90625 
Q 44.34375 72.90625 50.609375 67.359375 
Q 56.890625 61.8125 56.890625 51.125 
Q 56.890625 40.328125 50.609375 34.8125 
Q 44.34375 29.296875 32.078125 29.296875 
L 19.671875 29.296875 
L 19.671875 0 
L 9.8125 0 
z
" id="DejaVuSans-80"/>
       <path d="M 39.40625 66.21875 
Q 28.65625 66.21875 22.328125 58.203125 
Q 16.015625 50.203125 16.015625 36.375 
Q 16.015625 22.609375 22.328125 14.59375 
Q 28.65625 6.59375 39.40625 6.59375 
Q 50.140625 6.59375 56.421875 14.59375 
Q 62.703125 22.609375 62.703125 36.375 
Q 62.703125 50.203125 56.421875 58.203125 
Q 50.140625 66.21875 39.40625 66.21875 
z
M 39.40625 74.21875 
Q 54.734375 74.21875 63.90625 63.9375 
Q 73.09375 53.65625 73.09375 36.375 
Q 73.09375 19.140625 63.90625 8.859375 
Q 54.734375 -1.421875 39.40625 -1.421875 
Q 24.03125 -1.421875 14.8125 8.828125 
Q 5.609375 19.09375 5.609375 36.375 
Q 5.609375 53.65625 14.8125 63.9375 
Q 24.03125 74.21875 39.40625 74.21875 
z
" id="DejaVuSans-79"/>
       <path d="M 53.515625 70.515625 
L 53.515625 60.890625 
Q 47.90625 63.578125 42.921875 64.890625 
Q 37.9375 66.21875 33.296875 66.21875 
Q 25.25 66.21875 20.875 63.09375 
Q 16.5 59.96875 16.5 54.203125 
Q 16.5 49.359375 19.40625 46.890625 
Q 22.3125 44.4375 30.421875 42.921875 
L 36.375 41.703125 
Q 47.40625 39.59375 52.65625 34.296875 
Q 57.90625 29 57.90625 20.125 
Q 57.90625 9.515625 50.796875 4.046875 
Q 43.703125 -1.421875 29.984375 -1.421875 
Q 24.8125 -1.421875 18.96875 -0.25 
Q 13.140625 0.921875 6.890625 3.21875 
L 6.890625 13.375 
Q 12.890625 10.015625 18.65625 8.296875 
Q 24.421875 6.59375 29.984375 6.59375 
Q 38.421875 6.59375 43.015625 9.90625 
Q 47.609375 13.234375 47.609375 19.390625 
Q 47.609375 24.75 44.3125 27.78125 
Q 41.015625 30.8125 33.5 32.328125 
L 27.484375 33.5 
Q 16.453125 35.6875 11.515625 40.375 
Q 6.59375 45.0625 6.59375 53.421875 
Q 6.59375 63.09375 13.40625 68.65625 
Q 20.21875 74.21875 32.171875 74.21875 
Q 37.3125 74.21875 42.625 73.28125 
Q 47.953125 72.359375 53.515625 70.515625 
z
" id="DejaVuSans-83"/>
      </defs>
      <g transform="translate(513.971717 539.305017)rotate(-45)scale(0.1 -0.1)">
       <use xlink:href="#DejaVuSans-67"/>
       <use x="69.824219" xlink:href="#DejaVuSans-69"/>
       <use x="133.007812" xlink:href="#DejaVuSans-80"/>
       <use x="193.310547" xlink:href="#DejaVuSans-79"/>
       <use x="272.021484" xlink:href="#DejaVuSans-83"/>
      </g>
     </g>
    </g>
    <g id="xtick_10">
     <g id="line2d_10">
      <g>
       <use style="stroke:#000000;stroke-width:0.8;" x="580.484806" xlink:href="#m503897ce65" y="503.207573"/>
      </g>
     </g>
     <g id="text_10">
      <!-- ungeklimaraad -->
      <g transform="translate(555.881357 568.689723)rotate(-45)scale(0.1 -0.1)">
       <use xlink:href="#DejaVuSans-117"/>
       <use x="63.378906" xlink:href="#DejaVuSans-110"/>
       <use x="126.757812" xlink:href="#DejaVuSans-103"/>
       <use x="190.234375" xlink:href="#DejaVuSans-101"/>
       <use x="251.757812" xlink:href="#DejaVuSans-107"/>
       <use x="309.667969" xlink:href="#DejaVuSans-108"/>
       <use x="337.451172" xlink:href="#DejaVuSans-105"/>
       <use x="365.234375" xlink:href="#DejaVuSans-109"/>
       <use x="462.646484" xlink:href="#DejaVuSans-97"/>
       <use x="523.925781" xlink:href="#DejaVuSans-114"/>
       <use x="565.039062" xlink:href="#DejaVuSans-97"/>
       <use x="626.318359" xlink:href="#DejaVuSans-97"/>
       <use x="687.597656" xlink:href="#DejaVuSans-100"/>
      </g>
     </g>
    </g>
    <g id="xtick_11">
     <g id="line2d_11">
      <g>
       <use style="stroke:#000000;stroke-width:0.8;" x="637.0868" xlink:href="#m503897ce65" y="503.207573"/>
      </g>
     </g>
     <g id="text_11">
      <!-- verdensskove -->
      <g transform="translate(614.495843 564.664739)rotate(-45)scale(0.1 -0.1)">
       <use xlink:href="#DejaVuSans-118"/>
       <use x="59.179688" xlink:href="#DejaVuSans-101"/>
       <use x="120.703125" xlink:href="#DejaVuSans-114"/>
       <use x="161.800781" xlink:href="#DejaVuSans-100"/>
       <use x="225.277344" xlink:href="#DejaVuSans-101"/>
       <use x="286.800781" xlink:href="#DejaVuSans-110"/>
       <use x="350.179688" xlink:href="#DejaVuSans-115"/>
       <use x="402.279297" xlink:href="#DejaVuSans-115"/>
       <use x="454.378906" xlink:href="#DejaVuSans-107"/>
       <use x="512.242188" xlink:href="#DejaVuSans-111"/>
       <use x="573.423828" xlink:href="#DejaVuSans-118"/>
       <use x="632.603516" xlink:href="#DejaVuSans-101"/>
      </g>
     </g>
    </g>
    <g id="xtick_12">
     <g id="line2d_12">
      <g>
       <use style="stroke:#000000;stroke-width:0.8;" x="693.688794" xlink:href="#m503897ce65" y="503.207573"/>
      </g>
     </g>
     <g id="text_12">
      <!-- TaenkKemi -->
      <defs>
       <path d="M -0.296875 72.90625 
L 61.375 72.90625 
L 61.375 64.59375 
L 35.5 64.59375 
L 35.5 0 
L 25.59375 0 
L 25.59375 64.59375 
L -0.296875 64.59375 
z
" id="DejaVuSans-84"/>
      </defs>
      <g transform="translate(675.942071 554.976271)rotate(-45)scale(0.1 -0.1)">
       <use xlink:href="#DejaVuSans-84"/>
       <use x="60.833984" xlink:href="#DejaVuSans-97"/>
       <use x="122.113281" xlink:href="#DejaVuSans-101"/>
       <use x="183.636719" xlink:href="#DejaVuSans-110"/>
       <use x="247.015625" xlink:href="#DejaVuSans-107"/>
       <use x="304.925781" xlink:href="#DejaVuSans-75"/>
       <use x="370.423828" xlink:href="#DejaVuSans-101"/>
       <use x="431.947266" xlink:href="#DejaVuSans-109"/>
       <use x="529.359375" xlink:href="#DejaVuSans-105"/>
      </g>
     </g>
    </g>
    <g id="xtick_13">
     <g id="line2d_13">
      <g>
       <use style="stroke:#000000;stroke-width:0.8;" x="750.290788" xlink:href="#m503897ce65" y="503.207573"/>
      </g>
     </g>
     <g id="text_13">
      <!-- Cevea -->
      <g transform="translate(741.163034 537.738334)rotate(-45)scale(0.1 -0.1)">
       <use xlink:href="#DejaVuSans-67"/>
       <use x="69.824219" xlink:href="#DejaVuSans-101"/>
       <use x="131.347656" xlink:href="#DejaVuSans-118"/>
       <use x="190.527344" xlink:href="#DejaVuSans-101"/>
       <use x="252.050781" xlink:href="#DejaVuSans-97"/>
      </g>
     </g>
    </g>
    <g id="xtick_14">
     <g id="line2d_14">
      <g>
       <use style="stroke:#000000;stroke-width:0.8;" x="806.892782" xlink:href="#m503897ce65" y="503.207573"/>
      </g>
     </g>
     <g id="text_14">
      <!-- klimaraadet -->
      <g transform="translate(787.629094 558.010201)rotate(-45)scale(0.1 -0.1)">
       <use xlink:href="#DejaVuSans-107"/>
       <use x="57.910156" xlink:href="#DejaVuSans-108"/>
       <use x="85.693359" xlink:href="#DejaVuSans-105"/>
       <use x="113.476562" xlink:href="#DejaVuSans-109"/>
       <use x="210.888672" xlink:href="#DejaVuSans-97"/>
       <use x="272.167969" xlink:href="#DejaVuSans-114"/>
       <use x="313.28125" xlink:href="#DejaVuSans-97"/>
       <use x="374.560547" xlink:href="#DejaVuSans-97"/>
       <use x="435.839844" xlink:href="#DejaVuSans-100"/>
       <use x="499.316406" xlink:href="#DejaVuSans-101"/>
       <use x="560.839844" xlink:href="#DejaVuSans-116"/>
      </g>
     </g>
    </g>
    <g id="xtick_15">
     <g id="line2d_15">
      <g>
       <use style="stroke:#000000;stroke-width:0.8;" x="863.494775" xlink:href="#m503897ce65" y="503.207573"/>
      </g>
     </g>
     <g id="text_15">
      <!-- NOAH_dk -->
      <defs>
       <path d="M 34.1875 63.1875 
L 20.796875 26.90625 
L 47.609375 26.90625 
z
M 28.609375 72.90625 
L 39.796875 72.90625 
L 67.578125 0 
L 57.328125 0 
L 50.6875 18.703125 
L 17.828125 18.703125 
L 11.1875 0 
L 0.78125 0 
z
" id="DejaVuSans-65"/>
       <path d="M 9.8125 72.90625 
L 19.671875 72.90625 
L 19.671875 43.015625 
L 55.515625 43.015625 
L 55.515625 72.90625 
L 65.375 72.90625 
L 65.375 0 
L 55.515625 0 
L 55.515625 34.71875 
L 19.671875 34.71875 
L 19.671875 0 
L 9.8125 0 
z
" id="DejaVuSans-72"/>
       <path d="M 50.984375 -16.609375 
L 50.984375 -23.578125 
L -0.984375 -23.578125 
L -0.984375 -16.609375 
z
" id="DejaVuSans-95"/>
      </defs>
      <g transform="translate(848.783087 548.709537)rotate(-45)scale(0.1 -0.1)">
       <use xlink:href="#DejaVuSans-78"/>
       <use x="74.804688" xlink:href="#DejaVuSans-79"/>
       <use x="153.5" xlink:href="#DejaVuSans-65"/>
       <use x="221.908203" xlink:href="#DejaVuSans-72"/>
       <use x="297.103516" xlink:href="#DejaVuSans-95"/>
       <use x="347.103516" xlink:href="#DejaVuSans-100"/>
       <use x="410.580078" xlink:href="#DejaVuSans-107"/>
      </g>
     </g>
    </g>
    <g id="xtick_16">
     <g id="line2d_16">
      <g>
       <use style="stroke:#000000;stroke-width:0.8;" x="920.096769" xlink:href="#m503897ce65" y="503.207573"/>
      </g>
     </g>
     <g id="text_16">
      <!-- Vedv_Energi -->
      <defs>
       <path d="M 28.609375 0 
L 0.78125 72.90625 
L 11.078125 72.90625 
L 34.1875 11.53125 
L 57.328125 72.90625 
L 67.578125 72.90625 
L 39.796875 0 
z
" id="DejaVuSans-86"/>
      </defs>
      <g transform="translate(899.924891 559.629918)rotate(-45)scale(0.1 -0.1)">
       <use xlink:href="#DejaVuSans-86"/>
       <use x="68.298828" xlink:href="#DejaVuSans-101"/>
       <use x="129.822266" xlink:href="#DejaVuSans-100"/>
       <use x="193.298828" xlink:href="#DejaVuSans-118"/>
       <use x="252.478516" xlink:href="#DejaVuSans-95"/>
       <use x="302.478516" xlink:href="#DejaVuSans-69"/>
       <use x="365.662109" xlink:href="#DejaVuSans-110"/>
       <use x="429.041016" xlink:href="#DejaVuSans-101"/>
       <use x="490.564453" xlink:href="#DejaVuSans-114"/>
       <use x="531.662109" xlink:href="#DejaVuSans-103"/>
       <use x="595.138672" xlink:href="#DejaVuSans-105"/>
      </g>
     </g>
    </g>
    <g id="xtick_17">
     <g id="line2d_17">
      <g>
       <use style="stroke:#000000;stroke-width:0.8;" x="976.698763" xlink:href="#m503897ce65" y="503.207573"/>
      </g>
     </g>
     <g id="text_17">
      <!-- jaegerne -->
      <defs>
       <path d="M 9.421875 54.6875 
L 18.40625 54.6875 
L 18.40625 -0.984375 
Q 18.40625 -11.421875 14.421875 -16.109375 
Q 10.453125 -20.796875 1.609375 -20.796875 
L -1.8125 -20.796875 
L -1.8125 -13.1875 
L 0.59375 -13.1875 
Q 5.71875 -13.1875 7.5625 -10.8125 
Q 9.421875 -8.453125 9.421875 -0.984375 
z
M 9.421875 75.984375 
L 18.40625 75.984375 
L 18.40625 64.59375 
L 9.421875 64.59375 
z
" id="DejaVuSans-106"/>
      </defs>
      <g transform="translate(963.036687 546.806978)rotate(-45)scale(0.1 -0.1)">
       <use xlink:href="#DejaVuSans-106"/>
       <use x="27.783203" xlink:href="#DejaVuSans-97"/>
       <use x="89.0625" xlink:href="#DejaVuSans-101"/>
       <use x="150.585938" xlink:href="#DejaVuSans-103"/>
       <use x="214.0625" xlink:href="#DejaVuSans-101"/>
       <use x="275.585938" xlink:href="#DejaVuSans-114"/>
       <use x="316.683594" xlink:href="#DejaVuSans-110"/>
       <use x="380.0625" xlink:href="#DejaVuSans-101"/>
      </g>
     </g>
    </g>
   </g>
   <g id="matplotlib.axis_2">
    <g id="ytick_1">
     <g id="line2d_18">
      <defs>
       <path d="M 0 0 
L -3.5 0 
" id="mab552ebb3b" style="stroke:#000000;stroke-width:0.8;"/>
      </defs>
      <g>
       <use style="stroke:#000000;stroke-width:0.8;" x="42.765865" xlink:href="#mab552ebb3b" y="503.207573"/>
      </g>
     </g>
     <g id="text_18">
      <!-- 0 -->
      <defs>
       <path d="M 31.78125 66.40625 
Q 24.171875 66.40625 20.328125 58.90625 
Q 16.5 51.421875 16.5 36.375 
Q 16.5 21.390625 20.328125 13.890625 
Q 24.171875 6.390625 31.78125 6.390625 
Q 39.453125 6.390625 43.28125 13.890625 
Q 47.125 21.390625 47.125 36.375 
Q 47.125 51.421875 43.28125 58.90625 
Q 39.453125 66.40625 31.78125 66.40625 
z
M 31.78125 74.21875 
Q 44.046875 74.21875 50.515625 64.515625 
Q 56.984375 54.828125 56.984375 36.375 
Q 56.984375 17.96875 50.515625 8.265625 
Q 44.046875 -1.421875 31.78125 -1.421875 
Q 19.53125 -1.421875 13.0625 8.265625 
Q 6.59375 17.96875 6.59375 36.375 
Q 6.59375 54.828125 13.0625 64.515625 
Q 19.53125 74.21875 31.78125 74.21875 
z
" id="DejaVuSans-48"/>
      </defs>
      <g transform="translate(29.403365 507.006792)scale(0.1 -0.1)">
       <use xlink:href="#DejaVuSans-48"/>
      </g>
     </g>
    </g>
    <g id="ytick_2">
     <g id="line2d_19">
      <g>
       <use style="stroke:#000000;stroke-width:0.8;" x="42.765865" xlink:href="#mab552ebb3b" y="423.377931"/>
      </g>
     </g>
     <g id="text_19">
      <!-- 50 -->
      <defs>
       <path d="M 10.796875 72.90625 
L 49.515625 72.90625 
L 49.515625 64.59375 
L 19.828125 64.59375 
L 19.828125 46.734375 
Q 21.96875 47.46875 24.109375 47.828125 
Q 26.265625 48.1875 28.421875 48.1875 
Q 40.625 48.1875 47.75 41.5 
Q 54.890625 34.8125 54.890625 23.390625 
Q 54.890625 11.625 47.5625 5.09375 
Q 40.234375 -1.421875 26.90625 -1.421875 
Q 22.3125 -1.421875 17.546875 -0.640625 
Q 12.796875 0.140625 7.71875 1.703125 
L 7.71875 11.625 
Q 12.109375 9.234375 16.796875 8.0625 
Q 21.484375 6.890625 26.703125 6.890625 
Q 35.15625 6.890625 40.078125 11.328125 
Q 45.015625 15.765625 45.015625 23.390625 
Q 45.015625 31 40.078125 35.4375 
Q 35.15625 39.890625 26.703125 39.890625 
Q 22.75 39.890625 18.8125 39.015625 
Q 14.890625 38.140625 10.796875 36.28125 
z
" id="DejaVuSans-53"/>
      </defs>
      <g transform="translate(23.040865 427.177149)scale(0.1 -0.1)">
       <use xlink:href="#DejaVuSans-53"/>
       <use x="63.623047" xlink:href="#DejaVuSans-48"/>
      </g>
     </g>
    </g>
    <g id="ytick_3">
     <g id="line2d_20">
      <g>
       <use style="stroke:#000000;stroke-width:0.8;" x="42.765865" xlink:href="#mab552ebb3b" y="343.548288"/>
      </g>
     </g>
     <g id="text_20">
      <!-- 100 -->
      <defs>
       <path d="M 12.40625 8.296875 
L 28.515625 8.296875 
L 28.515625 63.921875 
L 10.984375 60.40625 
L 10.984375 69.390625 
L 28.421875 72.90625 
L 38.28125 72.90625 
L 38.28125 8.296875 
L 54.390625 8.296875 
L 54.390625 0 
L 12.40625 0 
z
" id="DejaVuSans-49"/>
      </defs>
      <g transform="translate(16.678365 347.347507)scale(0.1 -0.1)">
       <use xlink:href="#DejaVuSans-49"/>
       <use x="63.623047" xlink:href="#DejaVuSans-48"/>
       <use x="127.246094" xlink:href="#DejaVuSans-48"/>
      </g>
     </g>
    </g>
    <g id="ytick_4">
     <g id="line2d_21">
      <g>
       <use style="stroke:#000000;stroke-width:0.8;" x="42.765865" xlink:href="#mab552ebb3b" y="263.718646"/>
      </g>
     </g>
     <g id="text_21">
      <!-- 150 -->
      <g transform="translate(16.678365 267.517865)scale(0.1 -0.1)">
       <use xlink:href="#DejaVuSans-49"/>
       <use x="63.623047" xlink:href="#DejaVuSans-53"/>
       <use x="127.246094" xlink:href="#DejaVuSans-48"/>
      </g>
     </g>
    </g>
    <g id="ytick_5">
     <g id="line2d_22">
      <g>
       <use style="stroke:#000000;stroke-width:0.8;" x="42.765865" xlink:href="#mab552ebb3b" y="183.889004"/>
      </g>
     </g>
     <g id="text_22">
      <!-- 200 -->
      <defs>
       <path d="M 19.1875 8.296875 
L 53.609375 8.296875 
L 53.609375 0 
L 7.328125 0 
L 7.328125 8.296875 
Q 12.9375 14.109375 22.625 23.890625 
Q 32.328125 33.6875 34.8125 36.53125 
Q 39.546875 41.84375 41.421875 45.53125 
Q 43.3125 49.21875 43.3125 52.78125 
Q 43.3125 58.59375 39.234375 62.25 
Q 35.15625 65.921875 28.609375 65.921875 
Q 23.96875 65.921875 18.8125 64.3125 
Q 13.671875 62.703125 7.8125 59.421875 
L 7.8125 69.390625 
Q 13.765625 71.78125 18.9375 73 
Q 24.125 74.21875 28.421875 74.21875 
Q 39.75 74.21875 46.484375 68.546875 
Q 53.21875 62.890625 53.21875 53.421875 
Q 53.21875 48.921875 51.53125 44.890625 
Q 49.859375 40.875 45.40625 35.40625 
Q 44.1875 33.984375 37.640625 27.21875 
Q 31.109375 20.453125 19.1875 8.296875 
z
" id="DejaVuSans-50"/>
      </defs>
      <g transform="translate(16.678365 187.688222)scale(0.1 -0.1)">
       <use xlink:href="#DejaVuSans-50"/>
       <use x="63.623047" xlink:href="#DejaVuSans-48"/>
       <use x="127.246094" xlink:href="#DejaVuSans-48"/>
      </g>
     </g>
    </g>
    <g id="ytick_6">
     <g id="line2d_23">
      <g>
       <use style="stroke:#000000;stroke-width:0.8;" x="42.765865" xlink:href="#mab552ebb3b" y="104.059361"/>
      </g>
     </g>
     <g id="text_23">
      <!-- 250 -->
      <g transform="translate(16.678365 107.85858)scale(0.1 -0.1)">
       <use xlink:href="#DejaVuSans-50"/>
       <use x="63.623047" xlink:href="#DejaVuSans-53"/>
       <use x="127.246094" xlink:href="#DejaVuSans-48"/>
      </g>
     </g>
    </g>
    <g id="ytick_7">
     <g id="line2d_24">
      <g>
       <use style="stroke:#000000;stroke-width:0.8;" x="42.765865" xlink:href="#mab552ebb3b" y="24.229719"/>
      </g>
     </g>
     <g id="text_24">
      <!-- 300 -->
      <defs>
       <path d="M 40.578125 39.3125 
Q 47.65625 37.796875 51.625 33 
Q 55.609375 28.21875 55.609375 21.1875 
Q 55.609375 10.40625 48.1875 4.484375 
Q 40.765625 -1.421875 27.09375 -1.421875 
Q 22.515625 -1.421875 17.65625 -0.515625 
Q 12.796875 0.390625 7.625 2.203125 
L 7.625 11.71875 
Q 11.71875 9.328125 16.59375 8.109375 
Q 21.484375 6.890625 26.8125 6.890625 
Q 36.078125 6.890625 40.9375 10.546875 
Q 45.796875 14.203125 45.796875 21.1875 
Q 45.796875 27.640625 41.28125 31.265625 
Q 36.765625 34.90625 28.71875 34.90625 
L 20.21875 34.90625 
L 20.21875 43.015625 
L 29.109375 43.015625 
Q 36.375 43.015625 40.234375 45.921875 
Q 44.09375 48.828125 44.09375 54.296875 
Q 44.09375 59.90625 40.109375 62.90625 
Q 36.140625 65.921875 28.71875 65.921875 
Q 24.65625 65.921875 20.015625 65.03125 
Q 15.375 64.15625 9.8125 62.3125 
L 9.8125 71.09375 
Q 15.4375 72.65625 20.34375 73.4375 
Q 25.25 74.21875 29.59375 74.21875 
Q 40.828125 74.21875 47.359375 69.109375 
Q 53.90625 64.015625 53.90625 55.328125 
Q 53.90625 49.265625 50.4375 45.09375 
Q 46.96875 40.921875 40.578125 39.3125 
z
" id="DejaVuSans-51"/>
      </defs>
      <g transform="translate(16.678365 28.028938)scale(0.1 -0.1)">
       <use xlink:href="#DejaVuSans-51"/>
       <use x="63.623047" xlink:href="#DejaVuSans-48"/>
       <use x="127.246094" xlink:href="#DejaVuSans-48"/>
      </g>
     </g>
    </g>
    <g id="text_25">
     <!-- Antal tweets -->
     <defs>
      <path id="DejaVuSans-32"/>
      <path d="M 4.203125 54.6875 
L 13.1875 54.6875 
L 24.421875 12.015625 
L 35.59375 54.6875 
L 46.1875 54.6875 
L 57.421875 12.015625 
L 68.609375 54.6875 
L 77.59375 54.6875 
L 63.28125 0 
L 52.6875 0 
L 40.921875 44.828125 
L 29.109375 0 
L 18.5 0 
z
" id="DejaVuSans-119"/>
     </defs>
     <g transform="translate(10.598678 293.161328)rotate(-90)scale(0.1 -0.1)">
      <use xlink:href="#DejaVuSans-65"/>
      <use x="68.408203" xlink:href="#DejaVuSans-110"/>
      <use x="131.787109" xlink:href="#DejaVuSans-116"/>
      <use x="170.996094" xlink:href="#DejaVuSans-97"/>
      <use x="232.275391" xlink:href="#DejaVuSans-108"/>
      <use x="260.058594" xlink:href="#DejaVuSans-32"/>
      <use x="291.845703" xlink:href="#DejaVuSans-116"/>
      <use x="331.054688" xlink:href="#DejaVuSans-119"/>
      <use x="412.841797" xlink:href="#DejaVuSans-101"/>
      <use x="474.365234" xlink:href="#DejaVuSans-101"/>
      <use x="535.888672" xlink:href="#DejaVuSans-116"/>
      <use x="575.097656" xlink:href="#DejaVuSans-115"/>
     </g>
    </g>
   </g>
   <g id="patch_71">
    <path d="M 42.765865 503.207573 
L 42.765865 20.397896 
" style="fill:none;stroke:#000000;stroke-linecap:square;stroke-linejoin:miter;stroke-width:0.8;"/>
   </g>
   <g id="patch_72">
    <path d="M 1004.99976 503.207573 
L 1004.99976 20.397896 
" style="fill:none;stroke:#000000;stroke-linecap:square;stroke-linejoin:miter;stroke-width:0.8;"/>
   </g>
   <g id="patch_73">
    <path d="M 42.765865 503.207573 
L 1004.99976 503.207573 
" style="fill:none;stroke:#000000;stroke-linecap:square;stroke-linejoin:miter;stroke-width:0.8;"/>
   </g>
   <g id="patch_74">
    <path d="M 42.765865 20.397896 
L 1004.99976 20.397896 
" style="fill:none;stroke:#000000;stroke-linecap:square;stroke-linejoin:miter;stroke-width:0.8;"/>
   </g>
   <g id="text_26">
    <!-- Twitter-aktivitet per NGO, Danmark -->
    <defs>
     <path d="M 4.890625 31.390625 
L 31.203125 31.390625 
L 31.203125 23.390625 
L 4.890625 23.390625 
z
" id="DejaVuSans-45"/>
     <path d="M 59.515625 10.40625 
L 59.515625 29.984375 
L 43.40625 29.984375 
L 43.40625 38.09375 
L 69.28125 38.09375 
L 69.28125 6.78125 
Q 63.578125 2.734375 56.6875 0.65625 
Q 49.8125 -1.421875 42 -1.421875 
Q 24.90625 -1.421875 15.25 8.5625 
Q 5.609375 18.5625 5.609375 36.375 
Q 5.609375 54.25 15.25 64.234375 
Q 24.90625 74.21875 42 74.21875 
Q 49.125 74.21875 55.546875 72.453125 
Q 61.96875 70.703125 67.390625 67.28125 
L 67.390625 56.78125 
Q 61.921875 61.421875 55.765625 63.765625 
Q 49.609375 66.109375 42.828125 66.109375 
Q 29.4375 66.109375 22.71875 58.640625 
Q 16.015625 51.171875 16.015625 36.375 
Q 16.015625 21.625 22.71875 14.15625 
Q 29.4375 6.6875 42.828125 6.6875 
Q 48.046875 6.6875 52.140625 7.59375 
Q 56.25 8.5 59.515625 10.40625 
z
" id="DejaVuSans-71"/>
     <path d="M 11.71875 12.40625 
L 22.015625 12.40625 
L 22.015625 4 
L 14.015625 -11.625 
L 7.71875 -11.625 
L 11.71875 4 
z
" id="DejaVuSans-44"/>
    </defs>
    <g transform="translate(390.073438 14.397896)scale(0.15 -0.15)">
     <use xlink:href="#DejaVuSans-84"/>
     <use x="60.833984" xlink:href="#DejaVuSans-119"/>
     <use x="142.621094" xlink:href="#DejaVuSans-105"/>
     <use x="170.404297" xlink:href="#DejaVuSans-116"/>
     <use x="209.613281" xlink:href="#DejaVuSans-116"/>
     <use x="248.822266" xlink:href="#DejaVuSans-101"/>
     <use x="310.345703" xlink:href="#DejaVuSans-114"/>
     <use x="351.365234" xlink:href="#DejaVuSans-45"/>
     <use x="387.449219" xlink:href="#DejaVuSans-97"/>
     <use x="448.728516" xlink:href="#DejaVuSans-107"/>
     <use x="506.638672" xlink:href="#DejaVuSans-116"/>
     <use x="545.847656" xlink:href="#DejaVuSans-105"/>
     <use x="573.630859" xlink:href="#DejaVuSans-118"/>
     <use x="632.810547" xlink:href="#DejaVuSans-105"/>
     <use x="660.59375" xlink:href="#DejaVuSans-116"/>
     <use x="699.802734" xlink:href="#DejaVuSans-101"/>
     <use x="761.326172" xlink:href="#DejaVuSans-116"/>
     <use x="800.535156" xlink:href="#DejaVuSans-32"/>
     <use x="832.322266" xlink:href="#DejaVuSans-112"/>
     <use x="895.798828" xlink:href="#DejaVuSans-101"/>
     <use x="957.322266" xlink:href="#DejaVuSans-114"/>
     <use x="998.435547" xlink:href="#DejaVuSans-32"/>
     <use x="1030.222656" xlink:href="#DejaVuSans-78"/>
     <use x="1105.027344" xlink:href="#DejaVuSans-71"/>
     <use x="1182.517578" xlink:href="#DejaVuSans-79"/>
     <use x="1261.228516" xlink:href="#DejaVuSans-44"/>
     <use x="1293.015625" xlink:href="#DejaVuSans-32"/>
     <use x="1324.802734" xlink:href="#DejaVuSans-68"/>
     <use x="1401.804688" xlink:href="#DejaVuSans-97"/>
     <use x="1463.083984" xlink:href="#DejaVuSans-110"/>
     <use x="1526.462891" xlink:href="#DejaVuSans-109"/>
     <use x="1623.875" xlink:href="#DejaVuSans-97"/>
     <use x="1685.154297" xlink:href="#DejaVuSans-114"/>
     <use x="1726.267578" xlink:href="#DejaVuSans-107"/>
    </g>
   </g>
   <g id="legend_1">
    <g id="patch_75">
     <path d="M 814.410697 87.110396 
L 997.99976 87.110396 
Q 999.99976 87.110396 999.99976 85.110396 
L 999.99976 27.397896 
Q 999.99976 25.397896 997.99976 25.397896 
L 814.410697 25.397896 
Q 812.410697 25.397896 812.410697 27.397896 
L 812.410697 85.110396 
Q 812.410697 87.110396 814.410697 87.110396 
z
" style="fill:#ffffff;opacity:0.8;stroke:#cccccc;stroke-linejoin:miter;"/>
    </g>
    <g id="patch_76">
     <path d="M 816.410697 36.996334 
L 836.410697 36.996334 
L 836.410697 29.996334 
L 816.410697 29.996334 
z
" style="fill:#1f77b4;"/>
    </g>
    <g id="text_27">
     <!-- Hverken klima eller coronaord -->
     <g transform="translate(844.410697 36.996334)scale(0.1 -0.1)">
      <use xlink:href="#DejaVuSans-72"/>
      <use x="75.195312" xlink:href="#DejaVuSans-118"/>
      <use x="134.375" xlink:href="#DejaVuSans-101"/>
      <use x="195.898438" xlink:href="#DejaVuSans-114"/>
      <use x="237.011719" xlink:href="#DejaVuSans-107"/>
      <use x="294.875" xlink:href="#DejaVuSans-101"/>
      <use x="356.398438" xlink:href="#DejaVuSans-110"/>
      <use x="419.777344" xlink:href="#DejaVuSans-32"/>
      <use x="451.564453" xlink:href="#DejaVuSans-107"/>
      <use x="509.474609" xlink:href="#DejaVuSans-108"/>
      <use x="537.257812" xlink:href="#DejaVuSans-105"/>
      <use x="565.041016" xlink:href="#DejaVuSans-109"/>
      <use x="662.453125" xlink:href="#DejaVuSans-97"/>
      <use x="723.732422" xlink:href="#DejaVuSans-32"/>
      <use x="755.519531" xlink:href="#DejaVuSans-101"/>
      <use x="817.042969" xlink:href="#DejaVuSans-108"/>
      <use x="844.826172" xlink:href="#DejaVuSans-108"/>
      <use x="872.609375" xlink:href="#DejaVuSans-101"/>
      <use x="934.132812" xlink:href="#DejaVuSans-114"/>
      <use x="975.246094" xlink:href="#DejaVuSans-32"/>
      <use x="1007.033203" xlink:href="#DejaVuSans-99"/>
      <use x="1062.013672" xlink:href="#DejaVuSans-111"/>
      <use x="1123.195312" xlink:href="#DejaVuSans-114"/>
      <use x="1164.277344" xlink:href="#DejaVuSans-111"/>
      <use x="1225.458984" xlink:href="#DejaVuSans-110"/>
      <use x="1288.837891" xlink:href="#DejaVuSans-97"/>
      <use x="1350.117188" xlink:href="#DejaVuSans-111"/>
      <use x="1411.298828" xlink:href="#DejaVuSans-114"/>
      <use x="1452.396484" xlink:href="#DejaVuSans-100"/>
     </g>
    </g>
    <g id="patch_77">
     <path d="M 816.410697 51.674459 
L 836.410697 51.674459 
L 836.410697 44.674459 
L 816.410697 44.674459 
z
" style="fill:#ff7f0e;"/>
    </g>
    <g id="text_28">
     <!-- Kun klimaord -->
     <g transform="translate(844.410697 51.674459)scale(0.1 -0.1)">
      <use xlink:href="#DejaVuSans-75"/>
      <use x="65.498047" xlink:href="#DejaVuSans-117"/>
      <use x="128.876953" xlink:href="#DejaVuSans-110"/>
      <use x="192.255859" xlink:href="#DejaVuSans-32"/>
      <use x="224.042969" xlink:href="#DejaVuSans-107"/>
      <use x="281.953125" xlink:href="#DejaVuSans-108"/>
      <use x="309.736328" xlink:href="#DejaVuSans-105"/>
      <use x="337.519531" xlink:href="#DejaVuSans-109"/>
      <use x="434.931641" xlink:href="#DejaVuSans-97"/>
      <use x="496.210938" xlink:href="#DejaVuSans-111"/>
      <use x="557.392578" xlink:href="#DejaVuSans-114"/>
      <use x="598.490234" xlink:href="#DejaVuSans-100"/>
     </g>
    </g>
    <g id="patch_78">
     <path d="M 816.410697 66.352584 
L 836.410697 66.352584 
L 836.410697 59.352584 
L 816.410697 59.352584 
z
" style="fill:#2ca02c;"/>
    </g>
    <g id="text_29">
     <!-- Klima og coronaord -->
     <g transform="translate(844.410697 66.352584)scale(0.1 -0.1)">
      <use xlink:href="#DejaVuSans-75"/>
      <use x="65.576172" xlink:href="#DejaVuSans-108"/>
      <use x="93.359375" xlink:href="#DejaVuSans-105"/>
      <use x="121.142578" xlink:href="#DejaVuSans-109"/>
      <use x="218.554688" xlink:href="#DejaVuSans-97"/>
      <use x="279.833984" xlink:href="#DejaVuSans-32"/>
      <use x="311.621094" xlink:href="#DejaVuSans-111"/>
      <use x="372.802734" xlink:href="#DejaVuSans-103"/>
      <use x="436.279297" xlink:href="#DejaVuSans-32"/>
      <use x="468.066406" xlink:href="#DejaVuSans-99"/>
      <use x="523.046875" xlink:href="#DejaVuSans-111"/>
      <use x="584.228516" xlink:href="#DejaVuSans-114"/>
      <use x="625.310547" xlink:href="#DejaVuSans-111"/>
      <use x="686.492188" xlink:href="#DejaVuSans-110"/>
      <use x="749.871094" xlink:href="#DejaVuSans-97"/>
      <use x="811.150391" xlink:href="#DejaVuSans-111"/>
      <use x="872.332031" xlink:href="#DejaVuSans-114"/>
      <use x="913.429688" xlink:href="#DejaVuSans-100"/>
     </g>
    </g>
    <g id="patch_79">
     <path d="M 816.410697 81.030709 
L 836.410697 81.030709 
L 836.410697 74.030709 
L 816.410697 74.030709 
z
" style="fill:#d62728;"/>
    </g>
    <g id="text_30">
     <!-- Kun coronaord -->
     <g transform="translate(844.410697 81.030709)scale(0.1 -0.1)">
      <use xlink:href="#DejaVuSans-75"/>
      <use x="65.498047" xlink:href="#DejaVuSans-117"/>
      <use x="128.876953" xlink:href="#DejaVuSans-110"/>
      <use x="192.255859" xlink:href="#DejaVuSans-32"/>
      <use x="224.042969" xlink:href="#DejaVuSans-99"/>
      <use x="279.023438" xlink:href="#DejaVuSans-111"/>
      <use x="340.205078" xlink:href="#DejaVuSans-114"/>
      <use x="381.287109" xlink:href="#DejaVuSans-111"/>
      <use x="442.46875" xlink:href="#DejaVuSans-110"/>
      <use x="505.847656" xlink:href="#DejaVuSans-97"/>
      <use x="567.126953" xlink:href="#DejaVuSans-111"/>
      <use x="628.308594" xlink:href="#DejaVuSans-114"/>
      <use x="669.40625" xlink:href="#DejaVuSans-100"/>
     </g>
    </g>
   </g>
  </g>
 </g>
 <defs>
  <clipPath id="peb092e1b53">
   <rect height="482.809677" width="962.233895" x="42.765865" y="20.397896"/>
  </clipPath>
 </defs>
</svg>
