<?xml version="1.0" encoding="utf-8" standalone="no"?>
<!DOCTYPE svg PUBLIC "-//W3C//DTD SVG 1.1//EN"
  "http://www.w3.org/Graphics/SVG/1.1/DTD/svg11.dtd">
<!-- Created with matplotlib (https://matplotlib.org/) -->
<svg height="509.80998pt" version="1.1" viewBox="0 0 1136.176625 509.80998" width="1136.176625pt" xmlns="http://www.w3.org/2000/svg" xmlns:xlink="http://www.w3.org/1999/xlink">
 <defs>
  <style type="text/css">
*{stroke-linecap:butt;stroke-linejoin:round;}
  </style>
 </defs>
 <g id="figure_1">
  <g id="patch_1">
   <path d="M 0 509.80998 
L 1136.176625 509.80998 
L 1136.176625 0 
L 0 0 
z
" style="fill:#ffffff;"/>
  </g>
  <g id="axes_1">
   <g id="patch_2">
    <path d="M 47.010625 462.588574 
L 939.810625 462.588574 
L 939.810625 27.708574 
L 47.010625 27.708574 
z
" style="fill:#eaeaf2;"/>
   </g>
   <g id="matplotlib.axis_1">
    <g id="xtick_1">
     <g id="line2d_1">
      <path clip-path="url(#p0a444ab620)" d="M 255.517208 462.588574 
L 255.517208 27.708574 
" style="fill:none;stroke:#ffffff;stroke-linecap:round;"/>
     </g>
     <g id="line2d_2">
      <defs>
       <path d="M 0 0 
L 0 6 
" id="md3a3227bfd" style="stroke:#262626;stroke-width:1.25;"/>
      </defs>
      <g>
       <use style="fill:#262626;stroke:#262626;stroke-width:1.25;" x="255.517208" xlink:href="#md3a3227bfd" y="462.588574"/>
      </g>
     </g>
     <g id="text_1">
      <!-- Mar -->
      <defs>
       <path d="M 7.421875 0 
L 7.421875 71.578125 
L 21.6875 71.578125 
L 38.625 20.90625 
Q 40.96875 13.8125 42.046875 10.296875 
Q 43.265625 14.203125 45.84375 21.78125 
L 62.984375 71.578125 
L 75.734375 71.578125 
L 75.734375 0 
L 66.609375 0 
L 66.609375 59.90625 
L 45.796875 0 
L 37.25 0 
L 16.546875 60.9375 
L 16.546875 0 
z
" id="ArialMT-77"/>
       <path d="M 40.4375 6.390625 
Q 35.546875 2.25 31.03125 0.53125 
Q 26.515625 -1.171875 21.34375 -1.171875 
Q 12.796875 -1.171875 8.203125 3 
Q 3.609375 7.171875 3.609375 13.671875 
Q 3.609375 17.484375 5.34375 20.625 
Q 7.078125 23.78125 9.890625 25.6875 
Q 12.703125 27.59375 16.21875 28.5625 
Q 18.796875 29.25 24.03125 29.890625 
Q 34.671875 31.15625 39.703125 32.90625 
Q 39.75 34.71875 39.75 35.203125 
Q 39.75 40.578125 37.25 42.78125 
Q 33.890625 45.75 27.25 45.75 
Q 21.046875 45.75 18.09375 43.578125 
Q 15.140625 41.40625 13.71875 35.890625 
L 5.125 37.0625 
Q 6.296875 42.578125 8.984375 45.96875 
Q 11.671875 49.359375 16.75 51.1875 
Q 21.828125 53.03125 28.515625 53.03125 
Q 35.15625 53.03125 39.296875 51.46875 
Q 43.453125 49.90625 45.40625 47.53125 
Q 47.359375 45.171875 48.140625 41.546875 
Q 48.578125 39.3125 48.578125 33.453125 
L 48.578125 21.734375 
Q 48.578125 9.46875 49.140625 6.21875 
Q 49.703125 2.984375 51.375 0 
L 42.1875 0 
Q 40.828125 2.734375 40.4375 6.390625 
z
M 39.703125 26.03125 
Q 34.90625 24.078125 25.34375 22.703125 
Q 19.921875 21.921875 17.671875 20.9375 
Q 15.4375 19.96875 14.203125 18.09375 
Q 12.984375 16.21875 12.984375 13.921875 
Q 12.984375 10.40625 15.640625 8.0625 
Q 18.3125 5.71875 23.4375 5.71875 
Q 28.515625 5.71875 32.46875 7.9375 
Q 36.421875 10.15625 38.28125 14.015625 
Q 39.703125 17 39.703125 22.796875 
z
" id="ArialMT-97"/>
       <path d="M 6.5 0 
L 6.5 51.859375 
L 14.40625 51.859375 
L 14.40625 44 
Q 17.4375 49.515625 20 51.265625 
Q 22.5625 53.03125 25.640625 53.03125 
Q 30.078125 53.03125 34.671875 50.203125 
L 31.640625 42.046875 
Q 28.421875 43.953125 25.203125 43.953125 
Q 22.3125 43.953125 20.015625 42.21875 
Q 17.71875 40.484375 16.75 37.40625 
Q 15.28125 32.71875 15.28125 27.15625 
L 15.28125 0 
z
" id="ArialMT-114"/>
      </defs>
      <g style="fill:#262626;" transform="translate(243.462989 482.109511)scale(0.14 -0.14)">
       <use xlink:href="#ArialMT-77"/>
       <use x="83.300781" xlink:href="#ArialMT-97"/>
       <use x="138.916016" xlink:href="#ArialMT-114"/>
      </g>
     </g>
    </g>
    <g id="xtick_2">
     <g id="line2d_3">
      <path clip-path="url(#p0a444ab620)" d="M 59.604982 462.588574 
L 59.604982 27.708574 
" style="fill:none;stroke:#ffffff;stroke-linecap:round;"/>
     </g>
     <g id="line2d_4">
      <defs>
       <path d="M 0 0 
L 0 4 
" id="m6f8c763b01" style="stroke:#262626;"/>
      </defs>
      <g>
       <use style="fill:#262626;stroke:#262626;" x="59.604982" xlink:href="#m6f8c763b01" y="462.588574"/>
      </g>
     </g>
     <g id="text_2">
      <!-- 23 -->
      <defs>
       <path d="M 50.34375 8.453125 
L 50.34375 0 
L 3.03125 0 
Q 2.9375 3.171875 4.046875 6.109375 
Q 5.859375 10.9375 9.828125 15.625 
Q 13.8125 20.3125 21.34375 26.46875 
Q 33.015625 36.03125 37.109375 41.625 
Q 41.21875 47.21875 41.21875 52.203125 
Q 41.21875 57.421875 37.46875 61 
Q 33.734375 64.59375 27.734375 64.59375 
Q 21.390625 64.59375 17.578125 60.78125 
Q 13.765625 56.984375 13.71875 50.25 
L 4.6875 51.171875 
Q 5.609375 61.28125 11.65625 66.578125 
Q 17.71875 71.875 27.9375 71.875 
Q 38.234375 71.875 44.234375 66.15625 
Q 50.25 60.453125 50.25 52 
Q 50.25 47.703125 48.484375 43.546875 
Q 46.734375 39.40625 42.65625 34.8125 
Q 38.578125 30.21875 29.109375 22.21875 
Q 21.1875 15.578125 18.9375 13.203125 
Q 16.703125 10.84375 15.234375 8.453125 
z
" id="ArialMT-50"/>
       <path d="M 4.203125 18.890625 
L 12.984375 20.0625 
Q 14.5 12.59375 18.140625 9.296875 
Q 21.78125 6 27 6 
Q 33.203125 6 37.46875 10.296875 
Q 41.75 14.59375 41.75 20.953125 
Q 41.75 27 37.796875 30.921875 
Q 33.84375 34.859375 27.734375 34.859375 
Q 25.25 34.859375 21.53125 33.890625 
L 22.515625 41.609375 
Q 23.390625 41.5 23.921875 41.5 
Q 29.546875 41.5 34.03125 44.421875 
Q 38.53125 47.359375 38.53125 53.46875 
Q 38.53125 58.296875 35.25 61.46875 
Q 31.984375 64.65625 26.8125 64.65625 
Q 21.6875 64.65625 18.265625 61.421875 
Q 14.84375 58.203125 13.875 51.765625 
L 5.078125 53.328125 
Q 6.6875 62.15625 12.390625 67.015625 
Q 18.109375 71.875 26.609375 71.875 
Q 32.46875 71.875 37.390625 69.359375 
Q 42.328125 66.84375 44.9375 62.5 
Q 47.5625 58.15625 47.5625 53.265625 
Q 47.5625 48.640625 45.0625 44.828125 
Q 42.578125 41.015625 37.703125 38.765625 
Q 44.046875 37.3125 47.5625 32.6875 
Q 51.078125 28.078125 51.078125 21.140625 
Q 51.078125 11.765625 44.234375 5.25 
Q 37.40625 -1.265625 26.953125 -1.265625 
Q 17.53125 -1.265625 11.296875 4.34375 
Q 5.078125 9.96875 4.203125 18.890625 
z
" id="ArialMT-51"/>
      </defs>
      <g style="fill:#262626;" transform="translate(53.487951 477.862168)scale(0.11 -0.11)">
       <use xlink:href="#ArialMT-50"/>
       <use x="55.615234" xlink:href="#ArialMT-51"/>
      </g>
     </g>
    </g>
    <g id="xtick_3">
     <g id="line2d_5">
      <path clip-path="url(#p0a444ab620)" d="M 87.592443 462.588574 
L 87.592443 27.708574 
" style="fill:none;stroke:#ffffff;stroke-linecap:round;"/>
     </g>
     <g id="line2d_6">
      <g>
       <use style="fill:#262626;stroke:#262626;" x="87.592443" xlink:href="#m6f8c763b01" y="462.588574"/>
      </g>
     </g>
     <g id="text_3">
      <!-- 24 -->
      <defs>
       <path d="M 32.328125 0 
L 32.328125 17.140625 
L 1.265625 17.140625 
L 1.265625 25.203125 
L 33.9375 71.578125 
L 41.109375 71.578125 
L 41.109375 25.203125 
L 50.78125 25.203125 
L 50.78125 17.140625 
L 41.109375 17.140625 
L 41.109375 0 
z
M 32.328125 25.203125 
L 32.328125 57.46875 
L 9.90625 25.203125 
z
" id="ArialMT-52"/>
      </defs>
      <g style="fill:#262626;" transform="translate(81.475412 477.862168)scale(0.11 -0.11)">
       <use xlink:href="#ArialMT-50"/>
       <use x="55.615234" xlink:href="#ArialMT-52"/>
      </g>
     </g>
    </g>
    <g id="xtick_4">
     <g id="line2d_7">
      <path clip-path="url(#p0a444ab620)" d="M 115.579904 462.588574 
L 115.579904 27.708574 
" style="fill:none;stroke:#ffffff;stroke-linecap:round;"/>
     </g>
     <g id="line2d_8">
      <g>
       <use style="fill:#262626;stroke:#262626;" x="115.579904" xlink:href="#m6f8c763b01" y="462.588574"/>
      </g>
     </g>
     <g id="text_4">
      <!-- 25 -->
      <defs>
       <path d="M 4.15625 18.75 
L 13.375 19.53125 
Q 14.40625 12.796875 18.140625 9.390625 
Q 21.875 6 27.15625 6 
Q 33.5 6 37.890625 10.78125 
Q 42.28125 15.578125 42.28125 23.484375 
Q 42.28125 31 38.0625 35.34375 
Q 33.84375 39.703125 27 39.703125 
Q 22.75 39.703125 19.328125 37.765625 
Q 15.921875 35.84375 13.96875 32.765625 
L 5.71875 33.84375 
L 12.640625 70.609375 
L 48.25 70.609375 
L 48.25 62.203125 
L 19.671875 62.203125 
L 15.828125 42.96875 
Q 22.265625 47.46875 29.34375 47.46875 
Q 38.71875 47.46875 45.15625 40.96875 
Q 51.609375 34.46875 51.609375 24.265625 
Q 51.609375 14.546875 45.953125 7.46875 
Q 39.0625 -1.21875 27.15625 -1.21875 
Q 17.390625 -1.21875 11.203125 4.25 
Q 5.03125 9.71875 4.15625 18.75 
z
" id="ArialMT-53"/>
      </defs>
      <g style="fill:#262626;" transform="translate(109.462873 477.862168)scale(0.11 -0.11)">
       <use xlink:href="#ArialMT-50"/>
       <use x="55.615234" xlink:href="#ArialMT-53"/>
      </g>
     </g>
    </g>
    <g id="xtick_5">
     <g id="line2d_9">
      <path clip-path="url(#p0a444ab620)" d="M 143.567365 462.588574 
L 143.567365 27.708574 
" style="fill:none;stroke:#ffffff;stroke-linecap:round;"/>
     </g>
     <g id="line2d_10">
      <g>
       <use style="fill:#262626;stroke:#262626;" x="143.567365" xlink:href="#m6f8c763b01" y="462.588574"/>
      </g>
     </g>
     <g id="text_5">
      <!-- 26 -->
      <defs>
       <path d="M 49.75 54.046875 
L 41.015625 53.375 
Q 39.84375 58.546875 37.703125 60.890625 
Q 34.125 64.65625 28.90625 64.65625 
Q 24.703125 64.65625 21.53125 62.3125 
Q 17.390625 59.28125 14.984375 53.46875 
Q 12.59375 47.65625 12.5 36.921875 
Q 15.671875 41.75 20.265625 44.09375 
Q 24.859375 46.4375 29.890625 46.4375 
Q 38.671875 46.4375 44.84375 39.96875 
Q 51.03125 33.5 51.03125 23.25 
Q 51.03125 16.5 48.125 10.71875 
Q 45.21875 4.9375 40.140625 1.859375 
Q 35.0625 -1.21875 28.609375 -1.21875 
Q 17.625 -1.21875 10.6875 6.859375 
Q 3.765625 14.9375 3.765625 33.5 
Q 3.765625 54.25 11.421875 63.671875 
Q 18.109375 71.875 29.4375 71.875 
Q 37.890625 71.875 43.28125 67.140625 
Q 48.6875 62.40625 49.75 54.046875 
z
M 13.875 23.1875 
Q 13.875 18.65625 15.796875 14.5 
Q 17.71875 10.359375 21.1875 8.171875 
Q 24.65625 6 28.46875 6 
Q 34.03125 6 38.03125 10.484375 
Q 42.046875 14.984375 42.046875 22.703125 
Q 42.046875 30.125 38.078125 34.390625 
Q 34.125 38.671875 28.125 38.671875 
Q 22.171875 38.671875 18.015625 34.390625 
Q 13.875 30.125 13.875 23.1875 
z
" id="ArialMT-54"/>
      </defs>
      <g style="fill:#262626;" transform="translate(137.450334 477.862168)scale(0.11 -0.11)">
       <use xlink:href="#ArialMT-50"/>
       <use x="55.615234" xlink:href="#ArialMT-54"/>
      </g>
     </g>
    </g>
    <g id="xtick_6">
     <g id="line2d_11">
      <path clip-path="url(#p0a444ab620)" d="M 171.554826 462.588574 
L 171.554826 27.708574 
" style="fill:none;stroke:#ffffff;stroke-linecap:round;"/>
     </g>
     <g id="line2d_12">
      <g>
       <use style="fill:#262626;stroke:#262626;" x="171.554826" xlink:href="#m6f8c763b01" y="462.588574"/>
      </g>
     </g>
     <g id="text_6">
      <!-- 27 -->
      <defs>
       <path d="M 4.734375 62.203125 
L 4.734375 70.65625 
L 51.078125 70.65625 
L 51.078125 63.8125 
Q 44.234375 56.546875 37.515625 44.484375 
Q 30.8125 32.421875 27.15625 19.671875 
Q 24.515625 10.6875 23.78125 0 
L 14.75 0 
Q 14.890625 8.453125 18.0625 20.40625 
Q 21.234375 32.375 27.171875 43.484375 
Q 33.109375 54.59375 39.796875 62.203125 
z
" id="ArialMT-55"/>
      </defs>
      <g style="fill:#262626;" transform="translate(165.437794 477.862168)scale(0.11 -0.11)">
       <use xlink:href="#ArialMT-50"/>
       <use x="55.615234" xlink:href="#ArialMT-55"/>
      </g>
     </g>
    </g>
    <g id="xtick_7">
     <g id="line2d_13">
      <path clip-path="url(#p0a444ab620)" d="M 199.542286 462.588574 
L 199.542286 27.708574 
" style="fill:none;stroke:#ffffff;stroke-linecap:round;"/>
     </g>
     <g id="line2d_14">
      <g>
       <use style="fill:#262626;stroke:#262626;" x="199.542286" xlink:href="#m6f8c763b01" y="462.588574"/>
      </g>
     </g>
     <g id="text_7">
      <!-- 28 -->
      <defs>
       <path d="M 17.671875 38.8125 
Q 12.203125 40.828125 9.5625 44.53125 
Q 6.9375 48.25 6.9375 53.421875 
Q 6.9375 61.234375 12.546875 66.546875 
Q 18.171875 71.875 27.484375 71.875 
Q 36.859375 71.875 42.578125 66.421875 
Q 48.296875 60.984375 48.296875 53.171875 
Q 48.296875 48.1875 45.671875 44.5 
Q 43.0625 40.828125 37.75 38.8125 
Q 44.34375 36.671875 47.78125 31.875 
Q 51.21875 27.09375 51.21875 20.453125 
Q 51.21875 11.28125 44.71875 5.03125 
Q 38.234375 -1.21875 27.640625 -1.21875 
Q 17.046875 -1.21875 10.546875 5.046875 
Q 4.046875 11.328125 4.046875 20.703125 
Q 4.046875 27.6875 7.59375 32.390625 
Q 11.140625 37.109375 17.671875 38.8125 
z
M 15.921875 53.71875 
Q 15.921875 48.640625 19.1875 45.40625 
Q 22.46875 42.1875 27.6875 42.1875 
Q 32.765625 42.1875 36.015625 45.375 
Q 39.265625 48.578125 39.265625 53.21875 
Q 39.265625 58.0625 35.90625 61.359375 
Q 32.5625 64.65625 27.59375 64.65625 
Q 22.5625 64.65625 19.234375 61.421875 
Q 15.921875 58.203125 15.921875 53.71875 
z
M 13.09375 20.65625 
Q 13.09375 16.890625 14.875 13.375 
Q 16.65625 9.859375 20.171875 7.921875 
Q 23.6875 6 27.734375 6 
Q 34.03125 6 38.125 10.046875 
Q 42.234375 14.109375 42.234375 20.359375 
Q 42.234375 26.703125 38.015625 30.859375 
Q 33.796875 35.015625 27.4375 35.015625 
Q 21.234375 35.015625 17.15625 30.90625 
Q 13.09375 26.8125 13.09375 20.65625 
z
" id="ArialMT-56"/>
      </defs>
      <g style="fill:#262626;" transform="translate(193.425255 477.862168)scale(0.11 -0.11)">
       <use xlink:href="#ArialMT-50"/>
       <use x="55.615234" xlink:href="#ArialMT-56"/>
      </g>
     </g>
    </g>
    <g id="xtick_8">
     <g id="line2d_15">
      <path clip-path="url(#p0a444ab620)" d="M 227.529747 462.588574 
L 227.529747 27.708574 
" style="fill:none;stroke:#ffffff;stroke-linecap:round;"/>
     </g>
     <g id="line2d_16">
      <g>
       <use style="fill:#262626;stroke:#262626;" x="227.529747" xlink:href="#m6f8c763b01" y="462.588574"/>
      </g>
     </g>
     <g id="text_8">
      <!-- 29 -->
      <defs>
       <path d="M 5.46875 16.546875 
L 13.921875 17.328125 
Q 14.984375 11.375 18.015625 8.6875 
Q 21.046875 6 25.78125 6 
Q 29.828125 6 32.875 7.859375 
Q 35.9375 9.71875 37.890625 12.8125 
Q 39.84375 15.921875 41.15625 21.1875 
Q 42.484375 26.46875 42.484375 31.9375 
Q 42.484375 32.515625 42.4375 33.6875 
Q 39.796875 29.5 35.234375 26.875 
Q 30.671875 24.265625 25.34375 24.265625 
Q 16.453125 24.265625 10.296875 30.703125 
Q 4.15625 37.15625 4.15625 47.703125 
Q 4.15625 58.59375 10.578125 65.234375 
Q 17 71.875 26.65625 71.875 
Q 33.640625 71.875 39.421875 68.109375 
Q 45.21875 64.359375 48.21875 57.390625 
Q 51.21875 50.4375 51.21875 37.25 
Q 51.21875 23.53125 48.234375 15.40625 
Q 45.265625 7.28125 39.375 3.03125 
Q 33.5 -1.21875 25.59375 -1.21875 
Q 17.1875 -1.21875 11.859375 3.4375 
Q 6.546875 8.109375 5.46875 16.546875 
z
M 41.453125 48.140625 
Q 41.453125 55.71875 37.421875 60.15625 
Q 33.40625 64.59375 27.734375 64.59375 
Q 21.875 64.59375 17.53125 59.8125 
Q 13.1875 55.03125 13.1875 47.40625 
Q 13.1875 40.578125 17.3125 36.296875 
Q 21.4375 32.03125 27.484375 32.03125 
Q 33.59375 32.03125 37.515625 36.296875 
Q 41.453125 40.578125 41.453125 48.140625 
z
" id="ArialMT-57"/>
      </defs>
      <g style="fill:#262626;" transform="translate(221.412716 477.862168)scale(0.11 -0.11)">
       <use xlink:href="#ArialMT-50"/>
       <use x="55.615234" xlink:href="#ArialMT-57"/>
      </g>
     </g>
    </g>
    <g id="xtick_9">
     <g id="line2d_17">
      <path clip-path="url(#p0a444ab620)" d="M 283.504669 462.588574 
L 283.504669 27.708574 
" style="fill:none;stroke:#ffffff;stroke-linecap:round;"/>
     </g>
     <g id="line2d_18">
      <g>
       <use style="fill:#262626;stroke:#262626;" x="283.504669" xlink:href="#m6f8c763b01" y="462.588574"/>
      </g>
     </g>
     <g id="text_9">
      <!-- 02 -->
      <defs>
       <path d="M 4.15625 35.296875 
Q 4.15625 48 6.765625 55.734375 
Q 9.375 63.484375 14.515625 67.671875 
Q 19.671875 71.875 27.484375 71.875 
Q 33.25 71.875 37.59375 69.546875 
Q 41.9375 67.234375 44.765625 62.859375 
Q 47.609375 58.5 49.21875 52.21875 
Q 50.828125 45.953125 50.828125 35.296875 
Q 50.828125 22.703125 48.234375 14.96875 
Q 45.65625 7.234375 40.5 3 
Q 35.359375 -1.21875 27.484375 -1.21875 
Q 17.140625 -1.21875 11.234375 6.203125 
Q 4.15625 15.140625 4.15625 35.296875 
z
M 13.1875 35.296875 
Q 13.1875 17.671875 17.3125 11.828125 
Q 21.4375 6 27.484375 6 
Q 33.546875 6 37.671875 11.859375 
Q 41.796875 17.71875 41.796875 35.296875 
Q 41.796875 52.984375 37.671875 58.78125 
Q 33.546875 64.59375 27.390625 64.59375 
Q 21.34375 64.59375 17.71875 59.46875 
Q 13.1875 52.9375 13.1875 35.296875 
z
" id="ArialMT-48"/>
      </defs>
      <g style="fill:#262626;" transform="translate(277.387638 477.862168)scale(0.11 -0.11)">
       <use xlink:href="#ArialMT-48"/>
       <use x="55.615234" xlink:href="#ArialMT-50"/>
      </g>
     </g>
    </g>
    <g id="xtick_10">
     <g id="line2d_19">
      <path clip-path="url(#p0a444ab620)" d="M 311.49213 462.588574 
L 311.49213 27.708574 
" style="fill:none;stroke:#ffffff;stroke-linecap:round;"/>
     </g>
     <g id="line2d_20">
      <g>
       <use style="fill:#262626;stroke:#262626;" x="311.49213" xlink:href="#m6f8c763b01" y="462.588574"/>
      </g>
     </g>
     <g id="text_10">
      <!-- 03 -->
      <g style="fill:#262626;" transform="translate(305.375098 477.862168)scale(0.11 -0.11)">
       <use xlink:href="#ArialMT-48"/>
       <use x="55.615234" xlink:href="#ArialMT-51"/>
      </g>
     </g>
    </g>
    <g id="xtick_11">
     <g id="line2d_21">
      <path clip-path="url(#p0a444ab620)" d="M 339.479591 462.588574 
L 339.479591 27.708574 
" style="fill:none;stroke:#ffffff;stroke-linecap:round;"/>
     </g>
     <g id="line2d_22">
      <g>
       <use style="fill:#262626;stroke:#262626;" x="339.479591" xlink:href="#m6f8c763b01" y="462.588574"/>
      </g>
     </g>
     <g id="text_11">
      <!-- 04 -->
      <g style="fill:#262626;" transform="translate(333.362559 477.862168)scale(0.11 -0.11)">
       <use xlink:href="#ArialMT-48"/>
       <use x="55.615234" xlink:href="#ArialMT-52"/>
      </g>
     </g>
    </g>
    <g id="xtick_12">
     <g id="line2d_23">
      <path clip-path="url(#p0a444ab620)" d="M 367.467051 462.588574 
L 367.467051 27.708574 
" style="fill:none;stroke:#ffffff;stroke-linecap:round;"/>
     </g>
     <g id="line2d_24">
      <g>
       <use style="fill:#262626;stroke:#262626;" x="367.467051" xlink:href="#m6f8c763b01" y="462.588574"/>
      </g>
     </g>
     <g id="text_12">
      <!-- 05 -->
      <g style="fill:#262626;" transform="translate(361.35002 477.862168)scale(0.11 -0.11)">
       <use xlink:href="#ArialMT-48"/>
       <use x="55.615234" xlink:href="#ArialMT-53"/>
      </g>
     </g>
    </g>
    <g id="xtick_13">
     <g id="line2d_25">
      <path clip-path="url(#p0a444ab620)" d="M 395.454512 462.588574 
L 395.454512 27.708574 
" style="fill:none;stroke:#ffffff;stroke-linecap:round;"/>
     </g>
     <g id="line2d_26">
      <g>
       <use style="fill:#262626;stroke:#262626;" x="395.454512" xlink:href="#m6f8c763b01" y="462.588574"/>
      </g>
     </g>
     <g id="text_13">
      <!-- 06 -->
      <g style="fill:#262626;" transform="translate(389.337481 477.862168)scale(0.11 -0.11)">
       <use xlink:href="#ArialMT-48"/>
       <use x="55.615234" xlink:href="#ArialMT-54"/>
      </g>
     </g>
    </g>
    <g id="xtick_14">
     <g id="line2d_27">
      <path clip-path="url(#p0a444ab620)" d="M 423.441973 462.588574 
L 423.441973 27.708574 
" style="fill:none;stroke:#ffffff;stroke-linecap:round;"/>
     </g>
     <g id="line2d_28">
      <g>
       <use style="fill:#262626;stroke:#262626;" x="423.441973" xlink:href="#m6f8c763b01" y="462.588574"/>
      </g>
     </g>
     <g id="text_14">
      <!-- 07 -->
      <g style="fill:#262626;" transform="translate(417.324942 477.862168)scale(0.11 -0.11)">
       <use xlink:href="#ArialMT-48"/>
       <use x="55.615234" xlink:href="#ArialMT-55"/>
      </g>
     </g>
    </g>
    <g id="xtick_15">
     <g id="line2d_29">
      <path clip-path="url(#p0a444ab620)" d="M 451.429434 462.588574 
L 451.429434 27.708574 
" style="fill:none;stroke:#ffffff;stroke-linecap:round;"/>
     </g>
     <g id="line2d_30">
      <g>
       <use style="fill:#262626;stroke:#262626;" x="451.429434" xlink:href="#m6f8c763b01" y="462.588574"/>
      </g>
     </g>
     <g id="text_15">
      <!-- 08 -->
      <g style="fill:#262626;" transform="translate(445.312403 477.862168)scale(0.11 -0.11)">
       <use xlink:href="#ArialMT-48"/>
       <use x="55.615234" xlink:href="#ArialMT-56"/>
      </g>
     </g>
    </g>
    <g id="xtick_16">
     <g id="line2d_31">
      <path clip-path="url(#p0a444ab620)" d="M 479.416895 462.588574 
L 479.416895 27.708574 
" style="fill:none;stroke:#ffffff;stroke-linecap:round;"/>
     </g>
     <g id="line2d_32">
      <g>
       <use style="fill:#262626;stroke:#262626;" x="479.416895" xlink:href="#m6f8c763b01" y="462.588574"/>
      </g>
     </g>
     <g id="text_16">
      <!-- 09 -->
      <g style="fill:#262626;" transform="translate(473.299863 477.862168)scale(0.11 -0.11)">
       <use xlink:href="#ArialMT-48"/>
       <use x="55.615234" xlink:href="#ArialMT-57"/>
      </g>
     </g>
    </g>
    <g id="xtick_17">
     <g id="line2d_33">
      <path clip-path="url(#p0a444ab620)" d="M 507.404355 462.588574 
L 507.404355 27.708574 
" style="fill:none;stroke:#ffffff;stroke-linecap:round;"/>
     </g>
     <g id="line2d_34">
      <g>
       <use style="fill:#262626;stroke:#262626;" x="507.404355" xlink:href="#m6f8c763b01" y="462.588574"/>
      </g>
     </g>
     <g id="text_17">
      <!-- 10 -->
      <defs>
       <path d="M 37.25 0 
L 28.46875 0 
L 28.46875 56 
Q 25.296875 52.984375 20.140625 49.953125 
Q 14.984375 46.921875 10.890625 45.40625 
L 10.890625 53.90625 
Q 18.265625 57.375 23.78125 62.296875 
Q 29.296875 67.234375 31.59375 71.875 
L 37.25 71.875 
z
" id="ArialMT-49"/>
      </defs>
      <g style="fill:#262626;" transform="translate(501.287324 477.862168)scale(0.11 -0.11)">
       <use xlink:href="#ArialMT-49"/>
       <use x="55.615234" xlink:href="#ArialMT-48"/>
      </g>
     </g>
    </g>
    <g id="xtick_18">
     <g id="line2d_35">
      <path clip-path="url(#p0a444ab620)" d="M 535.391816 462.588574 
L 535.391816 27.708574 
" style="fill:none;stroke:#ffffff;stroke-linecap:round;"/>
     </g>
     <g id="line2d_36">
      <g>
       <use style="fill:#262626;stroke:#262626;" x="535.391816" xlink:href="#m6f8c763b01" y="462.588574"/>
      </g>
     </g>
     <g id="text_18">
      <!-- 11 -->
      <g style="fill:#262626;" transform="translate(529.280801 477.862168)scale(0.11 -0.11)">
       <use xlink:href="#ArialMT-49"/>
       <use x="55.505859" xlink:href="#ArialMT-49"/>
      </g>
     </g>
    </g>
    <g id="xtick_19">
     <g id="line2d_37">
      <path clip-path="url(#p0a444ab620)" d="M 563.379277 462.588574 
L 563.379277 27.708574 
" style="fill:none;stroke:#ffffff;stroke-linecap:round;"/>
     </g>
     <g id="line2d_38">
      <g>
       <use style="fill:#262626;stroke:#262626;" x="563.379277" xlink:href="#m6f8c763b01" y="462.588574"/>
      </g>
     </g>
     <g id="text_19">
      <!-- 12 -->
      <g style="fill:#262626;" transform="translate(557.262246 477.862168)scale(0.11 -0.11)">
       <use xlink:href="#ArialMT-49"/>
       <use x="55.615234" xlink:href="#ArialMT-50"/>
      </g>
     </g>
    </g>
    <g id="xtick_20">
     <g id="line2d_39">
      <path clip-path="url(#p0a444ab620)" d="M 591.366738 462.588574 
L 591.366738 27.708574 
" style="fill:none;stroke:#ffffff;stroke-linecap:round;"/>
     </g>
     <g id="line2d_40">
      <g>
       <use style="fill:#262626;stroke:#262626;" x="591.366738" xlink:href="#m6f8c763b01" y="462.588574"/>
      </g>
     </g>
     <g id="text_20">
      <!-- 13 -->
      <g style="fill:#262626;" transform="translate(585.249707 477.862168)scale(0.11 -0.11)">
       <use xlink:href="#ArialMT-49"/>
       <use x="55.615234" xlink:href="#ArialMT-51"/>
      </g>
     </g>
    </g>
    <g id="xtick_21">
     <g id="line2d_41">
      <path clip-path="url(#p0a444ab620)" d="M 619.354199 462.588574 
L 619.354199 27.708574 
" style="fill:none;stroke:#ffffff;stroke-linecap:round;"/>
     </g>
     <g id="line2d_42">
      <g>
       <use style="fill:#262626;stroke:#262626;" x="619.354199" xlink:href="#m6f8c763b01" y="462.588574"/>
      </g>
     </g>
     <g id="text_21">
      <!-- 14 -->
      <g style="fill:#262626;" transform="translate(613.237167 477.862168)scale(0.11 -0.11)">
       <use xlink:href="#ArialMT-49"/>
       <use x="55.615234" xlink:href="#ArialMT-52"/>
      </g>
     </g>
    </g>
    <g id="xtick_22">
     <g id="line2d_43">
      <path clip-path="url(#p0a444ab620)" d="M 647.341659 462.588574 
L 647.341659 27.708574 
" style="fill:none;stroke:#ffffff;stroke-linecap:round;"/>
     </g>
     <g id="line2d_44">
      <g>
       <use style="fill:#262626;stroke:#262626;" x="647.341659" xlink:href="#m6f8c763b01" y="462.588574"/>
      </g>
     </g>
     <g id="text_22">
      <!-- 15 -->
      <g style="fill:#262626;" transform="translate(641.224628 477.862168)scale(0.11 -0.11)">
       <use xlink:href="#ArialMT-49"/>
       <use x="55.615234" xlink:href="#ArialMT-53"/>
      </g>
     </g>
    </g>
    <g id="xtick_23">
     <g id="line2d_45">
      <path clip-path="url(#p0a444ab620)" d="M 675.32912 462.588574 
L 675.32912 27.708574 
" style="fill:none;stroke:#ffffff;stroke-linecap:round;"/>
     </g>
     <g id="line2d_46">
      <g>
       <use style="fill:#262626;stroke:#262626;" x="675.32912" xlink:href="#m6f8c763b01" y="462.588574"/>
      </g>
     </g>
     <g id="text_23">
      <!-- 16 -->
      <g style="fill:#262626;" transform="translate(669.212089 477.862168)scale(0.11 -0.11)">
       <use xlink:href="#ArialMT-49"/>
       <use x="55.615234" xlink:href="#ArialMT-54"/>
      </g>
     </g>
    </g>
    <g id="xtick_24">
     <g id="line2d_47">
      <path clip-path="url(#p0a444ab620)" d="M 703.316581 462.588574 
L 703.316581 27.708574 
" style="fill:none;stroke:#ffffff;stroke-linecap:round;"/>
     </g>
     <g id="line2d_48">
      <g>
       <use style="fill:#262626;stroke:#262626;" x="703.316581" xlink:href="#m6f8c763b01" y="462.588574"/>
      </g>
     </g>
     <g id="text_24">
      <!-- 17 -->
      <g style="fill:#262626;" transform="translate(697.19955 477.862168)scale(0.11 -0.11)">
       <use xlink:href="#ArialMT-49"/>
       <use x="55.615234" xlink:href="#ArialMT-55"/>
      </g>
     </g>
    </g>
    <g id="xtick_25">
     <g id="line2d_49">
      <path clip-path="url(#p0a444ab620)" d="M 731.304042 462.588574 
L 731.304042 27.708574 
" style="fill:none;stroke:#ffffff;stroke-linecap:round;"/>
     </g>
     <g id="line2d_50">
      <g>
       <use style="fill:#262626;stroke:#262626;" x="731.304042" xlink:href="#m6f8c763b01" y="462.588574"/>
      </g>
     </g>
     <g id="text_25">
      <!-- 18 -->
      <g style="fill:#262626;" transform="translate(725.187011 477.862168)scale(0.11 -0.11)">
       <use xlink:href="#ArialMT-49"/>
       <use x="55.615234" xlink:href="#ArialMT-56"/>
      </g>
     </g>
    </g>
    <g id="xtick_26">
     <g id="line2d_51">
      <path clip-path="url(#p0a444ab620)" d="M 759.291503 462.588574 
L 759.291503 27.708574 
" style="fill:none;stroke:#ffffff;stroke-linecap:round;"/>
     </g>
     <g id="line2d_52">
      <g>
       <use style="fill:#262626;stroke:#262626;" x="759.291503" xlink:href="#m6f8c763b01" y="462.588574"/>
      </g>
     </g>
     <g id="text_26">
      <!-- 19 -->
      <g style="fill:#262626;" transform="translate(753.174471 477.862168)scale(0.11 -0.11)">
       <use xlink:href="#ArialMT-49"/>
       <use x="55.615234" xlink:href="#ArialMT-57"/>
      </g>
     </g>
    </g>
    <g id="xtick_27">
     <g id="line2d_53">
      <path clip-path="url(#p0a444ab620)" d="M 787.278964 462.588574 
L 787.278964 27.708574 
" style="fill:none;stroke:#ffffff;stroke-linecap:round;"/>
     </g>
     <g id="line2d_54">
      <g>
       <use style="fill:#262626;stroke:#262626;" x="787.278964" xlink:href="#m6f8c763b01" y="462.588574"/>
      </g>
     </g>
     <g id="text_27">
      <!-- 20 -->
      <g style="fill:#262626;" transform="translate(781.161932 477.862168)scale(0.11 -0.11)">
       <use xlink:href="#ArialMT-50"/>
       <use x="55.615234" xlink:href="#ArialMT-48"/>
      </g>
     </g>
    </g>
    <g id="xtick_28">
     <g id="line2d_55">
      <path clip-path="url(#p0a444ab620)" d="M 815.266424 462.588574 
L 815.266424 27.708574 
" style="fill:none;stroke:#ffffff;stroke-linecap:round;"/>
     </g>
     <g id="line2d_56">
      <g>
       <use style="fill:#262626;stroke:#262626;" x="815.266424" xlink:href="#m6f8c763b01" y="462.588574"/>
      </g>
     </g>
     <g id="text_28">
      <!-- 21 -->
      <g style="fill:#262626;" transform="translate(809.149393 477.862168)scale(0.11 -0.11)">
       <use xlink:href="#ArialMT-50"/>
       <use x="55.615234" xlink:href="#ArialMT-49"/>
      </g>
     </g>
    </g>
    <g id="xtick_29">
     <g id="line2d_57">
      <path clip-path="url(#p0a444ab620)" d="M 843.253885 462.588574 
L 843.253885 27.708574 
" style="fill:none;stroke:#ffffff;stroke-linecap:round;"/>
     </g>
     <g id="line2d_58">
      <g>
       <use style="fill:#262626;stroke:#262626;" x="843.253885" xlink:href="#m6f8c763b01" y="462.588574"/>
      </g>
     </g>
     <g id="text_29">
      <!-- 22 -->
      <g style="fill:#262626;" transform="translate(837.136854 477.862168)scale(0.11 -0.11)">
       <use xlink:href="#ArialMT-50"/>
       <use x="55.615234" xlink:href="#ArialMT-50"/>
      </g>
     </g>
    </g>
    <g id="xtick_30">
     <g id="line2d_59">
      <path clip-path="url(#p0a444ab620)" d="M 871.241346 462.588574 
L 871.241346 27.708574 
" style="fill:none;stroke:#ffffff;stroke-linecap:round;"/>
     </g>
     <g id="line2d_60">
      <g>
       <use style="fill:#262626;stroke:#262626;" x="871.241346" xlink:href="#m6f8c763b01" y="462.588574"/>
      </g>
     </g>
     <g id="text_30">
      <!-- 23 -->
      <g style="fill:#262626;" transform="translate(865.124315 477.862168)scale(0.11 -0.11)">
       <use xlink:href="#ArialMT-50"/>
       <use x="55.615234" xlink:href="#ArialMT-51"/>
      </g>
     </g>
    </g>
    <g id="xtick_31">
     <g id="line2d_61">
      <path clip-path="url(#p0a444ab620)" d="M 899.228807 462.588574 
L 899.228807 27.708574 
" style="fill:none;stroke:#ffffff;stroke-linecap:round;"/>
     </g>
     <g id="line2d_62">
      <g>
       <use style="fill:#262626;stroke:#262626;" x="899.228807" xlink:href="#m6f8c763b01" y="462.588574"/>
      </g>
     </g>
     <g id="text_31">
      <!-- 24 -->
      <g style="fill:#262626;" transform="translate(893.111776 477.862168)scale(0.11 -0.11)">
       <use xlink:href="#ArialMT-50"/>
       <use x="55.615234" xlink:href="#ArialMT-52"/>
      </g>
     </g>
    </g>
    <g id="xtick_32">
     <g id="line2d_63">
      <path clip-path="url(#p0a444ab620)" d="M 927.216268 462.588574 
L 927.216268 27.708574 
" style="fill:none;stroke:#ffffff;stroke-linecap:round;"/>
     </g>
     <g id="line2d_64">
      <g>
       <use style="fill:#262626;stroke:#262626;" x="927.216268" xlink:href="#m6f8c763b01" y="462.588574"/>
      </g>
     </g>
     <g id="text_32">
      <!-- 25 -->
      <g style="fill:#262626;" transform="translate(921.099236 477.862168)scale(0.11 -0.11)">
       <use xlink:href="#ArialMT-50"/>
       <use x="55.615234" xlink:href="#ArialMT-53"/>
      </g>
     </g>
    </g>
    <g id="text_33">
     <!-- Dato -->
     <defs>
      <path d="M 7.71875 0 
L 7.71875 71.578125 
L 32.375 71.578125 
Q 40.71875 71.578125 45.125 70.5625 
Q 51.265625 69.140625 55.609375 65.4375 
Q 61.28125 60.640625 64.078125 53.1875 
Q 66.890625 45.75 66.890625 36.1875 
Q 66.890625 28.03125 64.984375 21.734375 
Q 63.09375 15.4375 60.109375 11.296875 
Q 57.125 7.171875 53.578125 4.796875 
Q 50.046875 2.4375 45.046875 1.21875 
Q 40.046875 0 33.546875 0 
z
M 17.1875 8.453125 
L 32.46875 8.453125 
Q 39.546875 8.453125 43.578125 9.765625 
Q 47.609375 11.078125 50 13.484375 
Q 53.375 16.84375 55.25 22.53125 
Q 57.125 28.21875 57.125 36.328125 
Q 57.125 47.5625 53.4375 53.59375 
Q 49.75 59.625 44.484375 61.671875 
Q 40.671875 63.140625 32.234375 63.140625 
L 17.1875 63.140625 
z
" id="ArialMT-68"/>
      <path d="M 25.78125 7.859375 
L 27.046875 0.09375 
Q 23.34375 -0.6875 20.40625 -0.6875 
Q 15.625 -0.6875 12.984375 0.828125 
Q 10.359375 2.34375 9.28125 4.8125 
Q 8.203125 7.28125 8.203125 15.1875 
L 8.203125 45.015625 
L 1.765625 45.015625 
L 1.765625 51.859375 
L 8.203125 51.859375 
L 8.203125 64.703125 
L 16.9375 69.96875 
L 16.9375 51.859375 
L 25.78125 51.859375 
L 25.78125 45.015625 
L 16.9375 45.015625 
L 16.9375 14.703125 
Q 16.9375 10.9375 17.40625 9.859375 
Q 17.875 8.796875 18.921875 8.15625 
Q 19.96875 7.515625 21.921875 7.515625 
Q 23.390625 7.515625 25.78125 7.859375 
z
" id="ArialMT-116"/>
      <path d="M 3.328125 25.921875 
Q 3.328125 40.328125 11.328125 47.265625 
Q 18.015625 53.03125 27.640625 53.03125 
Q 38.328125 53.03125 45.109375 46.015625 
Q 51.90625 39.015625 51.90625 26.65625 
Q 51.90625 16.65625 48.90625 10.90625 
Q 45.90625 5.171875 40.15625 2 
Q 34.421875 -1.171875 27.640625 -1.171875 
Q 16.75 -1.171875 10.03125 5.8125 
Q 3.328125 12.796875 3.328125 25.921875 
z
M 12.359375 25.921875 
Q 12.359375 15.96875 16.703125 11.015625 
Q 21.046875 6.0625 27.640625 6.0625 
Q 34.1875 6.0625 38.53125 11.03125 
Q 42.875 16.015625 42.875 26.21875 
Q 42.875 35.84375 38.5 40.796875 
Q 34.125 45.75 27.640625 45.75 
Q 21.046875 45.75 16.703125 40.8125 
Q 12.359375 35.890625 12.359375 25.921875 
z
" id="ArialMT-111"/>
     </defs>
     <g style="fill:#262626;" transform="translate(477.569219 499.62873)scale(0.15 -0.15)">
      <use xlink:href="#ArialMT-68"/>
      <use x="72.216797" xlink:href="#ArialMT-97"/>
      <use x="127.832031" xlink:href="#ArialMT-116"/>
      <use x="155.615234" xlink:href="#ArialMT-111"/>
     </g>
    </g>
   </g>
   <g id="matplotlib.axis_2">
    <g id="ytick_1">
     <g id="line2d_65">
      <path clip-path="url(#p0a444ab620)" d="M 47.010625 447.214028 
L 939.810625 447.214028 
" style="fill:none;stroke:#ffffff;stroke-linecap:round;"/>
     </g>
     <g id="text_34">
      <!-- 0 -->
      <g style="fill:#262626;" transform="translate(31.393594 451.150825)scale(0.11 -0.11)">
       <use xlink:href="#ArialMT-48"/>
      </g>
     </g>
    </g>
    <g id="ytick_2">
     <g id="line2d_66">
      <path clip-path="url(#p0a444ab620)" d="M 47.010625 359.359483 
L 939.810625 359.359483 
" style="fill:none;stroke:#ffffff;stroke-linecap:round;"/>
     </g>
     <g id="text_35">
      <!-- 20 -->
      <g style="fill:#262626;" transform="translate(25.276563 363.29628)scale(0.11 -0.11)">
       <use xlink:href="#ArialMT-50"/>
       <use x="55.615234" xlink:href="#ArialMT-48"/>
      </g>
     </g>
    </g>
    <g id="ytick_3">
     <g id="line2d_67">
      <path clip-path="url(#p0a444ab620)" d="M 47.010625 271.504937 
L 939.810625 271.504937 
" style="fill:none;stroke:#ffffff;stroke-linecap:round;"/>
     </g>
     <g id="text_36">
      <!-- 40 -->
      <g style="fill:#262626;" transform="translate(25.276563 275.441734)scale(0.11 -0.11)">
       <use xlink:href="#ArialMT-52"/>
       <use x="55.615234" xlink:href="#ArialMT-48"/>
      </g>
     </g>
    </g>
    <g id="ytick_4">
     <g id="line2d_68">
      <path clip-path="url(#p0a444ab620)" d="M 47.010625 183.650392 
L 939.810625 183.650392 
" style="fill:none;stroke:#ffffff;stroke-linecap:round;"/>
     </g>
     <g id="text_37">
      <!-- 60 -->
      <g style="fill:#262626;" transform="translate(25.276563 187.587189)scale(0.11 -0.11)">
       <use xlink:href="#ArialMT-54"/>
       <use x="55.615234" xlink:href="#ArialMT-48"/>
      </g>
     </g>
    </g>
    <g id="ytick_5">
     <g id="line2d_69">
      <path clip-path="url(#p0a444ab620)" d="M 47.010625 95.795847 
L 939.810625 95.795847 
" style="fill:none;stroke:#ffffff;stroke-linecap:round;"/>
     </g>
     <g id="text_38">
      <!-- 80 -->
      <g style="fill:#262626;" transform="translate(25.276563 99.732643)scale(0.11 -0.11)">
       <use xlink:href="#ArialMT-56"/>
       <use x="55.615234" xlink:href="#ArialMT-48"/>
      </g>
     </g>
    </g>
    <g id="text_39">
     <!-- Hashtag frekvens -->
     <defs>
      <path d="M 8.015625 0 
L 8.015625 71.578125 
L 17.484375 71.578125 
L 17.484375 42.1875 
L 54.6875 42.1875 
L 54.6875 71.578125 
L 64.15625 71.578125 
L 64.15625 0 
L 54.6875 0 
L 54.6875 33.734375 
L 17.484375 33.734375 
L 17.484375 0 
z
" id="ArialMT-72"/>
      <path d="M 3.078125 15.484375 
L 11.765625 16.84375 
Q 12.5 11.625 15.84375 8.84375 
Q 19.1875 6.0625 25.203125 6.0625 
Q 31.25 6.0625 34.171875 8.515625 
Q 37.109375 10.984375 37.109375 14.3125 
Q 37.109375 17.28125 34.515625 19 
Q 32.71875 20.171875 25.53125 21.96875 
Q 15.875 24.421875 12.140625 26.203125 
Q 8.40625 27.984375 6.46875 31.125 
Q 4.546875 34.28125 4.546875 38.09375 
Q 4.546875 41.546875 6.125 44.5 
Q 7.71875 47.46875 10.453125 49.421875 
Q 12.5 50.921875 16.03125 51.96875 
Q 19.578125 53.03125 23.640625 53.03125 
Q 29.734375 53.03125 34.34375 51.265625 
Q 38.96875 49.515625 41.15625 46.5 
Q 43.359375 43.5 44.1875 38.484375 
L 35.59375 37.3125 
Q 35.015625 41.3125 32.203125 43.546875 
Q 29.390625 45.796875 24.265625 45.796875 
Q 18.21875 45.796875 15.625 43.796875 
Q 13.03125 41.796875 13.03125 39.109375 
Q 13.03125 37.40625 14.109375 36.03125 
Q 15.1875 34.625 17.484375 33.6875 
Q 18.796875 33.203125 25.25 31.453125 
Q 34.578125 28.953125 38.25 27.359375 
Q 41.9375 25.78125 44.03125 22.75 
Q 46.140625 19.734375 46.140625 15.234375 
Q 46.140625 10.84375 43.578125 6.953125 
Q 41.015625 3.078125 36.171875 0.953125 
Q 31.34375 -1.171875 25.25 -1.171875 
Q 15.140625 -1.171875 9.84375 3.03125 
Q 4.546875 7.234375 3.078125 15.484375 
z
" id="ArialMT-115"/>
      <path d="M 6.59375 0 
L 6.59375 71.578125 
L 15.375 71.578125 
L 15.375 45.90625 
Q 21.53125 53.03125 30.90625 53.03125 
Q 36.671875 53.03125 40.921875 50.75 
Q 45.171875 48.484375 47 44.484375 
Q 48.828125 40.484375 48.828125 32.859375 
L 48.828125 0 
L 40.046875 0 
L 40.046875 32.859375 
Q 40.046875 39.453125 37.1875 42.453125 
Q 34.328125 45.453125 29.109375 45.453125 
Q 25.203125 45.453125 21.75 43.421875 
Q 18.3125 41.40625 16.84375 37.9375 
Q 15.375 34.46875 15.375 28.375 
L 15.375 0 
z
" id="ArialMT-104"/>
      <path d="M 4.984375 -4.296875 
L 13.53125 -5.5625 
Q 14.0625 -9.515625 16.5 -11.328125 
Q 19.78125 -13.765625 25.4375 -13.765625 
Q 31.546875 -13.765625 34.859375 -11.328125 
Q 38.1875 -8.890625 39.359375 -4.5 
Q 40.046875 -1.8125 39.984375 6.78125 
Q 34.234375 0 25.640625 0 
Q 14.9375 0 9.078125 7.71875 
Q 3.21875 15.4375 3.21875 26.21875 
Q 3.21875 33.640625 5.90625 39.90625 
Q 8.59375 46.1875 13.6875 49.609375 
Q 18.796875 53.03125 25.6875 53.03125 
Q 34.859375 53.03125 40.828125 45.609375 
L 40.828125 51.859375 
L 48.921875 51.859375 
L 48.921875 7.03125 
Q 48.921875 -5.078125 46.453125 -10.125 
Q 44 -15.1875 38.640625 -18.109375 
Q 33.296875 -21.046875 25.484375 -21.046875 
Q 16.21875 -21.046875 10.5 -16.875 
Q 4.78125 -12.703125 4.984375 -4.296875 
z
M 12.25 26.859375 
Q 12.25 16.65625 16.296875 11.96875 
Q 20.359375 7.28125 26.46875 7.28125 
Q 32.515625 7.28125 36.609375 11.9375 
Q 40.71875 16.609375 40.71875 26.5625 
Q 40.71875 36.078125 36.5 40.90625 
Q 32.28125 45.75 26.3125 45.75 
Q 20.453125 45.75 16.34375 40.984375 
Q 12.25 36.234375 12.25 26.859375 
z
" id="ArialMT-103"/>
      <path id="ArialMT-32"/>
      <path d="M 8.6875 0 
L 8.6875 45.015625 
L 0.921875 45.015625 
L 0.921875 51.859375 
L 8.6875 51.859375 
L 8.6875 57.375 
Q 8.6875 62.59375 9.625 65.140625 
Q 10.890625 68.5625 14.078125 70.671875 
Q 17.28125 72.796875 23.046875 72.796875 
Q 26.765625 72.796875 31.25 71.921875 
L 29.9375 64.265625 
Q 27.203125 64.75 24.75 64.75 
Q 20.75 64.75 19.09375 63.03125 
Q 17.4375 61.328125 17.4375 56.640625 
L 17.4375 51.859375 
L 27.546875 51.859375 
L 27.546875 45.015625 
L 17.4375 45.015625 
L 17.4375 0 
z
" id="ArialMT-102"/>
      <path d="M 42.09375 16.703125 
L 51.171875 15.578125 
Q 49.03125 7.625 43.21875 3.21875 
Q 37.40625 -1.171875 28.375 -1.171875 
Q 17 -1.171875 10.328125 5.828125 
Q 3.65625 12.84375 3.65625 25.484375 
Q 3.65625 38.578125 10.390625 45.796875 
Q 17.140625 53.03125 27.875 53.03125 
Q 38.28125 53.03125 44.875 45.953125 
Q 51.46875 38.875 51.46875 26.03125 
Q 51.46875 25.25 51.421875 23.6875 
L 12.75 23.6875 
Q 13.234375 15.140625 17.578125 10.59375 
Q 21.921875 6.0625 28.421875 6.0625 
Q 33.25 6.0625 36.671875 8.59375 
Q 40.09375 11.140625 42.09375 16.703125 
z
M 13.234375 30.90625 
L 42.1875 30.90625 
Q 41.609375 37.453125 38.875 40.71875 
Q 34.671875 45.796875 27.984375 45.796875 
Q 21.921875 45.796875 17.796875 41.75 
Q 13.671875 37.703125 13.234375 30.90625 
z
" id="ArialMT-101"/>
      <path d="M 6.640625 0 
L 6.640625 71.578125 
L 15.4375 71.578125 
L 15.4375 30.765625 
L 36.234375 51.859375 
L 47.609375 51.859375 
L 27.78125 32.625 
L 49.609375 0 
L 38.765625 0 
L 21.625 26.515625 
L 15.4375 20.5625 
L 15.4375 0 
z
" id="ArialMT-107"/>
      <path d="M 21 0 
L 1.265625 51.859375 
L 10.546875 51.859375 
L 21.6875 20.796875 
Q 23.484375 15.765625 25 10.359375 
Q 26.171875 14.453125 28.265625 20.21875 
L 39.796875 51.859375 
L 48.828125 51.859375 
L 29.203125 0 
z
" id="ArialMT-118"/>
      <path d="M 6.59375 0 
L 6.59375 51.859375 
L 14.5 51.859375 
L 14.5 44.484375 
Q 20.21875 53.03125 31 53.03125 
Q 35.6875 53.03125 39.625 51.34375 
Q 43.5625 49.65625 45.515625 46.921875 
Q 47.46875 44.1875 48.25 40.4375 
Q 48.734375 37.984375 48.734375 31.890625 
L 48.734375 0 
L 39.9375 0 
L 39.9375 31.546875 
Q 39.9375 36.921875 38.90625 39.578125 
Q 37.890625 42.234375 35.28125 43.8125 
Q 32.671875 45.40625 29.15625 45.40625 
Q 23.53125 45.40625 19.453125 41.84375 
Q 15.375 38.28125 15.375 28.328125 
L 15.375 0 
z
" id="ArialMT-110"/>
     </defs>
     <g style="fill:#262626;" transform="translate(18.119531 303.507949)rotate(-90)scale(0.15 -0.15)">
      <use xlink:href="#ArialMT-72"/>
      <use x="72.216797" xlink:href="#ArialMT-97"/>
      <use x="127.832031" xlink:href="#ArialMT-115"/>
      <use x="177.832031" xlink:href="#ArialMT-104"/>
      <use x="233.447266" xlink:href="#ArialMT-116"/>
      <use x="261.230469" xlink:href="#ArialMT-97"/>
      <use x="316.845703" xlink:href="#ArialMT-103"/>
      <use x="372.460938" xlink:href="#ArialMT-32"/>
      <use x="400.244141" xlink:href="#ArialMT-102"/>
      <use x="428.027344" xlink:href="#ArialMT-114"/>
      <use x="461.328125" xlink:href="#ArialMT-101"/>
      <use x="516.943359" xlink:href="#ArialMT-107"/>
      <use x="566.943359" xlink:href="#ArialMT-118"/>
      <use x="616.943359" xlink:href="#ArialMT-101"/>
      <use x="672.558594" xlink:href="#ArialMT-110"/>
      <use x="728.173828" xlink:href="#ArialMT-115"/>
     </g>
    </g>
   </g>
   <g id="line2d_70">
    <path clip-path="url(#p0a444ab620)" d="M 507.404355 434.035847 
L 535.391816 442.821301 
M 591.366738 434.035847 
M 647.341659 403.286756 
L 675.32912 385.715847 
L 703.316581 271.504937 
L 731.304042 354.966756 
L 759.291503 390.108574 
L 787.278964 275.897665 
L 815.266424 183.650392 
L 843.253885 289.075847 
L 871.241346 350.574028 
L 899.228807 354.966756 
" style="fill:none;stroke:#4c72b0;stroke-linecap:round;stroke-width:0.5;"/>
    <defs>
     <path d="M 0 3 
C 0.795609 3 1.55874 2.683901 2.12132 2.12132 
C 2.683901 1.55874 3 0.795609 3 0 
C 3 -0.795609 2.683901 -1.55874 2.12132 -2.12132 
C 1.55874 -2.683901 0.795609 -3 0 -3 
C -0.795609 -3 -1.55874 -2.683901 -2.12132 -2.12132 
C -2.683901 -1.55874 -3 -0.795609 -3 0 
C -3 0.795609 -2.683901 1.55874 -2.12132 2.12132 
C -1.55874 2.683901 -0.795609 3 0 3 
z
" id="mb5ed6b79d3" style="stroke:#4c72b0;"/>
    </defs>
    <g clip-path="url(#p0a444ab620)">
     <use style="fill:#4c72b0;stroke:#4c72b0;" x="507.404355" xlink:href="#mb5ed6b79d3" y="434.035847"/>
     <use style="fill:#4c72b0;stroke:#4c72b0;" x="535.391816" xlink:href="#mb5ed6b79d3" y="442.821301"/>
     <use style="fill:#4c72b0;stroke:#4c72b0;" x="591.366738" xlink:href="#mb5ed6b79d3" y="434.035847"/>
     <use style="fill:#4c72b0;stroke:#4c72b0;" x="647.341659" xlink:href="#mb5ed6b79d3" y="403.286756"/>
     <use style="fill:#4c72b0;stroke:#4c72b0;" x="675.32912" xlink:href="#mb5ed6b79d3" y="385.715847"/>
     <use style="fill:#4c72b0;stroke:#4c72b0;" x="703.316581" xlink:href="#mb5ed6b79d3" y="271.504937"/>
     <use style="fill:#4c72b0;stroke:#4c72b0;" x="731.304042" xlink:href="#mb5ed6b79d3" y="354.966756"/>
     <use style="fill:#4c72b0;stroke:#4c72b0;" x="759.291503" xlink:href="#mb5ed6b79d3" y="390.108574"/>
     <use style="fill:#4c72b0;stroke:#4c72b0;" x="787.278964" xlink:href="#mb5ed6b79d3" y="275.897665"/>
     <use style="fill:#4c72b0;stroke:#4c72b0;" x="815.266424" xlink:href="#mb5ed6b79d3" y="183.650392"/>
     <use style="fill:#4c72b0;stroke:#4c72b0;" x="843.253885" xlink:href="#mb5ed6b79d3" y="289.075847"/>
     <use style="fill:#4c72b0;stroke:#4c72b0;" x="871.241346" xlink:href="#mb5ed6b79d3" y="350.574028"/>
     <use style="fill:#4c72b0;stroke:#4c72b0;" x="899.228807" xlink:href="#mb5ed6b79d3" y="354.966756"/>
    </g>
   </g>
   <g id="line2d_71">
    <path clip-path="url(#p0a444ab620)" d="M 619.354199 434.035847 
L 647.341659 390.108574 
L 675.32912 407.679483 
L 703.316581 381.323119 
L 731.304042 390.108574 
L 759.291503 359.359483 
L 787.278964 412.07221 
L 815.266424 407.679483 
L 843.253885 416.464937 
L 871.241346 390.108574 
L 899.228807 425.250392 
" style="fill:none;stroke:#dd8452;stroke-linecap:round;stroke-width:0.5;"/>
    <defs>
     <path d="M 0 3 
C 0.795609 3 1.55874 2.683901 2.12132 2.12132 
C 2.683901 1.55874 3 0.795609 3 0 
C 3 -0.795609 2.683901 -1.55874 2.12132 -2.12132 
C 1.55874 -2.683901 0.795609 -3 0 -3 
C -0.795609 -3 -1.55874 -2.683901 -2.12132 -2.12132 
C -2.683901 -1.55874 -3 -0.795609 -3 0 
C -3 0.795609 -2.683901 1.55874 -2.12132 2.12132 
C -1.55874 2.683901 -0.795609 3 0 3 
z
" id="mcf33cee6b0" style="stroke:#dd8452;"/>
    </defs>
    <g clip-path="url(#p0a444ab620)">
     <use style="fill:#dd8452;stroke:#dd8452;" x="619.354199" xlink:href="#mcf33cee6b0" y="434.035847"/>
     <use style="fill:#dd8452;stroke:#dd8452;" x="647.341659" xlink:href="#mcf33cee6b0" y="390.108574"/>
     <use style="fill:#dd8452;stroke:#dd8452;" x="675.32912" xlink:href="#mcf33cee6b0" y="407.679483"/>
     <use style="fill:#dd8452;stroke:#dd8452;" x="703.316581" xlink:href="#mcf33cee6b0" y="381.323119"/>
     <use style="fill:#dd8452;stroke:#dd8452;" x="731.304042" xlink:href="#mcf33cee6b0" y="390.108574"/>
     <use style="fill:#dd8452;stroke:#dd8452;" x="759.291503" xlink:href="#mcf33cee6b0" y="359.359483"/>
     <use style="fill:#dd8452;stroke:#dd8452;" x="787.278964" xlink:href="#mcf33cee6b0" y="412.07221"/>
     <use style="fill:#dd8452;stroke:#dd8452;" x="815.266424" xlink:href="#mcf33cee6b0" y="407.679483"/>
     <use style="fill:#dd8452;stroke:#dd8452;" x="843.253885" xlink:href="#mcf33cee6b0" y="416.464937"/>
     <use style="fill:#dd8452;stroke:#dd8452;" x="871.241346" xlink:href="#mcf33cee6b0" y="390.108574"/>
     <use style="fill:#dd8452;stroke:#dd8452;" x="899.228807" xlink:href="#mcf33cee6b0" y="425.250392"/>
    </g>
   </g>
   <g id="line2d_72">
    <path clip-path="url(#p0a444ab620)" d="M 535.391816 434.035847 
L 563.379277 306.646756 
L 591.366738 376.930392 
L 619.354199 403.286756 
L 647.341659 416.464937 
L 675.32912 416.464937 
L 703.316581 412.07221 
L 731.304042 407.679483 
L 759.291503 412.07221 
L 787.278964 434.035847 
L 815.266424 429.643119 
L 843.253885 429.643119 
L 871.241346 398.894028 
L 899.228807 434.035847 
" style="fill:none;stroke:#55a868;stroke-linecap:round;stroke-width:0.5;"/>
    <defs>
     <path d="M 0 3 
C 0.795609 3 1.55874 2.683901 2.12132 2.12132 
C 2.683901 1.55874 3 0.795609 3 0 
C 3 -0.795609 2.683901 -1.55874 2.12132 -2.12132 
C 1.55874 -2.683901 0.795609 -3 0 -3 
C -0.795609 -3 -1.55874 -2.683901 -2.12132 -2.12132 
C -2.683901 -1.55874 -3 -0.795609 -3 0 
C -3 0.795609 -2.683901 1.55874 -2.12132 2.12132 
C -1.55874 2.683901 -0.795609 3 0 3 
z
" id="md5d9a895e6" style="stroke:#55a868;"/>
    </defs>
    <g clip-path="url(#p0a444ab620)">
     <use style="fill:#55a868;stroke:#55a868;" x="535.391816" xlink:href="#md5d9a895e6" y="434.035847"/>
     <use style="fill:#55a868;stroke:#55a868;" x="563.379277" xlink:href="#md5d9a895e6" y="306.646756"/>
     <use style="fill:#55a868;stroke:#55a868;" x="591.366738" xlink:href="#md5d9a895e6" y="376.930392"/>
     <use style="fill:#55a868;stroke:#55a868;" x="619.354199" xlink:href="#md5d9a895e6" y="403.286756"/>
     <use style="fill:#55a868;stroke:#55a868;" x="647.341659" xlink:href="#md5d9a895e6" y="416.464937"/>
     <use style="fill:#55a868;stroke:#55a868;" x="675.32912" xlink:href="#md5d9a895e6" y="416.464937"/>
     <use style="fill:#55a868;stroke:#55a868;" x="703.316581" xlink:href="#md5d9a895e6" y="412.07221"/>
     <use style="fill:#55a868;stroke:#55a868;" x="731.304042" xlink:href="#md5d9a895e6" y="407.679483"/>
     <use style="fill:#55a868;stroke:#55a868;" x="759.291503" xlink:href="#md5d9a895e6" y="412.07221"/>
     <use style="fill:#55a868;stroke:#55a868;" x="787.278964" xlink:href="#md5d9a895e6" y="434.035847"/>
     <use style="fill:#55a868;stroke:#55a868;" x="815.266424" xlink:href="#md5d9a895e6" y="429.643119"/>
     <use style="fill:#55a868;stroke:#55a868;" x="843.253885" xlink:href="#md5d9a895e6" y="429.643119"/>
     <use style="fill:#55a868;stroke:#55a868;" x="871.241346" xlink:href="#md5d9a895e6" y="398.894028"/>
     <use style="fill:#55a868;stroke:#55a868;" x="899.228807" xlink:href="#md5d9a895e6" y="434.035847"/>
    </g>
   </g>
   <g id="line2d_73">
    <path clip-path="url(#p0a444ab620)" d="M 619.354199 442.821301 
L 647.341659 429.643119 
L 675.32912 407.679483 
L 703.316581 381.323119 
L 731.304042 442.821301 
L 759.291503 425.250392 
L 787.278964 407.679483 
L 815.266424 368.144937 
L 843.253885 341.788574 
L 871.241346 425.250392 
L 899.228807 429.643119 
" style="fill:none;stroke:#c44e52;stroke-linecap:round;stroke-width:0.5;"/>
    <defs>
     <path d="M 0 3 
C 0.795609 3 1.55874 2.683901 2.12132 2.12132 
C 2.683901 1.55874 3 0.795609 3 0 
C 3 -0.795609 2.683901 -1.55874 2.12132 -2.12132 
C 1.55874 -2.683901 0.795609 -3 0 -3 
C -0.795609 -3 -1.55874 -2.683901 -2.12132 -2.12132 
C -2.683901 -1.55874 -3 -0.795609 -3 0 
C -3 0.795609 -2.683901 1.55874 -2.12132 2.12132 
C -1.55874 2.683901 -0.795609 3 0 3 
z
" id="m8e61f36786" style="stroke:#c44e52;"/>
    </defs>
    <g clip-path="url(#p0a444ab620)">
     <use style="fill:#c44e52;stroke:#c44e52;" x="619.354199" xlink:href="#m8e61f36786" y="442.821301"/>
     <use style="fill:#c44e52;stroke:#c44e52;" x="647.341659" xlink:href="#m8e61f36786" y="429.643119"/>
     <use style="fill:#c44e52;stroke:#c44e52;" x="675.32912" xlink:href="#m8e61f36786" y="407.679483"/>
     <use style="fill:#c44e52;stroke:#c44e52;" x="703.316581" xlink:href="#m8e61f36786" y="381.323119"/>
     <use style="fill:#c44e52;stroke:#c44e52;" x="731.304042" xlink:href="#m8e61f36786" y="442.821301"/>
     <use style="fill:#c44e52;stroke:#c44e52;" x="759.291503" xlink:href="#m8e61f36786" y="425.250392"/>
     <use style="fill:#c44e52;stroke:#c44e52;" x="787.278964" xlink:href="#m8e61f36786" y="407.679483"/>
     <use style="fill:#c44e52;stroke:#c44e52;" x="815.266424" xlink:href="#m8e61f36786" y="368.144937"/>
     <use style="fill:#c44e52;stroke:#c44e52;" x="843.253885" xlink:href="#m8e61f36786" y="341.788574"/>
     <use style="fill:#c44e52;stroke:#c44e52;" x="871.241346" xlink:href="#m8e61f36786" y="425.250392"/>
     <use style="fill:#c44e52;stroke:#c44e52;" x="899.228807" xlink:href="#m8e61f36786" y="429.643119"/>
    </g>
   </g>
   <g id="line2d_74">
    <path clip-path="url(#p0a444ab620)" d="M 87.592443 438.428574 
L 115.579904 434.035847 
L 143.567365 438.428574 
L 171.554826 403.286756 
M 227.529747 434.035847 
M 283.504669 434.035847 
L 311.49213 438.428574 
M 395.454512 416.464937 
L 423.441973 434.035847 
L 451.429434 429.643119 
L 479.416895 434.035847 
L 507.404355 368.144937 
L 535.391816 341.788574 
L 563.379277 315.43221 
L 591.366738 293.468574 
L 619.354199 363.75221 
L 647.341659 315.43221 
L 675.32912 359.359483 
L 703.316581 324.217665 
L 731.304042 346.181301 
L 759.291503 359.359483 
L 787.278964 390.108574 
L 815.266424 390.108574 
L 843.253885 394.501301 
L 871.241346 407.679483 
L 899.228807 381.323119 
" style="fill:none;stroke:#8172b3;stroke-linecap:round;stroke-width:0.5;"/>
    <defs>
     <path d="M 0 3 
C 0.795609 3 1.55874 2.683901 2.12132 2.12132 
C 2.683901 1.55874 3 0.795609 3 0 
C 3 -0.795609 2.683901 -1.55874 2.12132 -2.12132 
C 1.55874 -2.683901 0.795609 -3 0 -3 
C -0.795609 -3 -1.55874 -2.683901 -2.12132 -2.12132 
C -2.683901 -1.55874 -3 -0.795609 -3 0 
C -3 0.795609 -2.683901 1.55874 -2.12132 2.12132 
C -1.55874 2.683901 -0.795609 3 0 3 
z
" id="m296bfad51f" style="stroke:#8172b3;"/>
    </defs>
    <g clip-path="url(#p0a444ab620)">
     <use style="fill:#8172b3;stroke:#8172b3;" x="87.592443" xlink:href="#m296bfad51f" y="438.428574"/>
     <use style="fill:#8172b3;stroke:#8172b3;" x="115.579904" xlink:href="#m296bfad51f" y="434.035847"/>
     <use style="fill:#8172b3;stroke:#8172b3;" x="143.567365" xlink:href="#m296bfad51f" y="438.428574"/>
     <use style="fill:#8172b3;stroke:#8172b3;" x="171.554826" xlink:href="#m296bfad51f" y="403.286756"/>
     <use style="fill:#8172b3;stroke:#8172b3;" x="227.529747" xlink:href="#m296bfad51f" y="434.035847"/>
     <use style="fill:#8172b3;stroke:#8172b3;" x="283.504669" xlink:href="#m296bfad51f" y="434.035847"/>
     <use style="fill:#8172b3;stroke:#8172b3;" x="311.49213" xlink:href="#m296bfad51f" y="438.428574"/>
     <use style="fill:#8172b3;stroke:#8172b3;" x="395.454512" xlink:href="#m296bfad51f" y="416.464937"/>
     <use style="fill:#8172b3;stroke:#8172b3;" x="423.441973" xlink:href="#m296bfad51f" y="434.035847"/>
     <use style="fill:#8172b3;stroke:#8172b3;" x="451.429434" xlink:href="#m296bfad51f" y="429.643119"/>
     <use style="fill:#8172b3;stroke:#8172b3;" x="479.416895" xlink:href="#m296bfad51f" y="434.035847"/>
     <use style="fill:#8172b3;stroke:#8172b3;" x="507.404355" xlink:href="#m296bfad51f" y="368.144937"/>
     <use style="fill:#8172b3;stroke:#8172b3;" x="535.391816" xlink:href="#m296bfad51f" y="341.788574"/>
     <use style="fill:#8172b3;stroke:#8172b3;" x="563.379277" xlink:href="#m296bfad51f" y="315.43221"/>
     <use style="fill:#8172b3;stroke:#8172b3;" x="591.366738" xlink:href="#m296bfad51f" y="293.468574"/>
     <use style="fill:#8172b3;stroke:#8172b3;" x="619.354199" xlink:href="#m296bfad51f" y="363.75221"/>
     <use style="fill:#8172b3;stroke:#8172b3;" x="647.341659" xlink:href="#m296bfad51f" y="315.43221"/>
     <use style="fill:#8172b3;stroke:#8172b3;" x="675.32912" xlink:href="#m296bfad51f" y="359.359483"/>
     <use style="fill:#8172b3;stroke:#8172b3;" x="703.316581" xlink:href="#m296bfad51f" y="324.217665"/>
     <use style="fill:#8172b3;stroke:#8172b3;" x="731.304042" xlink:href="#m296bfad51f" y="346.181301"/>
     <use style="fill:#8172b3;stroke:#8172b3;" x="759.291503" xlink:href="#m296bfad51f" y="359.359483"/>
     <use style="fill:#8172b3;stroke:#8172b3;" x="787.278964" xlink:href="#m296bfad51f" y="390.108574"/>
     <use style="fill:#8172b3;stroke:#8172b3;" x="815.266424" xlink:href="#m296bfad51f" y="390.108574"/>
     <use style="fill:#8172b3;stroke:#8172b3;" x="843.253885" xlink:href="#m296bfad51f" y="394.501301"/>
     <use style="fill:#8172b3;stroke:#8172b3;" x="871.241346" xlink:href="#m296bfad51f" y="407.679483"/>
     <use style="fill:#8172b3;stroke:#8172b3;" x="899.228807" xlink:href="#m296bfad51f" y="381.323119"/>
    </g>
   </g>
   <g id="line2d_75">
    <path clip-path="url(#p0a444ab620)" d="M 619.354199 438.428574 
L 647.341659 434.035847 
L 675.32912 438.428574 
L 703.316581 403.286756 
L 731.304042 429.643119 
L 759.291503 434.035847 
L 787.278964 376.930392 
L 815.266424 359.359483 
L 843.253885 394.501301 
L 871.241346 425.250392 
L 899.228807 420.857665 
" style="fill:none;stroke:#937860;stroke-linecap:round;stroke-width:0.5;"/>
    <defs>
     <path d="M 0 3 
C 0.795609 3 1.55874 2.683901 2.12132 2.12132 
C 2.683901 1.55874 3 0.795609 3 0 
C 3 -0.795609 2.683901 -1.55874 2.12132 -2.12132 
C 1.55874 -2.683901 0.795609 -3 0 -3 
C -0.795609 -3 -1.55874 -2.683901 -2.12132 -2.12132 
C -2.683901 -1.55874 -3 -0.795609 -3 0 
C -3 0.795609 -2.683901 1.55874 -2.12132 2.12132 
C -1.55874 2.683901 -0.795609 3 0 3 
z
" id="m5a8b30f266" style="stroke:#937860;"/>
    </defs>
    <g clip-path="url(#p0a444ab620)">
     <use style="fill:#937860;stroke:#937860;" x="619.354199" xlink:href="#m5a8b30f266" y="438.428574"/>
     <use style="fill:#937860;stroke:#937860;" x="647.341659" xlink:href="#m5a8b30f266" y="434.035847"/>
     <use style="fill:#937860;stroke:#937860;" x="675.32912" xlink:href="#m5a8b30f266" y="438.428574"/>
     <use style="fill:#937860;stroke:#937860;" x="703.316581" xlink:href="#m5a8b30f266" y="403.286756"/>
     <use style="fill:#937860;stroke:#937860;" x="731.304042" xlink:href="#m5a8b30f266" y="429.643119"/>
     <use style="fill:#937860;stroke:#937860;" x="759.291503" xlink:href="#m5a8b30f266" y="434.035847"/>
     <use style="fill:#937860;stroke:#937860;" x="787.278964" xlink:href="#m5a8b30f266" y="376.930392"/>
     <use style="fill:#937860;stroke:#937860;" x="815.266424" xlink:href="#m5a8b30f266" y="359.359483"/>
     <use style="fill:#937860;stroke:#937860;" x="843.253885" xlink:href="#m5a8b30f266" y="394.501301"/>
     <use style="fill:#937860;stroke:#937860;" x="871.241346" xlink:href="#m5a8b30f266" y="425.250392"/>
     <use style="fill:#937860;stroke:#937860;" x="899.228807" xlink:href="#m5a8b30f266" y="420.857665"/>
    </g>
   </g>
   <g id="line2d_76">
    <path clip-path="url(#p0a444ab620)" d="M 647.341659 363.75221 
L 675.32912 341.788574 
L 703.316581 385.715847 
L 731.304042 420.857665 
L 759.291503 429.643119 
L 787.278964 425.250392 
L 815.266424 429.643119 
L 843.253885 434.035847 
L 871.241346 429.643119 
L 899.228807 429.643119 
" style="fill:none;stroke:#da8bc3;stroke-linecap:round;stroke-width:0.5;"/>
    <defs>
     <path d="M 0 3 
C 0.795609 3 1.55874 2.683901 2.12132 2.12132 
C 2.683901 1.55874 3 0.795609 3 0 
C 3 -0.795609 2.683901 -1.55874 2.12132 -2.12132 
C 1.55874 -2.683901 0.795609 -3 0 -3 
C -0.795609 -3 -1.55874 -2.683901 -2.12132 -2.12132 
C -2.683901 -1.55874 -3 -0.795609 -3 0 
C -3 0.795609 -2.683901 1.55874 -2.12132 2.12132 
C -1.55874 2.683901 -0.795609 3 0 3 
z
" id="m4c18683695" style="stroke:#da8bc3;"/>
    </defs>
    <g clip-path="url(#p0a444ab620)">
     <use style="fill:#da8bc3;stroke:#da8bc3;" x="647.341659" xlink:href="#m4c18683695" y="363.75221"/>
     <use style="fill:#da8bc3;stroke:#da8bc3;" x="675.32912" xlink:href="#m4c18683695" y="341.788574"/>
     <use style="fill:#da8bc3;stroke:#da8bc3;" x="703.316581" xlink:href="#m4c18683695" y="385.715847"/>
     <use style="fill:#da8bc3;stroke:#da8bc3;" x="731.304042" xlink:href="#m4c18683695" y="420.857665"/>
     <use style="fill:#da8bc3;stroke:#da8bc3;" x="759.291503" xlink:href="#m4c18683695" y="429.643119"/>
     <use style="fill:#da8bc3;stroke:#da8bc3;" x="787.278964" xlink:href="#m4c18683695" y="425.250392"/>
     <use style="fill:#da8bc3;stroke:#da8bc3;" x="815.266424" xlink:href="#m4c18683695" y="429.643119"/>
     <use style="fill:#da8bc3;stroke:#da8bc3;" x="843.253885" xlink:href="#m4c18683695" y="434.035847"/>
     <use style="fill:#da8bc3;stroke:#da8bc3;" x="871.241346" xlink:href="#m4c18683695" y="429.643119"/>
     <use style="fill:#da8bc3;stroke:#da8bc3;" x="899.228807" xlink:href="#m4c18683695" y="429.643119"/>
    </g>
   </g>
   <g id="line2d_77">
    <path clip-path="url(#p0a444ab620)" d="M 647.341659 429.643119 
L 675.32912 420.857665 
L 703.316581 438.428574 
L 731.304042 412.07221 
L 759.291503 398.894028 
L 787.278964 368.144937 
L 815.266424 394.501301 
L 843.253885 434.035847 
L 871.241346 407.679483 
L 899.228807 425.250392 
" style="fill:none;stroke:#8c8c8c;stroke-linecap:round;stroke-width:0.5;"/>
    <defs>
     <path d="M 0 3 
C 0.795609 3 1.55874 2.683901 2.12132 2.12132 
C 2.683901 1.55874 3 0.795609 3 0 
C 3 -0.795609 2.683901 -1.55874 2.12132 -2.12132 
C 1.55874 -2.683901 0.795609 -3 0 -3 
C -0.795609 -3 -1.55874 -2.683901 -2.12132 -2.12132 
C -2.683901 -1.55874 -3 -0.795609 -3 0 
C -3 0.795609 -2.683901 1.55874 -2.12132 2.12132 
C -1.55874 2.683901 -0.795609 3 0 3 
z
" id="mf2b99ffd19" style="stroke:#8c8c8c;"/>
    </defs>
    <g clip-path="url(#p0a444ab620)">
     <use style="fill:#8c8c8c;stroke:#8c8c8c;" x="647.341659" xlink:href="#mf2b99ffd19" y="429.643119"/>
     <use style="fill:#8c8c8c;stroke:#8c8c8c;" x="675.32912" xlink:href="#mf2b99ffd19" y="420.857665"/>
     <use style="fill:#8c8c8c;stroke:#8c8c8c;" x="703.316581" xlink:href="#mf2b99ffd19" y="438.428574"/>
     <use style="fill:#8c8c8c;stroke:#8c8c8c;" x="731.304042" xlink:href="#mf2b99ffd19" y="412.07221"/>
     <use style="fill:#8c8c8c;stroke:#8c8c8c;" x="759.291503" xlink:href="#mf2b99ffd19" y="398.894028"/>
     <use style="fill:#8c8c8c;stroke:#8c8c8c;" x="787.278964" xlink:href="#mf2b99ffd19" y="368.144937"/>
     <use style="fill:#8c8c8c;stroke:#8c8c8c;" x="815.266424" xlink:href="#mf2b99ffd19" y="394.501301"/>
     <use style="fill:#8c8c8c;stroke:#8c8c8c;" x="843.253885" xlink:href="#mf2b99ffd19" y="434.035847"/>
     <use style="fill:#8c8c8c;stroke:#8c8c8c;" x="871.241346" xlink:href="#mf2b99ffd19" y="407.679483"/>
     <use style="fill:#8c8c8c;stroke:#8c8c8c;" x="899.228807" xlink:href="#mf2b99ffd19" y="425.250392"/>
    </g>
   </g>
   <g id="line2d_78">
    <path clip-path="url(#p0a444ab620)" d="M 311.49213 429.643119 
M 367.467051 442.821301 
L 395.454512 434.035847 
L 423.441973 442.821301 
M 479.416895 442.821301 
L 507.404355 434.035847 
L 535.391816 425.250392 
L 563.379277 412.07221 
L 591.366738 407.679483 
L 619.354199 354.966756 
L 647.341659 403.286756 
L 675.32912 398.894028 
L 703.316581 425.250392 
L 731.304042 394.501301 
L 759.291503 403.286756 
L 787.278964 302.254028 
L 815.266424 324.217665 
L 843.253885 385.715847 
L 871.241346 412.07221 
L 899.228807 412.07221 
" style="fill:none;stroke:#ccb974;stroke-linecap:round;stroke-width:0.5;"/>
    <defs>
     <path d="M 0 3 
C 0.795609 3 1.55874 2.683901 2.12132 2.12132 
C 2.683901 1.55874 3 0.795609 3 0 
C 3 -0.795609 2.683901 -1.55874 2.12132 -2.12132 
C 1.55874 -2.683901 0.795609 -3 0 -3 
C -0.795609 -3 -1.55874 -2.683901 -2.12132 -2.12132 
C -2.683901 -1.55874 -3 -0.795609 -3 0 
C -3 0.795609 -2.683901 1.55874 -2.12132 2.12132 
C -1.55874 2.683901 -0.795609 3 0 3 
z
" id="m302c15c271" style="stroke:#ccb974;"/>
    </defs>
    <g clip-path="url(#p0a444ab620)">
     <use style="fill:#ccb974;stroke:#ccb974;" x="311.49213" xlink:href="#m302c15c271" y="429.643119"/>
     <use style="fill:#ccb974;stroke:#ccb974;" x="367.467051" xlink:href="#m302c15c271" y="442.821301"/>
     <use style="fill:#ccb974;stroke:#ccb974;" x="395.454512" xlink:href="#m302c15c271" y="434.035847"/>
     <use style="fill:#ccb974;stroke:#ccb974;" x="423.441973" xlink:href="#m302c15c271" y="442.821301"/>
     <use style="fill:#ccb974;stroke:#ccb974;" x="479.416895" xlink:href="#m302c15c271" y="442.821301"/>
     <use style="fill:#ccb974;stroke:#ccb974;" x="507.404355" xlink:href="#m302c15c271" y="434.035847"/>
     <use style="fill:#ccb974;stroke:#ccb974;" x="535.391816" xlink:href="#m302c15c271" y="425.250392"/>
     <use style="fill:#ccb974;stroke:#ccb974;" x="563.379277" xlink:href="#m302c15c271" y="412.07221"/>
     <use style="fill:#ccb974;stroke:#ccb974;" x="591.366738" xlink:href="#m302c15c271" y="407.679483"/>
     <use style="fill:#ccb974;stroke:#ccb974;" x="619.354199" xlink:href="#m302c15c271" y="354.966756"/>
     <use style="fill:#ccb974;stroke:#ccb974;" x="647.341659" xlink:href="#m302c15c271" y="403.286756"/>
     <use style="fill:#ccb974;stroke:#ccb974;" x="675.32912" xlink:href="#m302c15c271" y="398.894028"/>
     <use style="fill:#ccb974;stroke:#ccb974;" x="703.316581" xlink:href="#m302c15c271" y="425.250392"/>
     <use style="fill:#ccb974;stroke:#ccb974;" x="731.304042" xlink:href="#m302c15c271" y="394.501301"/>
     <use style="fill:#ccb974;stroke:#ccb974;" x="759.291503" xlink:href="#m302c15c271" y="403.286756"/>
     <use style="fill:#ccb974;stroke:#ccb974;" x="787.278964" xlink:href="#m302c15c271" y="302.254028"/>
     <use style="fill:#ccb974;stroke:#ccb974;" x="815.266424" xlink:href="#m302c15c271" y="324.217665"/>
     <use style="fill:#ccb974;stroke:#ccb974;" x="843.253885" xlink:href="#m302c15c271" y="385.715847"/>
     <use style="fill:#ccb974;stroke:#ccb974;" x="871.241346" xlink:href="#m302c15c271" y="412.07221"/>
     <use style="fill:#ccb974;stroke:#ccb974;" x="899.228807" xlink:href="#m302c15c271" y="412.07221"/>
    </g>
   </g>
   <g id="line2d_79">
    <path clip-path="url(#p0a444ab620)" d="M 535.391816 333.003119 
L 563.379277 47.475847 
L 591.366738 372.537665 
L 619.354199 403.286756 
L 647.341659 429.643119 
L 675.32912 425.250392 
L 703.316581 416.464937 
M 759.291503 434.035847 
L 787.278964 442.821301 
" style="fill:none;stroke:#64b5cd;stroke-linecap:round;stroke-width:0.5;"/>
    <defs>
     <path d="M 0 3 
C 0.795609 3 1.55874 2.683901 2.12132 2.12132 
C 2.683901 1.55874 3 0.795609 3 0 
C 3 -0.795609 2.683901 -1.55874 2.12132 -2.12132 
C 1.55874 -2.683901 0.795609 -3 0 -3 
C -0.795609 -3 -1.55874 -2.683901 -2.12132 -2.12132 
C -2.683901 -1.55874 -3 -0.795609 -3 0 
C -3 0.795609 -2.683901 1.55874 -2.12132 2.12132 
C -1.55874 2.683901 -0.795609 3 0 3 
z
" id="m77b3a06c85" style="stroke:#64b5cd;"/>
    </defs>
    <g clip-path="url(#p0a444ab620)">
     <use style="fill:#64b5cd;stroke:#64b5cd;" x="535.391816" xlink:href="#m77b3a06c85" y="333.003119"/>
     <use style="fill:#64b5cd;stroke:#64b5cd;" x="563.379277" xlink:href="#m77b3a06c85" y="47.475847"/>
     <use style="fill:#64b5cd;stroke:#64b5cd;" x="591.366738" xlink:href="#m77b3a06c85" y="372.537665"/>
     <use style="fill:#64b5cd;stroke:#64b5cd;" x="619.354199" xlink:href="#m77b3a06c85" y="403.286756"/>
     <use style="fill:#64b5cd;stroke:#64b5cd;" x="647.341659" xlink:href="#m77b3a06c85" y="429.643119"/>
     <use style="fill:#64b5cd;stroke:#64b5cd;" x="675.32912" xlink:href="#m77b3a06c85" y="425.250392"/>
     <use style="fill:#64b5cd;stroke:#64b5cd;" x="703.316581" xlink:href="#m77b3a06c85" y="416.464937"/>
     <use style="fill:#64b5cd;stroke:#64b5cd;" x="759.291503" xlink:href="#m77b3a06c85" y="434.035847"/>
     <use style="fill:#64b5cd;stroke:#64b5cd;" x="787.278964" xlink:href="#m77b3a06c85" y="442.821301"/>
    </g>
   </g>
   <g id="line2d_80">
    <path clip-path="url(#p0a444ab620)" d="M 465.423164 462.588574 
L 465.423164 27.708574 
" style="fill:none;stroke:#808080;stroke-dasharray:5.55,2.4;stroke-dashoffset:0;stroke-width:1.5;"/>
   </g>
   <g id="line2d_81">
    <path clip-path="url(#p0a444ab620)" d="M 535.391816 462.588574 
L 535.391816 27.708574 
" style="fill:none;stroke:#ff0000;stroke-dasharray:5.55,2.4;stroke-dashoffset:0;stroke-width:1.5;"/>
   </g>
   <g id="line2d_82">
    <path clip-path="url(#p0a444ab620)" d="M 605.360468 462.588574 
L 605.360468 27.708574 
" style="fill:none;stroke:#808080;stroke-dasharray:5.55,2.4;stroke-dashoffset:0;stroke-width:1.5;"/>
   </g>
   <g id="patch_3">
    <path d="M 47.010625 462.588574 
L 47.010625 27.708574 
" style="fill:none;stroke:#ffffff;stroke-linecap:square;stroke-linejoin:miter;stroke-width:1.25;"/>
   </g>
   <g id="patch_4">
    <path d="M 939.810625 462.588574 
L 939.810625 27.708574 
" style="fill:none;stroke:#ffffff;stroke-linecap:square;stroke-linejoin:miter;stroke-width:1.25;"/>
   </g>
   <g id="patch_5">
    <path d="M 47.010625 462.588574 
L 939.810625 462.588574 
" style="fill:none;stroke:#ffffff;stroke-linecap:square;stroke-linejoin:miter;stroke-width:1.25;"/>
   </g>
   <g id="patch_6">
    <path d="M 47.010625 27.708574 
L 939.810625 27.708574 
" style="fill:none;stroke:#ffffff;stroke-linecap:square;stroke-linejoin:miter;stroke-width:1.25;"/>
   </g>
   <g id="text_40">
    <!-- Cutoff #1 -->
    <defs>
     <path d="M 58.796875 25.09375 
L 68.265625 22.703125 
Q 65.28125 11.03125 57.546875 4.90625 
Q 49.8125 -1.21875 38.625 -1.21875 
Q 27.046875 -1.21875 19.796875 3.484375 
Q 12.546875 8.203125 8.765625 17.140625 
Q 4.984375 26.078125 4.984375 36.328125 
Q 4.984375 47.515625 9.25 55.828125 
Q 13.53125 64.15625 21.40625 68.46875 
Q 29.296875 72.796875 38.765625 72.796875 
Q 49.515625 72.796875 56.828125 67.328125 
Q 64.15625 61.859375 67.046875 51.953125 
L 57.71875 49.75 
Q 55.21875 57.5625 50.484375 61.125 
Q 45.75 64.703125 38.578125 64.703125 
Q 30.328125 64.703125 24.78125 60.734375 
Q 19.234375 56.78125 16.984375 50.109375 
Q 14.75 43.453125 14.75 36.375 
Q 14.75 27.25 17.40625 20.4375 
Q 20.0625 13.625 25.671875 10.25 
Q 31.296875 6.890625 37.84375 6.890625 
Q 45.796875 6.890625 51.3125 11.46875 
Q 56.84375 16.0625 58.796875 25.09375 
z
" id="ArialMT-67"/>
     <path d="M 40.578125 0 
L 40.578125 7.625 
Q 34.515625 -1.171875 24.125 -1.171875 
Q 19.53125 -1.171875 15.546875 0.578125 
Q 11.578125 2.34375 9.640625 5 
Q 7.71875 7.671875 6.9375 11.53125 
Q 6.390625 14.109375 6.390625 19.734375 
L 6.390625 51.859375 
L 15.1875 51.859375 
L 15.1875 23.09375 
Q 15.1875 16.21875 15.71875 13.8125 
Q 16.546875 10.359375 19.234375 8.375 
Q 21.921875 6.390625 25.875 6.390625 
Q 29.828125 6.390625 33.296875 8.421875 
Q 36.765625 10.453125 38.203125 13.9375 
Q 39.65625 17.4375 39.65625 24.078125 
L 39.65625 51.859375 
L 48.4375 51.859375 
L 48.4375 0 
z
" id="ArialMT-117"/>
     <path d="M 5.03125 -1.21875 
L 9.28125 19.578125 
L 1.03125 19.578125 
L 1.03125 26.859375 
L 10.75 26.859375 
L 14.359375 44.578125 
L 1.03125 44.578125 
L 1.03125 51.859375 
L 15.828125 51.859375 
L 20.0625 72.796875 
L 27.390625 72.796875 
L 23.140625 51.859375 
L 38.53125 51.859375 
L 42.78125 72.796875 
L 50.140625 72.796875 
L 45.90625 51.859375 
L 54.34375 51.859375 
L 54.34375 44.578125 
L 44.4375 44.578125 
L 40.765625 26.859375 
L 54.34375 26.859375 
L 54.34375 19.578125 
L 39.3125 19.578125 
L 35.0625 -1.21875 
L 27.734375 -1.21875 
L 31.9375 19.578125 
L 16.609375 19.578125 
L 12.359375 -1.21875 
z
M 18.0625 26.859375 
L 33.40625 26.859375 
L 37.0625 44.578125 
L 21.6875 44.578125 
z
" id="ArialMT-35"/>
    </defs>
    <g style="fill:#808080;" transform="translate(408.615977 17.220937)scale(0.14 -0.14)">
     <use xlink:href="#ArialMT-67"/>
     <use x="72.216797" xlink:href="#ArialMT-117"/>
     <use x="127.832031" xlink:href="#ArialMT-116"/>
     <use x="155.615234" xlink:href="#ArialMT-111"/>
     <use x="211.230469" xlink:href="#ArialMT-102"/>
     <use x="238.998047" xlink:href="#ArialMT-102"/>
     <use x="266.78125" xlink:href="#ArialMT-32"/>
     <use x="294.564453" xlink:href="#ArialMT-35"/>
     <use x="350.179688" xlink:href="#ArialMT-49"/>
    </g>
   </g>
   <g id="text_41">
    <!-- Lockdown -->
    <defs>
     <path d="M 7.328125 0 
L 7.328125 71.578125 
L 16.796875 71.578125 
L 16.796875 8.453125 
L 52.046875 8.453125 
L 52.046875 0 
z
" id="ArialMT-76"/>
     <path d="M 40.4375 19 
L 49.078125 17.875 
Q 47.65625 8.9375 41.8125 3.875 
Q 35.984375 -1.171875 27.484375 -1.171875 
Q 16.84375 -1.171875 10.375 5.78125 
Q 3.90625 12.75 3.90625 25.734375 
Q 3.90625 34.125 6.6875 40.421875 
Q 9.46875 46.734375 15.15625 49.875 
Q 20.84375 53.03125 27.546875 53.03125 
Q 35.984375 53.03125 41.359375 48.75 
Q 46.734375 44.484375 48.25 36.625 
L 39.703125 35.296875 
Q 38.484375 40.53125 35.375 43.15625 
Q 32.28125 45.796875 27.875 45.796875 
Q 21.234375 45.796875 17.078125 41.03125 
Q 12.9375 36.28125 12.9375 25.984375 
Q 12.9375 15.53125 16.9375 10.796875 
Q 20.953125 6.0625 27.390625 6.0625 
Q 32.5625 6.0625 36.03125 9.234375 
Q 39.5 12.40625 40.4375 19 
z
" id="ArialMT-99"/>
     <path d="M 40.234375 0 
L 40.234375 6.546875 
Q 35.296875 -1.171875 25.734375 -1.171875 
Q 19.53125 -1.171875 14.328125 2.25 
Q 9.125 5.671875 6.265625 11.796875 
Q 3.421875 17.921875 3.421875 25.875 
Q 3.421875 33.640625 6 39.96875 
Q 8.59375 46.296875 13.765625 49.65625 
Q 18.953125 53.03125 25.34375 53.03125 
Q 30.03125 53.03125 33.6875 51.046875 
Q 37.359375 49.078125 39.65625 45.90625 
L 39.65625 71.578125 
L 48.390625 71.578125 
L 48.390625 0 
z
M 12.453125 25.875 
Q 12.453125 15.921875 16.640625 10.984375 
Q 20.84375 6.0625 26.5625 6.0625 
Q 32.328125 6.0625 36.34375 10.765625 
Q 40.375 15.484375 40.375 25.140625 
Q 40.375 35.796875 36.265625 40.765625 
Q 32.171875 45.75 26.171875 45.75 
Q 20.3125 45.75 16.375 40.96875 
Q 12.453125 36.1875 12.453125 25.875 
z
" id="ArialMT-100"/>
     <path d="M 16.15625 0 
L 0.296875 51.859375 
L 9.375 51.859375 
L 17.625 21.921875 
L 20.703125 10.796875 
Q 20.90625 11.625 23.390625 21.484375 
L 31.640625 51.859375 
L 40.671875 51.859375 
L 48.4375 21.78125 
L 51.03125 11.859375 
L 54 21.875 
L 62.890625 51.859375 
L 71.4375 51.859375 
L 55.21875 0 
L 46.09375 0 
L 37.84375 31.0625 
L 35.84375 39.890625 
L 25.34375 0 
z
" id="ArialMT-119"/>
    </defs>
    <g style="fill:#ff0000;" transform="translate(503.873222 17.220937)scale(0.14 -0.14)">
     <use xlink:href="#ArialMT-76"/>
     <use x="55.615234" xlink:href="#ArialMT-111"/>
     <use x="111.230469" xlink:href="#ArialMT-99"/>
     <use x="161.230469" xlink:href="#ArialMT-107"/>
     <use x="211.230469" xlink:href="#ArialMT-100"/>
     <use x="266.845703" xlink:href="#ArialMT-111"/>
     <use x="322.460938" xlink:href="#ArialMT-119"/>
     <use x="394.677734" xlink:href="#ArialMT-110"/>
    </g>
   </g>
   <g id="text_42">
    <!-- Cutoff #2 -->
    <g style="fill:#808080;" transform="translate(605.360468 17.220937)scale(0.14 -0.14)">
     <use xlink:href="#ArialMT-67"/>
     <use x="72.216797" xlink:href="#ArialMT-117"/>
     <use x="127.832031" xlink:href="#ArialMT-116"/>
     <use x="155.615234" xlink:href="#ArialMT-111"/>
     <use x="211.230469" xlink:href="#ArialMT-102"/>
     <use x="238.998047" xlink:href="#ArialMT-102"/>
     <use x="266.78125" xlink:href="#ArialMT-32"/>
     <use x="294.564453" xlink:href="#ArialMT-35"/>
     <use x="350.179688" xlink:href="#ArialMT-50"/>
    </g>
   </g>
   <g id="legend_1">
    <g id="patch_7">
     <path d="M 960.420922 350.648535 
L 1126.076625 350.648535 
Q 1128.976625 350.648535 1128.976625 347.748535 
L 1128.976625 142.548613 
Q 1128.976625 139.648613 1126.076625 139.648613 
L 960.420922 139.648613 
Q 957.520922 139.648613 957.520922 142.548613 
L 957.520922 347.748535 
Q 957.520922 350.648535 960.420922 350.648535 
z
" style="fill:#eaeaf2;opacity:0.8;stroke:#cccccc;stroke-linejoin:miter;"/>
    </g>
    <g id="line2d_83">
     <path d="M 963.320922 150.752441 
L 992.320922 150.752441 
" style="fill:none;stroke:#4c72b0;stroke-linecap:round;stroke-width:0.5;"/>
    </g>
    <g id="line2d_84">
     <g>
      <use style="fill:#4c72b0;stroke:#4c72b0;" x="977.820922" xlink:href="#mb5ed6b79d3" y="150.752441"/>
     </g>
    </g>
    <g id="text_43">
     <!-- blivhjemme -->
     <defs>
      <path d="M 14.703125 0 
L 6.546875 0 
L 6.546875 71.578125 
L 15.328125 71.578125 
L 15.328125 46.046875 
Q 20.90625 53.03125 29.546875 53.03125 
Q 34.328125 53.03125 38.59375 51.09375 
Q 42.875 49.171875 45.625 45.671875 
Q 48.390625 42.1875 49.953125 37.25 
Q 51.515625 32.328125 51.515625 26.703125 
Q 51.515625 13.375 44.921875 6.09375 
Q 38.328125 -1.171875 29.109375 -1.171875 
Q 19.921875 -1.171875 14.703125 6.5 
z
M 14.59375 26.3125 
Q 14.59375 17 17.140625 12.84375 
Q 21.296875 6.0625 28.375 6.0625 
Q 34.125 6.0625 38.328125 11.0625 
Q 42.53125 16.0625 42.53125 25.984375 
Q 42.53125 36.140625 38.5 40.96875 
Q 34.46875 45.796875 28.765625 45.796875 
Q 23 45.796875 18.796875 40.796875 
Q 14.59375 35.796875 14.59375 26.3125 
z
" id="ArialMT-98"/>
      <path d="M 6.390625 0 
L 6.390625 71.578125 
L 15.1875 71.578125 
L 15.1875 0 
z
" id="ArialMT-108"/>
      <path d="M 6.640625 61.46875 
L 6.640625 71.578125 
L 15.4375 71.578125 
L 15.4375 61.46875 
z
M 6.640625 0 
L 6.640625 51.859375 
L 15.4375 51.859375 
L 15.4375 0 
z
" id="ArialMT-105"/>
      <path d="M 6.546875 61.375 
L 6.546875 71.578125 
L 15.328125 71.578125 
L 15.328125 61.375 
z
M -4.59375 -20.125 
L -2.9375 -12.640625 
Q -0.296875 -13.328125 1.21875 -13.328125 
Q 3.90625 -13.328125 5.21875 -11.546875 
Q 6.546875 -9.765625 6.546875 -2.640625 
L 6.546875 51.859375 
L 15.328125 51.859375 
L 15.328125 -2.828125 
Q 15.328125 -12.40625 12.84375 -16.15625 
Q 9.671875 -21.046875 2.296875 -21.046875 
Q -1.265625 -21.046875 -4.59375 -20.125 
z
" id="ArialMT-106"/>
      <path d="M 6.59375 0 
L 6.59375 51.859375 
L 14.453125 51.859375 
L 14.453125 44.578125 
Q 16.890625 48.390625 20.9375 50.703125 
Q 25 53.03125 30.171875 53.03125 
Q 35.9375 53.03125 39.625 50.640625 
Q 43.3125 48.25 44.828125 43.953125 
Q 50.984375 53.03125 60.84375 53.03125 
Q 68.5625 53.03125 72.703125 48.75 
Q 76.859375 44.484375 76.859375 35.59375 
L 76.859375 0 
L 68.109375 0 
L 68.109375 32.671875 
Q 68.109375 37.9375 67.25 40.25 
Q 66.40625 42.578125 64.15625 43.984375 
Q 61.921875 45.40625 58.890625 45.40625 
Q 53.421875 45.40625 49.796875 41.765625 
Q 46.1875 38.140625 46.1875 30.125 
L 46.1875 0 
L 37.40625 0 
L 37.40625 33.6875 
Q 37.40625 39.546875 35.25 42.46875 
Q 33.109375 45.40625 28.21875 45.40625 
Q 24.515625 45.40625 21.359375 43.453125 
Q 18.21875 41.5 16.796875 37.734375 
Q 15.375 33.984375 15.375 26.90625 
L 15.375 0 
z
" id="ArialMT-109"/>
     </defs>
     <g style="fill:#262626;" transform="translate(1003.920922 155.827441)scale(0.145 -0.145)">
      <use xlink:href="#ArialMT-98"/>
      <use x="55.615234" xlink:href="#ArialMT-108"/>
      <use x="77.832031" xlink:href="#ArialMT-105"/>
      <use x="100.048828" xlink:href="#ArialMT-118"/>
      <use x="150.048828" xlink:href="#ArialMT-104"/>
      <use x="205.664062" xlink:href="#ArialMT-106"/>
      <use x="227.880859" xlink:href="#ArialMT-101"/>
      <use x="283.496094" xlink:href="#ArialMT-109"/>
      <use x="366.796875" xlink:href="#ArialMT-109"/>
      <use x="450.097656" xlink:href="#ArialMT-101"/>
     </g>
    </g>
    <g id="line2d_85">
     <path d="M 963.320922 171.433066 
L 992.320922 171.433066 
" style="fill:none;stroke:#dd8452;stroke-linecap:round;stroke-width:0.5;"/>
    </g>
    <g id="line2d_86">
     <g>
      <use style="fill:#dd8452;stroke:#dd8452;" x="977.820922" xlink:href="#mcf33cee6b0" y="171.433066"/>
     </g>
    </g>
    <g id="text_44">
     <!-- stayhome -->
     <defs>
      <path d="M 6.203125 -19.96875 
L 5.21875 -11.71875 
Q 8.109375 -12.5 10.25 -12.5 
Q 13.1875 -12.5 14.9375 -11.515625 
Q 16.703125 -10.546875 17.828125 -8.796875 
Q 18.65625 -7.46875 20.515625 -2.25 
Q 20.75 -1.515625 21.296875 -0.09375 
L 1.609375 51.859375 
L 11.078125 51.859375 
L 21.875 21.828125 
Q 23.96875 16.109375 25.640625 9.8125 
Q 27.15625 15.875 29.25 21.625 
L 40.328125 51.859375 
L 49.125 51.859375 
L 29.390625 -0.875 
Q 26.21875 -9.421875 24.46875 -12.640625 
Q 22.125 -17 19.09375 -19.015625 
Q 16.0625 -21.046875 11.859375 -21.046875 
Q 9.328125 -21.046875 6.203125 -19.96875 
z
" id="ArialMT-121"/>
     </defs>
     <g style="fill:#262626;" transform="translate(1003.920922 176.508066)scale(0.145 -0.145)">
      <use xlink:href="#ArialMT-115"/>
      <use x="50" xlink:href="#ArialMT-116"/>
      <use x="77.783203" xlink:href="#ArialMT-97"/>
      <use x="133.398438" xlink:href="#ArialMT-121"/>
      <use x="183.398438" xlink:href="#ArialMT-104"/>
      <use x="239.013672" xlink:href="#ArialMT-111"/>
      <use x="294.628906" xlink:href="#ArialMT-109"/>
      <use x="377.929688" xlink:href="#ArialMT-101"/>
     </g>
    </g>
    <g id="line2d_87">
     <path d="M 963.320922 192.113691 
L 992.320922 192.113691 
" style="fill:none;stroke:#55a868;stroke-linecap:round;stroke-width:0.5;"/>
    </g>
    <g id="line2d_88">
     <g>
      <use style="fill:#55a868;stroke:#55a868;" x="977.820922" xlink:href="#md5d9a895e6" y="192.113691"/>
     </g>
    </g>
    <g id="text_45">
     <!-- lockdown -->
     <g style="fill:#262626;" transform="translate(1003.920922 197.188691)scale(0.145 -0.145)">
      <use xlink:href="#ArialMT-108"/>
      <use x="22.216797" xlink:href="#ArialMT-111"/>
      <use x="77.832031" xlink:href="#ArialMT-99"/>
      <use x="127.832031" xlink:href="#ArialMT-107"/>
      <use x="177.832031" xlink:href="#ArialMT-100"/>
      <use x="233.447266" xlink:href="#ArialMT-111"/>
      <use x="289.0625" xlink:href="#ArialMT-119"/>
      <use x="361.279297" xlink:href="#ArialMT-110"/>
     </g>
    </g>
    <g id="line2d_89">
     <path d="M 963.320922 212.624394 
L 992.320922 212.624394 
" style="fill:none;stroke:#c44e52;stroke-linecap:round;stroke-width:0.5;"/>
    </g>
    <g id="line2d_90">
     <g>
      <use style="fill:#c44e52;stroke:#c44e52;" x="977.820922" xlink:href="#m8e61f36786" y="212.624394"/>
     </g>
    </g>
    <g id="text_46">
     <!-- stayathome -->
     <g style="fill:#262626;" transform="translate(1003.920922 217.699394)scale(0.145 -0.145)">
      <use xlink:href="#ArialMT-115"/>
      <use x="50" xlink:href="#ArialMT-116"/>
      <use x="77.783203" xlink:href="#ArialMT-97"/>
      <use x="133.398438" xlink:href="#ArialMT-121"/>
      <use x="183.398438" xlink:href="#ArialMT-97"/>
      <use x="239.013672" xlink:href="#ArialMT-116"/>
      <use x="266.796875" xlink:href="#ArialMT-104"/>
      <use x="322.412109" xlink:href="#ArialMT-111"/>
      <use x="378.027344" xlink:href="#ArialMT-109"/>
      <use x="461.328125" xlink:href="#ArialMT-101"/>
     </g>
    </g>
    <g id="line2d_91">
     <path d="M 963.320922 233.305019 
L 992.320922 233.305019 
" style="fill:none;stroke:#8172b3;stroke-linecap:round;stroke-width:0.5;"/>
    </g>
    <g id="line2d_92">
     <g>
      <use style="fill:#8172b3;stroke:#8172b3;" x="977.820922" xlink:href="#m296bfad51f" y="233.305019"/>
     </g>
    </g>
    <g id="text_47">
     <!-- twitterhjerne -->
     <g style="fill:#262626;" transform="translate(1003.920922 238.380019)scale(0.145 -0.145)">
      <use xlink:href="#ArialMT-116"/>
      <use x="27.783203" xlink:href="#ArialMT-119"/>
      <use x="100" xlink:href="#ArialMT-105"/>
      <use x="122.216797" xlink:href="#ArialMT-116"/>
      <use x="150" xlink:href="#ArialMT-116"/>
      <use x="177.783203" xlink:href="#ArialMT-101"/>
      <use x="233.398438" xlink:href="#ArialMT-114"/>
      <use x="266.699219" xlink:href="#ArialMT-104"/>
      <use x="322.314453" xlink:href="#ArialMT-106"/>
      <use x="344.53125" xlink:href="#ArialMT-101"/>
      <use x="400.146484" xlink:href="#ArialMT-114"/>
      <use x="433.447266" xlink:href="#ArialMT-110"/>
      <use x="489.0625" xlink:href="#ArialMT-101"/>
     </g>
    </g>
    <g id="line2d_93">
     <path d="M 963.320922 253.985644 
L 992.320922 253.985644 
" style="fill:none;stroke:#937860;stroke-linecap:round;stroke-width:0.5;"/>
    </g>
    <g id="line2d_94">
     <g>
      <use style="fill:#937860;stroke:#937860;" x="977.820922" xlink:href="#m5a8b30f266" y="253.985644"/>
     </g>
    </g>
    <g id="text_48">
     <!-- holdafstand -->
     <g style="fill:#262626;" transform="translate(1003.920922 259.060644)scale(0.145 -0.145)">
      <use xlink:href="#ArialMT-104"/>
      <use x="55.615234" xlink:href="#ArialMT-111"/>
      <use x="111.230469" xlink:href="#ArialMT-108"/>
      <use x="133.447266" xlink:href="#ArialMT-100"/>
      <use x="189.0625" xlink:href="#ArialMT-97"/>
      <use x="244.677734" xlink:href="#ArialMT-102"/>
      <use x="272.460938" xlink:href="#ArialMT-115"/>
      <use x="322.460938" xlink:href="#ArialMT-116"/>
      <use x="350.244141" xlink:href="#ArialMT-97"/>
      <use x="405.859375" xlink:href="#ArialMT-110"/>
      <use x="461.474609" xlink:href="#ArialMT-100"/>
     </g>
    </g>
    <g id="line2d_95">
     <path d="M 963.320922 274.673066 
L 992.320922 274.673066 
" style="fill:none;stroke:#da8bc3;stroke-linecap:round;stroke-width:0.5;"/>
    </g>
    <g id="line2d_96">
     <g>
      <use style="fill:#da8bc3;stroke:#da8bc3;" x="977.820922" xlink:href="#m4c18683695" y="274.673066"/>
     </g>
    </g>
    <g id="text_49">
     <!-- staythefhome -->
     <g style="fill:#262626;" transform="translate(1003.920922 279.748066)scale(0.145 -0.145)">
      <use xlink:href="#ArialMT-115"/>
      <use x="50" xlink:href="#ArialMT-116"/>
      <use x="77.783203" xlink:href="#ArialMT-97"/>
      <use x="133.398438" xlink:href="#ArialMT-121"/>
      <use x="183.398438" xlink:href="#ArialMT-116"/>
      <use x="211.181641" xlink:href="#ArialMT-104"/>
      <use x="266.796875" xlink:href="#ArialMT-101"/>
      <use x="322.412109" xlink:href="#ArialMT-102"/>
      <use x="350.195312" xlink:href="#ArialMT-104"/>
      <use x="405.810547" xlink:href="#ArialMT-111"/>
      <use x="461.425781" xlink:href="#ArialMT-109"/>
      <use x="544.726562" xlink:href="#ArialMT-101"/>
     </g>
    </g>
    <g id="line2d_97">
     <path d="M 963.320922 295.53041 
L 992.320922 295.53041 
" style="fill:none;stroke:#8c8c8c;stroke-linecap:round;stroke-width:0.5;"/>
    </g>
    <g id="line2d_98">
     <g>
      <use style="fill:#8c8c8c;stroke:#8c8c8c;" x="977.820922" xlink:href="#mf2b99ffd19" y="295.53041"/>
     </g>
    </g>
    <g id="text_50">
     <!-- sammenhverforsig -->
     <g style="fill:#262626;" transform="translate(1003.920922 300.60541)scale(0.145 -0.145)">
      <use xlink:href="#ArialMT-115"/>
      <use x="50" xlink:href="#ArialMT-97"/>
      <use x="105.615234" xlink:href="#ArialMT-109"/>
      <use x="188.916016" xlink:href="#ArialMT-109"/>
      <use x="272.216797" xlink:href="#ArialMT-101"/>
      <use x="327.832031" xlink:href="#ArialMT-110"/>
      <use x="383.447266" xlink:href="#ArialMT-104"/>
      <use x="439.0625" xlink:href="#ArialMT-118"/>
      <use x="489.0625" xlink:href="#ArialMT-101"/>
      <use x="544.677734" xlink:href="#ArialMT-114"/>
      <use x="577.978516" xlink:href="#ArialMT-102"/>
      <use x="605.761719" xlink:href="#ArialMT-111"/>
      <use x="661.376953" xlink:href="#ArialMT-114"/>
      <use x="694.677734" xlink:href="#ArialMT-115"/>
      <use x="744.677734" xlink:href="#ArialMT-105"/>
      <use x="766.894531" xlink:href="#ArialMT-103"/>
     </g>
    </g>
    <g id="line2d_99">
     <path d="M 963.320922 316.211035 
L 992.320922 316.211035 
" style="fill:none;stroke:#ccb974;stroke-linecap:round;stroke-width:0.5;"/>
    </g>
    <g id="line2d_100">
     <g>
      <use style="fill:#ccb974;stroke:#ccb974;" x="977.820922" xlink:href="#m302c15c271" y="316.211035"/>
     </g>
    </g>
    <g id="text_51">
     <!-- politidk -->
     <defs>
      <path d="M 6.59375 -19.875 
L 6.59375 51.859375 
L 14.59375 51.859375 
L 14.59375 45.125 
Q 17.4375 49.078125 21 51.046875 
Q 24.5625 53.03125 29.640625 53.03125 
Q 36.28125 53.03125 41.359375 49.609375 
Q 46.4375 46.1875 49.015625 39.953125 
Q 51.609375 33.734375 51.609375 26.3125 
Q 51.609375 18.359375 48.75 11.984375 
Q 45.90625 5.609375 40.453125 2.21875 
Q 35.015625 -1.171875 29 -1.171875 
Q 24.609375 -1.171875 21.109375 0.6875 
Q 17.625 2.546875 15.375 5.375 
L 15.375 -19.875 
z
M 14.546875 25.640625 
Q 14.546875 15.625 18.59375 10.84375 
Q 22.65625 6.0625 28.421875 6.0625 
Q 34.28125 6.0625 38.453125 11.015625 
Q 42.625 15.96875 42.625 26.375 
Q 42.625 36.28125 38.546875 41.203125 
Q 34.46875 46.140625 28.8125 46.140625 
Q 23.1875 46.140625 18.859375 40.890625 
Q 14.546875 35.640625 14.546875 25.640625 
z
" id="ArialMT-112"/>
     </defs>
     <g style="fill:#262626;" transform="translate(1003.920922 321.286035)scale(0.145 -0.145)">
      <use xlink:href="#ArialMT-112"/>
      <use x="55.615234" xlink:href="#ArialMT-111"/>
      <use x="111.230469" xlink:href="#ArialMT-108"/>
      <use x="133.447266" xlink:href="#ArialMT-105"/>
      <use x="155.664062" xlink:href="#ArialMT-116"/>
      <use x="183.447266" xlink:href="#ArialMT-105"/>
      <use x="205.664062" xlink:href="#ArialMT-100"/>
      <use x="261.279297" xlink:href="#ArialMT-107"/>
     </g>
    </g>
    <g id="line2d_101">
     <path d="M 963.320922 336.721738 
L 992.320922 336.721738 
" style="fill:none;stroke:#64b5cd;stroke-linecap:round;stroke-width:0.5;"/>
    </g>
    <g id="line2d_102">
     <g>
      <use style="fill:#64b5cd;stroke:#64b5cd;" x="977.820922" xlink:href="#m77b3a06c85" y="336.721738"/>
     </g>
    </g>
    <g id="text_52">
     <!-- hamstring -->
     <g style="fill:#262626;" transform="translate(1003.920922 341.796738)scale(0.145 -0.145)">
      <use xlink:href="#ArialMT-104"/>
      <use x="55.615234" xlink:href="#ArialMT-97"/>
      <use x="111.230469" xlink:href="#ArialMT-109"/>
      <use x="194.53125" xlink:href="#ArialMT-115"/>
      <use x="244.53125" xlink:href="#ArialMT-116"/>
      <use x="272.314453" xlink:href="#ArialMT-114"/>
      <use x="305.615234" xlink:href="#ArialMT-105"/>
      <use x="327.832031" xlink:href="#ArialMT-110"/>
      <use x="383.447266" xlink:href="#ArialMT-103"/>
     </g>
    </g>
   </g>
  </g>
 </g>
 <defs>
  <clipPath id="p0a444ab620">
   <rect height="434.88" width="892.8" x="47.010625" y="27.708574"/>
  </clipPath>
 </defs>
</svg>
